<?xml version="1.0" encoding="UTF-8"?>
<svg xmlns="http://www.w3.org/2000/svg" version="1.1" viewBox="0 0 345.72 202.96">
  <defs>
    <style>
      .cls-1 {
        fill: #eca491;
      }

      .cls-2 {
        fill: #ffefe5;
      }

      .cls-3 {
        fill: #f3752b;
      }

      .cls-4 {
        fill: #fff9f7;
      }

      .cls-5 {
        fill: #fffcfc;
      }

      .cls-6 {
        fill: #26507f;
      }

      .cls-7 {
        fill: #3cc;
      }

      .cls-8 {
        fill: #f3d95e;
      }

      .cls-9 {
        fill: #3e6dab;
      }

      .cls-10 {
        fill: #82c2e1;
      }

      .cls-11 {
        fill: #1b1312;
      }

      .cls-12 {
        fill: #ecaa9c;
      }

      .cls-13 {
        fill: #72c8e2;
      }

      .cls-14 {
        fill: #589fcd;
      }

      .cls-15 {
        fill: #ebb1a8;
      }

      .cls-16 {
        fill: #61a8d2;
      }

      .cls-17 {
        fill: #204160;
      }

      .cls-18 {
        fill: #fff6e1;
      }

      .cls-19 {
        fill: #b5e1eb;
      }

      .cls-20 {
        fill: #eba899;
      }

      .cls-21 {
        fill: #c1d8e1;
      }

      .cls-22 {
        fill: #981e20;
      }

      .cls-23 {
        fill: #527288;
      }

      .cls-24 {
        fill: #5789c7;
      }

      .cls-25 {
        fill: #3265a1;
      }

      .cls-26 {
        fill: #c02727;
      }

      .cls-27 {
        fill: #afd3e9;
      }

      .cls-28 {
        fill: #1b2d3a;
      }
    </style>
  </defs>
  <!-- Generator: Adobe Illustrator 28.6.0, SVG Export Plug-In . SVG Version: 1.2.0 Build 709)  -->
  <g>
    <g id="Layer_1">
      <g id="Layer_1-2" data-name="Layer_1">
        <path class="cls-7" d="M247.92.63c-59.76-6.62-112.83,39.54-118.72,92.67-2.17,19.57,2.4,38.51,12.01,54.95l-40.29,26.83,55.38-7.12c17.53,17.91,42.27,29.77,70.45,33.53,73.71,9.82,117.05-30.8,118.85-84.23C348.13,42.58,307.68,7.25,247.92.63Z"/>
        <g>
          <path class="cls-28" d="M37.34,147.4c-3.33-.96-6.69-1.83-9.97-2.91-5.55-1.83-10.87-4.24-15.43-7.94C3.7,129.87-.22,121.21,0,110.52c.2-9.37,4.59-16.47,11.2-22.56.48-.44.97-.87,1.23-1.11-.74-2.76-1.71-5.34-2.09-8-1.17-8.08.93-15.15,7.3-20.54,4.95-4.19,10.36-7.63,16.84-9.03,1.22-.26,2.46-.49,3.47-.69-.65-1.8-1.57-3.56-1.9-5.43-.97-5.49,1.11-9.97,5.13-13.62,4.33-3.95,9.47-6.59,14.75-9,6.23-2.84,12.27-6.04,17.26-10.8,1.83-1.74,3.23-3.96,4.67-6.07.55-.81.92-1.11,1.84-.69,8.18,3.69,13.31,9.67,14.36,18.81.05.43.51.96.92,1.19,3.77,2.11,7.39,4.4,10.52,7.44,4.58,4.46,6.21,12.19,2.05,18.08,1.83.4,3.66.65,5.39,1.2,7.4,2.39,13.87,6.31,18.73,12.45,3.31,4.18,4.29,9.16,4.01,14.45-.19,3.48-.94,6.76-2.46,9.58,1.14,1.27,2.21,2.53,3.35,3.72,3.79,3.94,7.01,8.28,8.22,13.7,2.41,10.81.61,20.68-6.96,29.17-4.9,5.5-11.22,8.69-17.95,11.2-2.51.94-5.1,1.65-7.66,2.47-2.69.59-5.37,1.18-8.06,1.77-2.88.5-5.75,1-8.63,1.51-1.99.18-3.97.4-5.96.53-4.82.3-9.63.56-14.45.84h-3.21l-13.9-.55c-1.02-.11-2.04-.21-3.06-.32-.63-.07-1.26-.13-1.9-.2-2.36-.33-4.71-.66-7.07-.99-2.88-.54-5.76-1.09-8.64-1.63h0ZM99.71,129.06c.26-.08.52-.17.78-.25,6.61-3.4,10.36-10.54,9.83-17.31-.66-8.37-4.87-14.63-12.58-18.18-6.31-2.91-13.06-4.24-19.97-4.62-3.44-.19-6.9,0-10.34-.07-6.6-.14-12.99,1.06-19.27,2.98-6.57,2-11.83,5.62-14.88,12.01-4.64,9.72-1.13,20.73,8.2,25.5,6.07,3.1,12.5,4.06,19.27,3.47,4.46-.39,8.96-.56,13.45-.54,4.57.02,9.14.53,13.71.58,2.83.03,5.56-.77,8.13-2.01,1.22-.52,2.45-1.05,3.67-1.57h0ZM87.27,46.64c0-1.05-.85-1.93-1.89-1.96-1.12-.03-2.03.87-2,1.97.02,1.05.9,1.91,1.95,1.9,1.05,0,1.93-.88,1.94-1.91ZM116.52,104.84c-1.06,0-1.89.84-1.91,1.9-.02,1.06.8,1.95,1.83,1.98,1.08.03,2.02-.89,2.01-1.97-.01-1.02-.92-1.92-1.93-1.91ZM35.8,140.64c1.26,0,2.32-1.06,2.31-2.34,0-1.24-.99-2.28-2.2-2.3-1.28-.03-2.34.99-2.38,2.28-.04,1.3.98,2.36,2.27,2.37h0ZM42.38,64.63c-1.24-.02-2.09.76-2.14,1.97-.05,1.29.77,2.24,1.99,2.31,1.15.06,2.25-1.02,2.28-2.23.02-1.01-1.03-2.03-2.13-2.05ZM104.56,82.9c-1.17.02-2.1.92-2.1,2.04s.98,2.09,2.07,2.1c1.14.02,2.17-1.01,2.15-2.15-.02-1.12-.97-2.01-2.12-1.99ZM125.11,78.99c1.22,0,2.13-.93,2.08-2.14-.04-.95-1.21-2.04-2.2-2.04-1.1,0-1.98.93-1.97,2.1,0,1.3.79,2.08,2.09,2.08ZM94.21,31.9c-.71-.45-1.16-.94-1.47-.87-.42.1-.74.64-1.1.99.37.35.71.95,1.11.98.36.03.77-.55,1.47-1.1h-.01ZM106.64,142.28c.5-.7,1.05-1.13,1.02-1.51-.03-.36-.66-.67-1.03-1.01-.33.37-.87.71-.94,1.13-.06.32.47.73.95,1.39h0ZM81.12,20.33c-.51.72-1.01,1.12-.97,1.46.04.36.56.84.95.93.24.05.85-.52.87-.85.03-.38-.4-.79-.85-1.54ZM31.54,61.39c-.51.74-1,1.15-.95,1.47.06.36.56.81.96.91.21.06.81-.52.83-.83.02-.37-.39-.77-.84-1.55ZM119.02,70.22c-.52-.34-.87-.74-1.16-.7-.31.04-.56.5-.83.77.31.28.6.72.95.78.24.04.57-.45,1.05-.85h0ZM61.73,139.59c-.52-.34-.86-.74-1.15-.7-.3.04-.53.51-.79.8.31.28.58.72.93.78.23.04.56-.46,1.01-.88ZM90.35,53c-.46-.42-.79-.92-1.01-.87-.35.07-.63.51-.93.79.26.28.5.75.8.8.28.04.63-.37,1.14-.71h0ZM126.87,91.92c.4-.53.83-.85.81-1.14-.02-.3-.47-.79-.74-.8-.28,0-.76.44-.8.74-.04.28.37.63.73,1.19h0ZM43.34,87.13c-.52-.36-.9-.82-1.14-.75-.34.1-.58.57-.86.88.3.24.6.66.91.67.29,0,.6-.42,1.08-.8h0ZM55.93,46.41c.41-.52.85-.84.83-1.12-.02-.3-.47-.58-.73-.87-.29.26-.76.5-.81.8-.05.28.36.64.71,1.2h0ZM133.27,102.38c-.44-.39-.73-.84-1-.83-.29,0-.82.49-.79.69.06.37.46.69.71,1.03.3-.25.6-.49,1.08-.89h0ZM79.87,135.77c-.57-.34-.93-.73-1.21-.68-.29.05-.52.52-.77.81.29.25.57.69.87.7.28,0,.59-.42,1.1-.84h0ZM18.73,122.51c-.47-.38-.74-.77-1-.76-.28,0-.74.36-.77.6-.04.25.34.8.55.8.33,0,.67-.32,1.22-.64ZM125.41,123.44c-.48-.31-.78-.66-1.04-.64-.28.03-.52.41-.77.64.28.27.52.67.85.77.18.06.51-.39.97-.78h-.01ZM36.3,85.6c-.52-.35-.83-.73-1.11-.7-.26.03-.48.47-.72.73.26.23.51.63.78.65.26.02.56-.34,1.05-.68ZM41.24,81.76c-.48-.38-.76-.78-1.04-.78-.25,0-.51.43-.76.67.24.25.45.66.72.7.27.04.58-.3,1.08-.6h0ZM108.11,69.11c.31-.52.67-.85.61-1.09-.07-.28-.49-.48-.77-.71-.23.27-.62.53-.63.81-.01.25.39.52.78.99h0ZM73.7,31.91c-.32.48-.69.79-.66,1.06.03.26.48.66.73.65.25,0,.69-.45.69-.7,0-.28-.4-.56-.76-1.01Z"/>
          <path class="cls-21" d="M53.05,150.02c.63.07,1.26.13,1.9.2,1.03,1.36,1.82,1.44,3.06.32,4.63.18,9.27.37,13.9.55-.31.92-.23,1.83.67,2.26.53.26,1.39.25,1.92,0,.9-.44,1-1.34.62-2.26,4.82-.28,9.64-.53,14.45-.84,1.99-.13,3.98-.35,5.96-.53.24.37.59.71.69,1.11.19.74.22,1.52.32,2.29.18,2.62.36,5.23.54,7.85-.01.72-.03,1.45-.04,2.17-1.4-1.24-3.01-1.08-3.28.4-.1.57.16,1.42.57,1.83.76.75,1.68.45,2.48-.15-.07,1.99-1.08,3.04-3.54,3.33-2.39.29-4.81.39-7.21.57.28-.32.78-.63.79-.96.03-.67,0-1.54-.39-1.96-.36-.38-1.39-.56-1.85-.31-.53.27-1.07,1.13-1.05,1.71.05,1.29,1.07,1.64,2.24,1.59-1.33.17-2.66.33-3.98.5-2.26.25-4.51.5-6.77.75-1.75.09-3.5.18-5.25.27-2.26.09-4.52.17-6.78.26-.97,0-1.95-.02-2.92-.03.08-1.53-.41-2.27-1.56-2.35-1.08-.07-1.69.54-1.83,1.83-1.41-.36-2.4-1.21-2.73-2.63-.3-1.33-.42-2.7-.63-4.05.27.14.56.43.8.39.67-.11,1.58-.16,1.9-.6.34-.45.35-1.47.06-1.98-.26-.45-1.14-.73-1.75-.72-.45,0-.88.6-1.33.93-.09-2.35-.18-4.7-.27-7.05.09-1.56.18-3.13.26-4.69h.03ZM79.74,161.26c.92.03,1.78-.74,1.84-1.65.07-.98-.73-1.85-1.73-1.88-.95-.03-1.78.71-1.85,1.64-.07.94.78,1.86,1.74,1.89ZM70.67,164.23c0-1.02-.71-1.78-1.68-1.79-.96,0-1.76.75-1.8,1.7-.04,1.04.73,1.83,1.77,1.83s1.7-.71,1.7-1.74h.01ZM91.33,154.39c0-1.06-.75-1.8-1.81-1.77-.99.02-1.67.76-1.66,1.77.01,1.02.7,1.68,1.74,1.68s1.73-.67,1.73-1.69h0ZM65.15,157.38c-.01-1.01-.71-1.69-1.74-1.69s-1.71.68-1.72,1.69c0,1.06.76,1.82,1.79,1.78.99-.04,1.67-.78,1.66-1.79h.01Z"/>
          <path class="cls-26" d="M83.73,185.59c.34.18.96.33.99.55.48,3.85.89,7.7,1.31,11.56-.62.18-1.24.36-1.86.55-4.51,1.33-8.9,3.31-13.8,2.6-.15-.39-.31-.78-.33-.85-3.92.4-7.75.8-11.59,1.14-.66.06-1.34-.18-2.01-.29,3.98.17,7.88-.44,11.73-1.36.58-.14,1.59-.7,1.55-.87-.29-1.21-1.26-.43-1.79-.3-3.27.77-6.54,1.4-9.92,1.21-.94-.05-1.88,0-2.82-.02.03-1.2-.19-2.46.13-3.57.66-2.31,3.14-3.45,5.84-2.92.24.05.48.13,1,.27,0-1.72.06-3.29-.03-4.86-.04-.75.08-1.19.87-1.27,2.37-.35,4.74-.7,7.1-1.04.85-.07,1.01.44,1,1.15-.01,2.64,0,5.28,0,8.24,1.95-1.31,3.65-1.48,5.69-.67,0-.92.11-1.69-.02-2.41-.27-1.53-.62-3.04-1.02-4.54-.23-.87,0-1.35.86-1.53,2.37-.25,4.74-.51,7.12-.76h0Z"/>
          <path class="cls-12" d="M52.79,154.71c.09,2.35.18,4.7.27,7.05,0,.08,0,.16-.04.23-1.17.41-2.27.55-3.18-.61-.16-.2-.69-.18-1.04-.16-2.44.11-4.86.12-7.2-.76-3.18-1.19-5.12-3.76-5.01-7.17.06-1.97.49-3.93.76-5.9,2.88.54,5.76,1.09,8.64,1.63-.07.21-.14.41-.2.62-1,3.16-.02,4.49,3.32,4.54.3,0,.61-.04.91,0,.93.15,1.85.34,2.78.52h0Z"/>
          <path class="cls-12" d="M97.09,160.98c-.18-2.62-.36-5.23-.54-7.85,3.5.03,6.53-1.92,7.61-4.91,2.69-.59,5.37-1.18,8.06-1.77.29,3.13-1.3,5.55-3.24,7.68-1.48,1.62-3.33,2.9-4.98,4.36-.36.32-.82.72-.9,1.15-.6,3.07-3.56,3.74-5.68,1.57-.09-.09-.21-.15-.31-.23h-.02Z"/>
          <path class="cls-12" d="M83.73,185.59c-2.37.25-4.74.51-7.12.76-.52-5.31-1.04-10.61-1.56-15.92,2.26-.25,4.51-.5,6.77-.75.63,5.3,1.27,10.6,1.9,15.9h.01Z"/>
          <path class="cls-12" d="M70.11,186.12c-2.37.35-4.74.7-7.1,1.04-.09-3.53-.22-7.06-.25-10.58,0-1.87.17-3.74.27-5.61,2.26-.09,4.52-.17,6.78-.26.1,5.14.2,10.27.3,15.41Z"/>
          <path class="cls-22" d="M70.37,200.84c4.9.71,9.29-1.27,13.8-2.6.62-.18,1.24-.36,1.86-.55.61.89-.27,1.13-.69,1.57-.58.15-1.17.3-1.75.46-4.09,1.12-8.07,2.77-12.44,2.43-.73-.16-.95-.62-.78-1.31Z"/>
          <path class="cls-22" d="M55.2,199.51c.94,0,1.88-.04,2.82.02,3.38.19,6.65-.44,9.92-1.21.53-.12,1.5-.91,1.79.3.04.16-.97.73-1.55.87-3.85.91-7.75,1.52-11.73,1.36h.02c-.18-.09-.37-.17-.55-.26-.24-.36-.47-.72-.71-1.08h-.01Z"/>
          <path class="cls-26" d="M71.15,202.15c4.37.34,8.36-1.3,12.44-2.43.58-.16,1.17-.31,1.75-.46-1.15.62-2.24,1.49-3.47,1.82-2.74.73-5.54,1.27-8.34,1.71-.74.12-1.59-.41-2.38-.64h0Z"/>
          <path class="cls-8" d="M85.81,169.18c-1.17.06-2.2-.3-2.24-1.59-.02-.58.52-1.44,1.05-1.71.47-.24,1.49-.07,1.85.31.39.42.42,1.29.39,1.96-.02.33-.51.64-.79.96-.08.02-.17.04-.25.06h-.01Z"/>
          <path class="cls-8" d="M53.02,162c.03-.08.04-.15.04-.23.44-.33.88-.92,1.33-.93.6,0,1.49.28,1.75.72.3.51.28,1.53-.06,1.98-.33.44-1.23.49-1.9.6-.24.04-.53-.25-.8-.39-.12-.58-.23-1.17-.35-1.75h-.01Z"/>
          <path class="cls-8" d="M96.82,165.22c-.8.61-1.72.91-2.48.15-.41-.41-.68-1.26-.57-1.83.27-1.48,1.88-1.64,3.28-.4-.08.69-.15,1.38-.23,2.08Z"/>
          <path class="cls-8" d="M56.72,170.43c.14-1.29.75-1.9,1.83-1.83,1.14.08,1.64.82,1.56,2.35-1.13-.17-2.26-.34-3.39-.51h0Z"/>
          <path class="cls-26" d="M55.91,200.6c.18.09.37.17.55.26-.18-.09-.37-.17-.55-.26Z"/>
          <path class="cls-15" d="M96.04,130.63c-2.57,1.25-5.3,2.05-8.13,2.01-4.57-.06-9.14-.56-13.71-.58-4.48-.02-8.98.14-13.45.54-6.77.59-13.2-.37-19.27-3.47-9.34-4.77-12.84-15.78-8.2-25.5,3.05-6.4,8.31-10.01,14.88-12.01,6.28-1.91,12.67-3.11,19.27-2.98,3.45.07,6.9-.11,10.34.07,6.91.38,13.66,1.71,19.97,4.62,7.71,3.55,11.92,9.81,12.58,18.18.53,6.77-3.22,13.91-9.83,17.31.11-.64.13-1.31.34-1.92.96-2.9,1.03-5.83.52-8.81-.15-.85.14-1.89-.26-2.56-1.19-2.03-2.85-3.61-5.32-4.04-.9-.36-1.79-.73-2.69-1.09.53-1.07,1.15-2.11,1.57-3.23.35-.96.47-2,.69-3.01.49-.52.99-1.05,1.48-1.57,1.03-.36,2.06-.71,3.08-1.07,1.72-.6,2.31-1.62,1.83-3.18-.4-1.33-1.89-1.96-3.42-1.48-.99.31-1.99.65-3.01.83-.37.07-1.12-.21-1.19-.46-.5-1.89-2.11-2.71-3.44-3.8-2.75-2.24-6.15-2.51-9.4-2.5-2.84.02-4.63,2.37-6.16,4.58-.75,1.08-1.61,1.42-2.88,1.28-1.15-.13-2.32-.11-3.48,0-1.4.13-2.42-.04-3.3-1.43-1.33-2.12-3.11-4-5.73-4.41-1.36-.21-2.85.1-4.24.38-3.63.74-6.82,2.23-8.82,5.62-.23.38-.97.74-1.41.67-1.15-.18-2.26-.61-3.39-.91-1.27-.33-2.53.43-2.94,1.74-.43,1.38.05,2.39,1.44,2.89.82.3,1.66.52,2.49.78.52.32,1.04.64,1.56.97.95,1.17,1.61,2.42,1.64,4.01.02,1.19.52,2.31,1.64,2.97,1.45.86,2.88,1.82,4.43,2.46,1.34.55,2.83.99,4.26,1,1.84,0,3.69-.43,5.52-.76,3.03-.54,4.78-2.28,5.29-5.34.28-1.67.37-3.36.59-5.04.12-.95.21-1.99,1.33-2.34,1.16-.36,2.2-.04,2.9.95.42.58.76,1.28.91,1.98.21.97.19,1.99.32,2.98.47,3.66,1.65,5.9,4.82,6.65,3.54.83,7.06,1.63,10.62.17-.14.79-.35,1.47-1.28,1.76-.47.15-.86.58-1.25.92-1.03.89-1.53,2.51-1.21,3.49.59,1.8,1,3.67,1.69,5.44.66,1.72,1.36,3.52,3.57,3.91.5.09.94.46,1.43.63,1.21.41,2.44.76,3.65,1.17.28.1.5.35.75.53h0ZM38.65,125.89c.53.23,1.16.34,1.58.7,2.95,2.48,4.5,2.13,7.09.54,1.67-1.02,2.16-2.95,2.58-4.81.35-1.56.89-3.09-.26-4.55l-.25-1.57c-.08-.72.11-1.78-.28-2.09-2.46-1.9-6.51-3.21-9.15.52-.59.48-1.28.88-1.77,1.45-1.01,1.17-2.36,2.13-2.69,3.79.05.4.07.81.17,1.2.37,1.43,2.3,2.27,1.52,4.13.66-.2,1.15.03,1.46.69-.14.08-.27.17-.41.25.05.05.1.1.16.16.08-.14.17-.27.25-.41ZM72.79,118.97s.07,0,.1.01c-.12.81-.06,1.71-.41,2.41-.37.73-1.08,1.67-1.75,1.77-.69.11-1.83-.5-2.22-1.13-.6-.98-.68-2.26-1.07-3.38-.15-.42-.53-.76-.8-1.14-.32.39-.92.77-.92,1.16,0,2.01.54,3.88,2.09,5.28,2.04,1.85,4.99,1.32,6.02-1.23.52-1.28.57-2.77.69-4.17.06-.68,0-1.71-.98-1.69-1.09.03-.8,1.01-.78,1.72,0,.13.02.26.03.39h0Z"/>
          <path class="cls-20" d="M96.04,130.63c-.25-.18-.47-.44-.75-.53-1.21-.41-2.44-.76-3.65-1.17-.49-.17-.93-.54-1.43-.63-2.21-.39-2.91-2.19-3.57-3.91-.68-1.77-1.1-3.63-1.69-5.44-.32-.97.18-2.59,1.21-3.49.39-.34.78-.77,1.25-.92.92-.29,1.14-.97,1.28-1.76,1.13-.74,2.25-1.5,3.4-2.2.27-.16.65-.13.99-.19.9.36,1.79.73,2.69,1.09.77.6,1.66,1.1,2.27,1.83.84,1,1.66,2.09,2.13,3.29.5,1.27.58,2.7.84,4.06-.51-.26-1.02-.52-1.53-.79-.19-1.04-.38-2.08-.57-3.12-.1-.55,0-1.33-.32-1.61-1.35-1.13-2.8-2.13-4.26-3.12-.93-.63-1.74.03-2.56.39-.16.07-.36.03-.5.12-.67.4-1.53.68-1.96,1.26-.81,1.11-2.11,2.13-1.43,3.84.05.13-.09.33-.12.5-.57,2.73.65,5.81,2.94,7.32,2.15,1.42,4.14,1.88,7.33-.31.83-.57,1.48-1.41,2.21-2.13-.15,1.78.39,3.65-.66,5.33-.1.15.09.48.15.73-1.22.52-2.45,1.05-3.67,1.57h-.02Z"/>
          <path class="cls-12" d="M101,120.65c-.26-1.36-.34-2.79-.84-4.06-.47-1.2-1.29-2.29-2.13-3.29-.61-.73-1.5-1.23-2.27-1.83,2.47.43,4.13,2.01,5.32,4.04.39.67.11,1.71.26,2.56.52,2.98.44,5.91-.52,8.81-.2.61-.23,1.28-.34,1.92-.26.08-.52.17-.78.25-.06-.25-.24-.57-.15-.73,1.05-1.68.51-3.55.66-5.33.26-.78.52-1.57.78-2.35h0Z"/>
          <path class="cls-16" d="M87.27,46.64c0,1.04-.89,1.9-1.94,1.91-1.05,0-1.92-.85-1.95-1.9-.02-1.1.88-2,2-1.97,1.04.02,1.9.91,1.89,1.96Z"/>
          <path class="cls-16" d="M116.52,104.84c1.02,0,1.92.89,1.93,1.91.01,1.07-.93,2-2.01,1.97-1.03-.03-1.85-.91-1.83-1.98.02-1.06.85-1.9,1.91-1.9Z"/>
          <path class="cls-16" d="M35.8,140.64c-1.29,0-2.31-1.07-2.27-2.37.04-1.29,1.1-2.31,2.38-2.28,1.21.03,2.2,1.06,2.2,2.3s-1.06,2.36-2.31,2.34h0ZM35.82,136.84c-1.02.04-1.41.56-1.43,1.5-.02,1.01.56,1.42,1.44,1.45.91.03,1.49-.53,1.51-1.42.02-.98-.63-1.44-1.52-1.53Z"/>
          <path class="cls-25" d="M42.38,64.63c1.1.02,2.16,1.03,2.13,2.05-.03,1.21-1.13,2.28-2.28,2.23-1.22-.06-2.04-1.02-1.99-2.31.05-1.21.9-1.99,2.14-1.97ZM43.65,66.76c0-.87-.37-1.38-1.24-1.41-.89-.03-1.41.36-1.42,1.3,0,.92.45,1.37,1.36,1.37.86,0,1.27-.46,1.3-1.26Z"/>
          <path class="cls-8" d="M75.12,151.09c.37.92.28,1.82-.62,2.26-.53.26-1.39.26-1.92,0-.9-.43-.98-1.35-.67-2.26h3.21Z"/>
          <path class="cls-9" d="M104.56,82.9c1.15-.02,2.11.87,2.12,1.99.02,1.14-1.01,2.17-2.15,2.15-1.09-.02-2.07-1.01-2.07-2.1s.93-2.02,2.1-2.04ZM104.25,86.61c.21,0,.41,0,.62.01.39-.52.98-.99,1.11-1.56.2-.89-.4-1.53-1.31-1.58-.91-.06-1.61.53-1.51,1.41.07.61.71,1.16,1.09,1.73h0Z"/>
          <path class="cls-17" d="M125.11,78.99c-1.3,0-2.09-.78-2.09-2.08,0-1.17.87-2.1,1.97-2.1.99,0,2.16,1.09,2.2,2.04.05,1.21-.85,2.14-2.08,2.14ZM126.66,77.21c-.25-1.21-.71-1.68-1.62-1.63s-1.61.59-1.43,1.45c.11.54.9,1.3,1.4,1.31.54.01,1.1-.73,1.65-1.14h0Z"/>
          <path class="cls-27" d="M94.21,31.9c-.69.55-1.1,1.13-1.47,1.1-.39-.03-.74-.63-1.11-.98.36-.35.68-.89,1.1-.99.31-.08.76.42,1.47.87h.01Z"/>
          <path class="cls-27" d="M106.64,142.28c-.48-.66-1.01-1.08-.95-1.39.07-.42.6-.76.94-1.13.37.33,1,.65,1.03,1.01.03.38-.51.81-1.02,1.51h0Z"/>
          <path class="cls-10" d="M81.12,20.33c.44.75.87,1.16.85,1.54-.02.32-.63.9-.87.85-.39-.08-.91-.56-.95-.93-.04-.34.47-.75.97-1.46Z"/>
          <path class="cls-10" d="M31.54,61.39c.45.78.86,1.18.84,1.55-.02.32-.62.89-.83.83-.39-.1-.9-.55-.96-.91-.05-.32.44-.73.95-1.47Z"/>
          <path class="cls-14" d="M119.02,70.22c-.48.41-.81.9-1.05.85-.35-.06-.63-.5-.95-.78.28-.27.53-.73.83-.77.29-.04.64.36,1.16.7h0Z"/>
          <path class="cls-14" d="M61.73,139.59c-.46.42-.78.92-1.01.88-.34-.06-.62-.5-.93-.78.26-.28.5-.76.79-.8.29-.04.63.37,1.15.7Z"/>
          <path class="cls-8" d="M58.01,150.54c-1.23,1.12-2.03,1.04-3.06-.32,1.02.11,2.04.21,3.06.32Z"/>
          <path class="cls-14" d="M90.35,53c-.51.34-.86.75-1.14.71-.3-.04-.54-.51-.8-.8.31-.28.58-.72.93-.79.22-.04.55.46,1.01.87h0Z"/>
          <path class="cls-14" d="M126.87,91.92c-.36-.56-.77-.91-.73-1.19.04-.3.52-.75.8-.74.27,0,.72.5.74.8.02.29-.41.61-.81,1.14h0Z"/>
          <path class="cls-14" d="M43.34,87.13c-.49.38-.79.8-1.08.8-.31,0-.61-.43-.91-.67.28-.31.52-.79.86-.88.24-.07.62.39,1.14.75h0Z"/>
          <path class="cls-14" d="M55.93,46.41c-.36-.56-.76-.92-.71-1.2.05-.3.53-.54.81-.8.26.29.71.57.73.87.02.29-.42.6-.83,1.12h0Z"/>
          <path class="cls-23" d="M133.27,102.38c-.48.4-.78.64-1.08.89-.26-.34-.65-.66-.71-1.03-.03-.2.5-.68.79-.69.27,0,.56.44,1,.83h0Z"/>
          <path class="cls-14" d="M79.87,135.77c-.52.42-.82.85-1.1.84-.3,0-.58-.45-.87-.7.25-.29.47-.76.77-.81.28-.05.64.34,1.21.68h0Z"/>
          <path class="cls-23" d="M18.73,122.51c-.56.32-.9.65-1.22.64-.21,0-.58-.55-.55-.8.04-.25.49-.6.77-.6.26,0,.53.38,1,.76Z"/>
          <path class="cls-23" d="M125.41,123.44c-.46.38-.79.83-.97.78-.33-.1-.57-.5-.85-.77.26-.23.5-.62.77-.64.26-.02.56.33,1.04.64h.01Z"/>
          <path class="cls-23" d="M36.3,85.6c-.49.34-.79.71-1.05.68-.28-.02-.52-.42-.78-.65.24-.26.46-.71.72-.73.27-.03.59.35,1.11.7Z"/>
          <path class="cls-23" d="M41.24,81.76c-.5.29-.82.64-1.08.6-.27-.04-.48-.45-.72-.7.25-.24.51-.67.76-.67.28,0,.56.4,1.04.78h0Z"/>
          <path class="cls-23" d="M108.11,69.11c-.39-.47-.79-.74-.78-.99.01-.28.4-.54.63-.81.27.23.7.43.77.71.06.24-.3.57-.61,1.09h0Z"/>
          <path class="cls-23" d="M73.7,31.91c.36.45.76.73.76,1.01,0,.25-.43.69-.69.7-.25,0-.7-.39-.73-.65-.03-.27.34-.58.66-1.06Z"/>
          <path class="cls-8" d="M79.74,161.26c-.96-.03-1.81-.95-1.74-1.89.07-.93.9-1.67,1.85-1.64,1,.03,1.8.9,1.73,1.88-.06.91-.92,1.67-1.84,1.65Z"/>
          <path class="cls-8" d="M70.67,164.23c0,1.03-.7,1.74-1.7,1.74s-1.81-.79-1.77-1.83c.03-.95.84-1.72,1.8-1.7.97,0,1.68.78,1.68,1.79h-.01Z"/>
          <path class="cls-8" d="M91.33,154.39c0,1.01-.69,1.68-1.73,1.69-1.04,0-1.73-.67-1.74-1.68-.01-1.02.67-1.75,1.66-1.77,1.05-.03,1.81.72,1.81,1.77h0Z"/>
          <path class="cls-8" d="M65.15,157.38c.01,1.01-.68,1.75-1.66,1.79-1.04.04-1.8-.72-1.79-1.78,0-1.01.7-1.69,1.72-1.69s1.72.68,1.74,1.69h-.01Z"/>
          <path class="cls-5" d="M93.08,110.39c-.33.06-.72.03-.99.19-1.15.7-2.27,1.46-3.4,2.2-3.57,1.46-7.08.66-10.62-.17-3.17-.75-4.35-2.99-4.82-6.65-.13-.99-.11-2.01-.32-2.98-.15-.7-.49-1.39-.91-1.98-.7-.99-1.74-1.3-2.9-.95-1.13.35-1.21,1.39-1.33,2.34-.22,1.68-.31,3.37-.59,5.04-.51,3.05-2.26,4.8-5.29,5.34-1.83.33-3.68.76-5.52.76-1.43,0-2.92-.44-4.26-1-1.55-.64-2.97-1.6-4.43-2.46-1.11-.66-1.62-1.78-1.64-2.97-.03-1.6-.69-2.84-1.64-4.01.31.1.64.17.94.29.34.14.65.32,1.17.57-.43-1.43-2.1-2.88-3.17-2.9-.87-.01-.7.54-.49,1.07-.83-.26-1.67-.49-2.49-.78-1.38-.5-1.87-1.51-1.44-2.89.41-1.31,1.67-2.07,2.94-1.74,1.13.3,2.24.73,3.39.91.44.07,1.18-.29,1.41-.67,2-3.38,5.19-4.87,8.82-5.62,1.39-.28,2.88-.59,4.24-.38,2.62.4,4.39,2.29,5.73,4.41.87,1.39,1.9,1.56,3.3,1.43,1.15-.11,2.33-.13,3.48,0,1.27.14,2.13-.19,2.88-1.28,1.53-2.21,3.32-4.56,6.16-4.58,3.25-.02,6.65.26,9.4,2.5,1.33,1.09,2.94,1.91,3.44,3.8.07.25.81.52,1.19.46,1.02-.18,2.02-.52,3.01-.83,1.54-.48,3.02.15,3.42,1.48.47,1.56-.11,2.58-1.83,3.18-1.03.36-2.06.71-3.08,1.07-.04-.4-.07-.8-.11-1.19-.35.21-.72.39-1.04.64-.3.24-.57.53-.83.82-.64.73-.43,1.15.49,1.31-.22,1.01-.34,2.05-.69,3.01-.41,1.12-1.04,2.16-1.57,3.23v-.02ZM77.16,102.45c-.02,3.93,3.16,7.16,7.09,7.19,3.97.03,7.32-3.24,7.32-7.13s-3.24-7.07-7.2-7.1c-3.98-.03-7.19,3.11-7.21,7.04ZM56.58,109.63c3.91,0,7.21-3.23,7.21-7.08s-3.13-7.1-7.11-7.15c-4.03-.05-7.29,3.13-7.28,7.11,0,3.89,3.26,7.11,7.18,7.12ZM93.78,107.41c-.15-.07-.31-.14-.46-.2-.79.8-1.59,1.6-2.38,2.4.59.17,1.42.25,1.81-.13.52-.51.7-1.36,1.03-2.07ZM65.18,109.82c-.15-.09-.29-.18-.44-.27l-2.48,1.83c.03.12.07.25.1.37.56-.13,1.22-.11,1.64-.42.5-.36.79-1,1.17-1.51h.01Z"/>
          <path class="cls-1" d="M35.5,119.87c.33-1.66,1.68-2.62,2.69-3.79.49-.57,1.17-.97,1.77-1.45.42-.19.87-.33,1.25-.59,1.73-1.15,3.66-1.02,5.51-.65.71.14,1.28,1.04,1.87,1.64.32.34.54.77.81,1.16.08.52.17,1.05.25,1.57-.18.29-.37.57-.55.86-.44-.42-1.06-1.03-1.43-.22-.3.65-.13,1.57.03,2.33.04.22.76.3,1.17.44.68,1.59.18,2.65-1.29,3.56-1.58.98-2.76,2.36-5.06,1.27-2.35-1.11-4.36-2.37-5.68-4.64-.33-.57-.88-1.01-1.33-1.5h0ZM43.35,119.82c0,.35-.1.74.02,1.04.17.41.5.75.76,1.12.27-.37.66-.71.77-1.12.18-.66.29-1.38.2-2.05-.06-.42-.53-.79-.82-1.18-.31.29-.75.53-.9.89-.16.37-.03.86-.04,1.29h.01ZM40.96,117.91c-.07-.08-.3-.57-.59-.61-.31-.04-.95.32-.97.55-.08.83,0,1.69.12,2.52.03.17.59.42.82.36.25-.07.55-.45.59-.73.09-.57.03-1.17.03-2.08h0Z"/>
          <path class="cls-12" d="M49.1,118.63c.18-.29.37-.57.55-.86,1.14,1.46.61,2.99.26,4.55-.42,1.86-.92,3.79-2.58,4.81-2.6,1.59-4.14,1.94-7.09-.54-.42-.36-1.05-.47-1.58-.7h0c-.31-.66-.8-.89-1.46-.69.78-1.86-1.15-2.7-1.52-4.13-.1-.39-.11-.8-.17-1.2.45.5,1,.94,1.33,1.5,1.32,2.27,3.33,3.53,5.68,4.64,2.3,1.09,3.48-.29,5.06-1.27,1.46-.9,1.96-1.97,1.29-3.56.08-.85.16-1.7.23-2.55Z"/>
          <path class="cls-11" d="M72.79,118.97c-.01-.13-.03-.26-.03-.39-.02-.71-.31-1.7.78-1.72.98-.02,1.04,1,.98,1.69-.12,1.41-.17,2.9-.69,4.17-1.03,2.55-3.98,3.08-6.02,1.23-1.55-1.4-2.08-3.28-2.09-5.28,0-.38.6-.77.92-1.16.27.38.65.72.8,1.14.39,1.12.47,2.41,1.07,3.38.39.63,1.53,1.24,2.22,1.13.67-.1,1.38-1.04,1.75-1.77.35-.69.29-1.6.41-2.41-.03,0-.07,0-.1-.01h0Z"/>
          <path class="cls-12" d="M49.4,116.2c-.27-.39-.48-.83-.81-1.16-.58-.6-1.16-1.5-1.87-1.64-1.85-.37-3.78-.5-5.51.65-.38.25-.83.39-1.25.59,2.64-3.73,6.69-2.42,9.15-.52.4.31.2,1.37.28,2.09h.01Z"/>
          <path class="cls-18" d="M42.85,102.12c-.21-.53-.38-1.08.49-1.07,1.07.01,2.75,1.46,3.17,2.9-.51-.25-.83-.43-1.17-.57-.3-.12-.62-.2-.94-.29-.52-.32-1.04-.64-1.56-.97h0Z"/>
          <path class="cls-18" d="M95.34,104.16c-.92-.15-1.13-.58-.49-1.31.26-.29.52-.59.83-.82.32-.25.69-.43,1.04-.64.04.4.07.8.11,1.19-.49.53-.99,1.05-1.48,1.57h-.01Z"/>
          <path class="cls-12" d="M38.65,125.89c-.08.14-.17.27-.25.41-.05-.05-.1-.1-.16-.16.14-.08.27-.17.41-.25h0Z"/>
          <path class="cls-1" d="M101,120.65c-.26.78-.52,1.57-.78,2.35-.73.72-1.38,1.56-2.21,2.13-3.18,2.19-5.18,1.73-7.33.31-2.29-1.51-3.5-4.59-2.94-7.32.04-.17.18-.37.12-.5-.68-1.71.62-2.73,1.43-3.84.43-.59,1.28-.87,1.96-1.26.14-.08.35-.05.5-.12.82-.36,1.64-1.02,2.56-.39,1.46.99,2.91,1.99,4.26,3.12.33.27.23,1.06.32,1.61-.43.23-1.25.54-1.22.67.23,1,.61,1.95.95,2.92.28-.16.56-.31.83-.47.51.26,1.02.52,1.53.79h.02ZM93.4,118.37c.09.48.13,1.09.33,1.66.09.25.45.52.72.57.21.03.68-.29.67-.43-.06-1.05-.04-2.17-.41-3.12-.23-.59-.99-.36-1.24.32-.1.27-.05.6-.07,1.02v-.02ZM91.71,119.51c-.19-.75-.22-1.31-.48-1.72-.18-.28-.68-.46-1.04-.48-.14,0-.4.58-.42.9-.02.42.07.87.25,1.26.18.41.52.75.79,1.12.32-.38.65-.76.91-1.07h-.01Z"/>
          <path class="cls-4" d="M99.48,119.87c-.28.16-.56.31-.83.47-.34-.97-.73-1.93-.95-2.92-.03-.12.79-.44,1.22-.67.19,1.04.38,2.08.57,3.12h-.01Z"/>
          <path class="cls-19" d="M35.82,136.84c.89.09,1.54.55,1.52,1.53-.02.89-.59,1.45-1.51,1.42-.87-.03-1.45-.43-1.44-1.45.02-.94.41-1.46,1.43-1.5Z"/>
          <path class="cls-24" d="M43.65,66.76c-.03.79-.44,1.25-1.3,1.26-.91,0-1.37-.45-1.36-1.37,0-.94.53-1.33,1.42-1.3.87.03,1.23.54,1.24,1.41Z"/>
          <path class="cls-13" d="M104.25,86.61c-.38-.57-1.02-1.12-1.09-1.73-.1-.87.6-1.46,1.51-1.41.91.06,1.51.7,1.31,1.58-.13.57-.72,1.05-1.11,1.56-.21,0-.41,0-.62-.01h0Z"/>
          <path class="cls-6" d="M126.66,77.21c-.55.41-1.11,1.15-1.65,1.14-.5-.01-1.28-.77-1.4-1.31-.18-.86.51-1.4,1.43-1.45.91-.05,1.37.42,1.62,1.63h0Z"/>
          <path class="cls-3" d="M77.16,102.45c.02-3.93,3.23-7.07,7.21-7.04,3.96.03,7.2,3.22,7.2,7.1s-3.35,7.16-7.32,7.13c-3.92-.03-7.11-3.26-7.09-7.19ZM81.93,97.78c-.29-.09-.65-.3-.77-.21-.73.58-1.43,1.21-2.09,1.87-.08.08.08.49.23.64.09.09.46.07.57-.03.64-.57,1.24-1.18,1.84-1.78.08-.08.1-.23.21-.49h0Z"/>
          <path class="cls-3" d="M56.58,109.63c-3.92,0-7.17-3.23-7.18-7.12,0-3.98,3.25-7.16,7.28-7.11,3.99.05,7.12,3.2,7.11,7.15,0,3.85-3.3,7.08-7.21,7.08ZM54.19,98.02c-1.18-.17-2.89,1.52-2.65,2.57.04.17.79.38.84.31.64-.92,1.21-1.89,1.81-2.88Z"/>
          <path class="cls-18" d="M93.78,107.41c-.33.71-.51,1.56-1.03,2.07-.39.38-1.22.3-1.81.13.79-.8,1.59-1.6,2.38-2.4.15.07.31.14.46.2Z"/>
          <path class="cls-18" d="M65.18,109.82c-.38.52-.68,1.16-1.17,1.51-.43.31-1.09.29-1.64.42-.03-.12-.07-.25-.1-.37l2.48-1.83c.15.09.29.18.44.27h-.01Z"/>
          <path class="cls-4" d="M43.35,119.82c0-.44-.12-.92.04-1.29.15-.36.59-.6.9-.89.29.39.76.76.82,1.18.09.66-.02,1.39-.2,2.05-.11.41-.5.75-.77,1.12-.26-.37-.6-.71-.76-1.12-.12-.3-.02-.69-.02-1.04h-.01Z"/>
          <path class="cls-4" d="M40.96,117.91c0,.92.06,1.51-.03,2.08-.04.28-.34.66-.59.73-.24.06-.8-.19-.82-.36-.13-.83-.2-1.69-.12-2.52.02-.23.66-.59.97-.55.29.04.52.53.59.61h0Z"/>
          <path class="cls-4" d="M49.1,118.63c-.08.85-.16,1.7-.23,2.55-.41-.14-1.13-.22-1.17-.44-.15-.76-.32-1.68-.03-2.33.37-.81.99-.2,1.43.22Z"/>
          <path class="cls-4" d="M93.4,118.37c.02-.42-.03-.75.07-1.02.26-.68,1.01-.91,1.24-.32.37.95.34,2.07.41,3.12,0,.14-.47.47-.67.43-.27-.04-.63-.32-.72-.57-.19-.56-.24-1.17-.33-1.66v.02Z"/>
          <path class="cls-4" d="M91.71,119.51c-.27.31-.59.69-.91,1.07-.27-.37-.6-.71-.79-1.12-.17-.38-.27-.84-.25-1.26.02-.32.29-.91.42-.9.37.02.86.2,1.04.48.26.41.29.98.48,1.72h.01Z"/>
          <path class="cls-2" d="M81.93,97.78c-.11.26-.13.41-.21.49-.6.61-1.2,1.21-1.84,1.78-.12.11-.48.13-.57.03-.15-.15-.3-.57-.23-.64.66-.66,1.35-1.29,2.09-1.87.12-.09.48.12.77.21h0Z"/>
          <path class="cls-2" d="M54.19,98.02c-.61.99-1.17,1.96-1.81,2.88-.05.07-.8-.14-.84-.31-.24-1.05,1.47-2.74,2.65-2.57Z"/>
        </g>
      </g>
    </g>
  </g>
</svg>