<?xml version="1.0" encoding="UTF-8"?>
<svg xmlns="http://www.w3.org/2000/svg" version="1.1" viewBox="0 0 233.92 50.51">
  <defs>
    <style>
      .cls-1 {
        fill: #3cc;
      }

      .cls-2 {
        fill: #fff;
      }

      .cls-3 {
        fill: #111114;
      }
    </style>
  </defs>
  <!-- Generator: Adobe Illustrator 28.6.0, SVG Export Plug-In . SVG Version: 1.2.0 Build 709)  -->
  <g>
    <g id="Layer_1">
      <rect x="0" width="233.92" height="50.51" rx="10.05" ry="10.05"/>
      <g>
        <path class="cls-1" d="M70.73,18.99h8.19c.14,0,.27,0,.4.02.13.01.22.06.29.13.05.06.08.15.1.26.02.11.03.23.03.36s0,.27,0,.4c0,.13,0,.26,0,.37,0,.09,0,.18,0,.27,0,.09,0,.17,0,.25-.03.06-.05.12-.07.18-.02.06-.05.1-.1.14-.1.08-.28.11-.52.1-.25,0-.46,0-.64,0h-3.67c-.2,0-.45,0-.73,0-.28,0-.49.03-.62.1-.08.05-.14.15-.19.29-.03.09-.04.2-.03.34,0,.14,0,.26,0,.36v.91c0,.06,0,.14,0,.23,0,.09,0,.17,0,.23v.21c.03.11.05.21.09.29.03.08.1.13.2.17.06.03.14.04.23.05.09,0,.18,0,.29,0h3.36c.1,0,.22,0,.35,0,.13,0,.27,0,.4,0,.13,0,.25.02.36.03s.19.04.24.08c.13.09.19.26.18.5,0,.25,0,.47,0,.67,0,.1,0,.21,0,.33,0,.12,0,.23-.03.33-.05.14-.12.23-.21.29s-.26.07-.51.07c-.25,0-.46,0-.63,0h-3.12c-.24,0-.48,0-.7.02s-.37.1-.44.27c-.03.04-.04.08-.04.12s0,.08-.02.12v3.67c0,.18,0,.4,0,.66,0,.26-.02.45-.09.56-.04.06-.09.1-.15.12-.06.02-.13.04-.19.07-.09.03-.18.03-.29.02s-.2-.02-.3-.02h-1.1c-.14,0-.27,0-.39,0-.12,0-.22-.04-.29-.1-.09-.06-.14-.16-.14-.29,0-.13,0-.27,0-.41v-11.36c0-.18,0-.39,0-.63,0-.24.02-.41.08-.51.05-.09.15-.15.29-.19.03-.01.05-.02.08,0,.03,0,.05,0,.08,0Z"/>
        <path class="cls-1" d="M91,27.22c.03.08.04.18.04.32s-.01.25-.04.32v.19c-.03.1-.04.2-.03.3,0,.1,0,.2-.03.3-.03.09-.04.17-.06.25-.01.08-.03.16-.04.25-.05.14-.09.28-.13.43s-.09.28-.15.41c-.27.61-.61,1.1-1.04,1.48s-.95.7-1.56.95c-.15.06-.31.11-.47.14-.16.03-.32.07-.48.1-.06.02-.13.04-.21.04s-.15,0-.21.02c-.04,0-.08,0-.12,0-.04,0-.09,0-.12,0-.06.01-.17.02-.3.03-.14,0-.25,0-.32-.03h-.19c-.06-.01-.13-.02-.2,0-.07,0-.14,0-.2-.03-.05-.01-.1-.02-.14-.02s-.1,0-.16-.02c-.13-.04-.25-.07-.38-.1-.13-.03-.25-.06-.36-.11-.15-.05-.29-.1-.43-.15s-.27-.11-.41-.19c-.44-.27-.82-.58-1.14-.93-.32-.35-.58-.78-.8-1.27-.06-.11-.11-.23-.14-.36-.03-.13-.07-.26-.1-.4-.03-.06-.04-.12-.04-.17s-.01-.11-.04-.17c-.03-.1-.04-.21-.04-.31s-.01-.21-.04-.31c-.01-.06-.02-.12-.02-.17v-.17c-.03-.08-.04-.18-.03-.32s.02-.25.05-.32v-.13c.01-.06.02-.13,0-.2,0-.07,0-.14.03-.2.01-.06.02-.12.02-.18s.01-.12.04-.18c.05-.17.09-.33.13-.48s.09-.31.15-.47c.23-.52.5-.95.82-1.3.32-.35.7-.67,1.16-.96.13-.06.26-.12.4-.17.14-.05.28-.11.42-.17.16-.06.33-.11.51-.13.18-.02.36-.06.55-.11.1-.01.2-.02.29-.02s.18,0,.27-.02c.73-.01,1.37.06,1.91.23.54.17,1.02.39,1.43.68.14.1.28.21.43.33.15.12.27.25.37.39.1.13.19.25.28.38.08.13.17.26.26.4.09.14.16.29.21.45s.11.33.17.5c.04.1.07.21.09.32.03.11.05.23.08.34.01.05.02.1.02.15s0,.1.02.15c.03.06.03.13.02.21s0,.15.02.21ZM88.34,27.91c.01-.06.02-.15.02-.28s0-.21-.02-.28v-.15c-.03-.06-.04-.13-.04-.21s0-.15-.02-.21c0-.05,0-.09-.02-.11-.03-.1-.05-.21-.07-.31-.02-.11-.05-.21-.08-.31-.14-.33-.3-.61-.49-.85-.19-.23-.44-.42-.76-.56-.08-.03-.15-.05-.23-.07-.08-.02-.16-.04-.25-.07-.1-.03-.21-.04-.32-.03-.11,0-.23,0-.34,0-.04.03-.08.04-.13.03-.05,0-.09,0-.13,0-.09.03-.17.05-.26.07-.08.02-.16.05-.22.09-.32.14-.57.34-.77.6s-.35.56-.46.9c-.04.13-.07.26-.09.4-.02.14-.04.28-.07.42-.01.06-.02.13-.02.19v.19c-.03.09-.04.22-.03.4,0,.18.02.31.05.4v.17c.03.1.04.2.06.29.01.1.03.19.06.29.13.38.26.69.41.92.15.24.38.45.69.64.09.06.19.11.29.15.11.04.22.07.33.09.05.01.1.02.13,0,.04,0,.08,0,.13,0,.05.01.1.02.16.03.06,0,.11,0,.16,0h.15c.1-.03.2-.04.3-.06s.2-.04.29-.08c.33-.13.6-.3.8-.51.2-.22.37-.48.51-.8.05-.13.09-.25.11-.38.03-.13.06-.26.1-.4.01-.05.02-.1.02-.14s0-.09.02-.14v-.18c0-.06,0-.12.02-.18Z"/>
        <path class="cls-1" d="M93.41,18.98h1.39c.13,0,.25,0,.36.02.11.01.2.05.27.11.08.09.12.21.12.35,0,.15,0,.29,0,.45v11.42c0,.15,0,.33,0,.52,0,.2-.02.35-.08.45-.06.1-.18.17-.34.21-.08.02-.16.03-.26.02s-.19-.02-.28-.02h-.91c-.14,0-.27,0-.38-.02s-.21-.05-.29-.11c-.08-.06-.12-.16-.12-.29,0-.13,0-.27,0-.41v-11.4c0-.17,0-.36,0-.59,0-.23.02-.39.09-.49.03-.05.06-.09.1-.11.04-.03.09-.05.14-.08.02,0,.06,0,.09,0,.04,0,.07,0,.09,0Z"/>
        <path class="cls-1" d="M98.31,18.98h1.39c.13,0,.25,0,.36.02.11.01.2.05.27.11.08.09.12.21.12.35,0,.15,0,.29,0,.45v11.42c0,.15,0,.33,0,.52,0,.2-.02.35-.08.45-.06.1-.18.17-.34.21-.08.02-.16.03-.26.02s-.19-.02-.28-.02h-.91c-.14,0-.27,0-.38-.02s-.21-.05-.29-.11c-.08-.06-.12-.16-.12-.29,0-.13,0-.27,0-.41v-11.4c0-.17,0-.36,0-.59,0-.23.02-.39.09-.49.03-.05.06-.09.1-.11.04-.03.09-.05.14-.08.02,0,.06,0,.09,0,.04,0,.07,0,.09,0Z"/>
        <path class="cls-1" d="M112.41,27.22c.03.08.04.18.04.32s-.01.25-.04.32v.19c-.03.1-.04.2-.03.3,0,.1,0,.2-.03.3-.03.09-.04.17-.06.25-.01.08-.03.16-.04.25-.05.14-.09.28-.13.43s-.09.28-.15.41c-.27.61-.61,1.1-1.04,1.48s-.95.7-1.56.95c-.15.06-.31.11-.47.14-.16.03-.32.07-.48.1-.06.02-.13.04-.21.04s-.15,0-.21.02c-.04,0-.08,0-.12,0-.04,0-.09,0-.12,0-.06.01-.17.02-.3.03-.14,0-.25,0-.32-.03h-.19c-.06-.01-.13-.02-.2,0-.07,0-.14,0-.2-.03-.05-.01-.1-.02-.14-.02s-.1,0-.16-.02c-.13-.04-.25-.07-.38-.1-.13-.03-.25-.06-.36-.11-.15-.05-.29-.1-.43-.15s-.27-.11-.41-.19c-.44-.27-.82-.58-1.14-.93-.32-.35-.58-.78-.8-1.27-.06-.11-.11-.23-.14-.36-.03-.13-.07-.26-.1-.4-.03-.06-.04-.12-.04-.17s-.01-.11-.04-.17c-.03-.1-.04-.21-.04-.31s-.01-.21-.04-.31c-.01-.06-.02-.12-.02-.17v-.17c-.03-.08-.04-.18-.03-.32s.02-.25.05-.32v-.13c.01-.06.02-.13,0-.2,0-.07,0-.14.03-.2.01-.06.02-.12.02-.18s.01-.12.04-.18c.05-.17.09-.33.13-.48s.09-.31.15-.47c.23-.52.5-.95.82-1.3.32-.35.7-.67,1.16-.96.13-.06.26-.12.4-.17.14-.05.28-.11.42-.17.16-.06.33-.11.51-.13.18-.02.36-.06.55-.11.1-.01.2-.02.29-.02s.18,0,.27-.02c.73-.01,1.37.06,1.91.23.54.17,1.02.39,1.43.68.14.1.28.21.43.33.15.12.27.25.37.39.1.13.19.25.28.38.08.13.17.26.26.4.09.14.16.29.21.45s.11.33.17.5c.04.1.07.21.09.32.03.11.05.23.08.34.01.05.02.1.02.15s0,.1.02.15c.03.06.03.13.02.21s0,.15.02.21ZM109.75,27.91c.01-.06.02-.15.02-.28s0-.21-.02-.28v-.15c-.03-.06-.04-.13-.04-.21s0-.15-.02-.21c0-.05,0-.09-.02-.11-.03-.1-.05-.21-.07-.31-.02-.11-.05-.21-.08-.31-.14-.33-.3-.61-.49-.85-.19-.23-.44-.42-.76-.56-.08-.03-.15-.05-.23-.07-.08-.02-.16-.04-.25-.07-.1-.03-.21-.04-.32-.03-.11,0-.23,0-.34,0-.04.03-.08.04-.13.03-.05,0-.09,0-.13,0-.09.03-.17.05-.26.07-.08.02-.16.05-.22.09-.32.14-.57.34-.77.6s-.35.56-.46.9c-.04.13-.07.26-.09.4-.02.14-.04.28-.07.42-.01.06-.02.13-.02.19v.19c-.03.09-.04.22-.03.4,0,.18.02.31.05.4v.17c.03.1.04.2.06.29.01.1.03.19.06.29.13.38.26.69.41.92.15.24.38.45.69.64.09.06.19.11.29.15.11.04.22.07.33.09.05.01.1.02.13,0,.04,0,.08,0,.13,0,.05.01.1.02.16.03.06,0,.11,0,.16,0h.15c.1-.03.2-.04.3-.06s.2-.04.29-.08c.33-.13.6-.3.8-.51.2-.22.37-.48.51-.8.05-.13.09-.25.11-.38.03-.13.06-.26.1-.4.01-.05.02-.1.02-.14s0-.09.02-.14v-.18c0-.06,0-.12.02-.18Z"/>
        <path class="cls-1" d="M113.91,22.7h1.41c.14,0,.27,0,.4,0,.13,0,.23.04.3.09s.14.12.18.2c.04.08.08.18.1.29s.05.21.08.32c.02.11.05.21.08.29.15.44.28.9.39,1.37s.23.93.37,1.39c.03.08.04.15.06.22s.03.14.06.22c.06.19.12.38.16.58.04.2.1.39.16.58.03.09.06.19.09.3.04.11.11.18.21.21.06.01.11-.02.15-.1.04-.08.07-.14.09-.18.06-.18.11-.36.14-.55.03-.19.08-.37.14-.55.04-.11.07-.23.1-.35.02-.12.05-.24.07-.35.09-.3.17-.61.24-.93.07-.32.15-.63.24-.93.04-.14.07-.27.09-.4.03-.13.06-.25.09-.38.05-.19.1-.42.15-.68.05-.27.15-.45.29-.55.09-.05.19-.08.3-.09.11,0,.24,0,.38,0h.99c.15,0,.29,0,.42.02.13.01.23.05.32.11.06.05.11.12.13.2s.05.16.08.24c.05.18.09.35.12.52s.08.35.14.52c.15.49.28,1,.39,1.52.11.52.23,1.03.37,1.52.05.15.09.31.12.47.03.16.07.31.12.45.05.18.1.31.15.4.01.01.03.02.05.03.02,0,.03.02.05.05.11-.01.19-.05.22-.12.03-.07.07-.15.1-.24.08-.2.14-.42.19-.64.05-.22.11-.44.17-.66.04-.13.07-.25.09-.37.03-.12.06-.24.09-.37.14-.39.25-.79.34-1.2s.2-.8.32-1.18c.06-.18.12-.39.17-.64s.13-.42.25-.5c.09-.06.19-.1.3-.11.11-.01.24-.02.38-.02h1.33c.11,0,.21.01.29.04.13.05.2.13.21.25s0,.24-.06.38c-.09.29-.17.57-.26.85-.08.27-.17.55-.28.85-.3.92-.6,1.85-.88,2.78-.29.93-.58,1.86-.88,2.78-.06.2-.12.4-.18.6-.06.2-.12.4-.18.6-.05.14-.1.26-.14.37-.04.11-.13.19-.26.24-.13.06-.29.09-.49.08-.2-.01-.39-.02-.55-.02-.2,0-.46,0-.76,0-.3,0-.52-.02-.65-.09-.08-.06-.13-.14-.17-.22-.04-.08-.07-.17-.1-.28-.06-.18-.11-.35-.14-.52-.03-.17-.07-.34-.12-.52-.04-.11-.07-.23-.09-.35-.03-.12-.06-.24-.11-.37-.11-.37-.21-.75-.29-1.14-.08-.39-.19-.78-.31-1.16-.08-.23-.14-.47-.19-.72-.05-.25-.15-.46-.3-.61-.13,0-.21.05-.24.14-.03.09-.07.19-.1.29-.09.25-.16.51-.2.76-.04.25-.11.51-.2.76-.14.46-.26.92-.35,1.4-.09.47-.21.94-.35,1.4-.03.09-.05.19-.08.3s-.05.22-.08.32-.06.2-.1.29-.1.16-.16.21-.15.08-.27.08c-.11,0-.24,0-.38,0h-1.56c-.08-.01-.15-.03-.21-.04s-.12-.03-.17-.06c-.09-.06-.15-.15-.19-.27-.04-.11-.08-.23-.11-.34-.06-.19-.13-.39-.19-.59-.06-.2-.13-.41-.19-.61-.32-.94-.62-1.87-.9-2.81s-.58-1.87-.88-2.81c-.09-.25-.17-.5-.25-.74-.08-.24-.15-.48-.23-.72-.03-.08-.05-.18-.08-.31-.03-.13-.02-.24.03-.31.04-.05.12-.1.25-.15.08,0,.13,0,.15-.02Z"/>
        <path class="cls-1" d="M145.22,20.67c.29.41.5.86.64,1.35.13.49.18,1.09.14,1.79-.03.28-.07.54-.13.77s-.14.45-.23.66c-.03.05-.05.1-.07.14-.02.04-.04.09-.07.14-.05.09-.1.17-.14.26-.04.08-.1.16-.16.24-.25.35-.56.64-.92.86-.36.22-.77.41-1.23.56-.14.05-.29.08-.44.09-.15.01-.3.04-.46.08-.08.01-.15.02-.23.02s-.15,0-.23.02h-2.9c-.18,0-.33.04-.43.11-.13.09-.19.24-.19.46v3.16c0,.15,0,.32,0,.49,0,.18-.02.32-.09.42-.05.09-.16.16-.34.21-.09.02-.18.03-.29.02s-.2-.02-.3-.02h-1.1c-.14,0-.27,0-.39,0-.12,0-.22-.04-.29-.1s-.12-.16-.13-.29-.02-.27-.02-.41v-11.36c0-.18,0-.39,0-.63,0-.24.02-.41.08-.51.05-.08.15-.14.29-.19.03-.01.05-.02.09,0,.03,0,.06,0,.08,0h5.49c.11,0,.23,0,.34,0,.11,0,.22,0,.32.03h.09c.06.03.13.04.21.04s.15.01.21.04c.06.01.12.02.17.02s.11.01.17.04c.2.06.41.12.61.18.2.06.39.14.57.24.06.05.13.09.21.13s.15.09.23.15c.06.04.12.08.16.12.04.04.1.09.16.14l.11.11c.15.15.28.3.38.46ZM143.13,23.78c.03-.14.03-.31.03-.52,0-.21-.03-.38-.07-.52-.08-.28-.17-.5-.29-.67-.11-.16-.29-.32-.51-.46-.19-.11-.42-.2-.7-.26-.28-.06-.58-.09-.9-.1-.32-.01-.66-.02-1,0s-.67,0-.97,0c-.04.01-.07.02-.1.03-.03,0-.07,0-.1,0-.13.05-.21.13-.25.23-.05.1-.08.24-.08.41v2.77c0,.18.03.33.09.43.05.08.13.13.23.17s.21.06.34.07.26,0,.41,0,.28,0,.41,0c.67,0,1.29-.03,1.84-.09s.98-.29,1.27-.67c.08-.11.14-.24.19-.37.05-.13.1-.28.15-.45Z"/>
        <path class="cls-1" d="M157.44,27.22c.03.08.04.18.04.32s-.01.25-.04.32v.19c-.03.1-.04.2-.03.3,0,.1,0,.2-.03.3-.03.09-.04.17-.06.25-.01.08-.03.16-.04.25-.05.14-.09.28-.13.43s-.09.28-.15.41c-.27.61-.61,1.1-1.04,1.48s-.95.7-1.56.95c-.15.06-.31.11-.47.14-.16.03-.32.07-.48.1-.06.02-.13.04-.21.04s-.15,0-.21.02c-.04,0-.08,0-.12,0-.04,0-.09,0-.12,0-.06.01-.17.02-.3.03-.14,0-.25,0-.32-.03h-.19c-.06-.01-.13-.02-.2,0-.07,0-.14,0-.2-.03-.05-.01-.1-.02-.14-.02s-.1,0-.16-.02c-.13-.04-.25-.07-.38-.1-.13-.03-.25-.06-.36-.11-.15-.05-.29-.1-.43-.15s-.27-.11-.41-.19c-.44-.27-.82-.58-1.14-.93-.32-.35-.58-.78-.8-1.27-.06-.11-.11-.23-.14-.36-.03-.13-.07-.26-.1-.4-.03-.06-.04-.12-.04-.17s-.01-.11-.04-.17c-.03-.1-.04-.21-.04-.31s-.01-.21-.04-.31c-.01-.06-.02-.12-.02-.17v-.17c-.03-.08-.04-.18-.03-.32s.02-.25.05-.32v-.13c.01-.06.02-.13,0-.2,0-.07,0-.14.03-.2.01-.06.02-.12.02-.18s.01-.12.04-.18c.05-.17.09-.33.13-.48s.09-.31.15-.47c.23-.52.5-.95.82-1.3.32-.35.7-.67,1.16-.96.13-.06.26-.12.4-.17.14-.05.28-.11.42-.17.16-.06.33-.11.51-.13.18-.02.36-.06.55-.11.1-.01.2-.02.29-.02s.18,0,.27-.02c.73-.01,1.37.06,1.91.23.54.17,1.02.39,1.43.68.14.1.28.21.43.33.15.12.27.25.37.39.1.13.19.25.28.38.08.13.17.26.26.4.09.14.16.29.21.45s.11.33.17.5c.04.1.07.21.09.32.03.11.05.23.08.34.01.05.02.1.02.15s0,.1.02.15c.03.06.03.13.02.21s0,.15.02.21ZM154.78,27.91c.01-.06.02-.15.02-.28s0-.21-.02-.28v-.15c-.03-.06-.04-.13-.04-.21s0-.15-.02-.21c0-.05,0-.09-.02-.11-.03-.1-.05-.21-.07-.31-.02-.11-.05-.21-.08-.31-.14-.33-.3-.61-.49-.85-.19-.23-.44-.42-.76-.56-.08-.03-.15-.05-.23-.07-.08-.02-.16-.04-.25-.07-.1-.03-.21-.04-.32-.03-.11,0-.23,0-.34,0-.04.03-.08.04-.13.03-.05,0-.09,0-.13,0-.09.03-.17.05-.26.07-.08.02-.16.05-.22.09-.32.14-.57.34-.77.6s-.35.56-.46.9c-.04.13-.07.26-.09.4-.02.14-.04.28-.07.42-.01.06-.02.13-.02.19v.19c-.03.09-.04.22-.03.4,0,.18.02.31.05.4v.17c.03.1.04.2.06.29.01.1.03.19.06.29.13.38.26.69.41.92.15.24.38.45.69.64.09.06.19.11.29.15.11.04.22.07.33.09.05.01.1.02.13,0,.04,0,.08,0,.13,0,.05.01.1.02.16.03.06,0,.11,0,.16,0h.15c.1-.03.2-.04.3-.06s.2-.04.29-.08c.33-.13.6-.3.8-.51.2-.22.37-.48.51-.8.05-.13.09-.25.11-.38.03-.13.06-.26.1-.4.01-.05.02-.1.02-.14s0-.09.02-.14v-.18c0-.06,0-.12.02-.18Z"/>
        <path class="cls-1" d="M169.05,27.22c.03.08.04.18.04.32s-.01.25-.04.32v.19c-.03.1-.04.2-.03.3,0,.1,0,.2-.03.3-.03.09-.04.17-.06.25-.01.08-.03.16-.04.25-.05.14-.09.28-.13.43s-.09.28-.15.41c-.27.61-.61,1.1-1.04,1.48s-.95.7-1.56.95c-.15.06-.31.11-.47.14-.16.03-.32.07-.48.1-.06.02-.13.04-.21.04s-.15,0-.21.02c-.04,0-.08,0-.12,0-.04,0-.09,0-.12,0-.06.01-.17.02-.3.03-.14,0-.25,0-.32-.03h-.19c-.06-.01-.13-.02-.2,0-.07,0-.14,0-.2-.03-.05-.01-.1-.02-.14-.02s-.1,0-.16-.02c-.13-.04-.25-.07-.38-.1-.13-.03-.25-.06-.36-.11-.15-.05-.29-.1-.43-.15s-.27-.11-.41-.19c-.44-.27-.82-.58-1.14-.93-.32-.35-.58-.78-.8-1.27-.06-.11-.11-.23-.14-.36-.03-.13-.07-.26-.1-.4-.03-.06-.04-.12-.04-.17s-.01-.11-.04-.17c-.03-.1-.04-.21-.04-.31s-.01-.21-.04-.31c-.01-.06-.02-.12-.02-.17v-.17c-.03-.08-.04-.18-.03-.32s.02-.25.05-.32v-.13c.01-.06.02-.13,0-.2,0-.07,0-.14.03-.2.01-.06.02-.12.02-.18s.01-.12.04-.18c.05-.17.09-.33.13-.48s.09-.31.15-.47c.23-.52.5-.95.82-1.3.32-.35.7-.67,1.16-.96.13-.06.26-.12.4-.17.14-.05.28-.11.42-.17.16-.06.33-.11.51-.13.18-.02.36-.06.55-.11.1-.01.2-.02.29-.02s.18,0,.27-.02c.73-.01,1.37.06,1.91.23.54.17,1.02.39,1.43.68.14.1.28.21.43.33.15.12.27.25.37.39.1.13.19.25.28.38.08.13.17.26.26.4.09.14.16.29.21.45s.11.33.17.5c.04.1.07.21.09.32.03.11.05.23.08.34.01.05.02.1.02.15s0,.1.02.15c.03.06.03.13.02.21s0,.15.02.21ZM166.39,27.91c.01-.06.02-.15.02-.28s0-.21-.02-.28v-.15c-.03-.06-.04-.13-.04-.21s0-.15-.02-.21c0-.05,0-.09-.02-.11-.03-.1-.05-.21-.07-.31-.02-.11-.05-.21-.08-.31-.14-.33-.3-.61-.49-.85-.19-.23-.44-.42-.76-.56-.08-.03-.15-.05-.23-.07-.08-.02-.16-.04-.25-.07-.1-.03-.21-.04-.32-.03-.11,0-.23,0-.34,0-.04.03-.08.04-.13.03-.05,0-.09,0-.13,0-.09.03-.17.05-.26.07-.08.02-.16.05-.22.09-.32.14-.57.34-.77.6s-.35.56-.46.9c-.04.13-.07.26-.09.4-.02.14-.04.28-.07.42-.01.06-.02.13-.02.19v.19c-.03.09-.04.22-.03.4,0,.18.02.31.05.4v.17c.03.1.04.2.06.29.01.1.03.19.06.29.13.38.26.69.41.92.15.24.38.45.69.64.09.06.19.11.29.15.11.04.22.07.33.09.05.01.1.02.13,0,.04,0,.08,0,.13,0,.05.01.1.02.16.03.06,0,.11,0,.16,0h.15c.1-.03.2-.04.3-.06s.2-.04.29-.08c.33-.13.6-.3.8-.51.2-.22.37-.48.51-.8.05-.13.09-.25.11-.38.03-.13.06-.26.1-.4.01-.05.02-.1.02-.14s0-.09.02-.14v-.18c0-.06,0-.12.02-.18Z"/>
        <path class="cls-1" d="M180.81,27.51c.01.08.02.19.02.34s-.01.26-.04.32v.25c-.04.14-.06.27-.07.4,0,.13-.03.25-.07.38-.03.11-.05.23-.08.35-.03.12-.06.24-.11.35-.09.22-.18.42-.27.6s-.19.36-.3.54c-.08.11-.16.22-.24.31-.08.1-.17.19-.28.29l-.13.13c-.06.06-.13.12-.2.17-.07.05-.14.1-.2.15-.1.08-.21.14-.33.2-.12.06-.24.12-.37.18-.13.06-.26.11-.39.13s-.27.05-.41.08c-.08.03-.16.04-.24.04s-.17.01-.26.04h-.17c-.1.03-.2.03-.29,0h-.19c-.08-.03-.16-.04-.24-.03-.08,0-.16,0-.24-.03-.2-.06-.4-.12-.58-.17-.18-.05-.35-.13-.5-.23-.09-.05-.17-.1-.25-.16-.08-.06-.16-.12-.25-.18-.05-.04-.13-.1-.23-.17-.1-.08-.19-.08-.27-.02-.06.04-.09.09-.09.14s-.01.12-.04.2c-.03.13-.04.27-.03.44,0,.16,0,.32,0,.46v1.94c0,.17,0,.33,0,.48,0,.16-.04.29-.1.39-.04.05-.11.09-.21.11-.1.03-.22.04-.34.05-.13,0-.25,0-.38,0-.13,0-.23,0-.32,0h-.65c-.05,0-.09,0-.13-.02h-.15c-.21-.06-.33-.19-.34-.37s-.02-.4-.02-.66v-11.15c0-.14,0-.29,0-.45,0-.16.02-.28.08-.37.05-.09.12-.15.21-.17.06-.03.14-.04.24-.04h1.55c.11,0,.21.03.29.09.09.06.14.14.14.24,0,.09.04.19.09.29.01.04.03.07.05.08l.07.07c.14.01.25-.03.34-.11.09-.09.18-.17.27-.23.16-.11.33-.22.51-.31s.37-.17.59-.24c.1-.04.21-.06.33-.08.12-.01.24-.03.35-.06.05-.01.1-.01.16,0,.06.01.1,0,.14-.02.72-.03,1.33.07,1.83.29.5.22.93.51,1.28.86.06.06.12.12.17.18s.1.12.15.18c.09.11.17.23.24.34.07.11.14.23.2.34.03.03.04.06.05.09,0,.04.02.08.05.13.08.13.15.28.21.46.03.08.05.16.08.24s.05.17.08.26c.05.15.09.31.1.48.02.17.05.34.09.51,0,.06,0,.13,0,.21,0,.08.02.15.03.23v.21ZM178.13,27.94c.01-.06.02-.15.02-.26s0-.19-.02-.26v-.17c-.03-.08-.04-.16-.04-.25s-.01-.18-.04-.27c-.03-.13-.05-.25-.08-.37-.03-.12-.06-.23-.11-.33-.15-.41-.35-.73-.59-.97-.24-.24-.58-.42-1.03-.53-.1-.02-.21-.04-.33-.04h-.35c-.05.01-.1.02-.13.02s-.08,0-.13.02c-.09.03-.17.05-.26.07-.08.02-.16.05-.24.08-.33.14-.59.35-.77.65-.18.29-.33.61-.45.97-.03.1-.04.21-.06.31s-.03.21-.06.31c-.01.05-.02.13-.02.25-.03.05-.03.11-.02.18.01.07.01.14,0,.2-.03.08-.03.15,0,.21v.4c0,.05.01.1.04.15,0,.09,0,.16.02.21l.04.23c.01.08.03.15.06.23.11.37.25.67.41.9.16.24.38.44.67.62.18.1.39.18.63.25.05.01.1.02.13,0,.04,0,.08,0,.13,0,.05.01.13.02.23.03.1,0,.18,0,.25,0,.1-.03.21-.05.31-.07.11-.02.21-.05.31-.08.3-.13.55-.3.74-.53.19-.23.35-.49.47-.8.06-.15.11-.31.13-.47.02-.17.06-.34.09-.51,0-.06,0-.13,0-.19,0-.06,0-.13,0-.19Z"/>
        <path class="cls-1" d="M182.75,22.72h6.94c.11,0,.23,0,.34,0,.11,0,.2.04.27.09.08.05.14.15.19.29v.29c.03.06.04.14.03.22,0,.08,0,.16,0,.22v.49c0,.17-.03.3-.08.42-.05.1-.11.19-.17.26-.06.07-.13.14-.19.22-.08.1-.16.2-.25.29s-.17.19-.25.29c-.03.03-.05.05-.08.07-.03.02-.05.04-.08.07-.06.09-.14.17-.22.25-.08.08-.16.16-.22.25-.2.27-.42.51-.65.74s-.44.48-.65.74l-.15.15c-.06.09-.14.17-.22.25-.08.08-.16.16-.22.25s-.14.17-.22.25c-.08.08-.16.15-.22.23s-.12.15-.18.21c-.06.06-.12.13-.18.21-.05.06-.1.12-.15.18s-.1.12-.15.18c-.05.05-.09.1-.13.15-.04.05-.07.11-.09.17-.01.03-.02.06-.03.09,0,.04,0,.07.03.09.03.08.07.12.13.12.06,0,.13.02.21.05.13.03.27.04.43.03.16,0,.31,0,.45,0h2.79c.23,0,.44,0,.65.02.2.01.33.11.4.29.03.06.04.13.04.21v.89c0,.24-.06.41-.17.49-.08.06-.17.1-.29.1h-8.08c-.12,0-.23-.03-.31-.1-.08-.06-.12-.16-.13-.3s-.02-.28-.02-.42c0-.18,0-.37,0-.58,0-.21.02-.38.07-.52.03-.08.06-.15.1-.22s.08-.14.13-.2c.1-.11.2-.22.3-.33s.2-.22.3-.35c.06-.06.11-.11.15-.13.18-.24.37-.46.57-.67s.39-.42.57-.65c.05-.06.1-.12.15-.17.05-.05.09-.11.13-.17.06-.09.14-.17.22-.24s.16-.16.22-.26c.03-.03.05-.05.08-.07.02-.02.05-.04.08-.07.06-.1.14-.19.22-.27s.16-.16.22-.25c.03-.04.06-.08.1-.11.04-.04.08-.08.12-.11.1-.14.21-.27.32-.38s.22-.23.32-.36c.06-.09.14-.17.22-.25.08-.08.14-.17.16-.29.03-.08.02-.13-.03-.17-.04-.04-.09-.07-.12-.1-.14-.06-.31-.09-.5-.08s-.38,0-.56,0h-2.05c-.15,0-.31,0-.49,0-.17,0-.31-.02-.41-.08-.11-.06-.18-.18-.19-.36-.01-.18-.02-.35-.02-.53,0-.06,0-.13,0-.21,0-.08,0-.15,0-.21v-.15s.02-.08.03-.13c0-.05.02-.09.05-.11.08-.1.16-.16.25-.17.03-.01.06-.02.09,0,.04,0,.07,0,.09-.03Z"/>
        <path class="cls-1" d="M193.62,19.79h1.27c.19,0,.36,0,.5.03.15.02.25.1.31.24.03.06.04.14.04.23v1.12c0,.06,0,.14,0,.22,0,.08,0,.16,0,.22v.21c0,.1,0,.19.02.28s.04.16.09.22c.09.11.25.17.49.18.23,0,.46,0,.67,0h.23c.08,0,.15.01.21.04.14.06.22.18.24.34.02.17.03.35.03.55,0,.09,0,.18,0,.27,0,.09,0,.17-.03.23-.06.2-.2.31-.4.32-.2.01-.43.02-.68.02-.05,0-.1,0-.16,0-.06,0-.1,0-.14,0-.05.01-.09.02-.13,0-.04,0-.08,0-.11.03-.1.03-.17.08-.22.16-.04.08-.08.18-.1.29-.01.06-.01.13,0,.21.01.08.01.15,0,.21v3.4c0,.32,0,.59.03.83.02.24.1.44.24.62.06.08.15.13.26.16.11.03.22.06.33.09.04.01.08.02.12,0,.04,0,.08,0,.1,0h.21c.14,0,.26,0,.36.02s.18.06.25.15c.05.08.08.17.08.29v.37c0,.27,0,.51,0,.73,0,.22-.11.37-.31.45-.06.03-.12.04-.17.03-.05,0-.11,0-.17.03h-.19s-.06,0-.11,0c-.05,0-.09,0-.13,0-.06.01-.13.02-.2,0-.07,0-.14,0-.2,0s-.13,0-.19,0c-.06,0-.12,0-.17,0h-.21c-.06-.01-.13-.02-.21-.02s-.15,0-.21-.02c-.09-.01-.17-.03-.25-.04-.08-.01-.15-.03-.23-.04-.14-.04-.27-.08-.4-.13-.13-.05-.25-.11-.36-.17-.04-.03-.08-.05-.11-.09-.04-.03-.08-.07-.13-.1-.03-.03-.06-.05-.09-.08-.04-.03-.07-.06-.1-.09-.18-.24-.31-.51-.4-.8-.03-.05-.04-.1-.03-.14,0-.04,0-.1,0-.16-.01-.03-.02-.06-.02-.1s0-.07-.02-.09v-.19c-.01-.05-.02-.11,0-.17,0-.06,0-.13,0-.19v-4.56c0-.09,0-.18,0-.27,0-.09,0-.17-.03-.25-.05-.18-.14-.29-.27-.34-.14-.06-.32-.08-.53-.06-.21.03-.4,0-.55-.06-.1-.04-.17-.09-.19-.17s-.05-.17-.08-.29v-.4c0-.23.01-.41.04-.55.02-.14.13-.23.32-.28.05-.03.1-.04.15-.03.05,0,.11,0,.17,0,.19,0,.37,0,.53-.03.16-.02.28-.09.34-.22.04-.09.06-.19.07-.3s0-.23,0-.34v-1.5c0-.11.01-.21.04-.29.06-.13.16-.21.29-.25.02-.01.06-.02.1,0,.04,0,.08,0,.1,0Z"/>
        <path class="cls-1" d="M208.3,27.53c.02.1.02.22,0,.34-.03.13-.07.21-.13.25-.06.05-.16.09-.28.1-.12.02-.25.03-.4.04-.15,0-.29,0-.44,0-.15,0-.28,0-.39,0h-4.89c-.08,0-.16.01-.22.04-.1.05-.17.1-.19.15-.03.03-.05.07-.08.14s-.03.14-.02.2c.03.08.04.15.05.22,0,.07.02.14.05.22.1.3.22.55.37.75.15.2.34.37.6.52.1.06.21.1.31.12.11.02.22.05.33.08.1.03.24.04.42.06.18.01.33,0,.46-.02h.17c.13-.03.24-.05.35-.08.11-.03.21-.07.31-.1.13-.06.27-.15.43-.25.16-.1.28-.2.35-.3.06-.09.13-.17.2-.26.07-.08.16-.14.26-.18.13-.06.29-.09.48-.09.2,0,.38,0,.54,0,.08,0,.16,0,.24,0,.08,0,.16,0,.22.03h.19c.13.03.21.06.27.1.05.03.08.08.09.17,0,.09,0,.17-.03.23-.06.18-.13.34-.21.48-.08.14-.16.28-.27.42-.28.42-.6.75-.95,1.01-.35.25-.8.47-1.33.65-.14.05-.28.08-.42.1s-.29.04-.44.08c-.05.01-.1.02-.16,0-.06,0-.11,0-.16,0h-.21c-.06.03-.14.04-.22.03-.08,0-.16-.02-.22-.03-.1-.01-.19-.01-.27,0s-.16,0-.25-.02c-.06-.03-.13-.04-.21-.04s-.15-.01-.21-.04c-.14-.03-.28-.05-.42-.09s-.27-.08-.38-.14c-.14-.05-.27-.1-.39-.14-.12-.04-.23-.1-.33-.16-.41-.25-.77-.55-1.08-.88-.32-.33-.58-.72-.78-1.17-.06-.14-.11-.28-.15-.43-.04-.15-.09-.29-.15-.45-.01-.05-.02-.1-.02-.14s0-.09-.02-.14c-.05-.15-.08-.32-.09-.49-.01-.18-.03-.35-.04-.53,0-.06,0-.13,0-.21,0-.08,0-.15,0-.21v-.23l.06-.46c.05-.22.09-.42.13-.63.04-.2.1-.39.17-.57.54-1.32,1.47-2.25,2.77-2.79.18-.08.36-.13.54-.16.18-.03.38-.07.58-.12.1-.01.2-.02.29-.02s.18,0,.29-.02c.65-.01,1.2.06,1.66.22.46.16.88.36,1.24.62.11.08.23.16.34.26.11.09.22.19.3.29.04.06.09.11.15.15.1.14.2.28.29.43s.18.29.29.45c.06.11.12.23.16.35.04.12.09.25.14.39.06.17.11.34.15.51.04.18.08.36.13.53.03.1.04.21.03.33,0,.12,0,.23.03.33v.21ZM205.45,26.4c.09-.13.1-.28.03-.47-.07-.18-.12-.32-.16-.41-.18-.34-.41-.6-.7-.79s-.7-.28-1.22-.29c-.04.03-.08.03-.13.02-.05-.01-.1-.01-.13,0-.06.03-.13.04-.21.05-.08,0-.15.02-.21.05-.56.18-.97.53-1.24,1.04-.03.05-.05.12-.09.2-.03.08-.05.17-.07.25-.01.08,0,.16,0,.24.02.08.06.14.12.19.1.06.24.09.42.09h2.62c.18,0,.36,0,.56,0,.2,0,.33-.06.39-.16Z"/>
        <path class="cls-1" d="M215.49,22.47c.14,0,.26.01.37.04.11.03.19.08.26.17.08.1.11.28.11.52v.66c0,.14,0,.3,0,.47,0,.18-.02.32-.07.42-.05.09-.12.15-.22.17s-.2.04-.32.04-.25,0-.38-.02-.26,0-.37.02c-.09.03-.18.04-.27.05-.09,0-.17.02-.25.05-.2.06-.41.16-.61.28-.2.12-.36.26-.48.41-.06.1-.13.21-.2.31-.07.11-.14.22-.2.33-.04.1-.07.21-.1.31-.03.11-.06.21-.09.31-.03.09-.04.18-.04.28s-.01.19-.04.28c-.01.05-.02.1,0,.14,0,.04,0,.08,0,.12v.3c-.03.09-.03.19-.02.29.01.11.02.21.02.31v2.83c0,.17,0,.32-.02.46-.01.14-.05.25-.11.34-.03.04-.07.07-.12.09-.06.02-.12.04-.18.05h-.09c-.06.01-.13.02-.21.02h-1.03c-.08-.01-.16-.02-.24-.02h-.26c-.06-.03-.13-.05-.19-.07-.06-.02-.11-.06-.13-.12-.05-.06-.08-.16-.09-.28,0-.12,0-.24,0-.37v-8.43c0-.12.02-.22.08-.29.06-.1.16-.16.29-.19s.28-.04.46-.04h.97c.15,0,.29,0,.4.03.11.02.2.08.27.18.04.06.06.15.07.27,0,.11.02.23.03.33.01.11.03.21.07.29.03.09.09.13.18.13.02-.02.05-.04.08-.04s.05-.01.08-.04c.08-.06.14-.14.2-.22.06-.08.13-.16.22-.22.05-.04.1-.08.13-.12.04-.04.08-.09.13-.12.11-.08.23-.15.35-.23.12-.08.24-.15.37-.21.13-.05.26-.1.39-.13.13-.04.27-.08.41-.11.04-.01.11-.02.22,0,.11,0,.17,0,.2-.03Z"/>
      </g>
      <g>
        <path class="cls-3" d="M58.86,25.25c0,12.5-10.13,22.63-22.63,22.63h0c-12.5,0-22.63-10.13-22.63-22.63h0c0-12.5,10.13-22.63,22.63-22.63h0c12.5,0,22.63,10.13,22.63,22.63h0Z"/>
        <path class="cls-2" d="M39.49,23.17l9.15-9.79h-3.48l-7.18,7.68-5.5-7.68h-9.51l9.62,13.44-9.62,10.29h3.48l7.66-8.19,5.86,8.19h9.51l-9.99-13.95ZM27.88,15.9h3.31l13.39,18.7h-3.31l-13.39-18.7Z"/>
      </g>
    </g>
  </g>
</svg>