<?xml version="1.0" encoding="UTF-8"?>
<svg xmlns="http://www.w3.org/2000/svg" version="1.1" viewBox="0 0 233.92 50.51">
  <defs>
    <style>
      .cls-1 {
        fill: #3cc;
      }

      .cls-2 {
        fill: #fff;
      }

      .cls-3 {
        fill: #111114;
      }
    </style>
  </defs>
  <!-- Generator: Adobe Illustrator 28.6.0, SVG Export Plug-In . SVG Version: 1.2.0 Build 709)  -->
  <g>
    <g id="Layer_1">
      <rect x="0" width="233.92" height="50.51" rx="10.05" ry="10.05"/>
      <g>
        <path class="cls-1" d="M70.73,18.99h8.19c.14,0,.27,0,.4.02.13.01.22.06.29.13.05.06.08.15.1.26.02.11.03.23.03.36s0,.27,0,.4c0,.13,0,.26,0,.37,0,.09,0,.18,0,.27,0,.09,0,.17,0,.25-.03.06-.05.12-.07.18-.02.06-.05.1-.1.14-.1.08-.28.11-.52.1-.25,0-.46,0-.64,0h-3.67c-.2,0-.45,0-.73,0-.28,0-.49.03-.62.1-.08.05-.14.15-.19.29-.03.09-.04.2-.03.34,0,.14,0,.26,0,.36v.91c0,.06,0,.14,0,.23,0,.09,0,.17,0,.23v.21c.03.11.05.21.09.29.03.08.1.13.2.17.06.03.14.04.23.05.09,0,.18,0,.29,0h3.36c.1,0,.22,0,.35,0,.13,0,.27,0,.4,0,.13,0,.25.02.36.03s.19.04.24.08c.13.09.19.26.18.5,0,.25,0,.47,0,.67,0,.1,0,.21,0,.33,0,.12,0,.23-.03.33-.05.14-.12.23-.21.29s-.26.07-.51.07c-.25,0-.46,0-.63,0h-3.12c-.24,0-.48,0-.7.02s-.37.1-.44.27c-.03.04-.04.08-.04.12s0,.08-.02.12v3.67c0,.18,0,.4,0,.66,0,.26-.02.45-.09.56-.04.06-.09.1-.15.12-.06.02-.13.04-.19.07-.09.03-.18.03-.29.02s-.2-.02-.3-.02h-1.1c-.14,0-.27,0-.39,0-.12,0-.22-.04-.29-.1-.09-.06-.14-.16-.14-.29,0-.13,0-.27,0-.41v-11.36c0-.18,0-.39,0-.63,0-.24.02-.41.08-.51.05-.09.15-.15.29-.19.03-.01.05-.02.08,0,.03,0,.05,0,.08,0Z"/>
        <path class="cls-1" d="M91,27.22c.03.08.04.18.04.32s-.01.25-.04.32v.19c-.03.1-.04.2-.03.3,0,.1,0,.2-.03.3-.03.09-.04.17-.06.25-.01.08-.03.16-.04.25-.05.14-.09.28-.13.43s-.09.28-.15.41c-.27.61-.61,1.1-1.04,1.48s-.95.7-1.56.95c-.15.06-.31.11-.47.14-.16.03-.32.07-.48.1-.06.02-.13.04-.21.04s-.15,0-.21.02c-.04,0-.08,0-.12,0-.04,0-.09,0-.12,0-.06.01-.17.02-.3.03-.14,0-.25,0-.32-.03h-.19c-.06-.01-.13-.02-.2,0-.07,0-.14,0-.2-.03-.05-.01-.1-.02-.14-.02s-.1,0-.16-.02c-.13-.04-.25-.07-.38-.1-.13-.03-.25-.06-.36-.11-.15-.05-.29-.1-.43-.15s-.27-.11-.41-.19c-.44-.27-.82-.58-1.14-.93-.32-.35-.58-.78-.8-1.27-.06-.11-.11-.23-.14-.36-.03-.13-.07-.26-.1-.4-.03-.06-.04-.12-.04-.17s-.01-.11-.04-.17c-.03-.1-.04-.21-.04-.31s-.01-.21-.04-.31c-.01-.06-.02-.12-.02-.17v-.17c-.03-.08-.04-.18-.03-.32s.02-.25.05-.32v-.13c.01-.06.02-.13,0-.2,0-.07,0-.14.03-.2.01-.06.02-.12.02-.18s.01-.12.04-.18c.05-.17.09-.33.13-.48s.09-.31.15-.47c.23-.52.5-.95.82-1.3.32-.35.7-.67,1.16-.96.13-.06.26-.12.4-.17.14-.05.28-.11.42-.17.16-.06.33-.11.51-.13.18-.02.36-.06.55-.11.1-.01.2-.02.29-.02s.18,0,.27-.02c.73-.01,1.37.06,1.91.23.54.17,1.02.39,1.43.68.14.1.28.21.43.33.15.12.27.25.37.39.1.13.19.25.28.38.08.13.17.26.26.4.09.14.16.29.21.45s.11.33.17.5c.04.1.07.21.09.32.03.11.05.23.08.34.01.05.02.1.02.15s0,.1.02.15c.03.06.03.13.02.21s0,.15.02.21ZM88.34,27.91c.01-.06.02-.15.02-.28s0-.21-.02-.28v-.15c-.03-.06-.04-.13-.04-.21s0-.15-.02-.21c0-.05,0-.09-.02-.11-.03-.1-.05-.21-.07-.31-.02-.11-.05-.21-.08-.31-.14-.33-.3-.61-.49-.85-.19-.23-.44-.42-.76-.56-.08-.03-.15-.05-.23-.07-.08-.02-.16-.04-.25-.07-.1-.03-.21-.04-.32-.03-.11,0-.23,0-.34,0-.04.03-.08.04-.13.03-.05,0-.09,0-.13,0-.09.03-.17.05-.26.07-.08.02-.16.05-.22.09-.32.14-.57.34-.77.6s-.35.56-.46.9c-.04.13-.07.26-.09.4-.02.14-.04.28-.07.42-.01.06-.02.13-.02.19v.19c-.03.09-.04.22-.03.4,0,.18.02.31.05.4v.17c.03.1.04.2.06.29.01.1.03.19.06.29.13.38.26.69.41.92.15.24.38.45.69.64.09.06.19.11.29.15.11.04.22.07.33.09.05.01.1.02.13,0,.04,0,.08,0,.13,0,.05.01.1.02.16.03.06,0,.11,0,.16,0h.15c.1-.03.2-.04.3-.06s.2-.04.29-.08c.33-.13.6-.3.8-.51.2-.22.37-.48.51-.8.05-.13.09-.25.11-.38.03-.13.06-.26.1-.4.01-.05.02-.1.02-.14s0-.09.02-.14v-.18c0-.06,0-.12.02-.18Z"/>
        <path class="cls-1" d="M93.41,18.98h1.39c.13,0,.25,0,.36.02.11.01.2.05.27.11.08.09.12.21.12.35,0,.15,0,.29,0,.45v11.42c0,.15,0,.33,0,.52,0,.2-.02.35-.08.45-.06.1-.18.17-.34.21-.08.02-.16.03-.26.02s-.19-.02-.28-.02h-.91c-.14,0-.27,0-.38-.02s-.21-.05-.29-.11c-.08-.06-.12-.16-.12-.29,0-.13,0-.27,0-.41v-11.4c0-.17,0-.36,0-.59,0-.23.02-.39.09-.49.03-.05.06-.09.1-.11.04-.03.09-.05.14-.08.02,0,.06,0,.09,0,.04,0,.07,0,.09,0Z"/>
        <path class="cls-1" d="M98.31,18.98h1.39c.13,0,.25,0,.36.02.11.01.2.05.27.11.08.09.12.21.12.35,0,.15,0,.29,0,.45v11.42c0,.15,0,.33,0,.52,0,.2-.02.35-.08.45-.06.1-.18.17-.34.21-.08.02-.16.03-.26.02s-.19-.02-.28-.02h-.91c-.14,0-.27,0-.38-.02s-.21-.05-.29-.11c-.08-.06-.12-.16-.12-.29,0-.13,0-.27,0-.41v-11.4c0-.17,0-.36,0-.59,0-.23.02-.39.09-.49.03-.05.06-.09.1-.11.04-.03.09-.05.14-.08.02,0,.06,0,.09,0,.04,0,.07,0,.09,0Z"/>
        <path class="cls-1" d="M112.41,27.22c.03.08.04.18.04.32s-.01.25-.04.32v.19c-.03.1-.04.2-.03.3,0,.1,0,.2-.03.3-.03.09-.04.17-.06.25-.01.08-.03.16-.04.25-.05.14-.09.28-.13.43s-.09.28-.15.41c-.27.61-.61,1.1-1.04,1.48s-.95.7-1.56.95c-.15.06-.31.11-.47.14-.16.03-.32.07-.48.1-.06.02-.13.04-.21.04s-.15,0-.21.02c-.04,0-.08,0-.12,0-.04,0-.09,0-.12,0-.06.01-.17.02-.3.03-.14,0-.25,0-.32-.03h-.19c-.06-.01-.13-.02-.2,0-.07,0-.14,0-.2-.03-.05-.01-.1-.02-.14-.02s-.1,0-.16-.02c-.13-.04-.25-.07-.38-.1-.13-.03-.25-.06-.36-.11-.15-.05-.29-.1-.43-.15s-.27-.11-.41-.19c-.44-.27-.82-.58-1.14-.93-.32-.35-.58-.78-.8-1.27-.06-.11-.11-.23-.14-.36-.03-.13-.07-.26-.1-.4-.03-.06-.04-.12-.04-.17s-.01-.11-.04-.17c-.03-.1-.04-.21-.04-.31s-.01-.21-.04-.31c-.01-.06-.02-.12-.02-.17v-.17c-.03-.08-.04-.18-.03-.32s.02-.25.05-.32v-.13c.01-.06.02-.13,0-.2,0-.07,0-.14.03-.2.01-.06.02-.12.02-.18s.01-.12.04-.18c.05-.17.09-.33.13-.48s.09-.31.15-.47c.23-.52.5-.95.82-1.3.32-.35.7-.67,1.16-.96.13-.06.26-.12.4-.17.14-.05.28-.11.42-.17.16-.06.33-.11.51-.13.18-.02.36-.06.55-.11.1-.01.2-.02.29-.02s.18,0,.27-.02c.73-.01,1.37.06,1.91.23.54.17,1.02.39,1.43.68.14.1.28.21.43.33.15.12.27.25.37.39.1.13.19.25.28.38.08.13.17.26.26.4.09.14.16.29.21.45s.11.33.17.5c.04.1.07.21.09.32.03.11.05.23.08.34.01.05.02.1.02.15s0,.1.02.15c.03.06.03.13.02.21s0,.15.02.21ZM109.75,27.91c.01-.06.02-.15.02-.28s0-.21-.02-.28v-.15c-.03-.06-.04-.13-.04-.21s0-.15-.02-.21c0-.05,0-.09-.02-.11-.03-.1-.05-.21-.07-.31-.02-.11-.05-.21-.08-.31-.14-.33-.3-.61-.49-.85-.19-.23-.44-.42-.76-.56-.08-.03-.15-.05-.23-.07-.08-.02-.16-.04-.25-.07-.1-.03-.21-.04-.32-.03-.11,0-.23,0-.34,0-.04.03-.08.04-.13.03-.05,0-.09,0-.13,0-.09.03-.17.05-.26.07-.08.02-.16.05-.22.09-.32.14-.57.34-.77.6s-.35.56-.46.9c-.04.13-.07.26-.09.4-.02.14-.04.28-.07.42-.01.06-.02.13-.02.19v.19c-.03.09-.04.22-.03.4,0,.18.02.31.05.4v.17c.03.1.04.2.06.29.01.1.03.19.06.29.13.38.26.69.41.92.15.24.38.45.69.64.09.06.19.11.29.15.11.04.22.07.33.09.05.01.1.02.13,0,.04,0,.08,0,.13,0,.05.01.1.02.16.03.06,0,.11,0,.16,0h.15c.1-.03.2-.04.3-.06s.2-.04.29-.08c.33-.13.6-.3.8-.51.2-.22.37-.48.51-.8.05-.13.09-.25.11-.38.03-.13.06-.26.1-.4.01-.05.02-.1.02-.14s0-.09.02-.14v-.18c0-.06,0-.12.02-.18Z"/>
        <path class="cls-1" d="M113.91,22.7h1.41c.14,0,.27,0,.4,0,.13,0,.23.04.3.09s.14.12.18.2c.04.08.08.18.1.29s.05.21.08.32c.02.11.05.21.08.29.15.44.28.9.39,1.37s.23.93.37,1.39c.03.08.04.15.06.22s.03.14.06.22c.06.19.12.38.16.58.04.2.1.39.16.58.03.09.06.19.09.3.04.11.11.18.21.21.06.01.11-.02.15-.1.04-.08.07-.14.09-.18.06-.18.11-.36.14-.55.03-.19.08-.37.14-.55.04-.11.07-.23.1-.35.02-.12.05-.24.07-.35.09-.3.17-.61.24-.93.07-.32.15-.63.24-.93.04-.14.07-.27.09-.4.03-.13.06-.25.09-.38.05-.19.1-.42.15-.68.05-.27.15-.45.29-.55.09-.05.19-.08.3-.09.11,0,.24,0,.38,0h.99c.15,0,.29,0,.42.02.13.01.23.05.32.11.06.05.11.12.13.2s.05.16.08.24c.05.18.09.35.12.52s.08.35.14.52c.15.49.28,1,.39,1.52.11.52.23,1.03.37,1.52.05.15.09.31.12.47.03.16.07.31.12.45.05.18.1.31.15.4.01.01.03.02.05.03.02,0,.03.02.05.05.11-.01.19-.05.22-.12.03-.07.07-.15.1-.24.08-.2.14-.42.19-.64.05-.22.11-.44.17-.66.04-.13.07-.25.09-.37.03-.12.06-.24.09-.37.14-.39.25-.79.34-1.2s.2-.8.32-1.18c.06-.18.12-.39.17-.64s.13-.42.25-.5c.09-.06.19-.1.3-.11.11-.01.24-.02.38-.02h1.33c.11,0,.21.01.29.04.13.05.2.13.21.25s0,.24-.06.38c-.09.29-.17.57-.26.85-.08.27-.17.55-.28.85-.3.92-.6,1.85-.88,2.78-.29.93-.58,1.86-.88,2.78-.06.2-.12.4-.18.6-.06.2-.12.4-.18.6-.05.14-.1.26-.14.37-.04.11-.13.19-.26.24-.13.06-.29.09-.49.08-.2-.01-.39-.02-.55-.02-.2,0-.46,0-.76,0-.3,0-.52-.02-.65-.09-.08-.06-.13-.14-.17-.22-.04-.08-.07-.17-.1-.28-.06-.18-.11-.35-.14-.52-.03-.17-.07-.34-.12-.52-.04-.11-.07-.23-.09-.35-.03-.12-.06-.24-.11-.37-.11-.37-.21-.75-.29-1.14-.08-.39-.19-.78-.31-1.16-.08-.23-.14-.47-.19-.72-.05-.25-.15-.46-.3-.61-.13,0-.21.05-.24.14-.03.09-.07.19-.1.29-.09.25-.16.51-.2.76-.04.25-.11.51-.2.76-.14.46-.26.92-.35,1.4-.09.47-.21.94-.35,1.4-.03.09-.05.19-.08.3s-.05.22-.08.32-.06.2-.1.29-.1.16-.16.21-.15.08-.27.08c-.11,0-.24,0-.38,0h-1.56c-.08-.01-.15-.03-.21-.04s-.12-.03-.17-.06c-.09-.06-.15-.15-.19-.27-.04-.11-.08-.23-.11-.34-.06-.19-.13-.39-.19-.59-.06-.2-.13-.41-.19-.61-.32-.94-.62-1.87-.9-2.81s-.58-1.87-.88-2.81c-.09-.25-.17-.5-.25-.74-.08-.24-.15-.48-.23-.72-.03-.08-.05-.18-.08-.31-.03-.13-.02-.24.03-.31.04-.05.12-.1.25-.15.08,0,.13,0,.15-.02Z"/>
        <path class="cls-1" d="M146.57,28.27c.03.14.03.32,0,.55-.02.23-.04.41-.07.53s-.05.25-.08.36c-.03.11-.06.22-.09.32-.27.63-.68,1.15-1.24,1.56-.22.15-.45.28-.69.39-.25.11-.51.21-.79.29-.14.05-.29.09-.44.1-.15.02-.3.04-.44.07-.06.01-.12.02-.18.02s-.12,0-.18.02c-.05.01-.1.01-.16,0-.06-.01-.12,0-.18.02-.05.01-.1.02-.16,0-.06,0-.12,0-.18,0h-5.55c-.21,0-.4,0-.54-.03-.15-.02-.25-.1-.31-.26-.04-.1-.05-.26-.05-.47,0-.21,0-.38,0-.52v-11.15c0-.15,0-.31,0-.48,0-.17.02-.31.09-.41.05-.09.15-.15.29-.19.02-.01.05-.02.08,0,.03,0,.05,0,.08,0h5.66c.09,0,.18,0,.27,0,.09,0,.17,0,.25,0,.06.03.13.03.19.02.06-.01.13-.01.19,0h.11c.08.03.16.04.24.03.08,0,.17,0,.26.03.1.03.2.04.29.06.09.01.19.03.29.06.24.09.47.17.68.26.21.08.41.19.59.31.25.18.46.4.63.67.16.27.3.57.4.91.03.09.04.18.05.27,0,.09.02.18.05.29.01.05.02.1,0,.15,0,.05,0,.1,0,.15.01.04.02.09,0,.14,0,.06-.02.1-.03.12v.17s0,.08,0,.13c0,.05,0,.09,0,.11-.03.09-.04.17-.05.24,0,.07-.02.14-.05.2-.17.46-.38.83-.65,1.12-.09.09-.18.17-.28.23-.1.06-.19.15-.27.25-.03.03-.05.06-.08.1-.03.04-.04.1,0,.16.03.1.11.19.25.26.14.07.26.14.36.2.34.23.62.49.84.8.2.29.36.63.47,1.03.04.1.06.21.08.31s.03.21.06.31v.21ZM138.31,21.46c-.06.09-.09.2-.09.33v1.43c0,.09,0,.18,0,.28,0,.09,0,.17,0,.24v.19c.02.08.04.14.06.2.01.06.03.11.06.16.05.06.13.11.24.13.11.03.23.04.36.05.13,0,.27,0,.41,0,.14,0,.27,0,.38,0,.19,0,.39,0,.6,0,.21,0,.42,0,.63,0s.41,0,.6-.03c.19-.02.35-.05.49-.1.38-.13.67-.35.86-.67.09-.16.15-.38.17-.65.03-.43-.04-.77-.19-1.02-.15-.25-.37-.44-.67-.58-.08-.03-.16-.05-.25-.07-.09-.02-.18-.04-.28-.07-.05-.01-.13-.02-.23-.02-.15-.04-.33-.05-.52-.05s-.38,0-.56,0h-1.62s-.05.02-.08.02-.06,0-.09.02c-.13.04-.21.09-.27.17ZM143.63,28.57c.02-.18.02-.37-.03-.57-.04-.2-.09-.35-.14-.46-.18-.46-.53-.77-1.04-.95-.21-.06-.45-.1-.71-.11-.26-.01-.53-.02-.81-.02h-2.15s-.05.03-.07.03c-.02,0-.04,0-.07,0-.15.04-.25.1-.3.19-.06.1-.09.23-.09.39v2.14c0,.15,0,.31,0,.47,0,.16.04.28.1.37.05.06.13.11.25.14.11.03.24.05.39.06.15,0,.29,0,.45,0,.15,0,.29,0,.4,0,.38,0,.75,0,1.1,0,.35,0,.69-.01,1.01-.06.32-.04.6-.12.84-.23s.45-.28.6-.5c.06-.1.11-.22.15-.35s.08-.27.11-.41v-.11Z"/>
        <path class="cls-1" d="M149.16,18.98h1.62c.14,0,.28,0,.41,0,.13,0,.23.05.29.14.06.09.09.21.09.35v9.07c0,.1,0,.2,0,.29,0,.1,0,.19.03.28v.19c0,.09,0,.17,0,.26,0,.08.02.16.05.22.09.17.27.25.53.25h4.46c.1,0,.23,0,.38,0,.15,0,.3,0,.44,0,.14,0,.27.02.39.05s.2.06.24.11c.06.08.09.17.09.29v1.23c0,.1,0,.2,0,.29,0,.09,0,.17-.03.23-.05.1-.11.17-.19.21-.06.05-.16.08-.29.08h-8.23c-.18,0-.33,0-.47-.03-.13-.02-.23-.08-.29-.18-.05-.08-.08-.17-.08-.29v-12.21c0-.11,0-.23,0-.34,0-.11.03-.2.07-.27.05-.09.15-.15.3-.19.02-.01.05-.02.08,0,.03,0,.05,0,.08,0Z"/>
        <path class="cls-1" d="M172.6,25.28c.02.08.04.21.05.39s0,.31-.03.39v.25c-.03.13-.04.26-.04.4s-.01.28-.04.42c-.03.09-.04.18-.06.27s-.03.18-.06.27c-.06.23-.12.45-.18.67-.06.22-.13.42-.22.63-.38.89-.89,1.62-1.54,2.21-.65.59-1.44,1.04-2.39,1.36-.14.05-.28.09-.42.11-.14.03-.28.05-.42.08-.06.02-.13.04-.2.04s-.14,0-.2.02l-.63.06c-.05.01-.14.02-.27,0-.13,0-.21-.02-.25-.03-.06-.01-.12-.02-.18,0-.06,0-.12,0-.18,0h-.21c-.1-.03-.2-.04-.29-.05-.09,0-.18-.02-.29-.05s-.2-.05-.3-.07c-.1-.02-.2-.04-.3-.07-.14-.05-.28-.1-.43-.15-.15-.05-.29-.11-.43-.17-.76-.33-1.4-.77-1.93-1.32s-.95-1.21-1.28-1.97c-.08-.18-.14-.36-.19-.56-.05-.2-.11-.4-.17-.6-.03-.06-.04-.12-.04-.16s0-.09-.02-.14c-.03-.09-.04-.18-.06-.28-.01-.09-.03-.19-.06-.29-.01-.06-.02-.12,0-.18,0-.06,0-.11-.03-.16-.01-.08-.01-.15,0-.24.01-.08.01-.16,0-.24-.03-.06-.04-.16-.04-.29s.01-.23.04-.29c.01-.06.01-.12,0-.18s-.01-.12,0-.18v-.11c.03-.09.04-.17.03-.26,0-.08,0-.16.03-.24.02-.06.04-.13.04-.2s.01-.14.04-.2c.06-.21.11-.43.15-.64s.09-.42.17-.62c.1-.22.2-.43.29-.65.09-.21.2-.42.32-.61.38-.61.82-1.12,1.31-1.52s1.1-.75,1.81-1.04c.16-.06.34-.11.52-.15.18-.04.36-.08.54-.13.06-.03.12-.04.18-.04s.12,0,.18-.02l.57-.06s.06-.01.1,0c.04.01.08.01.1,0,.9-.03,1.68.07,2.34.28.66.21,1.25.5,1.77.86.16.11.33.24.51.39s.32.29.44.45c.06.06.13.13.19.2.06.07.12.14.17.2.14.2.28.41.42.62.14.21.26.43.36.67.08.18.14.35.2.51.06.17.12.34.18.53.04.13.07.26.1.39.02.13.06.27.09.41.03.09.04.17.04.26s.01.16.04.24c.02.08.03.16.03.24,0,.08,0,.16,0,.22v.15ZM169.66,26.08c.03-.06.04-.15.04-.28s-.01-.21-.04-.28v-.32s-.02-.1,0-.14c0-.04,0-.09-.03-.14-.03-.1-.04-.2-.05-.29,0-.09-.02-.19-.05-.28,0-.06-.01-.13-.04-.21-.04-.14-.08-.28-.11-.42s-.09-.28-.15-.42c-.28-.65-.68-1.17-1.21-1.57-.53-.4-1.26-.6-2.19-.6-.03.01-.05.02-.09,0-.03,0-.06,0-.08,0-.05.01-.1.02-.15,0-.05,0-.11,0-.17.03-.14.03-.28.05-.41.09-.13.03-.26.07-.37.12-.53.23-.95.54-1.26.95s-.56.89-.75,1.46c-.04.14-.07.28-.09.41-.02.13-.05.27-.08.41-.01.05-.02.1-.02.14s0,.09-.02.14c-.03.06-.03.13-.02.21.01.08.01.15,0,.21-.03.06-.04.18-.05.35,0,.17,0,.29.03.35v.21c.01.05.02.1.02.16s0,.11.02.16c0,.05,0,.1,0,.14,0,.04,0,.09,0,.14.04.14.07.28.09.42.02.14.05.27.1.4.14.41.31.78.51,1.13.2.35.46.63.76.85.06.06.13.11.2.15.07.04.14.08.22.11.14.09.29.16.45.21.16.05.33.1.5.15.06.03.12.04.18.03.06,0,.12,0,.18,0,.08.03.15.04.23.04h.4c.06-.01.12-.02.17,0,.05,0,.11,0,.17-.03.13-.03.25-.05.38-.07s.25-.05.36-.1c.54-.21.97-.49,1.28-.84s.57-.79.79-1.33c.06-.14.11-.29.14-.46.03-.16.07-.33.12-.49l.06-.46s.02-.1.02-.16v-.33Z"/>
        <path class="cls-1" d="M186,28.27c.03.14.03.32,0,.55-.02.23-.04.41-.07.53s-.05.25-.08.36c-.03.11-.06.22-.09.32-.27.63-.68,1.15-1.24,1.56-.22.15-.45.28-.69.39-.25.11-.51.21-.79.29-.14.05-.29.09-.44.1-.15.02-.3.04-.44.07-.06.01-.12.02-.18.02s-.12,0-.18.02c-.05.01-.1.01-.16,0-.06-.01-.12,0-.18.02-.05.01-.1.02-.16,0-.06,0-.12,0-.18,0h-5.55c-.21,0-.4,0-.54-.03-.15-.02-.25-.1-.31-.26-.04-.1-.05-.26-.05-.47,0-.21,0-.38,0-.52v-11.15c0-.15,0-.31,0-.48,0-.17.02-.31.09-.41.05-.09.15-.15.29-.19.02-.01.05-.02.08,0,.03,0,.05,0,.08,0h5.66c.09,0,.18,0,.27,0,.09,0,.17,0,.25,0,.06.03.13.03.19.02.06-.01.13-.01.19,0h.11c.08.03.16.04.24.03.08,0,.17,0,.26.03.1.03.2.04.29.06.09.01.19.03.29.06.24.09.47.17.68.26.21.08.41.19.59.31.25.18.46.4.63.67.16.27.3.57.4.91.03.09.04.18.05.27,0,.09.02.18.05.29.01.05.02.1,0,.15,0,.05,0,.1,0,.15.01.04.02.09,0,.14,0,.06-.02.1-.03.12v.17s0,.08,0,.13c0,.05,0,.09,0,.11-.03.09-.04.17-.05.24,0,.07-.02.14-.05.2-.17.46-.38.83-.65,1.12-.09.09-.18.17-.28.23-.1.06-.19.15-.27.25-.03.03-.05.06-.08.1-.03.04-.04.1,0,.16.03.1.11.19.25.26.14.07.26.14.36.2.34.23.62.49.84.8.2.29.36.63.47,1.03.04.1.06.21.08.31s.03.21.06.31v.21ZM177.73,21.46c-.06.09-.09.2-.09.33v1.43c0,.09,0,.18,0,.28,0,.09,0,.17,0,.24v.19c.02.08.04.14.06.2.01.06.03.11.06.16.05.06.13.11.24.13.11.03.23.04.36.05.13,0,.27,0,.41,0,.14,0,.27,0,.38,0,.19,0,.39,0,.6,0,.21,0,.42,0,.63,0s.41,0,.6-.03c.19-.02.35-.05.49-.1.38-.13.67-.35.86-.67.09-.16.15-.38.17-.65.03-.43-.04-.77-.19-1.02-.15-.25-.37-.44-.67-.58-.08-.03-.16-.05-.25-.07-.09-.02-.18-.04-.28-.07-.05-.01-.13-.02-.23-.02-.15-.04-.33-.05-.52-.05s-.38,0-.56,0h-1.62s-.05.02-.08.02-.06,0-.09.02c-.13.04-.21.09-.27.17ZM183.05,28.57c.02-.18.02-.37-.03-.57-.04-.2-.09-.35-.14-.46-.18-.46-.53-.77-1.04-.95-.21-.06-.45-.1-.71-.11-.26-.01-.53-.02-.81-.02h-2.15s-.05.03-.07.03c-.02,0-.04,0-.07,0-.15.04-.25.1-.3.19-.06.1-.09.23-.09.39v2.14c0,.15,0,.31,0,.47,0,.16.04.28.1.37.05.06.13.11.25.14.11.03.24.05.39.06.15,0,.29,0,.45,0,.15,0,.29,0,.4,0,.38,0,.75,0,1.1,0,.35,0,.69-.01,1.01-.06.32-.04.6-.12.84-.23s.45-.28.6-.5c.06-.1.11-.22.15-.35s.08-.27.11-.41v-.11Z"/>
        <path class="cls-1" d="M188.05,22.72h6.94c.11,0,.23,0,.34,0,.11,0,.2.04.27.09.08.05.14.15.19.29v.29c.03.06.04.14.03.22,0,.08,0,.16,0,.22v.49c0,.17-.03.3-.08.42-.05.1-.11.19-.17.26-.06.07-.13.14-.19.22-.08.1-.16.2-.25.29s-.17.19-.25.29c-.03.03-.05.05-.08.07-.03.02-.05.04-.08.07-.06.09-.14.17-.22.25-.08.08-.16.16-.22.25-.2.27-.42.51-.65.74s-.44.48-.65.74l-.15.15c-.06.09-.14.17-.22.25-.08.08-.16.16-.22.25s-.14.17-.22.25c-.08.08-.16.15-.22.23s-.12.15-.18.21c-.06.06-.12.13-.18.21-.05.06-.1.12-.15.18s-.1.12-.15.18c-.05.05-.09.1-.13.15-.04.05-.07.11-.09.17-.01.03-.02.06-.03.09,0,.04,0,.07.03.09.03.08.07.12.13.12.06,0,.13.02.21.05.13.03.27.04.43.03.16,0,.31,0,.45,0h2.79c.23,0,.44,0,.65.02.2.01.33.11.4.29.03.06.04.13.04.21v.89c0,.24-.06.41-.17.49-.08.06-.17.1-.29.1h-8.08c-.12,0-.23-.03-.31-.1-.08-.06-.12-.16-.13-.3s-.02-.28-.02-.42c0-.18,0-.37,0-.58,0-.21.02-.38.07-.52.03-.08.06-.15.1-.22s.08-.14.13-.2c.1-.11.2-.22.3-.33s.2-.22.3-.35c.06-.06.11-.11.15-.13.18-.24.37-.46.57-.67s.39-.42.57-.65c.05-.06.1-.12.15-.17.05-.05.09-.11.13-.17.06-.09.14-.17.22-.24s.16-.16.22-.26c.03-.03.05-.05.08-.07.02-.02.05-.04.08-.07.06-.1.14-.19.22-.27s.16-.16.22-.25c.03-.04.06-.08.1-.11.04-.04.08-.08.12-.11.1-.14.21-.27.32-.38s.22-.23.32-.36c.06-.09.14-.17.22-.25.08-.08.14-.17.16-.29.03-.08.02-.13-.03-.17-.04-.04-.09-.07-.12-.1-.14-.06-.31-.09-.5-.08s-.38,0-.56,0h-2.05c-.15,0-.31,0-.49,0-.17,0-.31-.02-.41-.08-.11-.06-.18-.18-.19-.36-.01-.18-.02-.35-.02-.53,0-.06,0-.13,0-.21,0-.08,0-.15,0-.21v-.15s.02-.08.03-.13c0-.05.02-.09.05-.11.08-.1.16-.16.25-.17.03-.01.06-.02.09,0,.04,0,.07,0,.09-.03Z"/>
      </g>
      <g>
        <path class="cls-3" d="M58.86,25.25c0,12.5-10.13,22.63-22.63,22.63h0c-12.5,0-22.63-10.13-22.63-22.63h0c0-12.5,10.13-22.63,22.63-22.63h0c12.5,0,22.63,10.13,22.63,22.63h0Z"/>
        <path class="cls-2" d="M39.49,23.17l9.15-9.79h-3.48l-7.18,7.68-5.5-7.68h-9.51l9.62,13.44-9.62,10.29h3.48l7.66-8.19,5.86,8.19h9.51l-9.99-13.95ZM27.88,15.9h3.31l13.39,18.7h-3.31l-13.39-18.7Z"/>
      </g>
    </g>
  </g>
</svg>