<?xml version="1.0" encoding="UTF-8"?>
<svg xmlns="http://www.w3.org/2000/svg" version="1.1" viewBox="0 0 57.58 80.22">
  <defs>
    <style>
      .cls-1 {
        fill: #e7697c;
      }

      .cls-2 {
        fill: #ea7082;
      }

      .cls-3 {
        fill: #313131;
      }

      .cls-4 {
        fill: #bf202a;
      }

      .cls-5 {
        fill: #db5666;
      }

      .cls-6 {
        fill: #e96d80;
      }

      .cls-7 {
        fill: #e56678;
      }

      .cls-8 {
        fill: #2a2a2a;
      }

      .cls-9 {
        fill: #353534;
      }

      .cls-10 {
        fill: #210705;
      }

      .cls-11 {
        fill: #2d2d2d;
      }

      .cls-12 {
        fill: #e86c7e;
      }

      .cls-13 {
        fill: #303030;
      }

      .cls-14 {
        fill: #070606;
      }

      .cls-15 {
        fill: #2f2f2f;
      }

      .cls-16 {
        fill: #d44756;
      }

      .cls-17 {
        fill: #e36377;
      }

      .cls-18 {
        fill: #363636;
      }

      .cls-19 {
        fill: #e05b6d;
      }

      .cls-20 {
        fill: #59201e;
      }

      .cls-21 {
        fill: #333;
      }

      .cls-22 {
        fill: #e36175;
      }

      .cls-23 {
        fill: #e16072;
      }

      .cls-24 {
        fill: #150303;
      }

      .cls-25 {
        fill: #343130;
      }

      .cls-26 {
        fill: #333232;
      }

      .cls-27 {
        fill: #e6687b;
      }

      .cls-28 {
        fill: #323232;
      }
    </style>
  </defs>
  <!-- Generator: Adobe Illustrator 28.6.0, SVG Export Plug-In . SVG Version: 1.2.0 Build 709)  -->
  <g>
    <g id="Layer_1">
      <g>
        <path class="cls-14" d="M39.06,0c.29.33.38.64.39,1.01,0,.55-.09,1.09-.23,1.62-.26.94-.29,1.89-.22,2.86.06.81.27,1.53.68,2.23.3.51.54,1.05.8,1.58.18.36.4.68.73.91.04.03.07.06.1.08.7.53,1.32,1.13,1.76,1.91.33.59.87,1.02,1.41,1.44.76.59,1.58,1.11,2.28,1.77.31.3.72.5,1.03.8.47.45.96.89,1.35,1.43.1.14.23.26.35.39.43.44.82.9,1.17,1.42.66,1,1.36,1.99,2.1,2.93.43.54.77,1.18,1.04,1.82.51,1.19,1.14,2.32,1.67,3.49.49,1.07.96,2.16,1.39,3.26.32.82.48,1.68.62,2.54.18,1.05.05,2.1.08,3.14.03,1.37-.22,2.71-.44,4.04-.13.82-.35,1.63-.58,2.42-.31,1.05-.67,2.08-1,3.12-.32,1-.6,2-.93,3-.31.93-.53,1.89-.78,2.84-.4,1.53-.96,3-1.61,4.44-.35.76-.67,1.52-.99,2.29-.26.63-.51,1.26-.78,1.88-.34.79-.82,1.5-1.27,2.22-.73,1.15-1.43,2.31-2.19,3.43-.68.99-1.34,2.01-2.18,2.87-.35.36-.73.69-1.1,1.04-.5.47-.98.94-1.49,1.39-.34.31-.71.59-1.07.88-.56.45-1.13.9-1.69,1.35-.68.55-1.36,1.1-2.04,1.65-.17.14-.34.27-.51.41-.72.62-1.53,1.1-2.37,1.52-.33.17-.64.38-.96.56-.26.15-.53.3-.8.44-.39.19-.79.37-1.19.55-.16.07-.32.14-.49.18-.7.16-1.36.48-2.09.56-.15.01-.3.08-.44.13-.41.15-.84.22-1.28.23-.55.02-1.09.08-1.64.13-.28.02-.56,0-.84-.08-.33-.11-.69-.11-1.01-.26-.02,0-.04-.01-.06,0-.45.09-.9.03-1.35,0-.15,0-.3.02-.45,0-.52-.06-1.02-.2-1.55-.19-.3,0-.61-.07-.9-.17-.7-.25-1.43-.41-2.08-.79-.13-.07-.29-.1-.43-.16-.12-.05-.23-.12-.34-.19-.09-.06-.16-.17-.25-.21-.66-.26-1.05-.84-1.59-1.25-.12-.09-.22-.21-.31-.34-.34-.49-.79-.87-1.23-1.27-.4-.37-.8-.75-1.17-1.16-.53-.58-1.07-1.17-1.54-1.79-.54-.71-1.05-1.45-1.64-2.13-.1-.12-.18-.25-.24-.39-.18-.38-.4-.72-.73-.99-.16-.13-.28-.33-.39-.52-.29-.52-.56-1.04-.83-1.57-.5-1-.99-2-1.46-3.01-.21-.45-.38-.93-.56-1.4-.1-.24-.19-.49-.29-.73-.06-.16-.15-.32-.19-.49-.14-.6-.36-1.17-.6-1.73-.06-.14-.08-.29-.12-.44-.08-.34-.16-.68-.24-1.02-.03-.11-.08-.21-.08-.32-.04-.87-.41-1.65-.67-2.46-.18-.56-.35-1.13-.47-1.71-.14-.64-.33-1.27-.55-1.89-.28-.83-.44-1.69-.61-2.55-.21-1.07-.4-2.15-.6-3.23-.02-.11-.05-.21-.05-.32-.08-1.49-.18-2.98-.22-4.46-.03-1.21.11-2.41.25-3.6.17-1.55.57-3.05.95-4.56.06-.25.15-.51.23-.75.37-1.03.76-2.05,1.12-3.09.17-.48.37-.93.66-1.35.16-.23.29-.49.41-.74.23-.47.45-.95.68-1.42.34-.68.82-1.24,1.35-1.77.66-.65,1.26-1.34,1.74-2.14.33-.55.77-1.01,1.3-1.38.2-.14.39-.28.59-.42.78-.53,1.49-1.14,2.16-1.81.92-.93,2.01-1.61,3.2-2.15,1.51-.69,3.03-1.36,4.51-2.11.97-.49,2-.88,3.02-1.28.73-.28,1.49-.5,2.24-.73,1.72-.52,3.36-1.24,4.97-2.02.78-.38,1.55-.81,2.37-1.11.14-.05.28-.13.4-.22.53-.42,1.06-.84,1.58-1.28.52-.44,1.03-.89,1.51-1.37.39-.38.72-.8.88-1.36.1-.35.28-.68.44-1.02.16-.36.35-.7.5-1.07.27-.65.62-1.25,1.1-1.77.25-.27.59-.25.9-.45ZM2.97,35.47s.02-.04.03-.05c0,.02-.02.04-.03.06-.02,0-.03,0-.05.02,0,0,0,.02-.01.03.02-.02.04-.04.06-.05ZM52.73,39.15c-.38.09-.65.33-.91.59-.05.04-.08.1-.1.16-.04.13-.05.26.06.36.09.09.32.08.42-.02.05-.04.1-.09.12-.15.14-.31.28-.63.42-.95.01,0,.03-.01.04-.02,0,0,0-.02,0-.03-.02.02-.04.04-.05.05ZM30.35,55.62c-.14.16-.28.33-.43.48-.17.17-.3.37-.34.61-.01.09.03.19.06.34.12-.07.21-.09.26-.15.23-.26.45-.52.65-.8.1-.14.14-.31.21-.47.09-.01.17-.04.26-.03.57.03,1.14-.02,1.69-.18.19-.05.39-.06.59-.05.42,0,.83-.07,1.23-.2.84-.26,1.63-.63,2.45-.95,1.14-.46,2.03-1.14,2.71-2.18.64-.98,1.19-1.99,1.5-3.12.18-.66.26-1.33.38-2,.2-1.09.21-2.19.17-3.38-.01-.48-.09-.95-.14-1.42-.12-1.14-.58-2.15-1.13-3.13-.06-.11-.14-.23-.24-.31-.4-.32-.67-.75-.96-1.16-.32-.46-.75-.81-1.25-1.04-.84-.38-1.71-.66-2.66-.62-.28.01-.57,0-.86,0-.15,0-.31,0-.46.04-.78.25-1.52.56-2.12,1.15-.25.25-.5.5-.77.72-1.05.86-2.12,1.7-3.18,2.56-.38.31-.81.52-1.25.71-.32.14-.66.21-1.02.22-.66.02-1.32,0-1.96-.12-.53-.1-1.03-.29-1.41-.76-.48-.6-.92-1.23-1.51-1.73-.11-.1-.19-.24-.28-.36-.38-.59-.76-1.18-1.15-1.76-.25-.36-.48-.75-.79-1.04-.47-.44-.85-.95-1.21-1.47-.17-.24-.39-.4-.65-.54-.51-.26-1.05-.43-1.61-.54-.13-.02-.26-.03-.39-.02-.24.01-.48.03-.72.06-.63.09-1.26.14-1.88.28-.83.2-1.54.6-2.03,1.34-.19.29-.43.56-.68.8-.83.77-1.33,1.74-1.67,2.79-.2.62-.44,1.24-.46,1.91-.04,1.1.04,2.19.29,3.26.05.23.1.47.13.71.13,1.01.4,1.97.76,2.91.48,1.23,1.14,2.37,1.7,3.56.09.19.25.36.41.51.33.29.6.63.82,1.02.32.56.76,1.01,1.35,1.3.23.11.41.31.61.49.31.28.58.6.91.86.44.34.76.79,1.12,1.2.18.21.25.45.25.73,0,.57,0,1.14,0,1.71,0,.2-.02.39-.06.59-.06.34-.16.68-.2,1.03-.06.54-.16,1.09-.12,1.64.05.81.18,1.61.54,2.36.08.18.16.37.19.56.09.64.33,1.22.56,1.81.16.41.35.8.52,1.21.37.9.8,1.75,1.46,2.48.19.21.34.46.48.7.18.31.42.57.7.77.36.25.74.47,1.1.72.36.26.76.31,1.19.29.39-.02.79-.05,1.18-.02.79.06,1.53-.12,2.25-.4.64-.25,1.24-.56,1.7-1.09.27-.32.51-.66.78-.97.19-.22.34-.46.43-.73.2-.6.39-1.21.58-1.81.27.01.3.3.47.42.13.09.28.12.36.04.1-.11.11-.26.03-.36-.12-.18-.28-.34-.43-.49-.14-.14-.29-.26-.44-.39-.05-.35-.11-.69-.16-1.04.01-.23.08-.48-.11-.68,0-.08-.02-.16-.03-.24.16-.03.32-.06.47-.09.19-.85.12-1.28-.31-1.85-.05.11-.1.2-.14.29-.09.19-.07.43-.26.58-.08-.31-.18-.63-.25-.95-.06-.28-.09-.56-.14-.84-.17-.97-.29-1.95-.27-2.94,0-.37.03-.75.02-1.12-.01-.41.12-.78.29-1.13.06-.13.17-.28.29-.34.56-.25,1.13-.48,1.7-.71.09-.04.22,0,.32,0ZM11.08,27.23c.08,0,.13,0,.16-.01.93-.37,1.81-.89,2.83-.99.06,0,.12-.05.18-.07.62-.22,1.24-.41,1.87-.6.74-.21,1.49-.31,2.26-.38.61-.05,1.22-.12,1.82-.26,1.03-.24,2.06-.4,3.12-.38.85.02,1.71.03,2.56-.03,1.19-.08,2.36.01,3.52.23,1.31.24,2.61.58,3.87,1.01.73.24,1.44.52,2.11.92.41.25.8.54,1.22.76.63.34,1.15.78,1.62,1.31.61.69,1.22,1.36,2,1.88.73.49,1.38,1.07,1.94,1.75.32.38.67.75,1.01,1.12.61.67,1.39,1.05,2.26,1.23.29.06.47-.07.54-.35.02-.08.03-.17.03-.26.04-1.18.1-2.36.12-3.55.04-1.73-.28-3.4-.83-5.03-.1-.31-.24-.61-.39-.9-.27-.52-.57-1.03-.85-1.56-.45-.85-.87-1.72-1.47-2.48-.28-.36-.55-.74-.77-1.14-.64-1.13-1.38-2.18-2.16-3.22-.36-.48-.66-.98-.88-1.53-.15-.39-.28-.78-.42-1.17-.11-.29-.2-.59-.34-.85-.61-1.1-1.07-2.25-1.45-3.44-.03-.09,0-.23-.2-.25-.08.06-.19.13-.28.21-.68.58-1.34,1.2-2.06,1.74-1.11.85-2.25,1.66-3.58,2.16-.86.32-1.67.74-2.4,1.33-.74.59-1.53,1.1-2.42,1.42-1.21.44-2.42.89-3.62,1.35-.22.08-.45.18-.66.29-1.01.53-1.98,1.12-2.9,1.8-.18.13-.37.24-.56.34-.59.33-1.2.63-1.79.97-.32.19-.64.4-.9.65-.49.47-1.02.89-1.43,1.44-.57.75-1.25,1.42-1.67,2.27-.36.74-.67,1.5-1.01,2.27ZM49.39,58.27c.02-.25.04-.38.05-.5.02-.24.02-.48.07-.71.13-.61.06-1.21-.13-1.8-.05-.16-.17-.3-.28-.43-.04-.05-.17-.09-.22-.06-.05.02-.11.15-.09.21.14.45.11.9.11,1.36,0,.3.01.61,0,.91,0,.29.09.56.2.81.03.06.12.09.28.21ZM50.71,51.88c.1-.05.13-.06.13-.07.01-.61.04-1.22.02-1.83,0-.23-.14-.45-.23-.68-.03-.08-.09-.17-.16-.2-.09-.04-.22-.06-.3-.02-.08.04-.15.17-.15.25,0,.26.07.52.07.78-.01.67.26,1.22.62,1.77ZM55.36,36s.01,0,.02,0c-.01-.26,0-.52-.04-.78-.03-.24-.31-.33-.5-.19-.14.11-.25.24-.25.43,0,.11-.02.22,0,.32.12.37.25.74.38,1.1.02.05.11.1.15.09.07-.02.15-.08.19-.14.04-.07.04-.17.05-.25,0-.2,0-.39,0-.59ZM47.7,29.43c0-.38.03-.73-.01-1.08-.02-.21-.1-.41-.06-.64.03-.16-.04-.34-.11-.5-.04-.08-.17-.14-.26-.16-.14-.02-.28.08-.29.22-.02.26-.04.53.03.77.1.38.26.74.41,1.11.05.11.07.26.29.28ZM30.74,73.08c.41-.08.66-.39.89-.7.24-.31.34-.66.33-.96-.52.16-.9.51-1.26.88-.09.09-.18.21-.2.32-.03.18.06.33.23.45ZM32.77,75.02c.52.09.76.02,1.07-.34.17-.19.32-.41.48-.62.05-.07.1-.15-.02-.24-.41.09-.81.23-1.21.41-.33.16-.46.39-.33.78ZM45.34,21.29c.06.21.12.46.2.71.07.21.14.41.24.61.08.17.25.25.37.19.15-.07.14-.21.11-.34-.08-.34-.16-.67-.25-1.01-.05-.19-.11-.38-.19-.55-.03-.06-.14-.11-.21-.11-.07,0-.16.08-.19.15-.05.09-.05.21-.08.37ZM37.39,72.49c-.06-.04-.12-.13-.19-.14-.51-.05-1-.31-1.56-.09.02.11,0,.23.05.3.12.14.27.32.44.37.22.06.48.05.7,0,.23-.05.46-.15.56-.44ZM36.5,70.83c.22.02.29.05.35.03.5-.1.94-.33,1.37-.58.13-.08.24-.2.32-.32.05-.08.08-.21.05-.3-.04-.11-.17-.11-.28-.07-.08.03-.16.06-.24.11-.26.16-.52.31-.77.48-.24.17-.47.37-.8.64ZM9.38,24.95c-.71.45-.82,1.12-.99,1.75,0,.03.01.1.04.11.05.02.14.05.17.02.54-.48.9-1.04.78-1.88ZM9.76,21.94c.3-.32.54-.57.78-.83.23-.25.54-.45.55-.83-.19-.13-.31-.05-.43.06-.31.3-.62.62-.93.92-.13.13-.21.29-.15.47.02.07.1.12.18.2ZM41.48,69.8c-.47.35-.88.76-1.28,1.19-.04.04-.09.12-.08.17.01.1.04.21.11.29.08.09.19.07.29,0,.52-.42.85-.95.96-1.63ZM20.64,28.38c-.27-.07-.54-.13-.8-.22-.31-.11-.55.04-.8.15-.18.08-.16.4.02.49.07.04.17.08.24.07.47-.05.92-.15,1.34-.49ZM45.1,62.19c-.04-.39-.14-.72-.33-1.02-.02-.04-.05-.08-.09-.09-.08-.02-.17-.04-.24-.02-.05.01-.11.09-.11.14-.01.24-.03.48,0,.72.03.16.13.33.25.44.07.07.25.08.36.05.07-.02.12-.15.16-.22ZM26.27,75.25c-.23.15-.47.3-.7.45-.25.17-.59.14-.84.42.14.1.25.23.38.25.16.03.35,0,.51-.06.46-.17.61-.57.65-1.07ZM40.43,66.1s-.1-.03-.14-.04c-.13.34-.27.68-.4,1.02-.07.2-.14.41-.18.62-.01.06.05.16.1.21.02.02.13,0,.17-.04.5-.51.6-1.11.45-1.77ZM36.09,60.08c-.35.13-.71.22-.93.55-.04.06-.05.17-.02.24.04.12.17.14.27.11.31-.09.62-.18.93-.31.08-.03.17-.16.17-.25,0-.08-.09-.18-.17-.24-.06-.05-.15-.07-.25-.11ZM16.35,68.45c-.17-.13-.35-.25-.55-.19-.26.09-.57.05-.8.26-.05.04-.09.1-.12.15-.06.08-.01.24.09.28.08.03.16.07.25.07.43-.01.78-.2,1.12-.45.01,0,0-.04.02-.13ZM46.21,47.05c.18.68.47,1.2.96,1.6.09.08.19.12.25-.03-.29-.96-.6-1.39-1.21-1.57ZM49.25,21.82c-.13-.55-.87-1.39-1.39-1.66.02.44.1.82.49,1.08.27.17.54.35.91.59ZM42.4,67.5c.12.06.22,0,.27-.1.24-.51.23-1.04.15-1.58,0-.06-.07-.11-.1-.16-.36.34-.46,1.03-.31,1.84ZM28.48,77.58q-.33-.42-.75-.28s-.09.02-.13.03c-.3.12-.36.38-.13.6.3.29.7.24.91-.13.04-.07.06-.16.09-.23ZM6.41,26.29c-.41.06-.66.37-.89.68-.07.09-.05.25-.05.38,0,.17.19.26.33.16.29-.2.54-.44.66-.78.05-.14.09-.29-.06-.44ZM53.97,45.58c-.28.24-.37.49-.46.72-.19.44-.35.88-.49,1.33-.03.09-.06.28.16.26q.81-1.79.79-2.31ZM7.12,48.87c-.05-.14-.17-.11-.26-.07-.58.21-.84.73-1.08,1.23-.08.17-.23.38-.11.65.32-.28.45-.66.7-.95.25-.29.5-.57.76-.87ZM30.82,75.28c-.36-.13-.68-.07-.98.14-.15.11-.18.36-.09.54.08.15.26.2.46.11.34-.15.58-.37.61-.79ZM31.97,67.75c-.39.1-.45.44-.64.67-.14.17-.22.38-.19.61.01.08.05.15.09.25.41-.16.5-.52.65-.82.11-.21.27-.42.09-.71ZM43.61,19.05c0-.24.04-.39,0-.48-.18-.32-.38-.63-.58-.94-.04-.06-.11-.1-.19-.16-.13.48-.13.54-.02.79.15.32.39.56.8.8ZM1.49,37.04c.49-.31.87-.71,1.19-1.17.03-.04-.02-.15-.04-.23-.91.43-1.27.86-1.15,1.4ZM38.28,64.34c-.18-.46-.39-.81-.74-1.04-.07-.05-.22-.03-.3.01-.08.05-.16.18-.15.26.02.19.08.38.31.45.26.08.52.19.88.32ZM21.16,34.37c-.36-.45-.77-.61-1.28-.41,0,.35.11.54.38.57.3.04.61.07.9-.16ZM45.9,40.46c-.51-.58-.92-1.04-1.72-1.03.42.59.89.96,1.72,1.03ZM31.94,33.86s-.03-.07-.04-.1c-.32,0-.65,0-.97,0-.3,0-.55.13-.73.36-.06.07-.1.21-.07.29.05.13.17.08.27.03.08-.04.16-.07.23-.11.33-.17.65-.35,1.04-.34.09,0,.18-.08.27-.13ZM22.53,13.86c.3-.16.55-.28.79-.42.25-.14.6-.11.77-.44-.51-.15-.92.1-1.34.23-.27.08-.28.16-.21.63ZM22.95,74.46c-.22-.02-.35-.03-.47-.05-.15-.03-.29-.08-.44-.1-.14-.01-.25.05-.32.18-.07.13-.04.25.05.36.19.24.34.27.62.14.22-.1.39-.25.57-.53ZM39.43,59.07s-.06.04-.06.05c-.07.38.15.65.39.89.12.13.41.06.53-.08.11-.13.08-.31-.08-.46-.05-.04-.09-.1-.15-.12-.21-.1-.42-.19-.62-.28ZM52.93,27.33s.04-.08.04-.12c-.09-.35-.19-.71-.3-1.05-.04-.12-.12-.23-.2-.33-.03-.04-.11-.04-.17-.03-.03,0-.07.05-.08.09-.11.53.19,1.13.71,1.44ZM40.08,63.35s.09-.06.14-.08c-.06-.3-.11-.61-.36-.84-.08-.07-.16-.14-.26-.2-.12-.07-.27.02-.3.15-.04.23,0,.44.19.59.19.14.39.26.59.38ZM27.53,73.18c.51-.21,1.12-.26,1.29-.91-.25-.15-.45-.03-.62.09-.29.2-.58.43-.67.82ZM8.45,56.47c-.39.29-.5.4-.56.64-.04.16-.04.34,0,.5.01.07.14.15.23.17.05.01.17-.08.19-.14.08-.37.28-.73.14-1.18ZM28.59,37.93s-.03-.04-.05-.04c-.51.07-.86.38-1.15.77-.03.05,0,.17.03.23.06.11.2.13.28.05.3-.3.59-.62.89-.94.01-.01,0-.04,0-.06ZM6.22,54.76c-.26.1-.39.28-.51.49-.1.18-.14.37-.1.57,0,.04.02.1.04.12.06.05.14.13.2.13.07,0,.19-.08.2-.13.04-.38.27-.74.16-1.18ZM10.64,59.21c-.16-.02-.31.16-.28.31.08.36.29.63.61.79.05.03.17-.02.23-.06.04-.03.05-.13.03-.18-.14-.26-.3-.52-.46-.78-.03-.05-.1-.07-.13-.08ZM11.58,62.42c.29-.07.56-.09.73-.32.06-.08.1-.19.1-.29,0-.13-.14-.16-.25-.15-.15,0-.31,0-.45.06-.16.06-.31.2-.3.39,0,.11.11.21.16.32ZM26.66,31.21c-.17-.47-.57-.58-.88-.78-.14-.09-.3-.26-.55-.11.24.47.68.66,1.09.89.07.04.19,0,.34,0ZM28.71,60.72c.28-.09.42-.23.44-.47.02-.24.01-.47,0-.71,0-.07-.07-.13-.12-.25-.36.44-.49.86-.31,1.43ZM49.61,38.7c.1,0,.18,0,.21-.02.34-.32.52-.73.65-1.17,0-.03-.02-.1-.05-.11-.05-.02-.14-.03-.17,0-.4.33-.58.77-.63,1.31ZM12.43,71.94c.1-.02.23-.02.35-.07.06-.03.11-.13.13-.2,0-.04-.06-.12-.11-.14-.25-.08-.49-.16-.75-.23-.17-.04-.28.1-.26.28.02.17.11.29.27.33.1.02.22.02.36.03ZM2.23,50.69c.3-.71.58-1.36.85-2.01,0-.02-.04-.06-.08-.11-.42.3-.47.81-.68,1.22-.13.26-.18.53-.08.9ZM36.63,55.09c.01-.13-.17-.29-.32-.26-.24.06-.45.16-.6.36-.08.1-.04.28.07.34.34.17.81-.08.85-.45ZM50.34,26.63c-.13.46-.08.64.26.98.14.14.28.29.52.11-.14-.43-.37-.78-.78-1.09ZM11.49,67.17c.42.22.75.03,1.08-.11.23-.1.49-.18.61-.5-.11,0-.21-.05-.28-.02-.47.2-.94.42-1.41.63ZM14.42,58.98c-.01-.07,0-.15-.03-.2-.03-.05-.09-.1-.14-.11-.05,0-.13.02-.17.06-.05.04-.09.1-.1.16-.07.29-.13.59-.18.88,0,.03.04.1.06.1.06,0,.15,0,.18-.03.2-.26.36-.54.39-.87ZM9.07,61.63c.03-.08.07-.15.06-.2-.08-.35-.3-.62-.54-.88-.05-.06-.19,0-.21.07-.05.22,0,.43.11.63.13.23.33.33.58.37ZM33.77,30.12c.08.15.1.22.14.25.33.28.78.23,1.14.43.02.01.07-.03.11-.04,0-.04.02-.11,0-.12-.31-.19-.61-.39-.94-.56-.09-.05-.25.02-.45.03ZM38.97,55.55c.31.09.55.06.77-.14-.01-.2-.12-.36-.27-.48-.11-.1-.23-.09-.35-.02-.28.15-.23.37-.15.64ZM2.93,32.25c.08-.08.21-.15.25-.26.11-.34.31-.66.3-1.05-.08.02-.13.02-.15.05-.2.31-.41.61-.58.93-.07.12.01.25.19.32ZM14.32,73.64c.03.36.22.46.42.55.19.09.36.26.6.2.05-.01.12-.14.11-.19-.03-.09-.1-.21-.18-.24-.28-.11-.57-.19-.94-.31ZM12.02,56.29c-.32.05-.54.19-.75.32-.03.02-.06.06-.08.1-.08.12-.03.31.1.4.11.07.21.03.29-.05.21-.19.41-.38.45-.77ZM31.1,63.46c-.07,0-.14,0-.14,0-.16.36-.26.73-.2,1.13.01.06.08.12.14.2.36-.45.23-.9.2-1.34ZM39.08,34.89c-.07-.22-.22-.35-.39-.43-.11-.05-.25-.04-.38-.04-.16,0-.24.21-.14.34.05.06.13.14.2.15.23.04.46.06.7-.02ZM40.33,13.77c-.06-.15-.12-.31-.19-.46-.07-.14-.13-.28-.23-.39-.04-.05-.17-.07-.23-.04-.05.03-.1.15-.08.22.1.34.3.61.73.68ZM5.21,37.38c-.13-.02-.21-.06-.28-.04-.28.08-.51.25-.68.48-.05.07-.07.16.05.25.33-.15.72-.23.92-.68ZM13.88,28.76c-.47-.02-.77.11-.97.42-.02.03-.03.1-.01.12.04.04.1.1.15.09.34-.05.57-.25.84-.63ZM46.06,52.17c-.14-.32-.21-.52-.32-.71-.08-.14-.28-.2-.32-.12-.04.09-.08.22-.04.31.1.24.25.44.68.52Z"/>
        <path class="cls-4" d="M28.92,67.45c-.19.61-.38,1.21-.58,1.81-.09.27-.24.51-.43.73-.27.31-.51.66-.78.97-.45.53-1.06.84-1.7,1.09-.72.28-1.46.46-2.25.4-.39-.03-.79,0-1.18.02-.43.02-.82-.03-1.19-.29-.36-.25-.74-.46-1.1-.72-.29-.2-.52-.46-.7-.77-.14-.25-.29-.49-.48-.7-.66-.73-1.09-1.59-1.46-2.48-.17-.4-.36-.8-.52-1.21-.24-.59-.48-1.18-.56-1.81-.03-.19-.11-.38-.19-.56-.36-.75-.49-1.55-.54-2.36-.03-.54.06-1.09.12-1.64.04-.35.14-.69.2-1.03.03-.19.06-.39.06-.59,0-.57,0-1.14,0-1.71,0-.28-.06-.52-.25-.73-.36-.41-.68-.85-1.12-1.2-.33-.26-.6-.57-.91-.86-.19-.18-.38-.38-.61-.49-.59-.29-1.03-.74-1.35-1.3-.22-.39-.49-.72-.82-1.02-.16-.14-.32-.31-.41-.51-.56-1.19-1.22-2.33-1.7-3.56-.37-.95-.64-1.91-.76-2.91-.03-.24-.07-.48-.13-.71-.25-1.07-.33-2.16-.29-3.26.02-.67.26-1.29.46-1.91.34-1.05.84-2.02,1.67-2.79.26-.24.49-.51.68-.8.49-.74,1.2-1.15,2.03-1.34.61-.14,1.25-.19,1.88-.28.24-.03.48-.05.72-.06.13,0,.26,0,.39.02.56.11,1.1.28,1.61.54.26.13.48.3.65.54.36.52.74,1.02,1.21,1.47.31.3.55.68.79,1.04.39.58.76,1.18,1.15,1.76.08.13.16.27.28.36.59.5,1.03,1.13,1.51,1.73.37.47.87.65,1.41.76.64.13,1.3.14,1.96.12.36-.01.69-.08,1.02-.22.44-.19.87-.41,1.25-.71,1.06-.85,2.12-1.7,3.18-2.56.27-.22.52-.47.77-.72.6-.59,1.34-.9,2.12-1.15.14-.05.3-.04.46-.04.29,0,.57.01.86,0,.94-.03,1.82.24,2.66.62.5.23.93.58,1.25,1.04.29.41.55.84.96,1.16.1.08.18.2.24.31.55.98,1.01,1.99,1.13,3.13.05.47.13.94.14,1.42.03,1.19.03,2.29-.17,3.38-.12.67-.2,1.34-.38,2-.31,1.14-.86,2.14-1.5,3.12-.68,1.04-1.57,1.73-2.71,2.18-.81.33-1.61.69-2.45.95-.4.12-.81.2-1.23.2-.2,0-.4,0-.59.05-.55.16-1.12.21-1.69.18-.09,0-.17.02-.26.03-.14,0-.27,0-.41-.01-.11,0-.23-.04-.32,0-.57.22-1.14.45-1.7.71-.12.06-.23.21-.29.34-.17.36-.3.72-.29,1.13.01.37-.01.74-.02,1.12-.02.99.1,1.96.27,2.94.05.28.08.56.14.84.07.32.17.63.25.95.01.13.02.26.03.39.04.09.07.17.11.26-.01.15-.03.31.1.42,0,.08.02.16.03.24-.01.23-.05.47.11.68.05.35.11.69.16,1.04,0,.26,0,.52,0,.78ZM21,64.63c.13.16.2.24.27.33.58.8,1.27,1.51,2.05,2.12.76.59,1.62.6,2.49.31.32-.1.38-.33.23-.63-.06-.12-.13-.23-.2-.34-.14-.24-.32-.39-.62-.44-.23-.03-.47-.12-.68-.23-1.19-.57-2.06-1.46-2.69-2.61-.09-.17-.17-.36-.22-.54-.34-1.3-.54-2.61-.53-3.96.01-1.64.03-3.29.03-4.93,0-.55.06-1.09.15-1.63.04-.28.09-.56.13-.84.11-.71.21-1.43.4-2.13.14-.55.24-1.11.38-1.66.2-.76.29-1.55.62-2.28.15-.34.24-.7.34-1.06.02-.08-.04-.22-.11-.27-.1-.08-.2.02-.27.1-.26.31-.41.67-.57,1.03-.47,1.11-.77,2.28-1.16,3.42-.21.62-.36,1.26-.46,1.91-.11.73-.22,1.48-.45,2.18-.3.94-.37,1.89-.41,2.85-.05,1.34-.04,2.67-.04,4.01,0,.33.06.65.1.98.05.41.14.82.14,1.24,0,.61-.05,1.22-.07,1.83-.02.49-.14.95-.35,1.39-.29.62-.65,1.19-1.2,1.62-.19.16-.2.24-.08.52.02.06.08.1.13.15.45.02.81-.18,1.13-.45.47-.4.88-.85,1.16-1.41.09-.17.19-.33.34-.58ZM14.03,47.2h0c.09,0,.18,0,.26,0,.45.02.81-.17,1.08-.51.3-.38.5-.82.62-1.29.06-.24.02-.47-.09-.7-.13-.28-.25-.56-.34-.85-.22-.65-.6-1.06-1.35-1-.04,0-.09,0-.13,0-.65-.02-1.15.23-1.45.82-.1.19-.2.39-.29.59-.15.31-.17.63-.12.96.03.22.07.43.11.65.11.7.62,1.45,1.57,1.35.04,0,.09,0,.13,0ZM32.62,48.15c.28-.05.56-.09.84-.14.53-.1.83-.43.99-.93.19-.65.09-1.26-.21-1.84-.31-.58-.88-.89-1.43-1.2-.05-.03-.13-.02-.19-.03-1.1-.12-1.74.72-1.73,1.6,0,.56.12,1.13.36,1.65.3.68.62.88,1.38.89ZM17.15,43.71c.14,0,.28-.13.27-.31-.01-.34-.18-.62-.41-.86-.14-.14-.54,0-.59.2-.11.43.28.94.73.96ZM25.42,43.25c-.42.08-.55.38-.64.7-.09.31,0,.58.16.86.28-.31.62-1,.61-1.29,0-.09-.09-.18-.13-.27ZM9.23,39.91c.54-.14.6-.23.76-1.18-.37,0-.69.08-.88.42-.16.28-.09.54.11.76ZM40.29,47.92c.5-.32.52-.75.43-1.23-.03-.17-.21-.24-.35-.14-.33.22-.44.55-.3.91.06.16.15.3.23.46ZM38.2,48.05c-.5.5-.64,1.01-.71,1.56,0,.05.05.15.09.16.07.02.17.01.24-.03.07-.04.14-.12.17-.19.21-.44.32-.89.21-1.5ZM35.6,53.71c.29.09.5.09.71.04.29-.08.49-.28.58-.57.02-.07,0-.19-.05-.24-.05-.05-.16-.08-.23-.06-.44.1-.7.42-1.01.83ZM18.86,48.95c-.01-.21-.19-.33-.34-.29-.44.13-.55.53-.73.87-.02.03.03.13.07.17.04.04.14.06.17.04.25-.17.5-.35.73-.55.07-.06.09-.19.1-.24ZM36.05,47.2s.07.03.09.02c.04,0,.1,0,.12-.03.23-.41.38-.83.14-1.29-.03-.07-.12-.14-.19-.14-.07,0-.17.06-.2.13-.05.11-.1.25-.09.37.03.32.09.64.14.94ZM15.45,41.55c-.1-.27-.32-.33-.52-.39-.2-.06-.39.04-.56.14-.12.06-.19.17-.17.32.03.15.16.28.31.29.36.01.67-.11.94-.36ZM8.37,42.22c-.47.22-.53.3-.45.69.03.12.06.25.12.36.03.07.13.15.18.15.09-.01.22-.07.26-.14.16-.35.17-.7-.11-1.06ZM38.27,46.43s.09,0,.14.01c.08-.46.18-.93.05-1.41-.02-.07-.11-.15-.17-.17-.07-.01-.18.04-.22.1-.15.2-.21.43-.11.68.11.26.21.52.32.78ZM31.52,49.51c.01-.32-.26-.65-.5-.67-.27-.03-.47.22-.37.47.06.14.14.27.24.39.11.13.28.15.42.06.1-.06.16-.18.21-.24ZM35.3,49.2c.41-.03.67-.34.64-.76,0-.1-.12-.22-.21-.21-.33.02-.67.34-.7.67-.02.15.14.31.28.3ZM36.99,43.03c-.12-.44-.29-.8-.57-1.09-.05-.05-.17-.07-.23-.04-.07.02-.13.11-.15.18-.02.08,0,.18.02.25.14.42.47.61.93.69ZM11.22,43.98c-.05-.02-.11-.03-.16-.05-.14.27-.28.55-.32.87-.01.1,0,.22.02.32.02.11.09.22.21.2.09-.01.21-.07.26-.15.06-.1.1-.25.09-.37-.02-.28-.07-.55-.11-.83ZM21.64,43.84c0-.25-.1-.44-.23-.48-.14-.04-.3.07-.39.27-.03.08-.06.16-.08.25-.04.22.09.52.23.56.16.05.35-.13.43-.4.02-.08.03-.17.04-.2ZM39.99,43.69c.17-.36.04-.66-.24-.91-.12-.11-.31-.06-.38.09-.13.28,0,.51.13.73.11.18.29.16.48.09ZM32.17,42.76c.02-.19-.13-.34-.25-.29-.24.1-.47.22-.69.36-.12.08-.1.23-.03.36.07.12.2.18.33.11.19-.11.37-.23.54-.37.06-.05.08-.15.09-.18ZM19.43,47.36c.43-.25.52-.58.62-.9.04-.15-.06-.35-.16-.39-.1-.03-.28.07-.35.23-.05.1-.09.2-.09.3-.01.21,0,.42,0,.76ZM12.56,37.98c.31-.01.53-.07.7-.27.07-.08.13-.2.05-.29-.06-.08-.18-.18-.25-.16-.21.04-.41.12-.6.22-.13.06-.16.21-.09.34.05.08.15.13.19.17ZM34.63,38.97c-.29-.21-.54-.34-.7-.32-.15.02-.29.07-.42.14-.11.06-.12.17-.07.28.06.13.15.22.3.21.33,0,.64-.08.9-.31ZM12.33,41.99c-.24,0-.44.13-.62.28-.07.05-.09.19-.08.29.01.12.09.23.13.35.29-.02.49-.12.6-.36.08-.18.16-.36-.02-.55ZM11.23,41.37c.41.02.74-.32.66-.66-.02-.08-.15-.19-.22-.19-.24.02-.46.12-.6.34-.08.12-.07.25,0,.36.04.07.11.11.14.14ZM10.35,44.23c0-.39-.08-.58-.22-.58-.18,0-.38.2-.42.43-.03.18,0,.34.11.49.1.15.35.15.43-.02.06-.13.09-.28.11-.32ZM30.99,53.9c.4.35.83.52,1.13.47.06,0,.13-.03.19-.06.11-.05.19-.14.15-.25-.02-.07-.12-.15-.19-.15-.39-.01-.78,0-1.27,0ZM28.82,44.21c.22-.31.38-.54.53-.77.03-.05.06-.12.06-.18,0-.06-.02-.14-.06-.17-.04-.03-.13-.05-.17-.02-.35.15-.56.52-.52.89,0,.07.08.14.16.26ZM17.03,38.06c-.04-.29-.18-.46-.34-.61-.19-.18-.47-.16-.63.04-.04.05-.06.19-.02.23.08.09.19.18.31.22.2.06.42.07.69.11ZM17.52,46.65c.23-.23.28-.48.31-.73.02-.17.01-.35-.12-.49-.04-.04-.12-.09-.17-.07-.08.02-.17.06-.2.13-.04.09-.05.21-.04.32.01.28.11.54.22.85ZM11.79,46.88c-.04-.1-.07-.25-.14-.38-.05-.11-.18-.15-.28-.09-.09.04-.19.13-.21.21-.05.22.04.43.18.6.04.05.16.08.23.07.07-.02.13-.1.17-.17.03-.05.03-.12.05-.24ZM33.35,42.98c.11,0,.18,0,.24-.01.13-.01.27-.03.3-.19.03-.15-.07-.25-.18-.32-.2-.15-.41-.13-.61.01-.06.04-.13.15-.12.21.02.1.08.2.16.26.06.05.16.04.21.05ZM17.84,40.82c-.1-.26-.15-.44-.24-.61-.08-.16-.31-.19-.52-.11-.12.05-.15.17-.06.39.03.08.09.14.14.22.2.03.38.06.68.11ZM16.3,47.92c-.33,0-.57.13-.71.32-.08.11-.03.29.1.32.25.06.47-.02.65-.18.06-.05.06-.2.05-.3,0-.08-.08-.15-.08-.16ZM25.81,47.89c-.23.54-.2.94-.07,1.34.03.09.09.15.23.1.09-.43.1-.87-.15-1.45ZM11.62,35.67c-.09-.05-.19-.17-.28-.16-.16,0-.33.07-.48.16-.07.04-.11.19-.09.27.02.08.13.18.22.19.26.04.46-.07.59-.29.02-.03.02-.08.04-.17ZM16.97,35.88c.05.46.16.62.46.67.09.01.22-.02.29-.08.1-.08.04-.21-.04-.29-.19-.22-.4-.39-.72-.29ZM32.32,51.63c-.33-.25-.41-.26-.76-.1-.1.05-.21.12-.15.24.04.09.14.19.23.2.29.04.55-.04.69-.34ZM39.32,50.65c-.51.09-.57.47-.63.9.69-.34.71-.37.63-.9ZM8.86,37.84c.24,0,.45-.17.52-.4.03-.09-.05-.22-.15-.25-.27-.07-.52.07-.6.34-.05.15.07.31.23.3ZM15.1,50.77c.24.14.45.14.66.06.06-.02.13-.06.15-.12.04-.09.07-.21.05-.3-.03-.12-.15-.13-.27-.11-.25.05-.45.16-.59.46ZM34.41,41.07c-.05-.3-.25-.46-.49-.56-.07-.03-.18,0-.24.03-.07.04-.14.12-.14.19,0,.07.05.18.11.21.24.1.48.2.77.13ZM33.5,49.45c0-.18-.11-.29-.28-.29-.22,0-.38.11-.38.27,0,.2.16.38.37.37.19,0,.3-.14.3-.35ZM18.75,38.59c.04.12.09.29.17.44.03.05.14.08.22.07.04,0,.11-.08.12-.13.06-.25-.04-.47-.18-.67-.02-.03-.08-.06-.11-.05-.06.02-.12.05-.15.1-.03.05-.03.12-.06.24ZM13.63,39.49c0,.19.12.32.25.3.12-.02.25-.06.36-.11.1-.04.21-.12.16-.24-.04-.08-.15-.14-.24-.18-.15-.07-.3-.02-.42.07-.06.04-.09.13-.11.16ZM30.75,39.57c-.17,0-.27-.04-.34-.01-.14.04-.29.09-.42.17-.12.07-.14.23-.06.35.08.11.18.11.29.06.23-.1.4-.25.54-.56ZM35.44,44.47c.09-.24.05-.46-.12-.66-.08-.1-.23-.12-.35-.05-.11.06-.13.16-.1.27.08.28.26.42.57.43ZM29.92,47.14c.18-.23.2-.47.09-.72-.04-.1-.15-.15-.27-.12-.12.03-.17.12-.18.23-.01.26.09.45.36.6ZM9.44,46.71c-.06.4.08.66.39.84.04.02.14.01.18-.02.04-.03.07-.12.05-.17-.11-.29-.29-.51-.61-.65ZM39.21,39.72c-.05-.29-.14-.51-.39-.64-.05-.03-.15-.03-.17,0-.05.05-.1.15-.08.21.09.3.32.41.64.43ZM14.66,35.2c-.29-.22-.5-.33-.76-.21-.1.04-.15.18-.1.28.07.13.17.22.31.18.16-.05.31-.14.54-.25ZM35.6,51.25s.07.07.1.11c.24-.07.44-.22.61-.41.04-.04.08-.13.07-.17-.02-.07-.1-.17-.14-.17-.1,0-.22.05-.28.12-.14.16-.24.35-.36.52ZM27.46,41.79c-.36.23-.48.5-.53.8-.02.11-.05.26.17.31.16-.32.25-.67.37-1.11ZM37.55,40.39c-.01-.21-.1-.38-.25-.51-.05-.05-.17-.06-.24-.03-.06.03-.12.13-.12.2-.01.16.04.31.19.39.14.07.29.09.42-.04ZM28.86,50.09c.03-.07.1-.14.09-.2-.04-.2-.14-.37-.34-.44-.05-.02-.12,0-.17.03-.03.01-.04.07-.04.11.01.18.09.34.24.44.05.03.12.03.23.06ZM19.51,43.79c.03-.17.08-.33.09-.49.01-.14-.12-.28-.23-.27-.14.01-.24.18-.21.35.04.18.12.32.34.41ZM31.64,41.2c-.33-.19-.54-.12-.7.09-.05.06-.02.21.02.29.06.12.2.1.28.04.13-.1.23-.25.39-.42ZM12.79,48.39c-.02-.22-.2-.35-.38-.32-.15.02-.25.14-.22.26.04.2.2.34.36.27.1-.04.17-.15.24-.21ZM30.18,44.45c-.19,0-.34.15-.36.31-.01.13,0,.27.14.34.1.05.23-.04.28-.2.03-.1.03-.21.02-.32,0-.06-.06-.11-.07-.12ZM34.71,36.75c.06.09.1.22.18.24.14.04.3.03.45.03.03,0,.08-.06.08-.08,0-.06-.02-.13-.06-.17-.19-.15-.39-.19-.64-.03ZM27.6,52.09c.05.3.09.53.29.69.03.02.1.04.12.02.04-.04.1-.11.09-.15-.06-.24-.22-.4-.5-.56ZM20.02,40.54c.18-.13.22-.28.15-.46-.02-.05-.09-.11-.14-.1-.07,0-.17.05-.2.11-.07.2-.01.36.18.45ZM21.76,41.08c-.14.24-.15.49-.06.82.18-.31.22-.56.06-.82ZM24.17,42.81c-.01-.17-.14-.23-.23-.16-.05.04-.1.08-.13.13-.06.09-.08.2.03.28.1.07.21.02.27-.07.05-.06.06-.15.07-.18ZM26.99,46.44c.11-.15.09-.3.04-.44,0-.03-.06-.07-.1-.07-.03,0-.09.03-.1.05-.05.18-.05.34.15.46ZM30.27,47.92q.06-.29-.17-.38c-.06.18-.06.32.17.38Z"/>
        <path class="cls-9" d="M49.39,58.27c-.16-.11-.25-.15-.28-.21-.11-.26-.21-.52-.2-.81,0-.3,0-.61,0-.91,0-.45.03-.91-.11-1.36-.02-.06.03-.19.09-.21.05-.03.18.01.22.06.11.13.22.28.28.43.19.59.26,1.18.13,1.8-.05.23-.05.47-.07.71-.01.13-.02.25-.05.5Z"/>
        <path class="cls-18" d="M50.71,51.88c-.36-.55-.63-1.11-.62-1.77,0-.26-.06-.52-.07-.78,0-.09.07-.22.15-.25.08-.04.21-.02.3.02.07.03.13.12.16.2.09.22.22.45.23.68.02.61,0,1.22-.02,1.83,0,.01-.03.02-.13.07Z"/>
        <path class="cls-9" d="M55.36,36c0,.2,0,.39,0,.59,0,.09,0,.18-.05.25-.04.07-.12.12-.19.14-.04.01-.13-.05-.15-.09-.14-.36-.27-.73-.38-1.1-.03-.1-.01-.22,0-.32,0-.19.11-.32.25-.43.19-.15.47-.05.5.19.04.26.03.52.04.78,0,0-.01,0-.02,0Z"/>
        <path class="cls-3" d="M47.7,29.43c-.23-.01-.25-.17-.29-.28-.15-.36-.31-.73-.41-1.11-.06-.24-.05-.52-.03-.77.01-.14.15-.23.29-.22.09.01.22.08.26.16.07.15.13.34.11.5-.04.23.04.43.06.64.04.34.01.7.01,1.08Z"/>
        <path class="cls-9" d="M30.74,73.08c-.17-.12-.26-.27-.23-.45.02-.12.11-.23.2-.32.36-.38.74-.72,1.26-.88,0,.3-.1.64-.33.96-.23.31-.48.62-.89.7Z"/>
        <path class="cls-18" d="M32.77,75.02c-.13-.4,0-.62.33-.78.39-.19.8-.32,1.21-.41.12.09.07.17.02.24-.16.21-.31.43-.48.62-.31.35-.55.42-1.07.34Z"/>
        <path class="cls-21" d="M45.34,21.29c.03-.16.03-.27.08-.37.03-.07.12-.14.19-.15.07,0,.18.05.21.11.08.18.14.36.19.55.09.33.17.67.25,1.01.03.13.04.27-.11.34-.12.06-.29-.01-.37-.19-.09-.2-.17-.4-.24-.61-.08-.25-.14-.5-.2-.71Z"/>
        <path class="cls-15" d="M37.39,72.49c-.1.29-.33.39-.56.44-.23.05-.49.06-.7,0-.17-.05-.31-.22-.44-.37-.06-.06-.04-.19-.05-.3.56-.22,1.05.04,1.56.09.07,0,.13.09.19.14Z"/>
        <path class="cls-25" d="M28.62,64.71c-.13-.12-.12-.27-.1-.42.13-.17.12-.19-.11-.26-.01-.13-.02-.26-.03-.39.19-.15.17-.39.26-.58.04-.09.09-.18.14-.29.44.57.5,1,.31,1.85-.16.03-.31.06-.47.09Z"/>
        <path class="cls-21" d="M36.5,70.83c.34-.27.56-.47.8-.64.25-.18.51-.33.77-.48.07-.04.16-.08.24-.11.11-.04.24-.04.28.07.03.08,0,.22-.05.3-.08.12-.2.24-.32.32-.43.26-.88.48-1.37.58-.06.01-.13-.01-.35-.03Z"/>
        <path class="cls-15" d="M9.38,24.95c.12.85-.24,1.41-.78,1.88-.03.03-.12,0-.17-.02-.03-.01-.05-.08-.04-.11.18-.63.28-1.31.99-1.75Z"/>
        <path class="cls-9" d="M9.76,21.94c-.08-.09-.16-.14-.18-.2-.06-.18.01-.34.15-.47.31-.31.62-.62.93-.92.11-.11.24-.19.43-.06-.01.38-.32.58-.55.83-.24.26-.48.51-.78.83Z"/>
        <path class="cls-21" d="M41.48,69.8c-.11.68-.44,1.22-.96,1.63-.1.08-.21.1-.29,0-.06-.07-.09-.19-.11-.29,0-.05.04-.13.08-.17.4-.42.81-.83,1.28-1.19Z"/>
        <path class="cls-15" d="M20.64,28.38c-.42.34-.87.44-1.34.49-.08,0-.17-.03-.24-.07-.18-.09-.2-.41-.02-.49.25-.11.49-.27.8-.15.26.1.53.15.8.22Z"/>
        <path class="cls-9" d="M45.1,62.19c-.04.06-.08.2-.16.22-.11.03-.28.02-.36-.05-.12-.11-.22-.28-.25-.44-.04-.23-.02-.48,0-.72,0-.05.06-.13.11-.14.08-.02.17,0,.24.02.04,0,.07.05.09.09.19.3.29.63.33,1.02Z"/>
        <path class="cls-21" d="M26.27,75.25c-.03.5-.19.91-.65,1.07-.16.06-.35.09-.51.06-.13-.02-.24-.16-.38-.25.24-.28.59-.26.84-.42.23-.16.47-.3.7-.45Z"/>
        <path class="cls-28" d="M40.43,66.1c.15.66.05,1.26-.45,1.77-.04.04-.15.07-.17.04-.05-.05-.12-.14-.1-.21.04-.21.1-.42.18-.62.13-.34.27-.68.4-1.02.05.01.1.03.14.04Z"/>
        <path class="cls-26" d="M36.09,60.08c.09.04.18.06.25.11.07.06.17.16.17.24,0,.09-.09.21-.17.25-.3.12-.61.22-.93.31-.1.03-.23.02-.27-.11-.02-.07-.02-.18.02-.24.22-.33.59-.42.93-.55Z"/>
        <path class="cls-3" d="M16.35,68.45c-.01.09,0,.12-.02.13-.33.25-.69.44-1.12.45-.08,0-.17-.04-.25-.07-.1-.04-.14-.2-.09-.28.04-.05.08-.11.12-.15.22-.21.53-.17.8-.26.2-.07.38.05.55.19Z"/>
        <path class="cls-13" d="M46.21,47.05c.61.18.92.61,1.21,1.57-.07.15-.16.11-.25.03-.48-.4-.78-.92-.96-1.6Z"/>
        <path class="cls-28" d="M49.25,21.82c-.37-.24-.64-.41-.91-.59-.39-.25-.47-.63-.49-1.08.52.27,1.26,1.11,1.39,1.66Z"/>
        <path class="cls-3" d="M42.4,67.5c-.15-.81-.05-1.49.31-1.84.04.05.09.1.1.16.09.54.1,1.07-.15,1.58-.05.1-.14.16-.27.1Z"/>
        <path class="cls-15" d="M28.48,77.58c-.03.07-.05.15-.09.23-.21.37-.62.43-.91.13-.23-.23-.18-.48.13-.6.04-.02.08-.02.13-.03q.42-.14.75.28Z"/>
        <path class="cls-9" d="M6.41,26.29c.15.15.12.29.06.44-.13.34-.38.58-.66.78-.14.1-.33,0-.33-.16,0-.13-.02-.29.05-.38.23-.31.47-.62.89-.68Z"/>
        <path class="cls-13" d="M53.97,45.58q.02.53-.79,2.31c-.22.02-.19-.16-.16-.26.15-.45.31-.9.49-1.33.1-.23.18-.48.46-.72Z"/>
        <path class="cls-13" d="M7.12,48.87c-.26.29-.51.58-.76.87-.25.29-.38.67-.7.95-.11-.27.03-.48.11-.65.24-.51.5-1.02,1.08-1.23.1-.04.21-.06.26.07Z"/>
        <path class="cls-3" d="M30.82,75.28c-.03.43-.28.65-.61.79-.19.09-.37.04-.46-.11-.1-.18-.06-.43.09-.54.3-.22.62-.28.98-.14Z"/>
        <path class="cls-26" d="M31.97,67.75c.18.3.02.51-.09.71-.16.3-.24.66-.65.82-.04-.1-.08-.18-.09-.25-.03-.23.05-.44.19-.61.19-.23.25-.57.64-.67Z"/>
        <path class="cls-25" d="M30.35,55.62c.14,0,.27,0,.41.01-.07.16-.11.33-.21.47-.2.28-.43.54-.65.8-.05.06-.14.08-.26.15-.03-.15-.07-.25-.06-.34.04-.24.17-.44.34-.61.15-.15.29-.32.43-.48Z"/>
        <path class="cls-9" d="M43.61,19.05c-.41-.24-.65-.47-.8-.8-.12-.25-.11-.31.02-.79.08.06.15.1.19.16.2.31.41.62.58.94.05.1,0,.24,0,.48Z"/>
        <path class="cls-28" d="M1.49,37.04c-.12-.54.24-.98,1.15-1.4.02.09.07.19.04.23-.32.46-.69.86-1.19,1.17Z"/>
        <path class="cls-8" d="M38.28,64.34c-.36-.13-.61-.24-.88-.32-.23-.07-.3-.25-.31-.45,0-.09.07-.21.15-.26.08-.05.23-.06.3-.01.36.23.56.58.74,1.04Z"/>
        <path class="cls-9" d="M21.16,34.37c-.29.24-.6.2-.9.16-.27-.03-.38-.22-.38-.57.52-.2.92-.04,1.28.41Z"/>
        <path class="cls-28" d="M45.9,40.46c-.82-.08-1.29-.44-1.72-1.03.8,0,1.21.45,1.72,1.03Z"/>
        <path class="cls-28" d="M31.94,33.86c-.09.04-.18.13-.27.13-.39,0-.71.18-1.04.34-.08.04-.16.08-.23.11-.1.05-.23.1-.27-.03-.03-.08.01-.22.07-.29.18-.23.43-.36.73-.36.32,0,.65,0,.97,0,.01.03.03.07.04.1Z"/>
        <path class="cls-3" d="M22.53,13.86c-.07-.47-.06-.54.21-.63.42-.13.83-.38,1.34-.23-.17.33-.52.3-.77.44-.24.14-.49.26-.79.42Z"/>
        <path class="cls-3" d="M22.95,74.46c-.18.27-.35.42-.57.53-.28.13-.43.1-.62-.14-.09-.11-.12-.23-.05-.36.07-.13.18-.19.32-.18.15.02.29.07.44.1.13.02.25.03.47.05Z"/>
        <path class="cls-3" d="M39.43,59.07c.2.09.41.18.62.28.06.03.1.08.15.12.15.15.18.33.08.46-.12.14-.4.21-.53.08-.24-.24-.45-.51-.39-.89,0-.02.03-.03.06-.05Z"/>
        <path class="cls-21" d="M52.93,27.33c-.52-.31-.82-.92-.71-1.44,0-.04.05-.09.08-.09.06,0,.14,0,.17.03.08.1.16.21.2.33.11.35.2.7.3,1.05,0,.03-.02.08-.04.12Z"/>
        <path class="cls-21" d="M40.08,63.35c-.2-.13-.4-.24-.59-.38-.19-.15-.23-.36-.19-.59.02-.13.18-.22.3-.15.09.06.18.12.26.2.25.24.3.54.36.84-.05.03-.09.06-.14.08Z"/>
        <path class="cls-13" d="M52.73,39.15c-.14.32-.27.63-.42.95-.03.06-.08.11-.12.15-.11.1-.33.11-.42.02-.11-.1-.1-.24-.06-.36.02-.06.06-.12.1-.16.26-.26.54-.51.91-.59h0Z"/>
        <path class="cls-13" d="M27.53,73.18c.09-.39.38-.62.67-.82.17-.12.37-.24.62-.09-.17.66-.78.71-1.29.91Z"/>
        <path class="cls-11" d="M8.45,56.47c.13.45-.06.81-.14,1.18-.01.06-.13.15-.19.14-.09-.02-.22-.1-.23-.17-.03-.16-.03-.34,0-.5.05-.24.17-.35.56-.64Z"/>
        <path class="cls-11" d="M28.59,37.93s.01.05,0,.06c-.29.32-.58.63-.89.94-.08.08-.22.06-.28-.05-.04-.06-.06-.19-.03-.23.29-.39.64-.7,1.15-.77.01,0,.03.03.05.04Z"/>
        <path class="cls-15" d="M28.92,67.45c0-.26,0-.52,0-.78.15.13.3.25.44.39.15.15.31.31.43.49.07.11.07.25-.03.36-.08.08-.22.05-.36-.04-.18-.12-.2-.41-.47-.42Z"/>
        <path class="cls-26" d="M6.22,54.76c.11.44-.12.8-.16,1.18,0,.05-.13.13-.2.13-.07,0-.14-.08-.2-.13-.03-.03-.04-.08-.04-.12-.04-.2,0-.39.1-.57.12-.21.25-.4.51-.49Z"/>
        <path class="cls-28" d="M10.64,59.21s.1.04.13.08c.16.25.32.51.46.78.02.04,0,.15-.03.18-.06.04-.17.09-.23.06-.33-.16-.53-.43-.61-.79-.03-.15.12-.34.28-.31Z"/>
        <path class="cls-13" d="M11.58,62.42c-.06-.1-.16-.21-.16-.32-.01-.19.14-.32.3-.39.13-.05.3-.05.45-.06.11,0,.24.03.25.15,0,.09-.04.21-.1.29-.17.23-.44.25-.73.32Z"/>
        <path class="cls-15" d="M26.66,31.21c-.15,0-.27.04-.34,0-.41-.22-.85-.42-1.09-.89.25-.15.41.02.55.11.31.2.71.31.88.78Z"/>
        <path class="cls-28" d="M28.71,60.72c-.17-.57-.04-.99.31-1.43.06.11.12.18.12.25.01.24.02.47,0,.71-.02.24-.16.38-.44.47Z"/>
        <path class="cls-28" d="M49.61,38.7c.05-.54.23-.98.63-1.31.04-.03.12-.01.17,0,.03,0,.06.08.05.11-.13.44-.3.85-.65,1.17-.03.03-.11.01-.21.02Z"/>
        <path class="cls-15" d="M12.43,71.94c-.14-.01-.26,0-.36-.03-.17-.04-.25-.16-.27-.33-.02-.18.09-.32.26-.28.25.06.5.14.75.23.05.02.12.1.11.14-.02.08-.07.17-.13.2-.12.05-.25.05-.35.07Z"/>
        <path class="cls-15" d="M2.23,50.69c-.1-.37-.05-.63.08-.9.21-.41.26-.92.68-1.22.04.05.09.09.08.11-.27.65-.54,1.3-.85,2.01Z"/>
        <path class="cls-13" d="M36.63,55.09c-.04.37-.51.62-.85.45-.12-.06-.15-.23-.07-.34.15-.2.37-.31.6-.36.15-.03.33.12.32.26Z"/>
        <path class="cls-28" d="M50.34,26.63c.41.31.64.67.78,1.09-.24.18-.38.02-.52-.11-.34-.33-.39-.51-.26-.98Z"/>
        <path class="cls-26" d="M11.49,67.17c.47-.21.94-.43,1.41-.63.07-.03.16,0,.28.02-.11.31-.37.4-.61.5-.33.14-.67.33-1.08.11Z"/>
        <path class="cls-11" d="M14.42,58.98c-.03.33-.19.61-.39.87-.03.04-.12.04-.18.03-.02,0-.07-.07-.06-.1.05-.3.11-.59.18-.88.01-.06.06-.12.1-.16.04-.04.12-.07.17-.06.05,0,.11.06.14.11.03.05.02.13.03.2Z"/>
        <path class="cls-9" d="M9.07,61.63c-.26-.04-.46-.14-.58-.37-.11-.2-.16-.4-.11-.63.02-.08.16-.13.21-.07.23.26.45.53.54.88.01.05-.03.12-.06.2Z"/>
        <path class="cls-11" d="M33.77,30.12c.2-.02.35-.08.45-.03.32.16.63.36.94.56.02.01,0,.08,0,.12-.03.01-.08.05-.11.04-.36-.2-.81-.16-1.14-.43-.04-.04-.06-.11-.14-.25Z"/>
        <path class="cls-15" d="M38.97,55.55c-.08-.27-.13-.49.15-.64.13-.07.24-.08.35.02.15.13.26.28.27.48-.22.19-.46.23-.77.14Z"/>
        <path class="cls-15" d="M2.93,32.25c-.18-.07-.26-.2-.19-.32.17-.32.38-.62.58-.93.02-.03.08-.03.15-.05,0,.39-.19.71-.3,1.05-.03.1-.17.18-.25.26Z"/>
        <path class="cls-13" d="M14.32,73.64c.37.12.66.2.94.31.08.03.15.15.18.24.02.05-.05.18-.11.19-.23.07-.4-.11-.6-.2-.2-.09-.38-.2-.42-.55Z"/>
        <path class="cls-15" d="M12.02,56.29c-.04.39-.24.58-.45.77-.08.07-.18.12-.29.05-.13-.09-.18-.28-.1-.4.02-.04.05-.08.08-.1.21-.13.43-.27.75-.32Z"/>
        <path class="cls-15" d="M31.1,63.46c.03.44.15.9-.2,1.34-.06-.08-.13-.14-.14-.2-.06-.4.04-.77.2-1.13,0-.02.08,0,.14,0Z"/>
        <path class="cls-3" d="M39.08,34.89c-.25.08-.48.06-.7.02-.07-.01-.15-.09-.2-.15-.11-.12-.03-.33.14-.34.13,0,.27-.01.38.04.17.08.32.21.39.43Z"/>
        <path class="cls-3" d="M40.33,13.77c-.43-.07-.63-.33-.73-.68-.02-.06.03-.19.08-.22.05-.03.19,0,.23.04.09.11.16.25.23.39.07.15.13.31.19.46Z"/>
        <path class="cls-26" d="M5.21,37.38c-.2.46-.59.54-.92.68-.12-.09-.1-.17-.05-.25.17-.23.4-.41.68-.48.07-.02.15.02.28.04Z"/>
        <path class="cls-9" d="M13.88,28.76c-.27.37-.5.58-.84.63-.05,0-.11-.05-.15-.09-.02-.02,0-.09.01-.12.21-.31.5-.44.97-.42Z"/>
        <path class="cls-3" d="M46.06,52.17c-.42-.08-.58-.29-.68-.52-.03-.08,0-.21.04-.31.04-.08.24-.02.32.12.1.19.18.39.32.71Z"/>
        <path class="cls-20" d="M28.75,65.63c-.16-.21-.12-.45-.11-.68.19.2.12.45.11.68Z"/>
        <path class="cls-13" d="M52.73,39.15s.04-.04.05-.05c0,.01,0,.03,0,.03-.01.01-.03.02-.04.02,0,0,0,0,0,0Z"/>
        <path class="cls-28" d="M2.97,35.47s.02-.04.03-.06c-.01.02-.02.04-.03.05h0Z"/>
        <path class="cls-28" d="M2.97,35.47s-.04.04-.06.05c0-.01,0-.03.01-.03.01-.01.03-.01.05-.02,0,0,0,0,0,0Z"/>
        <path class="cls-10" d="M21,64.63c-.14.25-.25.41-.34.58-.28.56-.69,1.01-1.16,1.41-.32.27-.69.47-1.13.45-.05-.05-.11-.09-.13-.15-.12-.28-.11-.36.08-.52.54-.44.9-1,1.2-1.62.21-.44.33-.9.35-1.39.02-.61.08-1.22.07-1.83,0-.41-.1-.82-.14-1.24-.04-.33-.1-.65-.1-.98,0-1.34-.02-2.68.04-4.01.04-.96.11-1.92.41-2.85.22-.7.34-1.45.45-2.18.1-.65.25-1.29.46-1.91.38-1.14.68-2.31,1.16-3.42.16-.36.31-.73.57-1.03.07-.08.17-.18.27-.1.07.05.13.19.11.27-.09.36-.19.73-.34,1.06-.33.73-.43,1.52-.62,2.28-.14.55-.24,1.11-.38,1.66-.18.7-.29,1.41-.4,2.13-.04.28-.09.56-.13.84-.08.54-.15,1.08-.15,1.63,0,1.64-.02,3.29-.03,4.93-.01,1.34.19,2.66.53,3.96.05.19.12.37.22.54.63,1.15,1.5,2.04,2.69,2.61.21.1.45.19.68.23.29.04.48.2.62.44.07.11.14.22.2.34.15.3.09.52-.23.63-.88.29-1.73.28-2.49-.31-.78-.61-1.47-1.32-2.05-2.12-.06-.09-.14-.17-.27-.33Z"/>
        <path class="cls-24" d="M14.03,47.2s-.09,0-.13,0c-.94.1-1.45-.64-1.57-1.35-.03-.22-.07-.43-.11-.65-.05-.33-.04-.66.12-.96.1-.2.19-.39.29-.59.31-.59.81-.84,1.45-.82.04,0,.09.01.13,0,.74-.06,1.13.34,1.35,1,.1.29.21.57.34.85.11.23.15.46.09.7-.12.47-.32.91-.62,1.29-.28.35-.63.53-1.08.51-.09,0-.18,0-.26,0h0Z"/>
        <path class="cls-24" d="M32.62,48.15c-.76-.01-1.08-.21-1.38-.89-.23-.53-.35-1.09-.36-1.65-.01-.87.62-1.72,1.73-1.6.06,0,.14,0,.19.03.56.31,1.13.62,1.43,1.2.3.57.4,1.19.21,1.84-.15.5-.46.84-.99.93-.28.05-.56.09-.84.14Z"/>
        <path class="cls-2" d="M17.15,43.71c-.46-.02-.84-.53-.73-.96.05-.2.46-.35.59-.2.23.24.39.52.41.86,0,.17-.13.31-.27.31Z"/>
        <path class="cls-2" d="M25.42,43.25c.05.09.13.18.13.27,0,.29-.33.98-.61,1.29-.17-.28-.26-.55-.16-.86.09-.32.22-.62.64-.7Z"/>
        <path class="cls-12" d="M9.23,39.91c-.21-.23-.27-.48-.11-.76.19-.34.51-.42.88-.42-.17.95-.23,1.04-.76,1.18Z"/>
        <path class="cls-12" d="M40.29,47.92c-.08-.15-.17-.3-.23-.46-.14-.37-.03-.69.3-.91.14-.09.32-.03.35.14.09.47.07.91-.43,1.23Z"/>
        <path class="cls-6" d="M38.2,48.05c.11.61,0,1.06-.21,1.5-.04.08-.1.15-.17.19-.07.04-.16.05-.24.03-.04-.01-.09-.11-.09-.16.07-.55.21-1.06.71-1.56Z"/>
        <path class="cls-1" d="M35.6,53.71c.31-.41.57-.73,1.01-.83.07-.02.19,0,.23.06.05.05.07.17.05.24-.08.29-.28.49-.58.57-.21.06-.42.05-.71-.04Z"/>
        <path class="cls-12" d="M18.86,48.95s-.03.17-.1.24c-.23.2-.48.38-.73.55-.03.02-.13,0-.17-.04-.04-.04-.09-.13-.07-.17.19-.34.3-.74.73-.87.15-.04.33.07.34.29Z"/>
        <path class="cls-27" d="M36.05,47.2c-.05-.31-.11-.62-.14-.94-.01-.12.03-.26.09-.37.03-.06.14-.13.2-.13.07,0,.16.08.19.14.24.46.09.88-.14,1.29-.01.02-.08.02-.12.03-.02,0-.04-.01-.09-.02Z"/>
        <path class="cls-6" d="M15.45,41.55c-.27.25-.58.37-.94.36-.15,0-.29-.13-.31-.29-.03-.15.05-.26.17-.32.17-.09.36-.19.56-.14.2.06.42.12.52.39Z"/>
        <path class="cls-2" d="M8.37,42.22c.28.36.27.71.11,1.06-.03.07-.17.13-.26.14-.06,0-.15-.08-.18-.15-.06-.11-.09-.24-.12-.36-.08-.38-.03-.47.45-.69Z"/>
        <path class="cls-27" d="M38.27,46.43c-.11-.26-.21-.52-.32-.78-.1-.25-.04-.48.11-.68.04-.06.15-.11.22-.1.07.01.15.1.17.17.13.48.03.94-.05,1.41-.05,0-.09,0-.14-.01Z"/>
        <path class="cls-12" d="M31.52,49.51c-.05.06-.11.18-.21.24-.14.09-.31.08-.42-.06-.1-.11-.18-.25-.24-.39-.1-.25.1-.49.37-.47.24.02.51.35.5.67Z"/>
        <path class="cls-2" d="M35.3,49.2c-.14.01-.29-.15-.28-.3.03-.33.37-.65.7-.67.09,0,.21.11.21.21.03.42-.23.73-.64.76Z"/>
        <path class="cls-2" d="M36.99,43.03c-.46-.09-.79-.28-.93-.69-.03-.08-.05-.18-.02-.25.02-.07.09-.16.15-.18.07-.02.19,0,.23.04.27.29.45.64.57,1.09Z"/>
        <path class="cls-12" d="M11.22,43.98c.04.28.09.55.11.83,0,.12-.03.26-.09.37-.05.08-.17.13-.26.15-.12.02-.19-.09-.21-.2-.02-.1-.03-.22-.02-.32.04-.32.18-.6.32-.87.05.02.11.03.16.05Z"/>
        <path class="cls-2" d="M21.64,43.84s-.02.12-.04.2c-.08.27-.27.45-.43.4-.14-.05-.26-.34-.23-.56.01-.08.05-.17.08-.25.09-.21.25-.32.39-.27.13.04.23.22.23.48Z"/>
        <path class="cls-6" d="M39.99,43.69c-.19.07-.37.08-.48-.09-.14-.22-.27-.45-.13-.73.07-.15.26-.2.38-.09.28.25.41.55.24.91Z"/>
        <path class="cls-1" d="M32.17,42.76s-.03.13-.09.18c-.17.14-.35.26-.54.37-.13.07-.27.02-.33-.11-.07-.13-.09-.28.03-.36.22-.14.45-.26.69-.36.12-.05.26.1.25.29Z"/>
        <path class="cls-27" d="M19.43,47.36c0-.33-.01-.55,0-.76,0-.1.05-.21.09-.3.07-.15.25-.26.35-.23.11.03.21.23.16.39-.09.32-.18.65-.62.9Z"/>
        <path class="cls-2" d="M12.56,37.98s-.14-.09-.19-.17c-.07-.13-.04-.27.09-.34.19-.1.39-.18.6-.22.07-.01.19.09.25.16.08.1.02.21-.05.29-.17.2-.39.26-.7.27Z"/>
        <path class="cls-7" d="M34.63,38.97c-.26.23-.57.31-.9.31-.15,0-.24-.09-.3-.21-.05-.11-.04-.23.07-.28.13-.07.28-.12.42-.14.16-.02.41.12.7.32Z"/>
        <path class="cls-7" d="M12.33,41.99c.19.19.1.38.02.55-.11.24-.31.34-.6.36-.05-.12-.12-.23-.13-.35-.01-.09.02-.23.08-.29.18-.15.38-.28.62-.28Z"/>
        <path class="cls-27" d="M11.23,41.37s-.1-.08-.14-.14c-.07-.11-.08-.24,0-.36.14-.21.36-.31.6-.34.07,0,.2.11.22.19.07.34-.25.68-.66.66Z"/>
        <path class="cls-1" d="M10.35,44.23s-.04.19-.11.32c-.08.16-.33.16-.43.02-.1-.15-.14-.31-.11-.49.04-.23.24-.42.42-.43.14,0,.23.18.22.58Z"/>
        <path class="cls-2" d="M30.99,53.9c.49,0,.88,0,1.27,0,.07,0,.17.08.19.15.04.11-.04.2-.15.25-.06.03-.12.05-.19.06-.29.04-.73-.13-1.13-.47Z"/>
        <path class="cls-12" d="M28.82,44.21c-.08-.12-.15-.19-.16-.26-.04-.37.17-.73.52-.89.05-.02.14,0,.17.02.04.03.06.11.06.17,0,.06-.02.13-.06.18-.15.23-.32.46-.53.77Z"/>
        <path class="cls-1" d="M17.03,38.06c-.27-.04-.49-.06-.69-.11-.12-.03-.23-.12-.31-.22-.04-.04-.02-.18.02-.23.17-.2.45-.22.63-.04.16.15.3.31.34.61Z"/>
        <path class="cls-27" d="M17.52,46.65c-.11-.32-.21-.57-.22-.85,0-.11,0-.22.04-.32.03-.06.13-.11.2-.13.05-.01.13.03.17.07.13.14.14.32.12.49-.03.25-.07.5-.31.73Z"/>
        <path class="cls-7" d="M11.79,46.88c-.02.11-.01.19-.05.24-.04.07-.1.15-.17.17-.07.02-.19-.01-.23-.07-.14-.17-.23-.38-.18-.6.02-.08.12-.17.21-.21.1-.05.23-.01.28.09.07.13.1.28.14.38Z"/>
        <path class="cls-17" d="M33.35,42.98s-.15,0-.21-.05c-.08-.06-.14-.17-.16-.26-.01-.06.06-.16.12-.21.19-.14.4-.16.61-.01.11.08.21.18.18.32-.03.16-.17.18-.3.19-.07,0-.13,0-.24.01Z"/>
        <path class="cls-17" d="M17.84,40.82c-.3-.05-.49-.08-.68-.11-.05-.07-.11-.14-.14-.22-.08-.22-.06-.34.06-.39.21-.08.44-.05.52.11.09.17.14.35.24.61Z"/>
        <path class="cls-1" d="M16.3,47.92s.07.08.08.16c.01.1.01.25-.05.3-.18.16-.4.24-.65.18-.12-.03-.18-.21-.1-.32.14-.19.38-.31.71-.32Z"/>
        <path class="cls-23" d="M25.81,47.89c.25.57.24,1.01.15,1.45-.14.04-.2-.02-.23-.1-.13-.4-.16-.8.07-1.34Z"/>
        <path class="cls-1" d="M11.62,35.67c-.02.09-.02.13-.04.17-.13.22-.34.34-.59.29-.08-.01-.2-.11-.22-.19-.02-.08.03-.23.09-.27.14-.08.31-.15.48-.16.1,0,.2.11.28.16Z"/>
        <path class="cls-6" d="M16.97,35.88c.32-.1.53.07.72.29.07.08.13.21.04.29-.07.06-.2.1-.29.08-.31-.05-.41-.21-.46-.67Z"/>
        <path class="cls-7" d="M32.32,51.63c-.14.3-.39.38-.69.34-.08-.01-.19-.11-.23-.2-.06-.12.05-.2.15-.24.35-.16.43-.15.76.1Z"/>
        <path class="cls-7" d="M39.32,50.65c.08.53.06.56-.63.9.06-.43.12-.81.63-.9Z"/>
        <path class="cls-22" d="M8.86,37.84c-.16,0-.28-.15-.23-.3.08-.27.33-.41.6-.34.1.02.18.16.15.25-.07.23-.29.39-.52.4Z"/>
        <path class="cls-27" d="M15.1,50.77c.14-.3.35-.41.59-.46.12-.03.24-.01.27.11.02.09-.01.2-.05.3-.02.05-.09.1-.15.12-.21.08-.42.08-.66-.06Z"/>
        <path class="cls-17" d="M34.41,41.07c-.29.07-.53-.03-.77-.13-.06-.03-.12-.14-.11-.21,0-.07.08-.15.14-.19.07-.04.18-.06.24-.03.24.11.44.26.49.56Z"/>
        <path class="cls-19" d="M33.5,49.45c0,.21-.11.35-.3.35-.2,0-.38-.17-.37-.37,0-.17.16-.28.38-.27.17,0,.28.11.28.29Z"/>
        <path class="cls-23" d="M18.75,38.59c.03-.12.03-.19.06-.24.03-.05.1-.08.15-.1.03,0,.09.02.11.05.14.2.24.42.18.67-.01.05-.08.13-.12.13-.07,0-.19-.02-.22-.07-.08-.15-.13-.32-.17-.44Z"/>
        <path class="cls-7" d="M13.63,39.49s.05-.12.11-.16c.12-.09.27-.14.42-.07.09.04.2.1.24.18.05.12-.06.19-.16.24-.12.05-.24.09-.36.11-.12.02-.24-.1-.25-.3Z"/>
        <path class="cls-7" d="M30.75,39.57c-.13.31-.31.46-.54.56-.11.05-.21.05-.29-.06-.08-.12-.06-.28.06-.35.13-.07.27-.13.42-.17.08-.02.17,0,.34.01Z"/>
        <path class="cls-7" d="M35.44,44.47c-.3,0-.49-.15-.57-.43-.03-.12,0-.21.1-.27.12-.07.26-.06.35.05.16.2.2.41.12.66Z"/>
        <path class="cls-19" d="M29.92,47.14c-.27-.15-.37-.34-.36-.6,0-.12.06-.2.18-.23.12-.03.22.02.27.12.11.25.09.48-.09.72Z"/>
        <path class="cls-19" d="M9.44,46.71c.32.14.51.36.61.65.02.05-.01.13-.05.17-.04.03-.13.04-.18.02-.31-.18-.45-.44-.39-.84Z"/>
        <path class="cls-22" d="M39.21,39.72c-.32-.01-.55-.13-.64-.43-.02-.06.03-.16.08-.21.03-.03.13-.02.17,0,.25.13.34.35.39.64Z"/>
        <path class="cls-17" d="M14.66,35.2c-.24.11-.38.2-.54.25-.14.04-.25-.05-.31-.18-.05-.1,0-.23.1-.28.26-.11.47,0,.76.21Z"/>
        <path class="cls-17" d="M35.6,51.25c.12-.18.22-.36.36-.52.06-.07.18-.11.28-.12.04,0,.12.1.14.17.01.05-.03.13-.07.17-.17.19-.37.34-.61.41-.03-.04-.07-.07-.1-.11Z"/>
        <path class="cls-19" d="M27.46,41.79c-.11.44-.2.79-.37,1.11-.22-.05-.19-.2-.17-.31.06-.3.17-.57.53-.8Z"/>
        <path class="cls-7" d="M37.55,40.39c-.13.13-.28.12-.42.04-.15-.08-.2-.23-.19-.39,0-.07.06-.17.12-.2.06-.03.19-.01.24.03.15.13.24.31.25.51Z"/>
        <path class="cls-2" d="M28.86,50.09c-.11-.03-.18-.03-.23-.06-.15-.1-.23-.26-.24-.44,0-.04.01-.1.04-.11.05-.03.12-.05.17-.03.2.07.3.24.34.44.01.06-.06.13-.09.2Z"/>
        <path class="cls-27" d="M19.51,43.79c-.22-.09-.3-.24-.34-.41-.03-.16.07-.34.21-.35.11,0,.24.12.23.27-.01.16-.06.32-.09.49Z"/>
        <path class="cls-6" d="M31.64,41.2c-.16.17-.26.32-.39.42-.08.06-.22.08-.28-.04-.04-.08-.07-.23-.02-.29.16-.21.37-.28.7-.09Z"/>
        <path class="cls-22" d="M12.79,48.39c-.06.06-.14.17-.24.21-.16.06-.31-.07-.36-.27-.03-.12.07-.24.22-.26.18-.03.35.1.38.32Z"/>
        <path class="cls-27" d="M30.18,44.45s.07.07.07.12c.01.1,0,.22-.02.32-.04.17-.17.25-.28.2-.15-.07-.15-.21-.14-.34.02-.16.17-.3.36-.31Z"/>
        <path class="cls-7" d="M34.71,36.75c.25-.16.45-.12.64.03.04.03.06.11.06.17,0,.03-.05.08-.08.08-.15,0-.31,0-.45-.03-.07-.02-.11-.15-.18-.24Z"/>
        <path class="cls-5" d="M27.6,52.09c.28.16.44.32.5.56.01.04-.05.11-.09.15-.02.02-.09,0-.12-.02-.2-.16-.24-.38-.29-.69Z"/>
        <path class="cls-5" d="M20.02,40.54c-.19-.1-.25-.26-.18-.45.02-.06.12-.1.2-.11.04,0,.12.06.14.1.06.17.03.33-.15.46Z"/>
        <path class="cls-7" d="M21.76,41.08c.17.26.13.51-.06.82-.09-.33-.08-.58.06-.82Z"/>
        <path class="cls-19" d="M24.17,42.81s-.02.11-.07.18c-.06.09-.17.14-.27.07-.11-.07-.09-.18-.03-.28.03-.05.08-.09.13-.13.1-.07.22-.01.23.16Z"/>
        <path class="cls-16" d="M26.99,46.44c-.21-.12-.2-.28-.15-.46,0-.03.07-.06.1-.05.04,0,.09.04.1.07.04.14.07.29-.04.44Z"/>
        <path class="cls-23" d="M30.27,47.92c-.22-.06-.22-.2-.17-.38q.23.09.17.38Z"/>
        <path class="cls-14" d="M28.41,64.03c.22.07.23.09.11.26-.04-.09-.07-.17-.11-.26Z"/>
      </g>
    </g>
  </g>
</svg>