<?xml version="1.0" encoding="UTF-8"?>
<svg xmlns="http://www.w3.org/2000/svg" version="1.1" viewBox="0 0 243.68 50.51">
  <defs>
    <style>
      .cls-1 {
        fill: #3cc;
      }

      .cls-2 {
        fill: #ffbc2f;
      }
    </style>
  </defs>
  <!-- Generator: Adobe Illustrator 28.6.0, SVG Export Plug-In . SVG Version: 1.2.0 Build 709)  -->
  <g>
    <g id="Layer_1">
      <g>
        <rect width="243.68" height="50.51" rx="8.5" ry="8.5"/>
        <g>
          <path class="cls-1" d="M56.11,19c.13,0,.25,0,.36.03.11.02.2.06.25.12.08.1.11.23.11.39v11.98c0,.13,0,.26,0,.39,0,.13-.02.24-.07.31-.06.1-.16.16-.28.18-.12.02-.26.03-.43.03h-.29c-.1-.03-.19-.05-.27-.07-.08-.02-.14-.07-.19-.14-.05-.08-.08-.17-.08-.29v-8.52c-.03-.11-.04-.21-.05-.29,0-.08-.05-.15-.12-.22-.09-.06-.2-.1-.33-.1-.13,0-.28,0-.43,0h-1.44c-.22,0-.42,0-.63,0-.2,0-.34-.08-.42-.22-.03-.04-.04-.08-.04-.12s0-.1-.02-.16c-.03-.15-.02-.29.03-.42.04-.13.11-.22.2-.27.1-.06.25-.09.46-.09s.37-.02.51-.06c.06-.01.13-.02.21-.03.08,0,.15-.02.23-.05.19-.06.37-.13.55-.2.18-.07.35-.15.51-.26.18-.11.33-.25.46-.4.13-.15.25-.32.36-.49.08-.13.14-.27.18-.42.04-.15.1-.29.18-.4.06-.08.15-.13.27-.15.03-.01.06-.02.09-.02s.07,0,.1-.02Z"/>
          <path class="cls-1" d="M70.4,25.99c0,.1,0,.21,0,.31,0,.11,0,.21-.03.29v.51c-.03.13-.04.26-.04.39s-.01.26-.04.39v.19c-.04.18-.06.35-.08.52s-.04.34-.09.5c-.03.1-.05.21-.08.31s-.05.21-.08.31c-.05.13-.1.25-.14.37-.04.12-.09.24-.14.35-.13.28-.29.55-.5.82-.21.27-.43.48-.67.65-.06.05-.14.1-.22.14-.08.04-.16.09-.24.14-.1.06-.22.11-.36.15s-.27.08-.4.11c-.14.05-.28.08-.42.1-.14.01-.29.03-.44.06-.05.01-.1.02-.16,0-.06,0-.11,0-.16,0-.05.01-.12.02-.21.02s-.15,0-.19-.02c-.06-.03-.12-.03-.17-.02-.05.01-.1.01-.13,0h-.11c-.08-.03-.16-.04-.24-.05-.08,0-.17-.02-.26-.03-.22-.06-.42-.13-.61-.19-.19-.06-.37-.15-.55-.25-.06-.05-.13-.09-.2-.12-.07-.03-.14-.07-.2-.12-.3-.23-.56-.51-.76-.84-.2-.33-.38-.69-.53-1.08-.08-.18-.13-.36-.17-.54s-.08-.38-.13-.58c-.03-.14-.04-.28-.06-.42s-.03-.28-.06-.42c-.01-.05-.02-.1,0-.15,0-.05,0-.1,0-.15-.01-.06-.02-.13-.02-.2v-.2c-.03-.06-.03-.13-.02-.2s.01-.14,0-.2c-.01-.05-.01-.11,0-.17.01-.06,0-.13-.02-.19-.03-.09-.03-.19-.02-.3.01-.11.02-.21.02-.31,0-.11,0-.24-.02-.39-.01-.15,0-.27.02-.37v-.36l.06-.8c.01-.13.03-.25.04-.37s.03-.24.04-.37c.03-.06.03-.13.03-.2,0-.07,0-.14.03-.2.06-.22.11-.43.15-.64s.1-.41.19-.6c.24-.58.52-1.06.85-1.42s.78-.68,1.36-.93c.17-.06.33-.11.5-.13.17-.02.34-.06.52-.09.09-.01.17-.02.25-.02s.16,0,.25-.02c1.05-.03,1.9.16,2.55.56.65.4,1.13.96,1.44,1.68.06.15.12.31.17.47.05.17.11.34.17.51.03.1.05.21.07.31.02.11.04.21.07.31.04.14.06.28.07.42,0,.14.02.28.05.42.02.06.03.12.03.17,0,.05,0,.1,0,.15.01.06.02.13,0,.2,0,.07,0,.14,0,.2v.17c.03.08.03.16,0,.26-.02.09-.02.18,0,.26.01.04.02.08.02.14v.75ZM68.44,28.94c.13-.41.2-.87.23-1.39.03-.52.04-1.04.04-1.56s-.01-1.08-.04-1.6-.08-1.01-.17-1.46c-.09-.46-.22-.87-.41-1.23-.18-.36-.43-.66-.75-.88-.2-.14-.43-.24-.68-.31-.25-.07-.56-.1-.93-.1-.03.03-.07.04-.13.03-.06,0-.11,0-.15,0-.1.03-.19.05-.28.07-.08.02-.17.05-.26.08-.34.15-.62.36-.83.64s-.38.59-.52.94c-.06.14-.11.29-.14.45-.03.16-.07.32-.1.48-.03.06-.04.13-.04.2s0,.14-.02.2c-.01.11-.03.23-.04.35-.01.12-.03.24-.04.37,0,.1,0,.21,0,.31,0,.11,0,.21,0,.31v.23s-.02.08-.02.13v.74c0,.1,0,.21,0,.31,0,.11,0,.21.03.3v.34s0,.06,0,.1c0,.04,0,.08,0,.1.01.13.02.25.03.37,0,.12.02.25.03.39.04.15.06.31.07.47,0,.16.03.31.08.45.1.38.21.72.33,1.01.12.29.3.56.54.82.27.25.6.44,1.01.57.05.03.1.04.14.03.04,0,.1,0,.16.03.05.01.14.03.28.04s.24,0,.31-.02c.09-.03.18-.04.27-.05.09,0,.17-.02.25-.05.25-.08.48-.18.68-.32.04-.03.07-.05.09-.08.03-.02.05-.05.08-.08.05-.03.11-.08.19-.15.13-.18.23-.34.32-.49s.18-.33.27-.55c.04-.09.07-.18.09-.27.02-.09.04-.18.07-.28Z"/>
          <path class="cls-1" d="M72.66,26.45h3.44c.1,0,.22,0,.35,0,.13,0,.27,0,.4,0s.25,0,.36.03c.11.02.19.05.26.1.06.04.11.11.13.21.01.04.02.09.03.16,0,.07,0,.15,0,.23s0,.16,0,.24c0,.08-.02.13-.03.17-.03.13-.07.22-.13.27-.13.09-.33.13-.62.11s-.54-.02-.75-.02h-2.53c-.18,0-.39,0-.63.02-.24.01-.42,0-.53-.06-.09-.04-.16-.11-.21-.21-.04-.09-.06-.24-.06-.47s.02-.38.06-.48c.01-.03.02-.05.03-.08,0-.03.02-.05.05-.08.02-.04.07-.06.12-.08.06-.01.11-.03.16-.06h.1Z"/>
          <path class="cls-1" d="M82.84,22.42c.91-.01,1.68.09,2.3.31.62.22,1.1.61,1.44,1.17.09.14.16.28.21.43.05.15.1.31.15.48.03.09.03.18.02.28-.01.09-.03.17-.06.22-.03.03-.06.05-.09.07-.04.02-.07.04-.09.07-.06.03-.13.03-.19.02s-.13-.01-.19,0c-.1.03-.24.03-.4,0-.17-.02-.28-.05-.34-.09-.1-.06-.17-.15-.2-.26-.03-.11-.08-.21-.14-.31-.11-.2-.27-.39-.48-.55-.14-.1-.29-.18-.46-.23-.16-.05-.34-.1-.53-.15-.06-.02-.13-.03-.19-.03-.06,0-.13,0-.19,0-.08-.02-.17-.04-.28-.04s-.21.01-.29.04h-.11c-.06.01-.13.02-.19.03-.06,0-.13.02-.19.03-.33.08-.6.18-.82.32-.21.14-.36.37-.44.7-.03.09-.03.18,0,.27s.04.17.07.23c.08.19.17.33.28.41.11.08.24.17.41.28.2.13.43.22.68.28.25.06.51.12.76.2.17.05.33.09.49.11.16.03.33.06.49.11.27.08.53.15.78.22.25.07.51.16.76.26.06.03.13.05.19.08s.13.06.19.09c.25.15.47.32.67.51.19.19.35.43.47.72.03.09.05.21.08.36.03.09.04.18.05.28,0,.1,0,.2,0,.31v.19c-.03.09-.04.18-.04.27s-.01.18-.04.27c-.04.14-.08.27-.13.4-.05.13-.11.24-.17.34-.2.33-.46.59-.78.79-.32.2-.67.36-1.06.5-.11.04-.23.07-.35.08-.12.02-.24.05-.35.09-.13.03-.25.04-.38.04s-.25.01-.38.04h-.19c-.06.01-.15.02-.27.02s-.2,0-.27-.02h-.21c-.08-.03-.16-.04-.25-.03-.09,0-.17,0-.23-.03-.06-.01-.15-.02-.25-.02-.1-.03-.2-.05-.29-.07-.09-.02-.19-.05-.29-.09-.39-.13-.73-.29-1.03-.47-.29-.19-.54-.44-.76-.74-.11-.17-.21-.34-.28-.51-.08-.18-.15-.37-.21-.59-.03-.08-.04-.17-.03-.28,0-.11.02-.19.05-.26.04-.05.1-.1.19-.15.06-.03.15-.04.27-.05.11,0,.23,0,.34,0s.22.03.33.05c.11.02.18.04.22.07.09.06.15.16.18.28s.07.23.12.33c.13.28.3.49.51.65.15.11.32.2.51.27.19.06.39.13.61.19l.4.06h.11c.09.03.21.04.35.04s.27-.01.37-.04c.09,0,.16,0,.21-.02.08-.01.15-.02.23-.03.08,0,.15-.02.21-.03.37-.1.66-.23.87-.4.21-.17.37-.44.46-.84.03-.06.03-.13.02-.21s-.03-.13-.04-.17c-.06-.24-.15-.42-.27-.54-.11-.12-.26-.23-.44-.33-.11-.08-.24-.14-.38-.19-.14-.05-.28-.1-.42-.15-.04-.01-.07-.02-.1-.02s-.07-.01-.1-.04c-.43-.14-.88-.24-1.34-.31-.46-.07-.9-.19-1.3-.35-.13-.05-.25-.09-.36-.13-.11-.04-.22-.09-.32-.15-.24-.14-.46-.3-.67-.47-.2-.18-.36-.4-.48-.67-.04-.09-.07-.18-.08-.27-.02-.09-.04-.18-.07-.29-.04-.15-.05-.33-.04-.52.01-.2.03-.36.06-.5.03-.06.04-.12.05-.16,0-.04.02-.09.05-.14.11-.29.27-.54.47-.76.2-.22.42-.41.67-.57.19-.11.4-.21.63-.28.23-.07.47-.14.72-.2.09-.01.17-.03.26-.04.08-.01.17-.03.28-.04.04-.01.09-.01.15,0s.11,0,.13-.02Z"/>
          <path class="cls-1" d="M97.81,27.15c.03.13.03.27,0,.43-.02.16-.06.27-.12.33-.06.05-.16.09-.28.1s-.26.03-.41.03-.3,0-.46,0c-.15,0-.29,0-.4,0h-4.86c-.1,0-.2,0-.3,0-.1,0-.18.03-.25.07-.05.03-.1.08-.15.15-.03.04-.05.09-.08.16-.03.07-.03.14,0,.2.01.06.02.12.02.17s0,.1.02.15c.03.1.05.21.08.31.02.11.06.21.11.31.29.68.77,1.17,1.44,1.46.08.04.16.07.25.09s.18.05.27.08c.04.01.1.02.19.02.18.05.41.08.7.08s.53-.03.7-.08c.18-.05.34-.1.48-.16s.28-.13.41-.22c.14-.09.26-.19.36-.31.1-.12.19-.25.27-.39.08-.13.14-.26.2-.4.06-.14.16-.24.29-.3.05-.02.13-.04.25-.06s.23-.02.34,0c.11,0,.22.02.32.03s.17.04.21.08c.13.09.16.24.09.44-.1.34-.23.65-.4.91-.25.41-.54.74-.87,1-.32.26-.73.47-1.23.64-.13.05-.25.09-.38.1-.13.02-.26.04-.4.07-.06.01-.12.02-.18.02s-.12,0-.18.02h-.19c-.06.01-.14.02-.22.02s-.15,0-.2-.02h-.17c-.06-.01-.12-.02-.17-.02s-.1,0-.15-.02c-.06-.01-.13-.02-.21-.03-.08,0-.15-.02-.21-.03-.11-.03-.23-.05-.34-.09-.11-.03-.22-.07-.32-.1-.05-.03-.1-.04-.13-.05-.04,0-.08-.02-.13-.05-.19-.09-.39-.2-.61-.32-.37-.24-.68-.54-.94-.88-.26-.35-.48-.74-.66-1.17-.06-.14-.11-.29-.14-.44-.03-.15-.07-.3-.12-.46-.01-.05-.02-.09-.02-.13s0-.09-.02-.15c-.03-.1-.04-.21-.06-.32-.01-.11-.03-.23-.06-.34v-.27s-.02-.12-.03-.22c0-.1,0-.17,0-.24v-.21c.03-.06.03-.13.03-.2,0-.07,0-.14,0-.2.05-.2.09-.41.12-.61.03-.2.09-.39.16-.57.06-.14.12-.28.18-.43.06-.15.12-.29.2-.43.28-.44.59-.83.95-1.15.35-.32.79-.59,1.31-.81.15-.06.31-.11.47-.14.16-.03.33-.07.5-.1.06-.01.12-.02.17-.03s.11,0,.17,0c.03-.01.06-.01.1,0s.07,0,.09-.02c.53-.01.99.04,1.39.16s.75.28,1.06.48c.06.03.11.06.15.1.04.04.08.08.13.1.1.08.21.17.31.27.11.1.2.2.28.3.2.27.37.52.51.76.09.14.16.29.21.46.05.17.11.33.17.49.06.17.11.34.14.51.03.18.07.36.12.53.01.09.02.18.03.27,0,.09.02.18.03.27ZM95.97,26.51s.07-.12.09-.2c.03-.08.03-.17,0-.26-.08-.28-.18-.54-.32-.78-.18-.29-.37-.54-.59-.74s-.49-.37-.84-.51c-.09-.03-.18-.05-.27-.07-.09-.02-.18-.04-.29-.07-.1-.02-.21-.04-.32-.04h-.32s-.08.04-.13.03c-.05,0-.09,0-.13,0-.1.03-.2.05-.29.07-.09.02-.19.04-.28.07-.37.15-.66.34-.88.57-.22.23-.42.51-.6.86-.04.06-.08.14-.11.24s-.07.2-.09.31-.03.22-.02.32c.01.1.06.18.13.23.1.08.28.11.52.1.25,0,.46,0,.64,0h2.89c.19,0,.42,0,.68,0,.27,0,.44-.04.53-.14Z"/>
          <path class="cls-1" d="M103.44,22.42c.94-.01,1.72.12,2.35.41.63.28,1.12.71,1.49,1.28.17.25.3.56.42.93.03.06.04.15.06.25.01.1,0,.19-.02.27-.04.06-.1.12-.19.17-.04.03-.08.03-.11.03-.04,0-.08,0-.13,0-.05.01-.1.02-.15,0-.05,0-.1,0-.15,0-.14,0-.27,0-.4,0-.13,0-.23-.04-.32-.1-.1-.08-.17-.18-.21-.32s-.09-.26-.15-.36c-.19-.33-.44-.59-.74-.78-.1-.06-.21-.12-.32-.16-.11-.04-.23-.08-.36-.12-.18-.05-.41-.08-.7-.09-.29,0-.53.02-.72.09-.09.03-.17.04-.25.06s-.16.03-.25.06c-.33.14-.62.33-.87.57-.25.24-.45.53-.59.86-.05.11-.09.23-.13.35s-.08.25-.11.39l-.11.51c-.01.06-.02.13,0,.21,0,.08,0,.15-.03.21v.15s-.02.13-.03.25c0,.11,0,.2.03.25.01.06.01.13,0,.19s-.01.13,0,.19c.01.05.02.14.02.27.03.1.05.21.07.32.02.11.04.22.07.32.14.41.3.76.48,1.05.18.3.44.55.77.77.11.06.23.12.35.17.12.05.25.1.39.15.06.01.11.02.15.02s.09,0,.15.02c.04.01.1.02.19.02h.21s.03.02.08.02c.03-.01.06-.02.09,0,.04,0,.08,0,.11,0,.09-.03.17-.03.26-.03.08,0,.17,0,.26-.03.33-.1.61-.23.86-.39.24-.16.44-.36.61-.62.06-.1.12-.21.17-.32s.1-.23.15-.34c.03-.1.05-.2.08-.29.03-.09.09-.17.18-.24.04-.04.11-.07.23-.09.11-.02.24-.03.37-.04.13,0,.26,0,.38,0,.12.01.21.04.26.08.08.05.12.13.14.23.02.1.02.21,0,.32-.06.19-.12.37-.18.54-.06.17-.13.34-.22.5-.19.38-.43.72-.71,1.01-.29.29-.63.53-1.04.7-.1.05-.21.09-.32.12s-.23.07-.36.1c-.14.05-.28.08-.42.08-.14,0-.28.02-.42.05-.05.03-.1.03-.15.02-.05-.01-.1-.01-.15,0h-.17c-.1,0-.2,0-.29,0-.09,0-.18,0-.26-.03h-.09l-.46-.06c-.16-.05-.32-.1-.47-.13-.15-.04-.3-.09-.44-.15-.46-.2-.83-.44-1.13-.72-.3-.28-.57-.62-.83-1.03-.06-.1-.12-.21-.17-.34s-.1-.25-.15-.38c-.06-.14-.11-.29-.13-.44s-.06-.3-.09-.46c-.01-.05-.02-.1-.02-.15s0-.1-.02-.15c-.03-.08-.04-.16-.03-.25,0-.09,0-.17-.03-.25v-.19c-.01-.06-.02-.15-.02-.27s0-.2.02-.27.02-.12,0-.17c0-.05,0-.1,0-.15.03-.09.04-.18.03-.27,0-.09,0-.17.03-.25.05-.22.09-.43.13-.65.04-.21.09-.42.17-.61.27-.66.59-1.19.97-1.6.38-.41.9-.74,1.56-1.01.14-.06.29-.11.46-.13.16-.03.33-.06.51-.09.09-.01.18-.02.27-.03.09,0,.18-.02.29-.03Z"/>
          <path class="cls-1" d="M118.69,27.11c.03.08.04.19.04.35s0,.27-.02.33v.19c-.01.1-.02.19-.03.28,0,.08-.02.17-.03.28-.03.08-.04.15-.05.23,0,.08-.02.15-.05.23-.05.17-.09.33-.13.49s-.09.32-.15.46c-.27.61-.62,1.12-1.06,1.53-.44.41-.99.73-1.63.94-.14.05-.29.09-.45.11s-.32.05-.48.08c-.08.01-.16.02-.24.03-.08,0-.16,0-.24,0-.05.01-.12.02-.22.02s-.16,0-.2-.02c-.05-.01-.1-.02-.15,0-.05,0-.09,0-.13,0h-.11l-.46-.06c-.18-.05-.35-.1-.51-.15-.17-.05-.32-.11-.47-.17-.57-.25-1.04-.58-1.41-.99-.37-.41-.67-.9-.91-1.48-.06-.13-.11-.25-.14-.38-.03-.13-.06-.26-.08-.4-.03-.05-.04-.09-.03-.12,0-.03,0-.07,0-.12-.03-.1-.04-.21-.05-.31,0-.11-.02-.21-.05-.31v-.16s0-.1-.02-.16c-.01-.06-.02-.17-.02-.33s.01-.28.04-.35c.03-.09.03-.18.02-.27-.01-.09,0-.18.02-.27.01-.06.02-.12.03-.16,0-.04.02-.1.03-.16.04-.15.07-.3.1-.46.03-.15.08-.3.14-.44.19-.47.42-.89.69-1.26.27-.37.6-.69,1-.94.15-.1.31-.19.48-.26.16-.07.33-.14.51-.22.15-.06.32-.1.49-.12.18-.02.35-.05.53-.1.09,0,.17,0,.26,0,.08,0,.16-.02.24-.03,1.13-.01,2.06.22,2.81.7.75.48,1.29,1.11,1.62,1.88.06.13.11.25.15.38.04.13.08.26.13.4.04.14.07.29.1.45.03.16.06.32.09.48.01.06.02.13,0,.2,0,.07,0,.14,0,.2ZM117,28.2c.03-.09.03-.19.03-.3,0-.11,0-.22,0-.32,0-.49-.04-.91-.13-1.25-.04-.1-.07-.2-.09-.31-.03-.1-.06-.2-.09-.28-.36-.82-.92-1.39-1.69-1.71-.09-.04-.18-.07-.29-.09s-.2-.04-.3-.07c-.1-.03-.21-.04-.32-.04h-.34l-.34.06c-.13.03-.24.05-.35.09-.11.03-.21.07-.31.12-.09.03-.17.06-.25.11s-.15.1-.21.15c-.3.21-.55.47-.74.78-.19.3-.35.66-.49,1.06-.04.13-.06.26-.08.39s-.03.27-.06.41c-.01.05-.02.13-.02.25-.01.04-.02.08,0,.13,0,.05,0,.11,0,.17v.38c0,.13.01.24.04.34l.04.23c.03.13.05.25.07.37.02.12.05.23.1.33.13.3.28.59.45.86.17.27.38.49.64.67.06.04.12.07.17.09s.11.06.17.09c.1.06.21.12.33.16.12.04.25.09.39.12.06.03.12.04.18.03.06,0,.12,0,.18,0,.04.01.12.03.24.04.12.01.21,0,.28-.02.05-.01.1-.02.15,0,.05,0,.1,0,.15-.03.1-.02.2-.05.3-.07.1-.02.2-.05.29-.08.43-.18.78-.42,1.04-.74.27-.32.49-.69.67-1.12.06-.15.1-.31.12-.48.02-.17.05-.34.1-.52Z"/>
          <path class="cls-1" d="M125.25,22.46c.8-.03,1.44.08,1.92.32s.87.6,1.16,1.08c.08.13.14.26.18.41.04.15.08.29.12.45.06.24.1.5.11.78.01.28.02.56.02.86v5c0,.21,0,.43,0,.65,0,.22-.09.35-.26.42-.06.03-.13.04-.2.05-.07,0-.14,0-.22,0-.17,0-.32,0-.47,0-.15,0-.26-.06-.32-.16-.06-.09-.09-.2-.09-.34v-5.15c0-.34,0-.68-.02-1.02-.01-.34-.07-.62-.17-.87-.1-.25-.25-.46-.46-.62-.2-.16-.44-.28-.7-.37-.08-.03-.16-.04-.24-.05-.08,0-.16-.02-.24-.05-.06-.01-.16-.02-.29,0-.13,0-.22.02-.28.03-.05.03-.09.04-.13.03-.04,0-.08,0-.13,0-.17.04-.32.08-.47.12-.15.04-.28.1-.41.18-.05.03-.1.05-.13.08-.04.03-.08.05-.13.08-.44.32-.77.79-.97,1.42-.04.1-.06.21-.08.31s-.03.21-.06.31c-.03.06-.03.12-.02.18.01.06,0,.11-.02.16v.4s-.02.08,0,.13c0,.05,0,.11,0,.17v4.49c0,.15-.03.26-.09.35-.06.1-.17.16-.33.16-.16,0-.32,0-.48,0-.1,0-.2,0-.29-.02s-.17-.04-.23-.09c-.1-.06-.15-.18-.15-.36v-8.85c0-.11.03-.2.08-.27.04-.08.1-.13.19-.15.05-.01.12-.03.22-.04.1-.01.19-.02.29-.02s.2,0,.29.02c.1.01.16.03.2.06.14.09.2.2.19.33-.01.13,0,.28.06.45.02.08.08.14.15.19.15.01.28-.04.37-.17.09-.13.19-.23.29-.3.18-.13.36-.24.54-.35.18-.11.4-.2.64-.28.1-.04.21-.06.33-.08s.24-.03.35-.06c.06-.01.13-.02.19-.02h.19Z"/>
          <path class="cls-1" d="M139.95,31.41v.48c0,.16-.03.29-.09.39-.06.09-.17.14-.31.14s-.29,0-.45,0c-.08,0-.15,0-.22,0-.07,0-.13,0-.18-.03-.11-.03-.19-.08-.23-.15-.05-.06-.08-.14-.09-.23,0-.09-.03-.18-.07-.27-.01-.03-.03-.05-.05-.07-.02-.02-.04-.04-.07-.07-.13-.01-.22.01-.29.08-.07.06-.14.13-.22.19-.25.19-.51.34-.76.44-.23.1-.49.18-.79.23-.3.05-.6.08-.91.08-.31,0-.62-.01-.92-.06-.3-.04-.57-.12-.8-.22-.66-.28-1.19-.66-1.6-1.13-.41-.48-.72-1.07-.95-1.78-.05-.11-.09-.23-.1-.35-.02-.12-.05-.24-.09-.37-.01-.06-.02-.13-.02-.19s0-.13-.02-.19c-.03-.06-.04-.13-.03-.2,0-.07,0-.14,0-.2v-.19c-.03-.06-.04-.15-.04-.25s.01-.18.04-.25v-.21c.03-.09.04-.18.03-.28,0-.09,0-.19.03-.28.01-.06.02-.12.02-.17s0-.11.02-.17c.04-.13.07-.25.09-.37.03-.12.06-.24.09-.35.17-.48.38-.92.64-1.3.26-.39.57-.71.94-.96.21-.15.44-.28.67-.38s.49-.19.77-.27c.09-.01.17-.02.26-.04.08-.01.17-.03.26-.06h.19c.1-.03.25-.04.45-.04s.34.01.45.04c.05.01.12.02.21.02.14.04.28.07.42.08.14.02.27.06.4.12.19.08.37.16.54.25.17.09.33.19.48.3.08.06.16.13.24.2.08.07.19.09.33.07.03-.04.05-.07.07-.09s.04-.06.05-.11c.04-.11.05-.26.05-.44,0-.18,0-.34,0-.48v-2.78c0-.22.03-.38.09-.48.05-.09.13-.15.23-.17.03,0,.06,0,.1,0,.04,0,.07,0,.09,0,.18-.01.36-.02.56,0,.2,0,.33.06.41.16.06.1.09.23.09.38v11.95ZM138.42,27.82c.03-.06.04-.15.04-.26s-.01-.19-.04-.26v-.28c-.03-.11-.04-.23-.06-.35s-.04-.23-.08-.33c-.03-.1-.05-.2-.07-.29-.02-.09-.05-.18-.08-.27-.15-.38-.35-.72-.59-1.01-.24-.29-.54-.52-.91-.68-.13-.06-.26-.11-.39-.14-.13-.03-.28-.06-.43-.08-.1-.03-.21-.04-.33-.04h-.35c-.06.01-.12.02-.17.03-.05,0-.11,0-.17,0-.1.03-.21.05-.31.08s-.21.06-.31.09c-.41.18-.73.43-.98.77s-.45.73-.6,1.17c-.05.14-.08.28-.1.43-.02.15-.04.29-.07.43,0,.05,0,.1,0,.14,0,.04,0,.09,0,.14-.03.06-.04.13-.03.21,0,.08,0,.15,0,.21v.41c0,.13.01.26.04.37.01.04.02.1.02.19.03.09.05.18.07.27.02.09.04.18.07.27.14.44.33.82.57,1.14.24.32.54.58.91.78.11.06.23.11.34.15s.24.08.38.11c.06.03.13.03.2.02s.14,0,.2.02c.05.01.1.02.16.02h.33s.1-.02.19-.02c.1-.03.2-.05.3-.07.1-.02.2-.05.29-.08.42-.18.76-.4,1.02-.67s.48-.62.66-1.04c.06-.14.11-.28.13-.42.03-.14.06-.28.1-.42.02-.05.04-.1.04-.14s0-.09.02-.14c.01-.08.02-.15,0-.23,0-.08,0-.15,0-.23Z"/>
          <path class="cls-1" d="M151.66,22.42c.94-.01,1.72.12,2.35.41.63.28,1.12.71,1.49,1.28.17.25.3.56.42.93.03.06.04.15.06.25.01.1,0,.19-.02.27-.04.06-.1.12-.19.17-.04.03-.08.03-.11.03-.04,0-.08,0-.13,0-.05.01-.1.02-.15,0-.05,0-.1,0-.15,0-.14,0-.27,0-.4,0-.13,0-.23-.04-.32-.1-.1-.08-.17-.18-.21-.32s-.09-.26-.15-.36c-.19-.33-.44-.59-.74-.78-.1-.06-.21-.12-.32-.16-.11-.04-.23-.08-.36-.12-.18-.05-.41-.08-.7-.09-.29,0-.53.02-.72.09-.09.03-.17.04-.25.06s-.16.03-.25.06c-.33.14-.62.33-.87.57-.25.24-.45.53-.59.86-.05.11-.09.23-.13.35s-.08.25-.11.39l-.11.51c-.01.06-.02.13,0,.21,0,.08,0,.15-.03.21v.15s-.02.13-.03.25c0,.11,0,.2.03.25.01.06.01.13,0,.19s-.01.13,0,.19c.01.05.02.14.02.27.03.1.05.21.07.32.02.11.04.22.07.32.14.41.3.76.48,1.05.18.3.44.55.77.77.11.06.23.12.35.17.12.05.25.1.39.15.06.01.11.02.15.02s.09,0,.15.02c.04.01.1.02.19.02h.21s.03.02.08.02c.03-.01.06-.02.09,0,.04,0,.08,0,.11,0,.09-.03.17-.03.26-.03.08,0,.17,0,.26-.03.33-.1.61-.23.86-.39.24-.16.44-.36.61-.62.06-.1.12-.21.17-.32s.1-.23.15-.34c.03-.1.05-.2.08-.29.03-.09.09-.17.18-.24.04-.04.11-.07.23-.09.11-.02.24-.03.37-.04.13,0,.26,0,.38,0,.12.01.21.04.26.08.08.05.12.13.14.23.02.1.02.21,0,.32-.06.19-.12.37-.18.54-.06.17-.13.34-.22.5-.19.38-.43.72-.71,1.01-.29.29-.63.53-1.04.7-.1.05-.21.09-.32.12s-.23.07-.36.1c-.14.05-.28.08-.42.08-.14,0-.28.02-.42.05-.05.03-.1.03-.15.02-.05-.01-.1-.01-.15,0h-.17c-.1,0-.2,0-.29,0-.09,0-.18,0-.26-.03h-.09l-.46-.06c-.16-.05-.32-.1-.47-.13-.15-.04-.3-.09-.44-.15-.46-.2-.83-.44-1.13-.72-.3-.28-.57-.62-.83-1.03-.06-.1-.12-.21-.17-.34s-.1-.25-.15-.38c-.06-.14-.11-.29-.13-.44s-.06-.3-.09-.46c-.01-.05-.02-.1-.02-.15s0-.1-.02-.15c-.03-.08-.04-.16-.03-.25,0-.09,0-.17-.03-.25v-.19c-.01-.06-.02-.15-.02-.27s0-.2.02-.27.02-.12,0-.17c0-.05,0-.1,0-.15.03-.09.04-.18.03-.27,0-.09,0-.17.03-.25.05-.22.09-.43.13-.65.04-.21.09-.42.17-.61.27-.66.59-1.19.97-1.6.38-.41.9-.74,1.56-1.01.14-.06.29-.11.46-.13.16-.03.33-.06.51-.09.09-.01.18-.02.27-.03.09,0,.18-.02.29-.03Z"/>
          <path class="cls-1" d="M166.91,27.11c.03.08.04.19.04.35s0,.27-.02.33v.19c-.01.1-.02.19-.03.28,0,.08-.02.17-.03.28-.03.08-.04.15-.05.23,0,.08-.02.15-.05.23-.05.17-.09.33-.13.49s-.09.32-.15.46c-.27.61-.62,1.12-1.06,1.53-.44.41-.99.73-1.63.94-.14.05-.29.09-.45.11s-.32.05-.48.08c-.08.01-.16.02-.24.03-.08,0-.16,0-.24,0-.05.01-.12.02-.22.02s-.16,0-.2-.02c-.05-.01-.1-.02-.15,0-.05,0-.09,0-.13,0h-.11l-.46-.06c-.18-.05-.35-.1-.51-.15-.17-.05-.32-.11-.47-.17-.57-.25-1.04-.58-1.41-.99-.37-.41-.67-.9-.91-1.48-.06-.13-.11-.25-.14-.38-.03-.13-.06-.26-.08-.4-.03-.05-.04-.09-.03-.12,0-.03,0-.07,0-.12-.03-.1-.04-.21-.05-.31,0-.11-.02-.21-.05-.31v-.16s0-.1-.02-.16c-.01-.06-.02-.17-.02-.33s.01-.28.04-.35c.03-.09.03-.18.02-.27-.01-.09,0-.18.02-.27.01-.06.02-.12.03-.16,0-.04.02-.1.03-.16.04-.15.07-.3.1-.46.03-.15.08-.3.14-.44.19-.47.42-.89.69-1.26.27-.37.6-.69,1-.94.15-.1.31-.19.48-.26.16-.07.33-.14.51-.22.15-.06.32-.1.49-.12.18-.02.35-.05.53-.1.09,0,.17,0,.26,0,.08,0,.16-.02.24-.03,1.13-.01,2.06.22,2.81.7.75.48,1.29,1.11,1.62,1.88.06.13.11.25.15.38.04.13.08.26.13.4.04.14.07.29.1.45.03.16.06.32.09.48.01.06.02.13,0,.2,0,.07,0,.14,0,.2ZM165.22,28.2c.03-.09.03-.19.03-.3,0-.11,0-.22,0-.32,0-.49-.04-.91-.13-1.25-.04-.1-.07-.2-.09-.31-.03-.1-.06-.2-.09-.28-.36-.82-.92-1.39-1.69-1.71-.09-.04-.18-.07-.29-.09s-.2-.04-.3-.07c-.1-.03-.21-.04-.32-.04h-.34l-.34.06c-.13.03-.24.05-.35.09-.11.03-.21.07-.31.12-.09.03-.17.06-.25.11s-.15.1-.21.15c-.3.21-.55.47-.74.78-.19.3-.35.66-.49,1.06-.04.13-.06.26-.08.39s-.03.27-.06.41c-.01.05-.02.13-.02.25-.01.04-.02.08,0,.13,0,.05,0,.11,0,.17v.38c0,.13.01.24.04.34l.04.23c.03.13.05.25.07.37.02.12.05.23.1.33.13.3.28.59.45.86.17.27.38.49.64.67.06.04.12.07.17.09s.11.06.17.09c.1.06.21.12.33.16.12.04.25.09.39.12.06.03.12.04.18.03.06,0,.12,0,.18,0,.04.01.12.03.24.04.12.01.21,0,.28-.02.05-.01.1-.02.15,0,.05,0,.1,0,.15-.03.1-.02.2-.05.3-.07.1-.02.2-.05.29-.08.43-.18.78-.42,1.04-.74.27-.32.49-.69.67-1.12.06-.15.1-.31.12-.48.02-.17.05-.34.1-.52Z"/>
          <path class="cls-1" d="M177.82,27.11c.03.08.04.19.04.35s0,.27-.02.33v.19c-.01.1-.02.19-.03.28,0,.08-.02.17-.03.28-.03.08-.04.15-.05.23,0,.08-.02.15-.05.23-.05.17-.09.33-.13.49s-.09.32-.15.46c-.27.61-.62,1.12-1.06,1.53-.44.41-.99.73-1.63.94-.14.05-.29.09-.45.11s-.32.05-.48.08c-.08.01-.16.02-.24.03-.08,0-.16,0-.24,0-.05.01-.12.02-.22.02s-.16,0-.2-.02c-.05-.01-.1-.02-.15,0-.05,0-.09,0-.13,0h-.11l-.46-.06c-.18-.05-.35-.1-.51-.15-.17-.05-.32-.11-.47-.17-.57-.25-1.04-.58-1.41-.99-.37-.41-.67-.9-.91-1.48-.06-.13-.11-.25-.14-.38-.03-.13-.06-.26-.08-.4-.03-.05-.04-.09-.03-.12,0-.03,0-.07,0-.12-.03-.1-.04-.21-.05-.31,0-.11-.02-.21-.05-.31v-.16s0-.1-.02-.16c-.01-.06-.02-.17-.02-.33s.01-.28.04-.35c.03-.09.03-.18.02-.27-.01-.09,0-.18.02-.27.01-.06.02-.12.03-.16,0-.04.02-.1.03-.16.04-.15.07-.3.1-.46.03-.15.08-.3.14-.44.19-.47.42-.89.69-1.26.27-.37.6-.69,1-.94.15-.1.31-.19.48-.26.16-.07.33-.14.51-.22.15-.06.32-.1.49-.12.18-.02.35-.05.53-.1.09,0,.17,0,.26,0,.08,0,.16-.02.24-.03,1.13-.01,2.06.22,2.81.7.75.48,1.29,1.11,1.62,1.88.06.13.11.25.15.38.04.13.08.26.13.4.04.14.07.29.1.45.03.16.06.32.09.48.01.06.02.13,0,.2,0,.07,0,.14,0,.2ZM176.13,28.2c.03-.09.03-.19.03-.3,0-.11,0-.22,0-.32,0-.49-.04-.91-.13-1.25-.04-.1-.07-.2-.09-.31-.03-.1-.06-.2-.09-.28-.36-.82-.92-1.39-1.69-1.71-.09-.04-.18-.07-.29-.09s-.2-.04-.3-.07c-.1-.03-.21-.04-.32-.04h-.34l-.34.06c-.13.03-.24.05-.35.09-.11.03-.21.07-.31.12-.09.03-.17.06-.25.11s-.15.1-.21.15c-.3.21-.55.47-.74.78-.19.3-.35.66-.49,1.06-.04.13-.06.26-.08.39s-.03.27-.06.41c-.01.05-.02.13-.02.25-.01.04-.02.08,0,.13,0,.05,0,.11,0,.17v.38c0,.13.01.24.04.34l.04.23c.03.13.05.25.07.37.02.12.05.23.1.33.13.3.28.59.45.86.17.27.38.49.64.67.06.04.12.07.17.09s.11.06.17.09c.1.06.21.12.33.16.12.04.25.09.39.12.06.03.12.04.18.03.06,0,.12,0,.18,0,.04.01.12.03.24.04.12.01.21,0,.28-.02.05-.01.1-.02.15,0,.05,0,.1,0,.15-.03.1-.02.2-.05.3-.07.1-.02.2-.05.29-.08.43-.18.78-.42,1.04-.74.27-.32.49-.69.67-1.12.06-.15.1-.31.12-.48.02-.17.05-.34.1-.52Z"/>
          <path class="cls-1" d="M180.42,18.91h.52c.18,0,.32.04.41.13.06.09.1.21.1.35,0,.15,0,.29,0,.45v12.01c0,.18-.03.32-.09.42-.04.06-.09.1-.16.11-.07.01-.16.03-.26.06h-.27c-.14,0-.27,0-.4,0-.13,0-.22-.05-.29-.12-.06-.1-.1-.23-.1-.38,0-.15,0-.31,0-.47v-11.52c0-.14,0-.29,0-.45,0-.16.02-.28.08-.37.05-.08.15-.14.29-.19.03-.01.05-.02.09,0,.03,0,.06,0,.08,0Z"/>
          <path class="cls-1" d="M192.73,31.41v.48c0,.16-.03.29-.09.39-.06.09-.17.14-.31.14s-.29,0-.45,0c-.08,0-.15,0-.22,0-.07,0-.13,0-.18-.03-.11-.03-.19-.08-.23-.15-.05-.06-.08-.14-.09-.23,0-.09-.03-.18-.07-.27-.01-.03-.03-.05-.05-.07-.02-.02-.04-.04-.07-.07-.13-.01-.22.01-.29.08-.07.06-.14.13-.22.19-.25.19-.51.34-.76.44-.23.1-.49.18-.79.23-.3.05-.6.08-.91.08-.31,0-.62-.01-.92-.06-.3-.04-.57-.12-.8-.22-.66-.28-1.19-.66-1.6-1.13-.41-.48-.72-1.07-.95-1.78-.05-.11-.09-.23-.1-.35-.02-.12-.05-.24-.09-.37-.01-.06-.02-.13-.02-.19s0-.13-.02-.19c-.03-.06-.04-.13-.03-.2,0-.07,0-.14,0-.2v-.19c-.03-.06-.04-.15-.04-.25s.01-.18.04-.25v-.21c.03-.09.04-.18.03-.28,0-.09,0-.19.03-.28.01-.06.02-.12.02-.17s0-.11.02-.17c.04-.13.07-.25.09-.37.03-.12.06-.24.09-.35.17-.48.38-.92.64-1.3.26-.39.57-.71.94-.96.21-.15.44-.28.67-.38s.49-.19.77-.27c.09-.01.17-.02.26-.04.08-.01.17-.03.26-.06h.19c.1-.03.25-.04.45-.04s.34.01.45.04c.05.01.12.02.21.02.14.04.28.07.42.08.14.02.27.06.4.12.19.08.37.16.54.25.17.09.33.19.48.3.08.06.16.13.24.2.08.07.19.09.33.07.03-.04.05-.07.07-.09s.04-.06.05-.11c.04-.11.05-.26.05-.44,0-.18,0-.34,0-.48v-2.78c0-.22.03-.38.09-.48.05-.09.13-.15.23-.17.03,0,.06,0,.1,0,.04,0,.07,0,.09,0,.18-.01.36-.02.56,0,.2,0,.33.06.41.16.06.1.09.23.09.38v11.95ZM191.2,27.82c.03-.06.04-.15.04-.26s-.01-.19-.04-.26v-.28c-.03-.11-.04-.23-.06-.35s-.04-.23-.08-.33c-.03-.1-.05-.2-.07-.29-.02-.09-.05-.18-.08-.27-.15-.38-.35-.72-.59-1.01-.24-.29-.54-.52-.91-.68-.13-.06-.26-.11-.39-.14-.13-.03-.28-.06-.43-.08-.1-.03-.21-.04-.33-.04h-.35c-.06.01-.12.02-.17.03-.05,0-.11,0-.17,0-.1.03-.21.05-.31.08s-.21.06-.31.09c-.41.18-.73.43-.98.77s-.45.73-.6,1.17c-.05.14-.08.28-.1.43-.02.15-.04.29-.07.43,0,.05,0,.1,0,.14,0,.04,0,.09,0,.14-.03.06-.04.13-.03.21,0,.08,0,.15,0,.21v.41c0,.13.01.26.04.37.01.04.02.1.02.19.03.09.05.18.07.27.02.09.04.18.07.27.14.44.33.82.57,1.14.24.32.54.58.91.78.11.06.23.11.34.15s.24.08.38.11c.06.03.13.03.2.02s.14,0,.2.02c.05.01.1.02.16.02h.33s.1-.02.19-.02c.1-.03.2-.05.3-.07.1-.02.2-.05.29-.08.42-.18.76-.4,1.02-.67s.48-.62.66-1.04c.06-.14.11-.28.13-.42.03-.14.06-.28.1-.42.02-.05.04-.1.04-.14s0-.09.02-.14c.01-.08.02-.15,0-.23,0-.08,0-.15,0-.23Z"/>
          <path class="cls-1" d="M204.21,27.11c.03.08.04.19.04.35s0,.27-.02.33v.19c-.01.1-.02.19-.03.28,0,.08-.02.17-.03.28-.03.08-.04.15-.05.23,0,.08-.02.15-.05.23-.05.17-.09.33-.13.49s-.09.32-.15.46c-.27.61-.62,1.12-1.06,1.53-.44.41-.99.73-1.63.94-.14.05-.29.09-.45.11s-.32.05-.48.08c-.08.01-.16.02-.24.03-.08,0-.16,0-.24,0-.05.01-.12.02-.22.02s-.16,0-.2-.02c-.05-.01-.1-.02-.15,0-.05,0-.09,0-.13,0h-.11l-.46-.06c-.18-.05-.35-.1-.51-.15-.17-.05-.32-.11-.47-.17-.57-.25-1.04-.58-1.41-.99-.37-.41-.67-.9-.91-1.48-.06-.13-.11-.25-.14-.38-.03-.13-.06-.26-.08-.4-.03-.05-.04-.09-.03-.12,0-.03,0-.07,0-.12-.03-.1-.04-.21-.05-.31,0-.11-.02-.21-.05-.31v-.16s0-.1-.02-.16c-.01-.06-.02-.17-.02-.33s.01-.28.04-.35c.03-.09.03-.18.02-.27-.01-.09,0-.18.02-.27.01-.06.02-.12.03-.16,0-.04.02-.1.03-.16.04-.15.07-.3.1-.46.03-.15.08-.3.14-.44.19-.47.42-.89.69-1.26.27-.37.6-.69,1-.94.15-.1.31-.19.48-.26.16-.07.33-.14.51-.22.15-.06.32-.1.49-.12.18-.02.35-.05.53-.1.09,0,.17,0,.26,0,.08,0,.16-.02.24-.03,1.13-.01,2.06.22,2.81.7.75.48,1.29,1.11,1.62,1.88.06.13.11.25.15.38.04.13.08.26.13.4.04.14.07.29.1.45.03.16.06.32.09.48.01.06.02.13,0,.2,0,.07,0,.14,0,.2ZM202.52,28.2c.03-.09.03-.19.03-.3,0-.11,0-.22,0-.32,0-.49-.04-.91-.13-1.25-.04-.1-.07-.2-.09-.31-.03-.1-.06-.2-.09-.28-.36-.82-.92-1.39-1.69-1.71-.09-.04-.18-.07-.29-.09s-.2-.04-.3-.07c-.1-.03-.21-.04-.32-.04h-.34l-.34.06c-.13.03-.24.05-.35.09-.11.03-.21.07-.31.12-.09.03-.17.06-.25.11s-.15.1-.21.15c-.3.21-.55.47-.74.78-.19.3-.35.66-.49,1.06-.04.13-.06.26-.08.39s-.03.27-.06.41c-.01.05-.02.13-.02.25-.01.04-.02.08,0,.13,0,.05,0,.11,0,.17v.38c0,.13.01.24.04.34l.04.23c.03.13.05.25.07.37.02.12.05.23.1.33.13.3.28.59.45.86.17.27.38.49.64.67.06.04.12.07.17.09s.11.06.17.09c.1.06.21.12.33.16.12.04.25.09.39.12.06.03.12.04.18.03.06,0,.12,0,.18,0,.04.01.12.03.24.04.12.01.21,0,.28-.02.05-.01.1-.02.15,0,.05,0,.1,0,.15-.03.1-.02.2-.05.3-.07.1-.02.2-.05.29-.08.43-.18.78-.42,1.04-.74.27-.32.49-.69.67-1.12.06-.15.1-.31.12-.48.02-.17.05-.34.1-.52Z"/>
          <path class="cls-1" d="M205.88,22.65h.58c.21,0,.37.04.48.11.1.06.17.16.2.28.03.12.07.24.1.37.05.15.09.31.13.47.04.17.09.32.15.48.03.06.04.12.04.17s.01.11.04.17c.05.15.09.31.12.47.03.16.08.32.14.48.14.44.27.9.38,1.37s.24.92.38,1.37c.06.18.11.35.15.52.04.17.09.35.15.52.03.1.05.2.08.29s.07.18.13.26c.01.03.03.04.04.05.01,0,.03.02.06.05.05,0,.08,0,.09-.02.08-.03.13-.08.15-.16.03-.08.05-.16.08-.24.06-.16.11-.33.14-.49.03-.16.07-.33.12-.49.02-.1.04-.18.04-.23.06-.18.11-.35.13-.52s.07-.35.13-.52c.05-.18.09-.36.12-.54.03-.18.08-.36.14-.54.1-.35.19-.72.28-1.08.08-.37.17-.73.28-1.08.04-.17.07-.32.1-.48.03-.15.07-.3.12-.46.03-.06.04-.12.06-.18.01-.06.03-.11.06-.16.05-.08.15-.14.29-.19.08-.03.15-.04.24-.04h.26c.17,0,.33,0,.49,0,.16,0,.29.04.39.1.08.06.13.14.16.22.03.08.06.17.08.28.06.19.11.38.15.58s.09.4.15.6c.02.1.05.2.08.3s.06.2.09.3c0,.04.01.11.04.21.04.11.07.23.09.35.03.12.06.24.09.37.01.04.03.11.06.21.11.37.21.73.28,1.1.08.37.17.73.29,1.1.06.18.11.36.14.55.03.19.08.37.14.55.03.09.05.17.07.26.02.08.05.16.1.24.01.03.03.04.05.05.02,0,.04.02.07.05.11,0,.19-.04.23-.13.04-.09.07-.18.1-.27.08-.21.14-.43.19-.65.05-.21.11-.43.17-.65.06-.18.11-.35.14-.52.03-.17.08-.34.14-.52.05-.11.09-.23.11-.36.03-.13.06-.26.09-.4.14-.41.26-.82.35-1.24.09-.42.21-.84.35-1.25.04-.14.07-.27.1-.4s.07-.26.1-.4c.03-.08.05-.15.08-.23s.06-.15.11-.21c.03-.05.07-.09.12-.11.06-.03.12-.05.18-.08.06-.01.13-.02.21-.02h.23c.18,0,.34.01.48.04.14.03.23.11.27.25.01.05.01.1,0,.14-.01.04-.03.08-.04.1-.03.09-.05.17-.07.25-.02.08-.04.15-.07.23-.03.05-.04.1-.05.14,0,.04-.02.09-.05.14-.08.24-.15.48-.22.71s-.15.47-.24.69c-.08.22-.15.44-.21.67-.06.23-.13.46-.21.69-.18.56-.35,1.11-.53,1.67s-.36,1.12-.55,1.69c-.08.21-.15.43-.21.66s-.13.44-.21.66c-.05.14-.09.28-.12.42-.03.14-.08.27-.14.38-.09.14-.21.22-.35.24-.15.02-.33.03-.54.03h-.4c-.06-.01-.13-.03-.19-.04s-.12-.03-.17-.06c-.08-.05-.14-.13-.18-.23-.04-.1-.08-.22-.1-.34-.03-.13-.05-.25-.08-.37-.03-.12-.06-.23-.09-.33-.05-.15-.09-.31-.11-.47s-.06-.31-.11-.47c-.05-.13-.08-.26-.1-.39-.02-.13-.05-.26-.1-.39-.03-.09-.05-.17-.07-.26-.02-.08-.04-.17-.07-.26-.1-.29-.18-.59-.24-.9-.06-.31-.13-.61-.22-.9-.08-.23-.14-.46-.19-.68-.05-.23-.11-.45-.17-.67-.03-.09-.06-.18-.1-.28-.04-.1-.11-.14-.21-.14h-.02l-.02.02c-.08.03-.13.09-.16.19-.03.1-.06.19-.09.27-.06.2-.11.4-.15.6-.04.2-.09.4-.15.6-.05.16-.09.33-.12.49-.03.16-.07.33-.12.49-.04.13-.07.25-.09.37s-.06.25-.09.39c-.11.37-.21.75-.29,1.14s-.18.78-.29,1.16c-.05.15-.09.31-.12.47s-.07.31-.12.45c-.03.08-.05.15-.07.23-.02.08-.06.13-.12.17-.06.05-.13.08-.19.09-.06,0-.14.02-.23.05h-.38c-.2,0-.38,0-.53-.02s-.27-.08-.36-.19c-.06-.1-.11-.21-.15-.33s-.08-.24-.11-.37c-.08-.24-.15-.48-.23-.72-.08-.24-.15-.48-.23-.72-.28-.82-.55-1.65-.81-2.47s-.52-1.65-.79-2.47c-.1-.29-.19-.58-.28-.85-.08-.28-.17-.55-.28-.82-.03-.08-.05-.18-.09-.32-.03-.14-.02-.25.03-.32.04-.05.12-.1.25-.15h.08s.05,0,.08-.02Z"/>
          <path class="cls-1" d="M225.17,22.46c.8-.03,1.44.08,1.92.32s.87.6,1.16,1.08c.08.13.14.26.18.41.04.15.08.29.12.45.06.24.1.5.11.78.01.28.02.56.02.86v5c0,.21,0,.43,0,.65,0,.22-.09.35-.26.42-.06.03-.13.04-.2.05-.07,0-.14,0-.22,0-.17,0-.32,0-.47,0-.15,0-.26-.06-.32-.16-.06-.09-.09-.2-.09-.34v-5.15c0-.34,0-.68-.02-1.02-.01-.34-.07-.62-.17-.87-.1-.25-.25-.46-.46-.62-.2-.16-.44-.28-.7-.37-.08-.03-.16-.04-.24-.05-.08,0-.16-.02-.24-.05-.06-.01-.16-.02-.29,0-.13,0-.22.02-.28.03-.05.03-.09.04-.13.03-.04,0-.08,0-.13,0-.17.04-.32.08-.47.12-.15.04-.28.1-.41.18-.05.03-.1.05-.13.08-.04.03-.08.05-.13.08-.44.32-.77.79-.97,1.42-.04.1-.06.21-.08.31s-.03.21-.06.31c-.03.06-.03.12-.02.18.01.06,0,.11-.02.16v.4s-.02.08,0,.13c0,.05,0,.11,0,.17v4.49c0,.15-.03.26-.09.35-.06.1-.17.16-.33.16-.16,0-.32,0-.48,0-.1,0-.2,0-.29-.02s-.17-.04-.23-.09c-.1-.06-.15-.18-.15-.36v-8.85c0-.11.03-.2.08-.27.04-.08.1-.13.19-.15.05-.01.12-.03.22-.04.1-.01.19-.02.29-.02s.2,0,.29.02c.1.01.16.03.2.06.14.09.2.2.19.33-.01.13,0,.28.06.45.02.08.08.14.15.19.15.01.28-.04.37-.17.09-.13.19-.23.29-.3.18-.13.36-.24.54-.35s.4-.2.64-.28c.1-.04.21-.06.33-.08s.24-.03.35-.06c.06-.01.13-.02.19-.02h.19Z"/>
        </g>
        <path class="cls-2" d="M41.71,22.6c-1.07-7.18-6.53-12.9-13.7-14.33-7.4-1.49-14.99,2.09-18.53,8.73-3.51,6.57-2.53,14.44,2.54,19.92,2.85,3.08,6.39,4.87,10.57,5.39.21.03.41.08.62.13h2.76c.42-.07.85-.13,1.27-.2,5.61-.95,9.81-3.91,12.59-8.86,1.13-2.02,1.75-4.2,2-6.5,0-.08.05-.16.07-.24v-2.76c-.07-.42-.13-.85-.2-1.27Z"/>
        <g>
          <path d="M21.65,33.68s-.05,0-.07-.01c-.28-.01-.57-.02-.85-.03-.4-.02-.8-.04-1.19-.08-.4-.04-.79-.09-1.18-.16-.43-.08-.87-.18-1.28-.34-.34-.13-.64-.31-.93-.53-.36-.27-.69-.56-.96-.93-.08-.11-.15-.23-.22-.34-.05-.09-.1-.18-.15-.27-.13-.25-.19-.52-.15-.81.05-.37.09-.74.14-1.12.01-.12.03-.24.05-.36,0-.03,0-.06,0-.1-.02,0-.04,0-.06.01-.29.08-.57.05-.84-.05-.37-.13-.7-.35-.99-.62-.49-.47-.85-1.03-1.08-1.68-.11-.31-.19-.64-.21-.97-.05-.67.05-1.32.37-1.92.15-.27.34-.51.6-.69.3-.21.63-.33.99-.38.13-.01.25,0,.37.05.03.01.07.03.1.04.29.09.46.29.53.58.05.24.07.48.05.72-.03.33-.07.66-.09.99-.02.36-.02.72.08,1.08.08.26.19.5.36.7.02.02.04.05.08.06.01-.07.02-.13.03-.19.07-.41.16-.82.28-1.22,0-.03.02-.05.03-.08.06-.12.09-.24.11-.37.04-.2.1-.4.18-.59.22-.55.44-1.11.67-1.65.25-.61.54-1.21.89-1.77.5-.82,1.14-1.52,1.89-2.12.5-.4,1.03-.76,1.6-1.05.49-.25.99-.44,1.52-.59.36-.1.72-.19,1.08-.25.31-.05.63-.09.94-.11.3-.02.61-.03.91-.02.97.04,1.92.22,2.82.6.58.25,1.14.56,1.64.95.55.44,1.01.95,1.38,1.54.4.62.71,1.28.95,1.98.22.66.39,1.33.51,2.01.07.42.13.84.18,1.25.06.49.11.99.13,1.48.01.3.02.59.04.89,0,.03,0,.05.01.1.03-.03.05-.04.06-.06.15-.18.29-.37.41-.56.33-.52.58-1.08.71-1.68.06-.29.1-.59.12-.89.02-.26.04-.53.07-.79.03-.23.1-.44.23-.63.08-.12.19-.2.33-.24.18-.05.36-.1.54-.1.18,0,.36.03.53.09.58.2,1.04.56,1.37,1.07.21.32.34.68.38,1.06.04.38,0,.75-.12,1.12-.23.76-.64,1.4-1.22,1.94-.65.59-1.38,1.04-2.2,1.36-.25.1-.51.17-.78.2-.15.02-.3.03-.44,0-.04,0-.05,0-.06.04,0,.07-.01.15-.02.22-.02.26-.04.53-.06.79-.02.26-.04.53-.07.79-.02.17-.07.33-.14.49-.08.19-.22.34-.39.47-.23.17-.48.31-.73.43-.46.22-.95.39-1.45.51-.48.12-.96.21-1.44.3-.38.06-.76.13-1.14.18-.37.05-.75.09-1.12.12-.54.05-1.09.09-1.63.1-.36.01-.71.02-1.07.03-.2,0-.41,0-.61.01-.01,0-.03,0-.04,0h-1.28ZM23.06,32.81s0,0,0,0c.17,0,.35,0,.52,0,.39-.01.78-.02,1.17-.04.35-.01.71-.03,1.06-.06.36-.03.72-.06,1.08-.1.25-.03.51-.06.76-.09.56-.08,1.11-.18,1.66-.29.49-.1.96-.23,1.43-.4.35-.13.69-.28,1-.49.1-.06.18-.14.27-.21.04-.04.07-.09.08-.14.03-.29.06-.57.09-.86.02-.22.03-.45.04-.67.02-.32.04-.64.05-.96,0-.3.01-.6,0-.89,0-.45-.03-.89-.04-1.34-.02-.47-.07-.93-.12-1.39-.05-.45-.12-.9-.2-1.34-.12-.63-.28-1.25-.49-1.86-.2-.56-.44-1.09-.76-1.59-.35-.55-.77-1.04-1.28-1.45-.52-.42-1.11-.74-1.74-.98-.78-.3-1.59-.46-2.42-.49-.31-.01-.62-.01-.93,0-.44.03-.87.09-1.3.19-.71.16-1.39.4-2.03.74-.85.45-1.61,1.04-2.29,1.73-.6.62-1.08,1.32-1.46,2.08-.36.71-.65,1.44-.91,2.19-.3.89-.54,1.79-.71,2.72-.03.15-.05.3-.07.45-.02.23-.04.46-.06.69-.02.23-.04.45-.06.68-.02.23-.04.45-.06.68-.02.29-.04.59-.03.88,0,.09.02.18.06.27.08.18.17.36.29.52.19.25.4.48.64.67.24.2.5.38.79.51.21.1.44.16.67.22.36.1.73.16,1.1.22.37.06.74.09,1.11.12.23.02.46.03.7.04.54.03,1.08.04,1.62.04.26,0,.51,0,.77,0ZM36.32,23.32s0,0-.01,0c0,.03,0,.05.01.08.02.11.04.22.02.34-.02.18-.06.35-.12.52-.13.36-.33.68-.55.99-.06.08-.13.14-.21.2-.01,0-.02,0-.04.01,0-.02,0-.02,0-.03.03-.13.07-.26.13-.38.14-.26.27-.53.38-.81.08-.19.15-.38.22-.57.05-.14.06-.28.04-.42,0-.04-.02-.06-.05-.08-.19-.11-.39-.18-.6-.22-.06,0-.07,0-.06.06.04.23.03.45-.02.67-.07.35-.2.67-.37.98-.02.05-.07.08-.1.12-.01.01-.03.02-.05.03,0-.03-.01-.04-.01-.06,0-.08,0-.17.03-.25.04-.15.09-.3.13-.45.07-.28.15-.55.22-.83.02-.07.02-.14.03-.22,0-.05-.01-.06-.06-.06-.04,0-.08,0-.12.01-.21.04-.35.18-.39.38-.04.22-.06.44-.09.66-.03.26-.06.53-.12.79-.14.63-.37,1.21-.73,1.75-.24.37-.53.7-.88.96-.05.04-.07.08-.07.14,0,.21,0,.41,0,.62,0,.04,0,.09,0,.13,0,.04.01.05.05.06.04,0,.07,0,.11.02.14.02.27.03.41.01.16-.01.31-.06.46-.12.49-.18.94-.44,1.36-.73.4-.28.76-.59,1.07-.97.26-.32.47-.66.61-1.05.14-.4.18-.8.1-1.22-.03-.17-.08-.33-.17-.48-.13-.21-.29-.4-.48-.56-.02-.02-.04-.03-.07-.05ZM13.04,23.21s0,0-.01,0c-.02.01-.05.03-.07.05-.39.31-.63.71-.73,1.19-.07.34-.07.69-.02,1.04.1.63.32,1.21.69,1.73.29.41.64.75,1.07,1,.19.11.39.19.61.23.08.01.17.02.25.02.05,0,.05,0,.06-.05,0-.03.01-.07.02-.1.04-.33.07-.67.11-1,0-.04,0-.07-.04-.1-.07-.05-.14-.1-.2-.17-.23-.25-.43-.54-.55-.86-.14-.35-.19-.72-.2-1.09-.01-.34.03-.68.06-1.02.02-.23.02-.47.02-.7,0-.03,0-.05-.01-.08,0-.01-.01-.02-.02-.04-.01.04-.02.06-.03.09-.07.31-.13.63-.2.94-.02.09-.03.18-.05.27-.01.05-.03.11-.08.15,0-.02-.02-.03-.02-.04-.03-.07-.05-.15-.04-.23,0-.1,0-.19,0-.29.01-.21.05-.42.14-.62.06-.12.13-.25.19-.37.01-.02.02-.04.04-.07-.03-.01-.04-.02-.06-.03-.22-.07-.45-.06-.66.03-.03.01-.04.03-.05.06-.02.08-.04.17-.05.25-.02.15-.03.3-.04.46-.02.31-.05.61-.05.92,0,.08-.02.16-.04.24,0,.01-.01.03-.02.05-.01-.01-.02-.01-.02-.02-.04-.08-.07-.16-.08-.24-.02-.15-.03-.31-.05-.46-.02-.17,0-.34.02-.51.02-.18.07-.35.13-.51,0-.02.01-.05.02-.07Z"/>
          <path d="M25.96,30.88s-.03.04-.04.06c-.47.89-1.22,1.43-2.17,1.7-.34.1-.69.13-1.04.11-.27-.01-.53-.07-.77-.18-.33-.15-.63-.35-.89-.6-.12-.12-.23-.25-.33-.38-.01-.02-.03-.04-.05-.07-.02.01-.04.02-.06.04-.15.11-.3.22-.45.33-.25.18-.51.34-.8.44-.22.08-.45.13-.69.12-.31,0-.56-.13-.75-.38-.14-.18-.22-.39-.27-.61-.09-.37-.04-.72.14-1.05.24-.44.58-.79,1.01-1.05.12-.07.23-.14.34-.23.1-.08.2-.14.31-.21.08-.05.16-.09.25-.1.05,0,.06-.02.05-.07-.03-.4-.04-.81-.02-1.22.04-.67.15-1.32.4-1.94.14-.35.3-.69.54-.98.02-.02.04-.04.05-.06.04.03.02.05.01.07-.04.14-.09.27-.13.41-.11.37-.2.74-.26,1.12-.03.22-.05.44-.07.66-.01.25-.02.5-.02.74,0,.38.05.75.1,1.13.07.48.19.96.37,1.41.14.36.32.7.56,1,.22.28.5.49.82.64.13.06.27.09.42.11.4.06.8.02,1.19-.1.26-.08.5-.22.72-.38.67-.49,1.07-1.15,1.2-1.97.06-.34.07-.69.06-1.04-.02-.44-.06-.89-.12-1.33-.06-.45-.12-.89-.17-1.34-.03-.27-.05-.54-.04-.81,0-.06,0-.12.01-.18.01-.13.08-.24.16-.35.01-.02.04-.03.06-.04.08-.03.15-.05.23-.08.03-.01.06,0,.09,0,.02.01.04.02.07.02.04,0,.06.03.07.06.05.14.08.28.07.42-.02.28,0,.56.03.83.04.34.08.68.13,1.01.03.26.07.52.1.78.02.22.04.44.05.66.01.15.01.3.02.45,0,.07,0,.07.07.09.04,0,.07.02.11.03.26.1.52.21.76.35.04.02.09.04.14.06.34.1.67.21.98.37.28.14.53.32.75.55.17.18.29.38.33.63.03.2,0,.38-.07.56-.12.29-.3.53-.53.74-.19.16-.42.24-.66.26-.35.04-.67-.06-.98-.22-.31-.16-.58-.36-.84-.58-.15-.13-.31-.27-.46-.4-.02-.02-.04-.03-.06-.05ZM20.06,30.34s-.04.02-.05.03c-.18.13-.37.26-.55.38-.14.1-.29.19-.45.25-.04.02-.08.02-.12.03-.02,0-.05,0-.07-.02-.04-.05-.09-.1-.11-.17-.01-.05-.02-.1-.04-.14-.02-.1-.02-.2.07-.28.02-.02.04-.04.07-.06.15-.14.32-.25.51-.34.09-.04.17-.1.25-.16.04-.03.07-.06.11-.09.05-.04.1-.07.16-.08.01,0,.03,0,.04-.01,0-.06-.05-.4-.08-.45-.1.04-.21.06-.31.12-.11.08-.23.15-.34.23-.23.17-.45.36-.63.59-.14.17-.26.35-.33.56-.08.24-.08.47.03.7.07.14.17.24.32.29.05.02.11.02.16.01.08-.02.16-.03.24-.06.27-.08.51-.21.73-.37.19-.13.37-.28.55-.42.04-.03.04-.03.02-.09-.05-.14-.11-.28-.16-.41,0-.01-.01-.02-.02-.04ZM26.31,29.89c-.03.07-.05.15-.06.22,0,.02.02.03.03.04.06.04.13.08.19.13.1.08.2.17.3.26.23.2.48.39.74.54.17.1.35.18.54.23.04.01.09.02.13.01.13-.01.26-.06.38-.13.2-.11.31-.28.35-.5.01-.06,0-.11-.02-.16-.05-.11-.12-.21-.2-.3-.11-.12-.22-.22-.35-.32-.22-.17-.45-.31-.69-.45-.08-.05-.17-.08-.27-.1-.25-.05-.5-.1-.75-.15-.06-.01-.12-.02-.18-.03-.02,0-.04,0-.05.02-.03.05,0,.09.05.1.02,0,.03,0,.05,0,.1,0,.19.04.28.08.1.05.19.11.29.16.08.04.16.08.25.11.25.1.48.23.67.41.04.04.05.08.04.13-.02.08-.05.15-.11.21,0,0-.02.02-.02.03-.02.07-.08.11-.12.16-.05.06-.11.08-.18.06-.03,0-.06-.02-.08-.03-.1-.06-.21-.13-.31-.2-.21-.14-.42-.28-.65-.4-.08-.04-.15-.09-.23-.14,0,0-.02,0-.03-.02Z"/>
          <path d="M19.3,25.28c0,.29-.07.56-.2.8-.1.2-.26.32-.48.36-.1.02-.19,0-.28-.04-.11-.05-.21-.11-.31-.17-.06-.03-.1-.08-.14-.13-.05-.06-.1-.13-.14-.2-.19-.3-.26-.62-.16-.96.02-.09.06-.17.11-.24.07-.1.16-.17.27-.21.12-.05.24-.1.37-.12.08-.01.16-.02.23,0,.09.03.17.06.25.09.28.13.42.36.46.66,0,.05,0,.1,0,.14Z"/>
          <path d="M29.66,25.31c0,.16-.02.32-.07.48-.03.09-.06.18-.1.27-.09.19-.22.34-.42.41-.1.04-.21.03-.31-.01-.16-.07-.29-.17-.39-.31-.06-.08-.12-.16-.17-.25-.2-.32-.26-.66-.15-1.03.02-.07.06-.14.1-.21.04-.07.1-.12.17-.15.15-.07.3-.13.46-.16.08-.02.16,0,.24.02.03.01.06.03.09.03.13.03.22.11.3.21.15.18.21.39.23.62,0,.02,0,.05,0,.07Z"/>
          <path d="M29.73,27.72c0-.08,0-.15,0-.23,0-.01,0-.03,0-.04,0-.03.04-.03.06-.02,0,0,0,0,0,0,.11.18.22.35.18.58-.02.11-.03.22-.07.33-.01.03-.02.07-.06.07-.04,0-.05-.04-.06-.07-.01-.03-.02-.07-.02-.1-.02-.18-.03-.36-.04-.53h0Z"/>
          <path d="M29.3,28.45c-.05-.04-.08-.09-.09-.15-.03-.14-.05-.29-.06-.43,0-.1.01-.2.02-.3,0-.04.04-.05.07-.03.01,0,.02.02.03.03.09.1.13.22.14.35,0,.12-.01.24-.03.36,0,.06-.03.12-.08.16Z"/>
          <path d="M28.94,28.15c0,.08,0,.13-.01.19,0,.04-.02.08-.04.12-.02.04-.05.04-.08,0-.02-.03-.04-.07-.05-.1-.03-.14-.07-.28-.08-.42-.01-.1,0-.21,0-.32,0-.02.02-.04.03-.04.01,0,.04.01.05.02.09.11.15.24.17.38,0,.06,0,.12,0,.16Z"/>
          <path d="M17.93,28c0-.11.03-.22.07-.32.01-.04.03-.09.05-.13,0-.02.02-.03.04-.04.01.01.03.03.03.04.06.21.08.43.05.65,0,.05,0,.1-.02.15,0,.04-.02.07-.04.1-.02.03-.05.03-.07,0-.02-.03-.04-.07-.05-.1-.02-.12-.04-.23-.05-.35Z"/>
          <path d="M17.57,28.47s-.07-.09-.08-.14c-.03-.16-.05-.33-.03-.49,0-.04.02-.08.03-.12.03-.08.06-.16.09-.24,0-.01.02-.02.04-.03,0,.01.02.02.02.04,0,0,0,0,0,0,.02.24.04.48.01.72,0,.05-.01.1-.02.15,0,.04-.02.08-.06.11Z"/>
          <path d="M17.1,27.5c0,.05,0,.1,0,.16,0,.11.02.21.02.32,0,.1-.01.2-.03.29,0,.04-.02.07-.04.1-.02.03-.04.03-.06,0-.02-.01-.03-.03-.04-.05-.08-.17-.1-.35-.03-.52.04-.09.08-.18.13-.27,0-.02.02-.04.05-.03Z"/>
        </g>
      </g>
    </g>
  </g>
</svg>