<?xml version="1.0" encoding="UTF-8"?>
<svg xmlns="http://www.w3.org/2000/svg" version="1.1" viewBox="0 0 22.66 22.62">
  <defs>
    <style>
      .cls-1 {
        fill: #979695;
      }

      .cls-2 {
        fill: #21325b;
      }
    </style>
  </defs>
  <!-- Generator: Adobe Illustrator 28.6.0, SVG Export Plug-In . SVG Version: 1.2.0 Build 709)  -->
  <g>
    <g id="Layer_1">
      <g>
        <path class="cls-2" d="M4.71,10.75c0-.13.03-.25.07-.37.05-.12.12-.22.21-.31.09-.09.2-.16.31-.21.12-.05.24-.07.37-.07h1.6c.26,0,.5.11.68.29.18.18.28.42.28.68v6.05c.18-.05.41-.11.66-.17.18-.04.33-.14.44-.28.11-.14.17-.32.17-.5v-7.5c0-.26.1-.5.28-.68.18-.18.43-.28.68-.28h1.6c.26,0,.5.1.68.28s.28.43.28.68v6.96s.4-.16.79-.33c.15-.06.27-.16.36-.3.09-.13.13-.29.13-.44V5.95c0-.26.1-.5.28-.68.18-.18.42-.28.68-.28h1.6c.26,0,.5.1.68.28.18.18.28.42.28.68v6.84c1.39-1.01,2.8-2.22,3.92-3.68.16-.21.27-.46.31-.72.04-.26.02-.53-.07-.78-.52-1.49-1.34-2.85-2.41-4.01-1.07-1.15-2.38-2.07-3.83-2.69C14.33.29,12.76-.02,11.19,0c-1.58.02-3.13.37-4.56,1.02-1.43.65-2.72,1.6-3.76,2.78-1.05,1.18-1.84,2.56-2.32,4.06C.06,9.36-.1,10.94.06,12.51c.17,1.57.66,3.08,1.44,4.45.14.24.34.43.58.55.24.13.51.18.79.15.3-.03.68-.06,1.13-.12.2-.02.38-.12.51-.26.13-.15.2-.34.2-.53v-6Z"/>
        <path class="cls-1" d="M4.68,20.46c1.69,1.23,3.69,1.97,5.77,2.13,2.08.16,4.17-.25,6.03-1.2,1.86-.95,3.43-2.39,4.52-4.17,1.09-1.78,1.67-3.83,1.67-5.92,0-.26-.01-.52-.03-.78-4.14,6.17-11.78,9.06-17.96,9.94"/>
      </g>
    </g>
  </g>
</svg>