<?xml version="1.0" encoding="UTF-8"?>
<svg xmlns="http://www.w3.org/2000/svg" version="1.1" viewBox="0 0 23.24 23.23">
  <defs>
    <style>
      .cls-1 {
        fill: #ff0420;
      }
    </style>
  </defs>
  <!-- Generator: Adobe Illustrator 28.6.0, SVG Export Plug-In . SVG Version: 1.2.0 Build 709)  -->
  <g>
    <g id="Layer_1">
      <g>
        <path class="cls-1" d="M12.5,23.23h-1.86c-.14-.03-.28-.07-.42-.08-2.81-.35-5.2-1.56-7.12-3.63C-.3,15.83-.96,10.53,1.4,6.1,3.78,1.63,8.89-.78,13.88.22c4.82.97,8.5,4.82,9.23,9.65.04.29.09.57.13.86v1.86c-.02.05-.04.11-.05.16-.16,1.55-.58,3.02-1.35,4.38-1.88,3.34-4.7,5.33-8.48,5.97-.28.05-.57.09-.85.13ZM8.3,14.7c.13,0,.29,0,.45-.02,1.11-.12,1.91-.66,2.33-1.71.32-.81.5-1.66.56-2.52.06-.77-.29-1.36-.99-1.72-.45-.23-.94-.3-1.44-.3-1.42.02-2.4.66-2.83,1.97-.24.74-.39,1.53-.49,2.31-.11.77.28,1.37.97,1.72.44.22.91.29,1.43.29ZM13.9,12.49c.45,0,.87,0,1.29,0,1.45-.02,2.32-.7,2.57-2.01.17-.9-.17-1.51-1.03-1.81-.18-.06-.37-.12-.56-.12-.93-.02-1.85-.03-2.78-.04-.18,0-.28.1-.32.28-.07.35-.15.7-.22,1.04-.31,1.48-.63,2.96-.94,4.44-.06.29-.01.35.28.35.31,0,.62,0,.93,0,.29,0,.36-.07.42-.35.12-.59.25-1.18.37-1.78Z"/>
        <path class="cls-1" d="M7.46,12.6c.19-.72.33-1.46.57-2.16.21-.6.87-.87,1.49-.72.33.08.56.36.5.76-.12.74-.26,1.49-.49,2.2-.2.6-.81.86-1.43.74-.38-.07-.56-.34-.56-.81l-.07-.02Z"/>
        <path class="cls-1" d="M14.14,11.28c.11-.53.22-1.04.33-1.54.44,0,.86-.02,1.29,0,.29.02.42.21.42.51,0,.55-.36.97-.91,1.01-.37.03-.74,0-1.12,0Z"/>
      </g>
    </g>
  </g>
</svg>