<?xml version="1.0" encoding="UTF-8"?>
<svg xmlns="http://www.w3.org/2000/svg" version="1.1" viewBox="0 0 273.86 375.73">
  <defs>
    <style>
      .cls-1 {
        fill: #eca491;
      }

      .cls-2 {
        fill: #ffefe5;
      }

      .cls-3 {
        fill: #f3752b;
      }

      .cls-4 {
        fill: #fff9f7;
      }

      .cls-5 {
        fill: #fffcfc;
      }

      .cls-6 {
        fill: #26507f;
      }

      .cls-7 {
        fill: #f3d95e;
      }

      .cls-8 {
        fill: #3e6dab;
      }

      .cls-9 {
        fill: #82c2e1;
      }

      .cls-10 {
        fill: #1b1312;
      }

      .cls-11 {
        fill: #ecaa9c;
      }

      .cls-12 {
        fill: #72c8e2;
      }

      .cls-13 {
        fill: #589fcd;
      }

      .cls-14 {
        fill: #ebb1a8;
      }

      .cls-15 {
        fill: #61a8d2;
      }

      .cls-16 {
        fill: #204160;
      }

      .cls-17 {
        fill: #fff6e1;
      }

      .cls-18 {
        fill: #b5e1eb;
      }

      .cls-19 {
        fill: #eba899;
      }

      .cls-20 {
        fill: #c1d8e1;
      }

      .cls-21 {
        fill: #981e20;
      }

      .cls-22 {
        fill: #527288;
      }

      .cls-23 {
        fill: #5789c7;
      }

      .cls-24 {
        fill: #3265a1;
      }

      .cls-25 {
        fill: #c02727;
      }

      .cls-26 {
        fill: #afd3e9;
      }

      .cls-27 {
        fill: #1b2d3a;
      }
    </style>
  </defs>
  <!-- Generator: Adobe Illustrator 28.6.0, SVG Export Plug-In . SVG Version: 1.2.0 Build 709)  -->
  <g>
    <g id="Layer_1">
      <g>
        <path class="cls-27" d="M70.15,271.65c-6.25-1.81-12.56-3.44-18.73-5.47-10.43-3.44-20.41-7.97-28.99-14.92C6.95,238.71-.41,222.45.02,202.38c.37-17.59,8.62-30.93,21.03-42.38.9-.83,1.82-1.64,2.31-2.08-1.39-5.19-3.21-10.03-3.93-15.03-2.2-15.17,1.75-28.46,13.71-38.59,9.3-7.87,19.46-14.33,31.62-16.96,2.3-.5,4.62-.92,6.52-1.29-1.22-3.39-2.94-6.7-3.56-10.2-1.82-10.31,2.09-18.72,9.63-25.59,8.13-7.42,17.79-12.38,27.71-16.91,11.7-5.34,23.04-11.34,32.42-20.28,3.44-3.27,6.07-7.45,8.77-11.41,1.03-1.52,1.73-2.08,3.46-1.3,15.36,6.93,25.01,18.17,26.98,35.33.09.81.96,1.8,1.73,2.23,7.08,3.97,13.89,8.27,19.77,13.98,8.61,8.37,11.67,22.9,3.85,33.96,3.43.75,6.87,1.21,10.12,2.26,13.9,4.49,26.05,11.85,35.18,23.39,6.21,7.85,8.07,17.21,7.54,27.15-.35,6.53-1.77,12.7-4.62,18,2.14,2.39,4.15,4.76,6.3,7,7.11,7.41,13.17,15.55,15.44,25.73,4.52,20.3,1.14,38.85-13.08,54.79-9.21,10.32-21.08,16.32-33.73,21.04-4.71,1.76-9.58,3.11-14.38,4.64-5.04,1.11-10.09,2.22-15.13,3.33-5.4.94-10.8,1.88-16.21,2.83-3.73.34-7.46.76-11.2,1-9.05.57-18.1,1.05-27.15,1.57h-6.03c-8.7-.35-17.41-.69-26.11-1.03-1.91-.2-3.83-.4-5.74-.6-1.19-.12-2.38-.25-3.56-.37-4.43-.62-8.86-1.24-13.28-1.86-5.41-1.02-10.82-2.04-16.23-3.06ZM187.3,237.21c.49-.16.98-.31,1.47-.47,12.41-6.38,19.46-19.8,18.46-32.51-1.24-15.72-9.16-27.48-23.63-34.15-11.85-5.46-24.52-7.97-37.5-8.68-6.46-.35-12.95,0-19.43-.14-12.4-.26-24.4,1.99-36.19,5.59-12.34,3.76-22.22,10.55-27.95,22.57-8.71,18.27-2.13,38.95,15.41,47.91,11.4,5.82,23.47,7.63,36.19,6.51,8.39-.73,16.84-1.05,25.26-1.01,8.59.05,17.17.99,25.76,1.1,5.31.07,10.45-1.44,15.27-3.78,2.3-.98,4.59-1.97,6.89-2.95ZM163.92,82.37c.02-1.97-1.59-3.63-3.54-3.68-2.1-.05-3.8,1.63-3.76,3.7.04,1.98,1.69,3.58,3.66,3.57,1.97-.02,3.62-1.65,3.64-3.59ZM218.88,191.71c-1.98,0-3.55,1.57-3.58,3.57-.03,2,1.5,3.66,3.44,3.72,2.02.06,3.8-1.68,3.77-3.69-.03-1.92-1.72-3.6-3.63-3.59ZM67.25,258.95c2.36.02,4.35-1.99,4.35-4.4,0-2.33-1.86-4.28-4.14-4.33-2.4-.05-4.4,1.86-4.47,4.28-.07,2.44,1.83,4.43,4.26,4.45ZM79.62,116.16c-2.33-.04-3.93,1.42-4.02,3.69-.1,2.43,1.45,4.22,3.74,4.33,2.16.11,4.23-1.91,4.28-4.18.05-1.9-1.94-3.81-4-3.84ZM196.42,150.48c-2.2.04-3.95,1.73-3.94,3.83,0,2.05,1.84,3.92,3.89,3.95,2.14.03,4.08-1.9,4.05-4.04-.03-2.09-1.82-3.77-3.99-3.74ZM235,143.15c2.3,0,3.99-1.75,3.9-4.01-.07-1.79-2.27-3.84-4.12-3.84-2.07,0-3.71,1.75-3.71,3.95,0,2.44,1.48,3.91,3.93,3.91ZM176.96,54.69c-1.34-.84-2.18-1.77-2.76-1.63-.8.2-1.39,1.2-2.07,1.86.69.66,1.34,1.78,2.08,1.83.68.05,1.45-1.03,2.75-2.07ZM200.31,262.04c.94-1.31,1.96-2.12,1.91-2.84-.05-.68-1.24-1.27-1.93-1.9-.63.7-1.62,1.33-1.76,2.12-.1.59.89,1.38,1.79,2.62ZM152.38,32.95c-.95,1.34-1.9,2.1-1.83,2.75.08.68,1.06,1.58,1.78,1.74.45.1,1.59-.98,1.64-1.59.05-.71-.76-1.48-1.59-2.9ZM59.24,110.09c-.95,1.39-1.88,2.16-1.78,2.76.11.69,1.06,1.52,1.79,1.71.39.1,1.52-.97,1.56-1.57.05-.7-.73-1.45-1.57-2.91ZM223.57,126.66c-.98-.64-1.63-1.39-2.18-1.32-.57.07-1.05.93-1.57,1.45.59.53,1.12,1.36,1.78,1.47.45.08,1.08-.84,1.97-1.6ZM115.95,256.97c-.97-.63-1.62-1.4-2.16-1.32-.56.08-1,.97-1.49,1.5.58.52,1.1,1.36,1.74,1.47.44.08,1.05-.86,1.9-1.65ZM169.72,94.32c-.86-.78-1.48-1.73-1.9-1.64-.66.13-1.17.95-1.75,1.48.5.53.94,1.42,1.51,1.5.53.08,1.18-.69,2.15-1.34ZM238.32,167.43c.75-.99,1.56-1.6,1.53-2.14-.04-.57-.88-1.49-1.39-1.5-.53-.01-1.42.83-1.51,1.4-.08.53.69,1.19,1.38,2.24ZM81.41,158.44c-.98-.68-1.69-1.53-2.14-1.41-.64.18-1.08,1.07-1.61,1.65.57.45,1.13,1.24,1.71,1.25.55.01,1.12-.78,2.04-1.5ZM105.06,81.95c.77-.98,1.59-1.57,1.56-2.11-.03-.57-.88-1.1-1.37-1.64-.54.49-1.43.93-1.53,1.5-.09.53.67,1.2,1.34,2.25ZM250.33,187.09c-.83-.73-1.36-1.57-1.88-1.56-.54.02-1.55.92-1.49,1.3.12.7.86,1.29,1.34,1.93.56-.46,1.12-.93,2.02-1.67ZM150.04,249.8c-1.07-.64-1.74-1.37-2.27-1.27-.55.1-.97.98-1.44,1.52.54.47,1.07,1.29,1.64,1.32.53.02,1.1-.79,2.08-1.57ZM35.19,224.9c-.88-.71-1.39-1.44-1.88-1.43-.52,0-1.38.67-1.45,1.13-.07.48.64,1.49,1.03,1.5.62.01,1.25-.61,2.3-1.2ZM235.57,226.64c-.9-.59-1.46-1.25-1.96-1.2-.52.05-.97.77-1.45,1.2.52.52.97,1.26,1.59,1.45.34.1.97-.74,1.82-1.46ZM68.18,155.57c-.97-.66-1.57-1.37-2.08-1.32-.49.05-.91.89-1.36,1.38.49.44.95,1.18,1.47,1.22.49.04,1.05-.65,1.97-1.28ZM77.47,148.35c-.9-.71-1.43-1.46-1.96-1.46-.48,0-.96.81-1.44,1.27.45.47.85,1.24,1.36,1.31.5.07,1.1-.57,2.04-1.12ZM203.08,124.59c.58-.97,1.26-1.6,1.15-2.04-.13-.53-.93-.9-1.44-1.33-.42.51-1.16,1-1.18,1.52-.02.47.73.98,1.47,1.85ZM138.43,54.71c-.6.89-1.29,1.48-1.23,1.99.06.49.9,1.24,1.38,1.22.48-.02,1.29-.84,1.29-1.31,0-.53-.75-1.05-1.43-1.9Z"/>
        <path class="cls-20" d="M99.66,276.58c1.19.12,2.38.25,3.56.37,1.94,2.55,3.42,2.7,5.74.6,8.7.34,17.41.69,26.11,1.03-.58,1.72-.42,3.44,1.26,4.25,1,.48,2.61.48,3.61,0,1.69-.82,1.87-2.52,1.17-4.25,9.05-.52,18.1-1,27.15-1.57,3.74-.24,7.47-.66,11.2-1,.45.69,1.11,1.33,1.3,2.09.35,1.4.42,2.86.6,4.3.34,4.92.68,9.83,1.02,14.75-.03,1.36-.05,2.72-.08,4.07-2.63-2.32-5.66-2.02-6.16.75-.19,1.07.31,2.67,1.08,3.44,1.42,1.41,3.16.85,4.65-.29-.13,3.74-2.03,5.7-6.66,6.25-4.49.54-9.03.73-13.55,1.08.53-.6,1.46-1.19,1.49-1.81.06-1.25,0-2.89-.73-3.68-.68-.72-2.6-1.05-3.48-.59-.99.52-2.01,2.12-1.97,3.22.09,2.42,2.02,3.08,4.21,2.98-2.49.31-4.99.63-7.48.94-4.24.47-8.48.94-12.72,1.41-3.29.17-6.57.34-9.86.52-4.25.16-8.5.33-12.74.49-1.83-.02-3.66-.03-5.48-.05.15-2.87-.78-4.26-2.92-4.41-2.03-.13-3.17,1.01-3.43,3.44-2.64-.68-4.52-2.28-5.12-4.94-.57-2.5-.8-5.07-1.17-7.6.51.26,1.06.81,1.51.74,1.26-.2,2.96-.3,3.58-1.12.64-.85.66-2.76.11-3.72-.49-.84-2.15-1.38-3.28-1.36-.84.01-1.66,1.12-2.49,1.74-.17-4.42-.34-8.83-.5-13.25.17-2.94.33-5.87.5-8.81ZM149.79,297.69c1.73.05,3.35-1.39,3.46-3.09.13-1.85-1.37-3.47-3.26-3.53-1.78-.06-3.35,1.33-3.48,3.07-.13,1.77,1.46,3.5,3.27,3.55ZM132.75,303.27c0-1.91-1.33-3.34-3.15-3.37-1.8-.03-3.31,1.41-3.38,3.2-.07,1.95,1.38,3.44,3.33,3.44,1.88,0,3.19-1.33,3.19-3.27ZM171.56,284.77c0-1.98-1.41-3.38-3.39-3.33-1.86.05-3.15,1.42-3.12,3.33.02,1.91,1.32,3.16,3.26,3.16,1.95,0,3.24-1.26,3.25-3.17ZM122.38,290.39c-.02-1.89-1.34-3.17-3.26-3.17-1.92,0-3.22,1.28-3.23,3.18,0,2,1.42,3.42,3.37,3.34,1.85-.07,3.15-1.46,3.12-3.36Z"/>
        <path class="cls-25" d="M157.28,343.38c.64.34,1.8.61,1.85,1.03.9,7.23,1.67,14.47,2.47,21.71-1.17.34-2.33.68-3.5,1.03-8.48,2.5-16.72,6.22-25.92,4.89-.29-.73-.58-1.47-.63-1.59-7.37.74-14.56,1.51-21.76,2.15-1.23.11-2.51-.35-3.77-.54,7.48.31,14.79-.83,22.03-2.55,1.09-.26,2.99-1.32,2.92-1.63-.55-2.27-2.36-.8-3.36-.57-6.14,1.44-12.28,2.62-18.63,2.27-1.76-.1-3.53-.02-5.29-.03.05-2.25-.36-4.62.24-6.71,1.24-4.35,5.89-6.47,10.96-5.49.46.09.91.25,1.87.51,0-3.22.12-6.19-.05-9.14-.08-1.41.15-2.23,1.64-2.38,4.45-.65,8.9-1.31,13.34-1.96,1.6-.14,1.89.84,1.89,2.15-.02,4.95,0,9.91,0,15.48,3.67-2.46,6.86-2.77,10.69-1.25,0-1.72.2-3.17-.04-4.54-.51-2.87-1.17-5.71-1.92-8.52-.44-1.63-.02-2.53,1.61-2.88,4.46-.48,8.91-.96,13.37-1.43Z"/>
        <path class="cls-11" d="M99.16,285.39c.17,4.42.34,8.83.5,13.25,0,.15-.02.3-.07.44-2.21.77-4.26,1.04-5.98-1.14-.3-.38-1.29-.33-1.96-.3-4.59.21-9.13.22-13.53-1.43-5.98-2.24-9.61-7.07-9.4-13.47.12-3.7.93-7.39,1.43-11.08,5.41,1.02,10.82,2.04,16.23,3.06-.13.39-.26.77-.38,1.16-1.87,5.93-.04,8.44,6.24,8.52.57,0,1.15-.07,1.71.02,1.74.29,3.48.64,5.22.97Z"/>
        <path class="cls-11" d="M182.38,297.15c-.34-4.92-.68-9.83-1.02-14.75,6.58.06,12.27-3.61,14.3-9.22,5.04-1.11,10.09-2.22,15.13-3.33.54,5.89-2.43,10.43-6.09,14.43-2.78,3.04-6.25,5.45-9.36,8.2-.68.6-1.54,1.35-1.7,2.16-1.13,5.77-6.69,7.02-10.68,2.95-.17-.17-.39-.29-.59-.43Z"/>
        <path class="cls-11" d="M157.28,343.38c-4.46.48-8.91.96-13.37,1.43-.97-9.97-1.95-19.93-2.92-29.9,4.24-.47,8.48-.94,12.72-1.41,1.19,9.96,2.38,19.91,3.57,29.87Z"/>
        <path class="cls-11" d="M131.69,344.37c-4.45.65-8.9,1.31-13.34,1.96-.17-6.63-.42-13.25-.47-19.88-.02-3.51.32-7.02.5-10.53,4.25-.16,8.5-.33,12.74-.49.19,9.65.37,19.3.56,28.94Z"/>
        <path class="cls-21" d="M132.18,372.02c9.2,1.34,17.45-2.38,25.92-4.89,1.17-.34,2.33-.68,3.5-1.03,1.15,1.68-.51,2.12-1.29,2.95-1.1.29-2.19.57-3.29.87-7.67,2.11-15.16,5.2-23.37,4.56-1.37-.29-1.79-1.16-1.47-2.46Z"/>
        <path class="cls-21" d="M103.68,369.54c1.76,0,3.53-.07,5.29.03,6.35.35,12.49-.83,18.63-2.27,1-.23,2.81-1.71,3.36.57.07.3-1.82,1.37-2.92,1.63-7.24,1.72-14.55,2.86-22.03,2.55,0,0,.04,0,.04,0-.35-.16-.69-.32-1.04-.48-.44-.68-.89-1.36-1.33-2.03Z"/>
        <path class="cls-25" d="M133.65,374.49c8.21.64,15.69-2.45,23.37-4.56,1.09-.3,2.19-.58,3.29-.87-2.16,1.17-4.21,2.8-6.52,3.42-5.14,1.37-10.4,2.39-15.66,3.21-1.4.22-2.98-.77-4.48-1.21Z"/>
        <path class="cls-7" d="M161.19,312.57c-2.2.1-4.13-.56-4.21-2.98-.04-1.09.98-2.7,1.97-3.22.88-.46,2.8-.13,3.48.59.74.79.79,2.43.73,3.68-.03.63-.97,1.21-1.49,1.81-.16.04-.32.08-.48.12Z"/>
        <path class="cls-7" d="M99.59,299.07c.05-.14.08-.29.07-.44.83-.62,1.65-1.73,2.49-1.74,1.13-.01,2.79.52,3.28,1.36.55.96.53,2.87-.11,3.72-.62.82-2.32.92-3.58,1.12-.45.07-1-.47-1.51-.74-.22-1.1-.44-2.19-.66-3.29Z"/>
        <path class="cls-7" d="M181.87,305.12c-1.5,1.14-3.23,1.7-4.65.29-.77-.77-1.27-2.36-1.08-3.44.5-2.77,3.53-3.07,6.16-.75-.14,1.3-.29,2.6-.43,3.9Z"/>
        <path class="cls-7" d="M106.54,314.9c.26-2.43,1.4-3.57,3.43-3.44,2.15.14,3.08,1.54,2.92,4.41-2.12-.32-4.24-.64-6.36-.97Z"/>
        <path class="cls-25" d="M105.02,371.57c.35.16.69.32,1.04.48-.35-.16-.69-.32-1.04-.48Z"/>
        <path class="cls-14" d="M180.41,240.15c-4.82,2.34-9.96,3.85-15.27,3.78-8.59-.11-17.17-1.05-25.76-1.1-8.42-.04-16.87.27-25.26,1.01-12.72,1.11-24.8-.69-36.19-6.51-17.54-8.96-24.12-29.64-15.41-47.91,5.73-12.02,15.61-18.81,27.95-22.57,11.79-3.6,23.79-5.84,36.19-5.59,6.47.13,12.97-.21,19.43.14,12.98.71,25.65,3.22,37.5,8.68,14.48,6.67,22.4,18.43,23.63,34.15,1,12.72-6.05,26.14-18.46,32.51.2-1.21.25-2.46.63-3.61,1.8-5.44,1.94-10.95.97-16.55-.28-1.6.25-3.55-.49-4.81-2.24-3.81-5.36-6.78-9.99-7.59-1.68-.68-3.36-1.37-5.05-2.05,1-2.02,2.17-3.97,2.94-6.06.66-1.8.88-3.76,1.3-5.65.93-.99,1.85-1.97,2.78-2.96,1.93-.67,3.86-1.34,5.79-2.01,3.23-1.13,4.33-3.05,3.44-5.98-.76-2.49-3.55-3.67-6.43-2.78-1.87.58-3.74,1.21-5.65,1.55-.7.12-2.1-.39-2.23-.86-.94-3.55-3.96-5.09-6.47-7.13-5.16-4.21-11.56-4.72-17.66-4.69-5.34.03-8.7,4.45-11.57,8.6-1.41,2.03-3.02,2.67-5.4,2.4-2.15-.24-4.37-.2-6.53,0-2.63.25-4.55-.08-6.19-2.68-2.5-3.97-5.84-7.51-10.76-8.27-2.56-.4-5.36.18-7.97.72-6.83,1.4-12.81,4.19-16.57,10.55-.43.72-1.83,1.39-2.65,1.26-2.16-.33-4.24-1.14-6.37-1.7-2.38-.62-4.75.8-5.52,3.27-.81,2.59.1,4.49,2.7,5.43,1.53.56,3.12.98,4.68,1.47.98.6,1.96,1.21,2.93,1.81,1.78,2.2,3.03,4.54,3.08,7.54.04,2.24.99,4.35,3.08,5.58,2.73,1.62,5.4,3.42,8.32,4.63,2.51,1.04,5.32,1.87,8,1.87,3.46,0,6.93-.81,10.38-1.42,5.7-1.01,8.98-4.29,9.94-10.03.53-3.13.7-6.31,1.11-9.46.23-1.78.39-3.73,2.51-4.39,2.17-.67,4.13-.08,5.45,1.78.78,1.1,1.42,2.41,1.71,3.72.4,1.82.36,3.73.6,5.59.88,6.88,3.1,11.09,9.06,12.49,6.65,1.56,13.26,3.06,19.96.32-.26,1.49-.67,2.77-2.4,3.31-.88.28-1.61,1.09-2.35,1.73-1.94,1.68-2.87,4.72-2.27,6.55,1.11,3.39,1.89,6.9,3.17,10.21,1.25,3.23,2.55,6.61,6.71,7.35.93.17,1.76.86,2.68,1.18,2.27.77,4.58,1.42,6.85,2.2.52.18.95.66,1.41,1ZM72.6,231.25c1,.42,2.18.64,2.98,1.31,5.54,4.65,8.45,3.99,13.32,1.01,3.13-1.92,4.06-5.54,4.85-9.03.67-2.92,1.66-5.8-.48-8.54-.16-.98-.32-1.97-.48-2.95-.15-1.34.21-3.35-.53-3.93-4.61-3.56-12.22-6.02-17.19.98-1.12.9-2.4,1.66-3.32,2.72-1.91,2.2-4.43,4-5.06,7.12.1.75.12,1.53.31,2.26.69,2.68,4.32,4.26,2.85,7.76q1.87-.56,2.74,1.3c-.26.16-.51.31-.77.47.1.1.19.19.29.29.16-.26.32-.51.47-.77ZM136.73,218.25c.06,0,.12.02.19.03-.23,1.52-.11,3.22-.77,4.52-.7,1.38-2.02,3.13-3.29,3.33-1.3.2-3.44-.93-4.17-2.12-1.12-1.84-1.28-4.24-2.01-6.36-.27-.79-.99-1.44-1.5-2.15-.6.72-1.73,1.45-1.73,2.17,0,3.77,1.01,7.29,3.92,9.93,3.83,3.47,9.37,2.47,11.31-2.31.97-2.4,1.08-5.2,1.3-7.84.11-1.29,0-3.21-1.85-3.17-2.04.05-1.5,1.9-1.46,3.24,0,.24.04.49.06.73Z"/>
        <path class="cls-19" d="M180.41,240.15c-.47-.34-.89-.83-1.41-1-2.27-.78-4.58-1.43-6.85-2.2-.92-.31-1.75-1.01-2.68-1.18-4.16-.74-5.46-4.12-6.71-7.35-1.28-3.32-2.06-6.82-3.17-10.21-.6-1.83.34-4.87,2.27-6.55.74-.64,1.47-1.45,2.35-1.73,1.73-.54,2.13-1.83,2.4-3.31,2.12-1.39,4.22-2.82,6.39-4.14.5-.31,1.23-.25,1.85-.36,1.68.68,3.36,1.37,5.05,2.05,1.44,1.13,3.11,2.06,4.26,3.43,1.57,1.87,3.12,3.93,4,6.18.94,2.38,1.09,5.07,1.58,7.62-.96-.49-1.91-.98-2.87-1.47-.36-1.95-.72-3.91-1.07-5.86-.18-1.03.01-2.5-.6-3.02-2.53-2.12-5.26-4.01-8-5.86-1.75-1.18-3.27.06-4.82.74-.29.13-.68.06-.95.22-1.27.75-2.87,1.27-3.67,2.37-1.52,2.08-3.97,4-2.69,7.21.1.24-.17.62-.23.94-1.06,5.13,1.23,10.92,5.52,13.75,4.03,2.66,7.78,3.52,13.76-.59,1.56-1.07,2.78-2.66,4.15-4-.28,3.35.74,6.85-1.24,10.01-.18.29.17.9.27,1.36-2.3.98-4.59,1.97-6.89,2.95Z"/>
        <path class="cls-11" d="M189.73,221.41c-.49-2.55-.64-5.24-1.58-7.62-.88-2.24-2.43-4.31-4-6.18-1.15-1.37-2.82-2.3-4.26-3.43,4.63.81,7.75,3.78,9.99,7.59.74,1.26.21,3.21.49,4.81.97,5.6.83,11.11-.97,16.55-.38,1.15-.43,2.4-.63,3.61-.49.16-.98.31-1.47.47-.1-.46-.45-1.08-.27-1.36,1.97-3.16.96-6.66,1.24-10.01.49-1.47.98-2.95,1.47-4.42Z"/>
        <path class="cls-15" d="M163.92,82.37c-.02,1.95-1.67,3.57-3.64,3.59-1.97.02-3.61-1.59-3.66-3.57-.05-2.08,1.65-3.75,3.76-3.7,1.95.04,3.56,1.71,3.54,3.68Z"/>
        <path class="cls-15" d="M218.88,191.71c1.91,0,3.6,1.67,3.63,3.59.03,2.02-1.75,3.76-3.77,3.69-1.94-.06-3.47-1.72-3.44-3.72.03-2,1.6-3.56,3.58-3.57Z"/>
        <path class="cls-15" d="M67.25,258.95c-2.43-.02-4.33-2.01-4.26-4.45.07-2.42,2.07-4.33,4.47-4.28,2.27.05,4.13,2,4.14,4.33,0,2.41-1.99,4.42-4.35,4.4ZM67.29,251.81c-1.91.08-2.65,1.05-2.68,2.82-.03,1.9,1.05,2.67,2.7,2.72,1.72.05,2.79-1,2.83-2.67.04-1.84-1.18-2.7-2.85-2.87Z"/>
        <path class="cls-24" d="M79.62,116.16c2.07.04,4.05,1.94,4,3.84-.05,2.27-2.12,4.29-4.28,4.18-2.29-.12-3.84-1.91-3.74-4.33.09-2.27,1.68-3.74,4.02-3.69ZM82,120.17c0-1.64-.7-2.58-2.32-2.65-1.68-.06-2.65.68-2.67,2.44-.02,1.72.84,2.58,2.56,2.56,1.61-.01,2.38-.87,2.44-2.36Z"/>
        <path class="cls-7" d="M141.11,278.58c.7,1.72.52,3.42-1.17,4.25-1,.48-2.61.49-3.61,0-1.69-.81-1.84-2.53-1.26-4.25,2.01,0,4.02,0,6.03,0Z"/>
        <path class="cls-8" d="M196.42,150.48c2.17-.04,3.96,1.64,3.99,3.74.03,2.14-1.9,4.07-4.05,4.04-2.05-.03-3.88-1.89-3.89-3.95,0-2.1,1.74-3.79,3.94-3.83ZM195.83,157.46c.39,0,.78.01,1.17.02.73-.97,1.85-1.86,2.09-2.94.37-1.67-.75-2.87-2.46-2.97-1.71-.11-3.03,1-2.84,2.64.13,1.15,1.33,2.17,2.05,3.25Z"/>
        <path class="cls-16" d="M235,143.15c-2.45,0-3.92-1.47-3.93-3.91,0-2.2,1.64-3.95,3.71-3.95,1.86,0,4.05,2.05,4.12,3.84.09,2.27-1.6,4.01-3.9,4.01ZM237.93,139.8c-.47-2.27-1.33-3.15-3.04-3.06-1.71.09-3.02,1.12-2.68,2.73.21,1.02,1.69,2.44,2.62,2.47,1.01.03,2.06-1.37,3.1-2.14Z"/>
        <path class="cls-26" d="M176.96,54.69c-1.3,1.04-2.07,2.12-2.75,2.07-.73-.06-1.39-1.18-2.08-1.83.68-.66,1.28-1.67,2.07-1.86.58-.14,1.42.79,2.76,1.63Z"/>
        <path class="cls-26" d="M200.31,262.04c-.9-1.24-1.89-2.02-1.79-2.62.14-.78,1.13-1.42,1.76-2.12.69.63,1.88,1.22,1.93,1.9.06.72-.97,1.53-1.91,2.84Z"/>
        <path class="cls-9" d="M152.38,32.95c.83,1.42,1.64,2.19,1.59,2.9-.04.61-1.19,1.69-1.64,1.59-.73-.16-1.71-1.06-1.78-1.74-.07-.64.88-1.4,1.83-2.75Z"/>
        <path class="cls-9" d="M59.24,110.09c.84,1.46,1.62,2.21,1.57,2.91-.04.59-1.17,1.67-1.56,1.57-.74-.19-1.69-1.02-1.79-1.71-.1-.61.83-1.37,1.78-2.76Z"/>
        <path class="cls-13" d="M223.57,126.66c-.89.77-1.52,1.68-1.97,1.6-.66-.12-1.19-.95-1.78-1.47.52-.52.99-1.38,1.57-1.45.55-.07,1.2.68,2.18,1.32Z"/>
        <path class="cls-13" d="M115.95,256.97c-.86.78-1.47,1.72-1.9,1.65-.65-.11-1.17-.94-1.74-1.47.49-.53.93-1.43,1.49-1.5.54-.07,1.19.69,2.16,1.32Z"/>
        <path class="cls-7" d="M108.96,277.54c-2.32,2.1-3.81,1.95-5.74-.6,1.91.2,3.83.4,5.74.6Z"/>
        <path class="cls-13" d="M169.72,94.32c-.97.64-1.62,1.41-2.15,1.34-.56-.08-1.01-.96-1.51-1.5.58-.53,1.09-1.35,1.75-1.48.42-.08,1.04.86,1.9,1.64Z"/>
        <path class="cls-13" d="M238.32,167.43c-.69-1.04-1.45-1.7-1.38-2.24.08-.57.98-1.41,1.51-1.4.51.01,1.35.93,1.39,1.5.04.54-.77,1.14-1.53,2.14Z"/>
        <path class="cls-13" d="M81.41,158.44c-.91.71-1.48,1.51-2.04,1.5-.58-.01-1.14-.8-1.71-1.25.53-.59.97-1.48,1.61-1.65.44-.12,1.16.73,2.14,1.41Z"/>
        <path class="cls-13" d="M105.06,81.95c-.67-1.05-1.43-1.73-1.34-2.25.1-.57.99-1.01,1.53-1.5.49.55,1.33,1.07,1.37,1.64.03.54-.79,1.13-1.56,2.11Z"/>
        <path class="cls-22" d="M250.33,187.09c-.9.75-1.46,1.21-2.02,1.67-.48-.64-1.23-1.23-1.34-1.93-.06-.38.94-1.28,1.49-1.3.51-.02,1.05.83,1.88,1.56Z"/>
        <path class="cls-13" d="M150.04,249.8c-.97.78-1.54,1.59-2.08,1.57-.56-.02-1.09-.85-1.64-1.32.47-.54.89-1.43,1.44-1.52.53-.09,1.2.63,2.27,1.27Z"/>
        <path class="cls-22" d="M35.19,224.9c-1.05.6-1.68,1.22-2.3,1.2-.39,0-1.09-1.03-1.03-1.5.07-.47.93-1.13,1.45-1.13.49,0,1,.72,1.88,1.43Z"/>
        <path class="cls-22" d="M235.57,226.64c-.86.72-1.49,1.56-1.82,1.46-.62-.19-1.07-.94-1.59-1.45.48-.43.94-1.16,1.45-1.2.5-.05,1.06.61,1.96,1.2Z"/>
        <path class="cls-22" d="M68.18,155.57c-.92.64-1.47,1.33-1.97,1.28-.52-.05-.99-.79-1.47-1.22.45-.49.87-1.33,1.36-1.38.51-.05,1.1.66,2.08,1.32Z"/>
        <path class="cls-22" d="M77.47,148.35c-.94.55-1.54,1.19-2.04,1.12-.5-.07-.91-.85-1.36-1.31.48-.45.96-1.27,1.44-1.27.53,0,1.06.74,1.96,1.46Z"/>
        <path class="cls-22" d="M203.08,124.59c-.73-.88-1.49-1.38-1.47-1.85.03-.53.76-1.02,1.18-1.52.51.44,1.31.8,1.44,1.33.11.44-.57,1.08-1.15,2.04Z"/>
        <path class="cls-22" d="M138.43,54.71c.68.85,1.43,1.37,1.43,1.9,0,.47-.81,1.29-1.29,1.31-.48.02-1.32-.73-1.38-1.22-.06-.5.64-1.09,1.23-1.99Z"/>
        <path class="cls-7" d="M149.79,297.69c-1.81-.05-3.4-1.78-3.27-3.55.13-1.75,1.7-3.13,3.48-3.07,1.89.06,3.38,1.69,3.26,3.53-.12,1.7-1.73,3.14-3.46,3.09Z"/>
        <path class="cls-7" d="M132.75,303.27c0,1.93-1.31,3.26-3.19,3.27-1.96,0-3.4-1.49-3.33-3.44.06-1.79,1.58-3.22,3.38-3.2,1.82.03,3.16,1.46,3.15,3.37Z"/>
        <path class="cls-7" d="M171.56,284.77c0,1.9-1.3,3.16-3.25,3.17-1.95,0-3.24-1.25-3.26-3.16-.02-1.91,1.27-3.29,3.12-3.33,1.98-.05,3.4,1.35,3.39,3.33Z"/>
        <path class="cls-7" d="M122.38,290.39c.02,1.89-1.27,3.28-3.12,3.36-1.95.08-3.38-1.34-3.37-3.34,0-1.9,1.31-3.18,3.23-3.18,1.92,0,3.24,1.27,3.26,3.17Z"/>
        <path class="cls-5" d="M174.84,202.13c-.62.11-1.35.05-1.85.36-2.17,1.32-4.27,2.75-6.39,4.14-6.7,2.74-13.31,1.25-19.96-.32-5.96-1.4-8.18-5.62-9.06-12.49-.24-1.86-.2-3.77-.6-5.59-.29-1.31-.93-2.62-1.71-3.72-1.32-1.85-3.27-2.45-5.45-1.78-2.12.66-2.27,2.61-2.51,4.39-.41,3.15-.59,6.34-1.11,9.46-.96,5.74-4.25,9.01-9.94,10.03-3.44.61-6.92,1.43-10.38,1.42-2.68,0-5.49-.83-8-1.87-2.91-1.21-5.58-3.01-8.32-4.63-2.09-1.24-3.04-3.34-3.08-5.58-.05-3-1.29-5.34-3.08-7.54.59.18,1.19.32,1.76.55.63.26,1.23.59,2.19,1.07-.8-2.69-3.95-5.41-5.96-5.44-1.64-.02-1.32,1.01-.92,2.01-1.56-.49-3.14-.91-4.68-1.47-2.6-.94-3.51-2.84-2.7-5.43.77-2.46,3.14-3.89,5.52-3.27,2.13.56,4.21,1.37,6.37,1.7.82.13,2.22-.54,2.65-1.26,3.76-6.36,9.74-9.15,16.57-10.55,2.61-.53,5.4-1.11,7.97-.72,4.92.76,8.26,4.3,10.76,8.27,1.64,2.61,3.56,2.93,6.19,2.68,2.16-.2,4.38-.25,6.53,0,2.38.27,4-.36,5.4-2.4,2.87-4.16,6.23-8.57,11.57-8.6,6.1-.03,12.5.48,17.66,4.69,2.5,2.04,5.53,3.58,6.47,7.13.13.47,1.53.98,2.23.86,1.92-.34,3.79-.97,5.65-1.55,2.89-.9,5.68.29,6.43,2.78.89,2.93-.22,4.85-3.44,5.98-1.93.67-3.86,1.34-5.79,2.01-.07-.75-.13-1.5-.2-2.24-.65.39-1.35.73-1.95,1.2-.57.45-1.07,1-1.55,1.55-1.2,1.37-.81,2.17.92,2.45-.41,1.89-.63,3.85-1.3,5.65-.78,2.1-1.94,4.05-2.94,6.06ZM144.94,187.21c-.04,7.38,5.94,13.45,13.31,13.5,7.46.05,13.75-6.08,13.75-13.4,0-7.28-6.08-13.28-13.52-13.33-7.48-.05-13.51,5.83-13.55,13.22ZM106.29,200.71c7.35,0,13.54-6.06,13.55-13.29.01-7.42-5.87-13.34-13.36-13.43-7.57-.09-13.68,5.87-13.67,13.36,0,7.3,6.12,13.36,13.49,13.37ZM176.16,196.53c-.29-.13-.58-.25-.87-.38-1.49,1.5-2.98,3.01-4.47,4.51,1.11.33,2.67.47,3.41-.24.98-.95,1.32-2.56,1.94-3.89ZM122.44,201.06c-.27-.17-.55-.34-.82-.51-1.55,1.14-3.11,2.29-4.66,3.43.06.23.13.47.19.7,1.05-.24,2.29-.21,3.09-.78.93-.67,1.49-1.87,2.2-2.84Z"/>
        <path class="cls-1" d="M66.69,219.93c.62-3.12,3.15-4.92,5.06-7.12.92-1.07,2.2-1.82,3.32-2.72.78-.36,1.63-.63,2.34-1.1,3.25-2.15,6.88-1.92,10.36-1.22,1.33.26,2.41,1.95,3.5,3.08.61.63,1.02,1.45,1.52,2.19.16.98.32,1.97.48,2.95-.34.54-.69,1.08-1.03,1.62-.83-.79-2-1.93-2.69-.41-.55,1.22-.24,2.95.05,4.38.08.41,1.43.56,2.2.82,1.27,2.98.33,4.98-2.42,6.68-2.97,1.83-5.18,4.43-9.51,2.39-4.42-2.09-8.19-4.45-10.68-8.72-.62-1.07-1.66-1.89-2.5-2.83ZM81.42,219.83c0,.66-.18,1.39.04,1.95.31.77.94,1.41,1.43,2.11.5-.7,1.24-1.33,1.45-2.11.33-1.24.54-2.6.37-3.85-.11-.79-1-1.48-1.54-2.21-.58.55-1.4,1-1.68,1.67-.29.7-.06,1.61-.07,2.43ZM76.94,216.26c-.13-.15-.57-1.07-1.12-1.15-.58-.08-1.78.59-1.82,1.02-.15,1.56-.02,3.18.23,4.74.05.33,1.1.8,1.55.68.48-.13,1.03-.84,1.11-1.37.17-1.07.05-2.2.05-3.92Z"/>
        <path class="cls-11" d="M92.23,217.61c.34-.54.69-1.08,1.03-1.62,2.15,2.74,1.15,5.62.48,8.54-.79,3.49-1.72,7.11-4.85,9.03-4.88,2.98-7.78,3.64-13.32-1.01-.8-.67-1.97-.88-2.98-1.31h0q-.88-1.86-2.74-1.3c1.47-3.5-2.16-5.08-2.85-7.76-.19-.73-.21-1.5-.31-2.26.84.94,1.88,1.76,2.5,2.83,2.48,4.27,6.26,6.63,10.68,8.72,4.33,2.04,6.54-.55,9.51-2.39,2.75-1.7,3.69-3.7,2.42-6.68.15-1.6.29-3.2.44-4.8Z"/>
        <path class="cls-10" d="M136.73,218.25c-.02-.24-.05-.49-.06-.73-.04-1.34-.58-3.19,1.46-3.24,1.85-.04,1.95,1.88,1.85,3.17-.22,2.64-.33,5.44-1.3,7.84-1.94,4.78-7.48,5.78-11.31,2.31-2.91-2.64-3.91-6.16-3.92-9.93,0-.72,1.12-1.45,1.73-2.17.51.71,1.23,1.35,1.5,2.15.73,2.11.89,4.52,2.01,6.36.73,1.19,2.87,2.32,4.17,2.12,1.26-.19,2.59-1.95,3.29-3.33.66-1.3.55-3,.77-4.52-.06,0-.12-.02-.19-.03Z"/>
        <path class="cls-11" d="M92.79,213.04c-.5-.74-.91-1.56-1.52-2.19-1.1-1.13-2.18-2.81-3.5-3.08-3.48-.7-7.1-.93-10.36,1.22-.71.47-1.56.74-2.34,1.1,4.97-7,12.57-4.54,17.19-.98.74.57.38,2.58.53,3.93Z"/>
        <path class="cls-17" d="M80.48,186.6c-.4-1-.72-2.03.92-2.01,2.01.03,5.16,2.75,5.96,5.44-.96-.48-1.56-.81-2.19-1.07-.57-.23-1.17-.37-1.76-.55-.98-.61-1.96-1.21-2.93-1.81Z"/>
        <path class="cls-17" d="M179.08,190.42c-1.73-.29-2.12-1.09-.92-2.45.48-.55.98-1.1,1.55-1.55.6-.47,1.29-.81,1.95-1.2.07.75.13,1.5.2,2.24-.93.99-1.85,1.97-2.78,2.96Z"/>
        <path class="cls-11" d="M72.6,231.25c-.16.26-.32.51-.47.77-.1-.1-.19-.19-.29-.29.26-.16.51-.31.77-.47h0Z"/>
        <path class="cls-1" d="M189.73,221.41c-.49,1.47-.98,2.95-1.47,4.42-1.37,1.35-2.59,2.93-4.15,4-5.98,4.11-9.73,3.25-13.76.59-4.29-2.84-6.58-8.62-5.52-13.75.07-.32.33-.69.23-.94-1.28-3.21,1.17-5.13,2.69-7.21.8-1.1,2.41-1.63,3.67-2.37.27-.16.65-.09.95-.22,1.55-.68,3.07-1.92,4.82-.74,2.74,1.86,5.47,3.74,8,5.86.61.51.42,1.99.6,3.02-.8.43-2.34,1.02-2.29,1.25.43,1.87,1.15,3.67,1.79,5.49.52-.29,1.05-.59,1.57-.88.96.49,1.91.98,2.87,1.47ZM175.44,217.11c.16.9.25,2.05.61,3.11.16.48.84.99,1.35,1.07.39.06,1.28-.55,1.26-.82-.12-1.98-.07-4.08-.76-5.87-.43-1.11-1.85-.68-2.34.59-.19.5-.09,1.12-.13,1.91ZM172.26,219.25c-.36-1.4-.41-2.45-.9-3.23-.34-.53-1.27-.87-1.96-.9-.25-.01-.76,1.08-.8,1.69-.04.78.14,1.64.47,2.36.35.77.97,1.41,1.48,2.1.61-.71,1.21-1.43,1.72-2.02Z"/>
        <path class="cls-4" d="M186.86,219.93c-.52.29-1.05.59-1.57.88-.64-1.82-1.36-3.62-1.79-5.49-.05-.23,1.49-.83,2.29-1.25.36,1.95.72,3.91,1.07,5.86Z"/>
        <path class="cls-18" d="M67.29,251.81c1.67.17,2.9,1.03,2.85,2.87-.04,1.66-1.11,2.72-2.83,2.67-1.64-.05-2.73-.82-2.7-2.72.03-1.77.77-2.74,2.68-2.82Z"/>
        <path class="cls-23" d="M82,120.17c-.06,1.49-.83,2.34-2.44,2.36-1.72.02-2.58-.84-2.56-2.56.02-1.76,1-2.51,2.67-2.44,1.63.06,2.32,1.01,2.32,2.65Z"/>
        <path class="cls-12" d="M195.83,157.46c-.72-1.08-1.92-2.1-2.05-3.25-.18-1.64,1.13-2.75,2.84-2.64,1.71.11,2.83,1.31,2.46,2.97-.24,1.08-1.36,1.96-2.09,2.94-.39,0-.78-.01-1.17-.02Z"/>
        <path class="cls-6" d="M237.93,139.8c-1.03.77-2.08,2.17-3.1,2.14-.94-.02-2.41-1.45-2.62-2.47-.34-1.61.97-2.64,2.68-2.73,1.71-.09,2.57.78,3.04,3.06Z"/>
        <path class="cls-3" d="M144.94,187.21c.04-7.39,6.07-13.28,13.55-13.22,7.43.05,13.52,6.05,13.52,13.33,0,7.31-6.3,13.45-13.75,13.4-7.37-.05-13.36-6.12-13.31-13.5ZM153.9,178.44c-.54-.16-1.22-.57-1.44-.4-1.38,1.09-2.68,2.28-3.92,3.52-.14.14.14.92.42,1.2.17.18.86.14,1.08-.06,1.19-1.07,2.32-2.21,3.45-3.35.15-.15.19-.42.4-.92Z"/>
        <path class="cls-3" d="M106.29,200.71c-7.37,0-13.48-6.07-13.49-13.37,0-7.48,6.1-13.45,13.67-13.36,7.49.09,13.38,6.01,13.36,13.43-.01,7.23-6.2,13.3-13.55,13.29ZM101.8,178.89c-2.21-.32-5.43,2.86-4.98,4.83.07.32,1.49.71,1.58.58,1.2-1.73,2.27-3.55,3.4-5.41Z"/>
        <path class="cls-17" d="M176.16,196.53c-.62,1.33-.96,2.94-1.94,3.89-.73.71-2.29.57-3.41.24,1.49-1.5,2.98-3.01,4.47-4.51.29.13.58.25.87.38Z"/>
        <path class="cls-17" d="M122.44,201.06c-.72.97-1.27,2.17-2.2,2.84-.8.58-2.04.55-3.09.78-.06-.23-.13-.47-.19-.7,1.55-1.14,3.11-2.29,4.66-3.43.27.17.55.34.82.51Z"/>
        <path class="cls-4" d="M81.43,219.83c0-.82-.22-1.73.07-2.43.28-.67,1.1-1.12,1.68-1.67.54.73,1.43,1.42,1.54,2.21.17,1.25-.03,2.61-.37,3.85-.21.78-.95,1.41-1.45,2.11-.49-.7-1.12-1.34-1.43-2.11-.23-.56-.04-1.29-.04-1.95Z"/>
        <path class="cls-4" d="M76.94,216.26c0,1.72.12,2.84-.05,3.92-.08.53-.63,1.24-1.11,1.37-.45.12-1.5-.35-1.55-.68-.24-1.56-.38-3.17-.23-4.74.04-.43,1.24-1.11,1.82-1.02.55.08.98,1,1.12,1.15Z"/>
        <path class="cls-4" d="M92.23,217.61c-.15,1.6-.29,3.2-.44,4.8-.77-.27-2.12-.42-2.2-.82-.29-1.43-.6-3.16-.05-4.38.69-1.52,1.86-.38,2.69.41Z"/>
        <path class="cls-4" d="M175.44,217.11c.04-.79-.06-1.41.13-1.91.49-1.28,1.91-1.71,2.34-.59.7,1.79.65,3.89.76,5.87.02.27-.88.88-1.26.82-.51-.08-1.19-.59-1.35-1.07-.36-1.06-.45-2.21-.61-3.11Z"/>
        <path class="cls-4" d="M172.26,219.25c-.5.59-1.11,1.3-1.72,2.02-.5-.69-1.13-1.33-1.48-2.1-.33-.72-.51-1.58-.47-2.36.03-.61.54-1.7.8-1.69.69.03,1.62.37,1.96.9.49.78.54,1.83.9,3.23Z"/>
        <path class="cls-2" d="M153.9,178.44c-.21.49-.25.76-.4.92-1.13,1.14-2.26,2.28-3.45,3.35-.22.2-.9.24-1.08.06-.28-.29-.57-1.06-.42-1.2,1.24-1.24,2.54-2.43,3.92-3.52.22-.17.9.23,1.44.4Z"/>
        <path class="cls-2" d="M101.8,178.89c-1.14,1.86-2.21,3.68-3.4,5.41-.09.13-1.5-.27-1.58-.58-.45-1.97,2.77-5.14,4.98-4.83Z"/>
      </g>
    </g>
  </g>
</svg>