<?xml version="1.0" encoding="UTF-8"?>
<svg xmlns="http://www.w3.org/2000/svg" version="1.1" viewBox="0 0 234.93 50.51">
  <defs>
    <style>
      .cls-1 {
        fill: #3cc;
      }

      .cls-2 {
        fill: #fff;
      }
    </style>
  </defs>
  <!-- Generator: Adobe Illustrator 28.6.0, SVG Export Plug-In . SVG Version: 1.2.0 Build 709)  -->
  <g>
    <g id="Layer_1">
      <g>
        <rect width="234.93" height="50.51" rx="8.5" ry="8.5"/>
        <g>
          <path class="cls-1" d="M75.72,18.6c1.24-.03,2.28.17,3.12.6.84.42,1.5,1.01,1.97,1.76.13.2.23.4.31.58s.16.4.24.66c.03.06.05.15.08.26.03.11.02.21-.02.29-.03.08-.07.12-.14.14-.07.02-.14.04-.22.07h-.19s-.08.02-.14.02h-.16c-.18,0-.34,0-.48-.03-.15-.02-.25-.08-.31-.18-.09-.13-.16-.27-.21-.44-.05-.16-.12-.32-.21-.46-.17-.28-.35-.52-.56-.72-.21-.2-.45-.39-.73-.57-.15-.1-.32-.18-.5-.23s-.37-.1-.56-.15c-.14-.04-.3-.07-.47-.09-.18-.02-.36-.03-.56-.03s-.39,0-.57.03c-.18.02-.34.05-.46.09-.13.03-.25.05-.36.08s-.23.06-.34.11c-1.06.44-1.83,1.2-2.3,2.28-.09.18-.16.36-.22.56-.06.2-.12.4-.18.6-.03.08-.04.16-.04.24s-.01.16-.04.24c-.01.05-.02.1-.02.13s0,.08-.02.13c-.03.14-.04.28-.05.43,0,.15,0,.29,0,.45,0,.09,0,.18,0,.28,0,.09,0,.18,0,.26v.19c.03.09.03.18.03.27,0,.09,0,.18.03.27.03.08.04.15.03.23,0,.08,0,.15.03.21.04.17.07.33.1.48.03.16.07.31.12.47.22.63.49,1.17.84,1.62.34.45.79.82,1.35,1.11.18.09.36.16.54.21s.38.11.6.17c.09.03.17.04.25.03.08,0,.16,0,.27.03.06.01.18.02.34.03.17,0,.29,0,.36-.03h.13c.05-.01.1-.02.15,0,.05,0,.1,0,.15-.03.13-.02.25-.05.37-.07.12-.02.24-.05.35-.1.99-.41,1.68-1.07,2.09-2,.1-.23.2-.5.29-.82.03-.11.05-.23.07-.35s.06-.23.12-.33c.06-.1.17-.16.3-.17.14-.01.29-.02.46-.02h.19c.06,0,.12,0,.17.02h.13s.08.02.12.03c.04,0,.08.02.1.05.09.05.14.14.15.28.01.13,0,.26-.04.39-.08.29-.15.57-.21.84s-.16.52-.29.76c-.1.17-.19.32-.28.48-.08.15-.17.3-.28.46-.23.33-.51.63-.85.9-.34.27-.7.5-1.09.67-.14.06-.28.11-.41.15s-.27.08-.41.13c-.14.05-.28.09-.43.1-.15.02-.29.04-.45.07-.06.03-.12.04-.17.03-.05,0-.1,0-.15,0-.08.01-.15.02-.23.02s-.16,0-.25.02c-.04.01-.12.02-.26,0-.13,0-.22-.02-.26-.03-.06-.01-.12-.02-.18,0-.06,0-.12,0-.18,0h-.19c-.1-.03-.2-.04-.29-.05-.09,0-.18-.02-.29-.05-.11-.03-.23-.05-.34-.07s-.22-.05-.32-.09c-.27-.08-.51-.17-.72-.28-.8-.34-1.44-.83-1.94-1.46-.49-.63-.89-1.38-1.18-2.24-.05-.15-.09-.31-.12-.48-.03-.16-.07-.33-.1-.51-.03-.06-.04-.12-.03-.17,0-.05,0-.11,0-.17-.03-.11-.04-.23-.05-.36,0-.13-.02-.25-.05-.36v-.36c-.03-.06-.04-.17-.04-.32s.01-.26.04-.32c.01-.04.01-.08,0-.12-.01-.04-.01-.08,0-.1v-.17c.01-.1.02-.21.03-.31,0-.11.02-.21.05-.31.03-.08.04-.16.04-.24s.01-.17.04-.26c.06-.22.11-.42.15-.63.04-.2.09-.39.17-.57.06-.16.13-.33.2-.5.07-.17.15-.33.24-.46.19-.33.38-.63.57-.89.04-.06.09-.12.14-.16.06-.04.1-.1.14-.16.08-.1.16-.19.24-.27s.17-.15.26-.23c.08-.06.15-.12.22-.18.07-.06.15-.12.24-.18.19-.14.39-.26.6-.36.21-.1.43-.2.66-.3.14-.06.29-.11.45-.14.16-.03.31-.07.47-.12.09-.01.17-.03.25-.04.08-.01.15-.03.23-.04.1-.01.2-.02.29-.03.09,0,.19-.02.29-.03.03-.01.06-.01.1,0,.04.01.07.01.09,0Z"/>
          <path class="cls-1" d="M92.63,27.11c.03.08.04.19.04.35s0,.27-.02.33v.19c-.01.1-.02.19-.03.28,0,.08-.02.17-.03.28-.03.08-.04.15-.05.23,0,.08-.02.15-.05.23-.05.17-.09.33-.13.49s-.09.32-.15.46c-.27.61-.62,1.12-1.06,1.53-.44.41-.99.73-1.63.94-.14.05-.29.09-.45.11s-.32.05-.48.08c-.08.01-.16.02-.24.03-.08,0-.16,0-.24,0-.05.01-.12.02-.22.02s-.16,0-.2-.02c-.05-.01-.1-.02-.15,0-.05,0-.09,0-.13,0h-.11l-.46-.06c-.18-.05-.35-.1-.51-.15-.17-.05-.32-.11-.47-.17-.57-.25-1.04-.58-1.41-.99-.37-.41-.67-.9-.91-1.48-.06-.13-.11-.25-.14-.38-.03-.13-.06-.26-.08-.4-.03-.05-.04-.09-.03-.12,0-.03,0-.07,0-.12-.03-.1-.04-.21-.05-.31,0-.11-.02-.21-.05-.31v-.16s0-.1-.02-.16c-.01-.06-.02-.17-.02-.33s.01-.28.04-.35c.03-.09.03-.18.02-.27-.01-.09,0-.18.02-.27.01-.06.02-.12.03-.16,0-.04.02-.1.03-.16.04-.15.07-.3.1-.46.03-.15.08-.3.14-.44.19-.47.42-.89.69-1.26.27-.37.6-.69,1-.94.15-.1.31-.19.48-.26.16-.07.33-.14.51-.22.15-.06.32-.1.49-.12.18-.02.35-.05.53-.1.09,0,.17,0,.26,0,.08,0,.16-.02.24-.03,1.13-.01,2.06.22,2.81.7.75.48,1.29,1.11,1.62,1.88.06.13.11.25.15.38.04.13.08.26.13.4.04.14.07.29.1.45s.06.32.09.48c.01.06.02.13,0,.2,0,.07,0,.14,0,.2ZM90.94,28.2c.03-.09.03-.19.03-.3,0-.11,0-.22,0-.32,0-.49-.04-.91-.13-1.25-.04-.1-.07-.2-.09-.3-.03-.1-.06-.2-.09-.28-.36-.82-.92-1.39-1.69-1.71-.09-.04-.18-.07-.29-.09s-.2-.04-.3-.07c-.1-.03-.21-.04-.32-.04h-.34l-.34.06c-.13.03-.24.05-.35.09-.11.03-.21.07-.31.12-.09.03-.17.06-.25.11s-.15.1-.21.15c-.3.21-.55.47-.74.78-.19.3-.35.66-.49,1.06-.04.13-.06.26-.08.39s-.03.27-.06.41c-.01.05-.02.13-.02.25-.01.04-.02.08,0,.13,0,.05,0,.11,0,.17v.38c0,.13.01.24.04.34l.04.23c.03.13.05.25.07.37.02.12.05.23.1.33.13.3.28.59.45.86.17.27.38.49.64.67.06.04.12.07.17.09s.11.06.17.09c.1.06.21.12.33.16.12.04.25.09.39.12.06.03.12.04.18.03.06,0,.12,0,.18,0,.04.01.12.03.24.04.12.01.21,0,.28-.02.05-.01.1-.02.15,0,.05,0,.1,0,.15-.03.1-.02.2-.05.3-.07.1-.02.2-.05.29-.08.43-.18.78-.42,1.04-.74.27-.32.49-.69.67-1.12.06-.15.1-.31.12-.48.02-.17.05-.34.1-.52Z"/>
          <path class="cls-1" d="M99.18,22.46c.8-.03,1.44.08,1.92.32s.87.6,1.16,1.08c.08.13.14.26.18.41.04.15.08.29.12.45.06.24.1.5.11.78.01.28.02.56.02.86v5c0,.21,0,.43,0,.65,0,.22-.09.35-.26.42-.06.03-.13.04-.2.05-.07,0-.14,0-.22,0-.17,0-.32,0-.47,0-.15,0-.26-.06-.32-.16-.06-.09-.09-.2-.09-.34v-5.15c0-.34,0-.68-.02-1.02-.01-.34-.07-.62-.17-.87-.1-.25-.25-.46-.46-.62-.2-.16-.44-.28-.7-.37-.08-.03-.16-.04-.24-.05-.08,0-.16-.02-.24-.05-.06-.01-.16-.02-.29,0-.13,0-.22.02-.28.03-.05.03-.09.04-.13.03-.04,0-.08,0-.13,0-.17.04-.32.08-.47.12-.15.04-.28.1-.41.18-.05.03-.1.05-.13.08-.04.03-.08.05-.13.08-.44.32-.77.79-.97,1.42-.04.1-.06.21-.08.31s-.03.21-.06.31c-.03.06-.03.12-.02.18.01.06,0,.11-.02.16v.4s-.02.08,0,.13c0,.05,0,.11,0,.17v4.49c0,.15-.03.26-.09.35-.06.1-.17.16-.33.16-.16,0-.32,0-.48,0-.1,0-.2,0-.29-.02s-.17-.04-.23-.09c-.1-.06-.15-.18-.15-.36v-8.85c0-.11.03-.2.08-.27.04-.08.1-.13.19-.15.05-.01.12-.03.22-.04.1-.01.19-.02.29-.02s.2,0,.29.02c.1.01.16.03.2.06.14.09.2.2.19.33-.01.13,0,.28.06.45.02.08.08.14.15.19.15.01.28-.04.37-.17.09-.13.19-.23.29-.3.18-.13.36-.24.54-.35s.4-.2.64-.28c.1-.04.21-.06.33-.08s.24-.03.35-.06c.06-.01.13-.02.19-.02h.19Z"/>
          <path class="cls-1" d="M106.27,19.69c.19,0,.38,0,.57,0,.19,0,.32.06.4.16.06.08.1.18.1.31,0,.13,0,.27,0,.41v1.1c0,.1,0,.21,0,.31,0,.11,0,.2.03.28.05.18.16.29.34.34.06.01.12.02.18.02h.18c.14,0,.31,0,.51,0,.2,0,.35,0,.44.05.11.08.19.15.23.23.03.05.04.11.04.17v.19c0,.14,0,.27-.02.39-.01.12-.06.21-.13.28-.08.06-.18.1-.31.1-.13,0-.27,0-.42,0-.15,0-.29,0-.43,0s-.26.02-.36.06c-.09.04-.15.1-.19.19-.04.09-.06.19-.08.31-.01.12-.02.25,0,.38,0,.13,0,.26,0,.39v3.76c0,.28,0,.57,0,.88,0,.31.05.55.16.71.06.1.15.17.25.21s.22.07.36.09c.04.01.08.02.12,0,.04,0,.09,0,.12,0h.25c.13,0,.24,0,.35.03.11.02.19.07.24.14.03.04.05.1.07.2.02.09.03.19.04.29,0,.1,0,.2,0,.29-.01.1-.04.17-.08.22-.05.09-.15.15-.29.19-.1.03-.21.04-.34.03s-.24,0-.34,0c-.08,0-.15,0-.23,0-.08,0-.15,0-.21,0h-.23c-.06-.01-.12-.02-.18-.03-.06,0-.12,0-.18,0-.25-.06-.47-.13-.66-.21s-.34-.21-.47-.4c-.18-.25-.28-.57-.3-.96-.03-.39-.04-.8-.04-1.24v-4.98c-.04-.16-.07-.29-.1-.36-.03-.08-.12-.14-.28-.19-.05-.01-.1-.01-.15,0s-.1,0-.15-.02h-.3c-.17,0-.3-.02-.41-.05s-.18-.1-.22-.22c-.03-.05-.04-.11-.05-.17,0-.06,0-.13,0-.19,0-.18.01-.33.04-.45.03-.12.1-.21.23-.28.14-.05.32-.06.54-.04s.41.01.56-.04c.11-.06.2-.15.27-.27.03-.08.04-.17.04-.29v-1.81c0-.11.01-.2.04-.28.05-.1.15-.18.29-.25.04,0,.07,0,.1,0,.03,0,.06,0,.09,0Z"/>
          <path class="cls-1" d="M119.78,31.73c.04.2.02.37-.06.5s-.18.23-.3.29c-.06.03-.13.04-.2.04s-.14.01-.22.04c-.28.06-.55.05-.83-.05s-.46-.21-.56-.35c-.06-.09-.12-.19-.17-.31s-.11-.22-.19-.29c-.03-.02-.05-.05-.08-.08-.03-.03-.07-.03-.12-.02-.14.04-.27.11-.39.21-.12.1-.24.19-.35.27-.17.1-.34.19-.53.28-.19.08-.39.16-.61.22-.13.04-.26.06-.41.08s-.29.03-.43.06c-.06.01-.12.02-.16.02h-.14c-.14.03-.27.03-.4,0h-.17c-.06-.01-.13-.02-.19-.02s-.12-.01-.17-.04c-.05-.01-.09-.02-.12,0-.03,0-.07,0-.1,0-.1-.03-.2-.05-.3-.07-.1-.02-.2-.05-.29-.08-.38-.17-.69-.35-.92-.56s-.43-.5-.58-.88c-.11-.28-.17-.61-.17-1.01v-.4c.01-.06.02-.13.03-.2,0-.07.02-.14.03-.22.05-.14.1-.28.15-.42.05-.14.11-.27.19-.38.23-.37.54-.64.93-.82.39-.18.82-.33,1.29-.47.18-.05.36-.09.55-.11s.38-.06.57-.09c.09-.03.17-.04.26-.04s.17-.01.28-.04c.09-.03.18-.04.27-.05.09,0,.18-.02.29-.05.32-.08.61-.14.89-.2.28-.06.5-.2.67-.43.08-.1.14-.23.19-.39.05-.16.05-.33,0-.52-.08-.3-.19-.54-.33-.72-.15-.18-.35-.32-.62-.42-.15-.06-.33-.11-.54-.13-.21-.02-.43-.04-.66-.04s-.45.01-.67.04c-.22.03-.4.06-.55.11-.22.08-.42.18-.63.32-.1.08-.19.17-.28.29-.08.12-.16.25-.22.39-.04.1-.07.21-.1.32-.03.11-.09.2-.18.27-.05.04-.14.07-.26.09-.12.02-.24.03-.37.03s-.25,0-.37-.03c-.12-.02-.21-.05-.26-.09-.05-.04-.09-.1-.11-.19s-.03-.18,0-.29c.04-.16.08-.32.12-.47.04-.15.1-.29.16-.43.24-.44.54-.79.91-1.04s.82-.45,1.37-.6c.13-.02.26-.04.39-.06s.27-.03.41-.06c.05-.01.13-.02.25,0,.11,0,.18,0,.21-.03.89-.01,1.66.09,2.32.3.66.22,1.12.63,1.39,1.24.11.25.18.55.2.88.02.34.03.69.03,1.05v4.2c0,.18,0,.35.02.51.01.17.05.3.11.4.06.09.15.15.25.19.11.05.22.09.32.1.1.02.18.08.23.18.03.04.04.08.04.11s0,.09.02.15ZM117.06,29.62c.08-.18.12-.38.12-.62,0-.23,0-.48,0-.73,0-.14,0-.27-.02-.38-.01-.11-.06-.2-.15-.27-.04-.03-.13-.04-.27-.04-.03.03-.07.04-.13.04s-.12.01-.17.04c-.1.03-.21.05-.34.08s-.25.05-.38.08c-.04,0-.08,0-.12,0-.04,0-.09,0-.14,0-.19.05-.4.08-.62.09-.22,0-.43.04-.62.08-.1.03-.19.05-.28.07-.08.02-.17.04-.28.07-.2.06-.39.14-.57.24-.18.09-.33.21-.46.35s-.22.31-.29.5-.09.43-.08.71c0,.13.02.24.07.35.04.11.1.21.16.29.1.14.23.26.4.35.16.1.34.17.53.24.06.01.13.02.19.02s.13,0,.19.02c.09.03.2.04.33.05.13,0,.24,0,.33-.03.08-.03.15-.04.23-.03.08,0,.15,0,.23-.03.1-.02.2-.04.29-.06s.19-.04.28-.08c.37-.15.68-.33.94-.55.26-.21.46-.51.6-.87Z"/>
          <path class="cls-1" d="M125.23,22.42c.94-.01,1.72.12,2.35.41.63.28,1.12.71,1.49,1.28.17.25.3.56.42.93.03.06.04.15.06.25.01.1,0,.19-.02.27-.04.06-.1.12-.19.17-.04.03-.08.03-.11.03-.04,0-.08,0-.13,0-.05.01-.1.02-.15,0-.05,0-.1,0-.15,0-.14,0-.27,0-.4,0-.13,0-.23-.04-.32-.1-.1-.08-.17-.18-.21-.32s-.09-.26-.15-.36c-.19-.33-.44-.59-.74-.78-.1-.06-.21-.12-.32-.16-.11-.04-.23-.08-.36-.12-.18-.05-.41-.08-.7-.09-.29,0-.53.02-.72.09-.09.03-.17.04-.25.06s-.16.03-.25.06c-.33.14-.62.33-.87.57-.25.24-.45.53-.59.86-.05.11-.09.23-.13.35s-.08.25-.11.39l-.11.51c-.01.06-.02.13,0,.21,0,.08,0,.15-.03.21v.15s-.02.13-.03.25c0,.11,0,.2.03.25.01.06.01.13,0,.19s-.01.13,0,.19c.01.05.02.14.02.27.03.1.05.21.07.32.02.11.04.22.07.32.14.41.3.76.48,1.05.18.3.44.55.77.77.11.06.23.12.35.17.12.05.25.1.39.15.06.01.11.02.15.02s.09,0,.15.02c.04.01.1.02.19.02h.21s.03.02.08.02c.03-.01.06-.02.09,0,.04,0,.08,0,.11,0,.09-.03.17-.03.26-.03.08,0,.17,0,.26-.03.33-.1.61-.23.86-.39.24-.16.44-.36.61-.62.06-.1.12-.21.17-.32s.1-.23.15-.34c.03-.1.05-.2.08-.29.03-.09.09-.17.18-.24.04-.04.11-.07.23-.09.11-.02.24-.03.37-.04.13,0,.26,0,.38,0,.12.01.21.04.26.08.08.05.12.13.14.23.02.1.02.21,0,.32-.06.19-.12.37-.18.54-.06.17-.13.34-.22.5-.19.38-.43.72-.71,1.01-.29.29-.63.53-1.04.7-.1.05-.21.09-.32.12s-.23.07-.36.1c-.14.05-.28.08-.42.08-.14,0-.28.02-.42.05-.05.03-.1.03-.15.02-.05-.01-.1-.01-.15,0h-.17c-.1,0-.2,0-.29,0-.09,0-.18,0-.26-.03h-.09l-.46-.06c-.16-.05-.32-.1-.47-.13-.15-.04-.3-.09-.44-.15-.46-.2-.83-.44-1.13-.72-.3-.28-.57-.62-.83-1.03-.06-.1-.12-.21-.17-.34s-.1-.25-.15-.38c-.06-.14-.11-.29-.13-.44s-.06-.3-.09-.46c-.01-.05-.02-.1-.02-.15s0-.1-.02-.15c-.03-.08-.04-.16-.03-.25,0-.09,0-.17-.03-.25v-.19c-.01-.06-.02-.15-.02-.27s0-.2.02-.27.02-.12,0-.17c0-.05,0-.1,0-.15.03-.09.04-.18.03-.27,0-.09,0-.17.03-.25.05-.22.09-.43.13-.65.04-.21.09-.42.17-.61.27-.66.59-1.19.97-1.6.38-.41.9-.74,1.56-1.01.14-.06.29-.11.46-.13.16-.03.33-.06.51-.09.09-.01.18-.02.27-.03.09,0,.18-.02.29-.03Z"/>
          <path class="cls-1" d="M132.66,19.69c.19,0,.38,0,.57,0,.19,0,.32.06.4.16.06.08.1.18.1.31,0,.13,0,.27,0,.41v1.1c0,.1,0,.21,0,.31,0,.11,0,.2.03.28.05.18.16.29.34.34.06.01.12.02.18.02h.18c.14,0,.31,0,.51,0,.2,0,.35,0,.44.05.11.08.19.15.23.23.03.05.04.11.04.17v.19c0,.14,0,.27-.02.39-.01.12-.06.21-.13.28-.08.06-.18.1-.31.1-.13,0-.27,0-.42,0-.15,0-.29,0-.43,0s-.26.02-.36.06c-.09.04-.15.1-.19.19-.04.09-.06.19-.08.31-.01.12-.02.25,0,.38,0,.13,0,.26,0,.39v3.76c0,.28,0,.57,0,.88,0,.31.05.55.16.71.06.1.15.17.25.21s.22.07.36.09c.04.01.08.02.12,0,.04,0,.09,0,.12,0h.25c.13,0,.24,0,.35.03.11.02.19.07.24.14.03.04.05.1.07.2.02.09.03.19.04.29,0,.1,0,.2,0,.29-.01.1-.04.17-.08.22-.05.09-.15.15-.29.19-.1.03-.21.04-.34.03s-.24,0-.34,0c-.08,0-.15,0-.23,0-.08,0-.15,0-.21,0h-.23c-.06-.01-.12-.02-.18-.03-.06,0-.12,0-.18,0-.25-.06-.47-.13-.66-.21s-.34-.21-.47-.4c-.18-.25-.28-.57-.3-.96-.03-.39-.04-.8-.04-1.24v-4.98c-.04-.16-.07-.29-.1-.36-.03-.08-.12-.14-.28-.19-.05-.01-.1-.01-.15,0s-.1,0-.15-.02h-.3c-.17,0-.3-.02-.41-.05s-.18-.1-.22-.22c-.03-.05-.04-.11-.05-.17,0-.06,0-.13,0-.19,0-.18.01-.33.04-.45.03-.12.1-.21.23-.28.14-.05.32-.06.54-.04s.41.01.56-.04c.11-.06.2-.15.27-.27.03-.08.04-.17.04-.29v-1.81c0-.11.01-.2.04-.28.05-.1.15-.18.29-.25.04,0,.07,0,.1,0,.03,0,.06,0,.09,0Z"/>
          <path class="cls-1" d="M151.76,27.11c.03.08.04.19.04.35s0,.27-.02.33v.19c-.01.1-.02.19-.03.28,0,.08-.02.17-.03.28-.03.08-.04.15-.05.23,0,.08-.02.15-.05.23-.05.17-.09.33-.13.49s-.09.32-.15.46c-.27.61-.62,1.12-1.06,1.53-.44.41-.99.73-1.63.94-.14.05-.29.09-.45.11s-.32.05-.48.08c-.08.01-.16.02-.24.03-.08,0-.16,0-.24,0-.05.01-.12.02-.22.02s-.16,0-.2-.02c-.05-.01-.1-.02-.15,0-.05,0-.09,0-.13,0h-.11l-.46-.06c-.18-.05-.35-.1-.51-.15-.17-.05-.32-.11-.47-.17-.57-.25-1.04-.58-1.41-.99-.37-.41-.67-.9-.91-1.48-.06-.13-.11-.25-.14-.38-.03-.13-.06-.26-.08-.4-.03-.05-.04-.09-.03-.12,0-.03,0-.07,0-.12-.03-.1-.04-.21-.05-.31,0-.11-.02-.21-.05-.31v-.16s0-.1-.02-.16c-.01-.06-.02-.17-.02-.33s.01-.28.04-.35c.03-.09.03-.18.02-.27-.01-.09,0-.18.02-.27.01-.06.02-.12.03-.16,0-.04.02-.1.03-.16.04-.15.07-.3.1-.46.03-.15.08-.3.14-.44.19-.47.42-.89.69-1.26.27-.37.6-.69,1-.94.15-.1.31-.19.48-.26.16-.07.33-.14.51-.22.15-.06.32-.1.49-.12.18-.02.35-.05.53-.1.09,0,.17,0,.26,0,.08,0,.16-.02.24-.03,1.13-.01,2.06.22,2.81.7.75.48,1.29,1.11,1.62,1.88.06.13.11.25.15.38.04.13.08.26.13.4.04.14.07.29.1.45s.06.32.09.48c.01.06.02.13,0,.2,0,.07,0,.14,0,.2ZM150.07,28.2c.03-.09.03-.19.03-.3,0-.11,0-.22,0-.32,0-.49-.04-.91-.13-1.25-.04-.1-.07-.2-.09-.3-.03-.1-.06-.2-.09-.28-.36-.82-.92-1.39-1.69-1.71-.09-.04-.18-.07-.29-.09s-.2-.04-.3-.07c-.1-.03-.21-.04-.32-.04h-.34l-.34.06c-.13.03-.24.05-.35.09-.11.03-.21.07-.31.12-.09.03-.17.06-.25.11s-.15.1-.21.15c-.3.21-.55.47-.74.78-.19.3-.35.66-.49,1.06-.04.13-.06.26-.08.39s-.03.27-.06.41c-.01.05-.02.13-.02.25-.01.04-.02.08,0,.13,0,.05,0,.11,0,.17v.38c0,.13.01.24.04.34l.04.23c.03.13.05.25.07.37.02.12.05.23.1.33.13.3.28.59.45.86.17.27.38.49.64.67.06.04.12.07.17.09s.11.06.17.09c.1.06.21.12.33.16.12.04.25.09.39.12.06.03.12.04.18.03.06,0,.12,0,.18,0,.04.01.12.03.24.04.12.01.21,0,.28-.02.05-.01.1-.02.15,0,.05,0,.1,0,.15-.03.1-.02.2-.05.3-.07.1-.02.2-.05.29-.08.43-.18.78-.42,1.04-.74.27-.32.49-.69.67-1.12.06-.15.1-.31.12-.48.02-.17.05-.34.1-.52Z"/>
          <path class="cls-1" d="M154.23,22.65h.55c.19,0,.32.05.4.15.06.1.1.23.1.38,0,.15,0,.3,0,.46v5.54c0,.3.03.55.1.77.2.57.58.97,1.14,1.2.28.11.61.16,1.01.12.39-.03.71-.1.95-.2.42-.18.75-.4,1-.67.25-.27.44-.63.58-1.07.04-.1.06-.2.08-.3.01-.1.03-.21.06-.32.01-.06.02-.12,0-.17,0-.05,0-.11.03-.17v-.4c.03-.1.03-.22.02-.35-.01-.13-.02-.26-.02-.37v-3.5c0-.15,0-.31,0-.48,0-.17.02-.31.09-.41.05-.06.11-.1.18-.12.07-.02.15-.04.26-.07h.29c.15,0,.29,0,.41.02.12.01.21.07.28.17.06.06.09.16.09.28v8.48c0,.15,0,.29,0,.43s-.05.23-.14.29c-.05.04-.13.07-.23.08-.1.02-.21.03-.33.04-.12,0-.23,0-.34,0s-.19-.04-.24-.08c-.06-.05-.12-.13-.17-.25-.01-.05-.02-.12-.03-.21,0-.09-.02-.17-.03-.26-.01-.08-.04-.15-.08-.2s-.1-.07-.17-.06c-.1.03-.2.1-.3.22-.1.12-.2.21-.29.28-.28.2-.59.38-.95.53-.14.06-.28.1-.43.12-.15.02-.29.05-.45.08-.06.01-.13.01-.2,0s-.14,0-.2.02c-.13.02-.24.02-.34,0h-.19c-.06-.03-.14-.04-.22-.04s-.16,0-.22-.02c-.05-.03-.1-.04-.14-.03-.04,0-.1,0-.16-.03-.1-.03-.2-.05-.29-.08s-.19-.06-.29-.11c-.33-.14-.6-.33-.83-.56s-.4-.52-.54-.84c-.05-.11-.09-.23-.11-.35-.03-.12-.05-.24-.08-.37-.03-.08-.04-.15-.03-.22,0-.07,0-.15-.03-.24-.01-.03-.02-.06-.02-.1s0-.08-.02-.12v-.19s-.02-.11,0-.18c0-.07,0-.14,0-.2v-5.81c0-.11.02-.21.08-.29.05-.09.15-.15.29-.19.03-.01.05-.02.08,0,.03,0,.05,0,.08,0Z"/>
          <path class="cls-1" d="M168.82,22.42c.29,0,.46.07.49.22.04.15.06.36.06.64v.36c0,.11-.03.21-.09.29-.08.1-.18.16-.32.16-.14,0-.28.03-.42.07-.18.04-.35.08-.5.11-.16.04-.31.09-.45.15-.37.17-.67.39-.89.67-.23.29-.42.61-.59.98-.05.14-.09.28-.11.43s-.06.29-.1.45c-.01.06-.02.13,0,.19,0,.06,0,.13,0,.19-.04.15-.05.33-.05.52,0,.2,0,.38,0,.56v2.77c0,.15,0,.3-.02.44-.01.14-.02.26,0,.36,0,.1-.02.19-.09.27-.06.09-.16.14-.29.15s-.28.02-.43.02h-.34c-.06-.03-.12-.05-.18-.07s-.1-.05-.12-.09c-.06-.09-.1-.2-.1-.33,0-.13,0-.27,0-.41v-8.04c0-.14,0-.27,0-.39,0-.12.04-.22.1-.31.04-.05.1-.09.2-.11.09-.03.2-.04.31-.05.11,0,.23,0,.34,0s.2.03.27.06c.1.04.17.11.2.22.03.11.05.22.05.34v.38c0,.13.03.25.08.35.01.03.03.04.04.06s.03.03.06.06c.14,0,.25-.06.34-.18.09-.12.16-.22.23-.29l.11-.11c.11-.14.27-.29.47-.44.2-.15.39-.27.57-.34.11-.06.23-.11.36-.14.13-.03.26-.07.4-.1.08-.01.15-.02.23-.03.08,0,.15-.02.21-.03Z"/>
          <path class="cls-1" d="M177.01,19.69c.19,0,.38,0,.57,0,.19,0,.32.06.4.16.06.08.1.18.1.31,0,.13,0,.27,0,.41v1.1c0,.1,0,.21,0,.31,0,.11,0,.2.03.28.05.18.16.29.34.34.06.01.12.02.18.02h.18c.14,0,.31,0,.51,0,.2,0,.35,0,.44.05.11.08.19.15.23.23.03.05.04.11.04.17v.19c0,.14,0,.27-.02.39-.01.12-.06.21-.13.28-.08.06-.18.1-.31.1-.13,0-.27,0-.42,0-.15,0-.29,0-.43,0s-.26.02-.36.06c-.09.04-.15.1-.19.19-.04.09-.06.19-.08.31-.01.12-.02.25,0,.38,0,.13,0,.26,0,.39v3.76c0,.28,0,.57,0,.88,0,.31.05.55.16.71.06.1.15.17.25.21s.22.07.36.09c.04.01.08.02.12,0,.04,0,.09,0,.12,0h.25c.13,0,.24,0,.35.03.11.02.19.07.24.14.03.04.05.1.07.2.02.09.03.19.04.29,0,.1,0,.2,0,.29-.01.1-.04.17-.08.22-.05.09-.15.15-.29.19-.1.03-.21.04-.34.03s-.24,0-.34,0c-.08,0-.15,0-.23,0-.08,0-.15,0-.21,0h-.23c-.06-.01-.12-.02-.18-.03-.06,0-.12,0-.18,0-.25-.06-.47-.13-.66-.21s-.34-.21-.47-.4c-.18-.25-.28-.57-.3-.96-.03-.39-.04-.8-.04-1.24v-4.98c-.04-.16-.07-.29-.1-.36-.03-.08-.12-.14-.28-.19-.05-.01-.1-.01-.15,0s-.1,0-.15-.02h-.3c-.17,0-.3-.02-.41-.05s-.18-.1-.22-.22c-.03-.05-.04-.11-.05-.17,0-.06,0-.13,0-.19,0-.18.01-.33.04-.45.03-.12.1-.21.23-.28.14-.05.32-.06.54-.04s.41.01.56-.04c.11-.06.2-.15.27-.27.03-.08.04-.17.04-.29v-1.81c0-.11.01-.2.04-.28.05-.1.15-.18.29-.25.04,0,.07,0,.1,0,.03,0,.06,0,.09,0Z"/>
          <path class="cls-1" d="M190.35,27.15c.03.13.03.27,0,.43-.02.16-.06.27-.12.33-.06.05-.16.09-.28.1s-.26.03-.41.03-.3,0-.46,0c-.15,0-.29,0-.4,0h-4.86c-.1,0-.2,0-.3,0-.1,0-.18.03-.25.07-.05.03-.1.08-.15.15-.03.04-.05.09-.08.16-.03.07-.03.14,0,.2.01.06.02.12.02.17s0,.1.02.15c.03.1.05.21.08.31.02.11.06.21.11.31.29.68.77,1.17,1.44,1.46.08.04.16.07.25.09s.18.05.27.08c.04.01.1.02.19.02.18.05.41.08.7.08s.53-.03.7-.08c.18-.05.34-.1.48-.16s.28-.13.41-.22c.14-.09.26-.19.36-.31.1-.12.19-.25.27-.39.08-.13.14-.26.2-.4.06-.14.16-.24.29-.3.05-.02.13-.04.25-.06s.23-.02.34,0c.11,0,.22.02.32.03s.17.04.21.08c.13.09.16.24.09.44-.1.34-.23.65-.4.91-.25.41-.54.74-.87,1-.32.26-.73.47-1.23.64-.13.05-.25.09-.38.1-.13.02-.26.04-.4.07-.06.01-.12.02-.18.02s-.12,0-.18.02h-.19c-.06.01-.14.02-.22.02s-.15,0-.2-.02h-.17c-.06-.01-.12-.02-.17-.02s-.1,0-.15-.02c-.06-.01-.13-.02-.21-.03-.08,0-.15-.02-.21-.03-.11-.03-.23-.05-.34-.09-.11-.03-.22-.07-.32-.1-.05-.03-.1-.04-.13-.05-.04,0-.08-.02-.13-.05-.19-.09-.39-.2-.61-.32-.37-.24-.68-.54-.94-.88-.26-.35-.48-.74-.66-1.17-.06-.14-.11-.29-.14-.44-.03-.15-.07-.3-.12-.46-.01-.05-.02-.09-.02-.13s0-.09-.02-.15c-.03-.1-.04-.21-.06-.32-.01-.11-.03-.23-.06-.34v-.27s-.02-.12-.03-.22c0-.1,0-.17,0-.24v-.21c.03-.06.03-.13.03-.2,0-.07,0-.14,0-.2.05-.2.09-.41.12-.61.03-.2.09-.39.16-.57.06-.14.12-.28.18-.43.06-.15.12-.29.2-.43.28-.44.59-.83.95-1.15.35-.32.79-.59,1.31-.81.15-.06.31-.11.47-.14.16-.03.33-.07.5-.1.06-.01.12-.02.17-.03s.11,0,.17,0c.03-.01.06-.01.1,0s.07,0,.09-.02c.53-.01.99.04,1.39.16s.75.28,1.06.48c.06.03.11.06.15.1.04.04.08.08.13.1.1.08.21.17.31.27.11.1.2.2.28.3.2.27.37.52.51.76.09.14.16.29.21.46.05.17.11.33.17.49.06.17.11.34.14.51.03.18.07.36.12.53.01.09.02.18.03.27,0,.09.02.18.03.27ZM188.5,26.51s.07-.12.09-.2.03-.17,0-.26c-.08-.28-.18-.54-.32-.78-.18-.29-.37-.54-.59-.74s-.49-.37-.84-.51c-.09-.03-.18-.05-.27-.07-.09-.02-.18-.04-.29-.07-.1-.02-.21-.04-.32-.04h-.32s-.08.04-.13.03c-.05,0-.09,0-.13,0-.1.03-.2.05-.29.07-.09.02-.19.04-.28.07-.37.15-.66.34-.88.57-.22.23-.42.51-.6.86-.04.06-.08.14-.11.24s-.07.2-.09.31-.03.22-.02.32.06.18.13.23c.1.08.28.11.52.1.25,0,.46,0,.64,0h2.89c.19,0,.42,0,.68,0,.27,0,.44-.04.53-.14Z"/>
          <path class="cls-1" d="M200.72,31.73c.04.2.02.37-.06.5s-.18.23-.3.29c-.06.03-.13.04-.2.04s-.14.01-.22.04c-.28.06-.55.05-.83-.05s-.46-.21-.56-.35c-.06-.09-.12-.19-.17-.31s-.11-.22-.19-.29c-.03-.02-.05-.05-.08-.08-.03-.03-.07-.03-.12-.02-.14.04-.27.11-.39.21-.12.1-.24.19-.35.27-.17.1-.34.19-.53.28-.19.08-.39.16-.61.22-.13.04-.26.06-.41.08s-.29.03-.43.06c-.06.01-.12.02-.16.02h-.14c-.14.03-.27.03-.4,0h-.17c-.06-.01-.13-.02-.19-.02s-.12-.01-.17-.04c-.05-.01-.09-.02-.12,0-.03,0-.07,0-.1,0-.1-.03-.2-.05-.3-.07-.1-.02-.2-.05-.29-.08-.38-.17-.69-.35-.92-.56s-.43-.5-.58-.88c-.11-.28-.17-.61-.17-1.01v-.4c.01-.06.02-.13.03-.2,0-.07.02-.14.03-.22.05-.14.1-.28.15-.42.05-.14.11-.27.19-.38.23-.37.54-.64.93-.82.39-.18.82-.33,1.29-.47.18-.05.36-.09.55-.11s.38-.06.57-.09c.09-.03.17-.04.26-.04s.17-.01.28-.04c.09-.03.18-.04.27-.05.09,0,.18-.02.29-.05.32-.08.61-.14.89-.2.28-.06.5-.2.67-.43.08-.1.14-.23.19-.39.05-.16.05-.33,0-.52-.08-.3-.19-.54-.33-.72-.15-.18-.35-.32-.62-.42-.15-.06-.33-.11-.54-.13-.21-.02-.43-.04-.66-.04s-.45.01-.67.04c-.22.03-.4.06-.55.11-.22.08-.42.18-.63.32-.1.08-.19.17-.28.29-.08.12-.16.25-.22.39-.04.1-.07.21-.1.32-.03.11-.09.2-.18.27-.05.04-.14.07-.26.09-.12.02-.24.03-.37.03s-.25,0-.37-.03c-.12-.02-.21-.05-.26-.09-.05-.04-.09-.1-.11-.19s-.03-.18,0-.29c.04-.16.08-.32.12-.47.04-.15.1-.29.16-.43.24-.44.54-.79.91-1.04s.82-.45,1.37-.6c.13-.02.26-.04.39-.06s.27-.03.41-.06c.05-.01.13-.02.25,0,.11,0,.18,0,.21-.03.89-.01,1.66.09,2.32.3.66.22,1.12.63,1.39,1.24.11.25.18.55.2.88.02.34.03.69.03,1.05v4.2c0,.18,0,.35.02.51.01.17.05.3.11.4.06.09.15.15.25.19.11.05.22.09.32.1.1.02.18.08.23.18.03.04.04.08.04.11s0,.09.02.15ZM198,29.62c.08-.18.12-.38.12-.62,0-.23,0-.48,0-.73,0-.14,0-.27-.02-.38-.01-.11-.06-.2-.15-.27-.04-.03-.13-.04-.27-.04-.03.03-.07.04-.13.04s-.12.01-.17.04c-.1.03-.21.05-.34.08s-.25.05-.38.08c-.04,0-.08,0-.12,0-.04,0-.09,0-.14,0-.19.05-.4.08-.62.09-.22,0-.43.04-.62.08-.1.03-.19.05-.28.07-.08.02-.17.04-.28.07-.2.06-.39.14-.57.24-.18.09-.33.21-.46.35s-.22.31-.29.5-.09.43-.08.71c0,.13.02.24.07.35.04.11.1.21.16.29.1.14.23.26.4.35.16.1.34.17.53.24.06.01.13.02.19.02s.13,0,.19.02c.09.03.2.04.33.05.13,0,.24,0,.33-.03.08-.03.15-.04.23-.03.08,0,.15,0,.23-.03.1-.02.2-.04.29-.06s.19-.04.28-.08c.37-.15.68-.33.94-.55.26-.21.46-.51.6-.87Z"/>
          <path class="cls-1" d="M206.87,22.42c.48-.01.89.04,1.23.15.33.11.64.28.92.49.1.06.19.15.26.26.07.11.15.21.24.29.03.03.06.06.11.09s.11.05.19.04c.13-.04.24-.12.33-.24s.19-.21.29-.28c.18-.14.36-.26.55-.37.19-.11.4-.2.63-.28.1-.04.21-.07.33-.08.12-.02.24-.04.35-.07.06-.01.12-.02.18-.02h.18c.06-.03.15-.03.27-.03.11,0,.2.02.25.03.06.01.16.02.29.02.11.03.22.05.33.07.11.02.21.05.31.08.06.03.12.04.18.05.06,0,.12.02.18.05.63.28,1.07.71,1.31,1.29.05.1.09.21.11.33.02.12.05.25.08.39.03.04.04.08.03.12,0,.04,0,.09,0,.12v.17c.01.05.02.11,0,.17,0,.06,0,.13,0,.19v5.57c0,.2,0,.44,0,.72,0,.28-.05.46-.16.55-.05.04-.13.07-.25.08-.11.02-.23.03-.36.03s-.25,0-.37-.02c-.12-.01-.21-.04-.26-.08-.08-.04-.13-.11-.15-.23-.03-.08-.03-.16-.02-.24.01-.08,0-.16-.02-.24-.01-.06-.02-.14,0-.22,0-.08,0-.16,0-.24v-4.48c0-.42,0-.81-.03-1.19-.02-.37-.11-.69-.28-.94-.19-.3-.48-.53-.87-.67-.08-.03-.16-.04-.24-.05-.08,0-.17-.02-.26-.05-.05-.01-.13-.02-.25,0-.11,0-.19.02-.23.03-.06.01-.13.02-.19,0-.06,0-.13,0-.19.03-.18.04-.35.09-.51.15-.66.28-1.1.77-1.33,1.46-.06.21-.1.46-.1.74,0,.28,0,.56,0,.86v4.8c0,.16-.03.28-.09.37-.06.1-.17.16-.32.17-.15.01-.31.02-.48.02-.21,0-.37-.03-.47-.08-.11-.06-.18-.17-.2-.31-.02-.15-.03-.31-.03-.48v-4.94c0-.41-.01-.78-.04-1.13-.03-.35-.11-.65-.27-.9-.14-.23-.3-.4-.47-.5-.18-.11-.42-.19-.72-.26-.05-.01-.1-.02-.16-.02h-.18c-.28,0-.52.03-.73.09s-.4.15-.56.25c-.65.39-1.08.98-1.29,1.77-.05.17-.07.35-.07.56,0,.21,0,.42,0,.62v4.75c0,.18-.04.32-.11.42-.06.09-.16.14-.29.15-.13.01-.26.02-.4.02h-.29c-.08-.03-.15-.04-.22-.06s-.13-.05-.18-.11c-.06-.08-.09-.17-.09-.29v-8.83c0-.12.03-.22.08-.29.04-.08.09-.13.17-.15.1-.04.26-.06.48-.06s.38.02.48.06c.1.05.17.11.21.19.03.06.04.14.05.23,0,.09.02.17.03.25.01.08.04.14.08.19s.1.08.19.08c.02-.03.05-.04.08-.04s.06-.01.09-.04c.08-.06.15-.13.22-.19s.14-.13.22-.19c.28-.2.6-.38.95-.53.13-.05.25-.08.38-.1.13-.02.26-.05.4-.08.08,0,.15,0,.24,0,.08,0,.16,0,.24,0Z"/>
        </g>
        <path class="cls-2" d="M9.81,34.08c0-1.1,0-2.21,0-3.31.02-.17.05-.33.07-.5.14-1.24.23-2.49.44-3.71.84-4.87,2.77-9.31,5.5-13.42.09-.14.25-.27.4-.34,2.49-1.14,5.1-1.93,7.8-2.43.22-.04.34,0,.44.21.25.52.54,1.02.76,1.55.13.3.28.36.59.33,1.2-.12,2.41-.29,3.61-.28,1.61.01,3.22.17,4.83.28.27.02.42-.02.53-.3.23-.54.52-1.06.77-1.59.1-.2.22-.24.44-.2,2.66.49,5.22,1.27,7.69,2.38.21.1.42.27.55.46,4.57,6.81,6.57,14.3,5.8,22.49-.01.15-.11.33-.22.42-2.97,2.17-6.21,3.82-9.72,4.93-.26.08-.38.01-.51-.19-.48-.77-.97-1.53-1.45-2.3-.18-.3-.33-.62-.5-.92,1.14-.55,2.25-1.08,3.36-1.62-.48-.68-.73-.76-1.34-.49-4.47,1.94-9.1,2.52-13.91,1.65-1.92-.35-3.77-.93-5.55-1.71-.16-.07-.38-.15-.5-.09-.25.12-.45.33-.78.59,1.21.59,2.32,1.12,3.52,1.7-.71,1.12-1.4,2.2-2.09,3.28-.14.23-.31.13-.48.07-3.47-1.1-6.68-2.72-9.61-4.88-.14-.1-.25-.33-.27-.51-.08-.52-.11-1.04-.16-1.56ZM40.4,27.21c-.1-.5-.16-1.01-.32-1.49-.87-2.51-3.76-3.34-5.65-1.63-1.76,1.6-1.78,4.65-.04,6.28,1.4,1.31,3.43,1.27,4.77-.11.82-.84,1.17-1.88,1.24-3.05ZM27.02,27.19c-.17-.61-.26-1.26-.52-1.84-1.03-2.28-3.77-2.88-5.52-1.23-1.72,1.61-1.75,4.55-.06,6.2,1.38,1.35,3.43,1.34,4.8-.03.84-.85,1.19-1.89,1.31-3.09Z"/>
      </g>
    </g>
  </g>
</svg>