<?xml version="1.0" encoding="UTF-8"?>
<svg xmlns="http://www.w3.org/2000/svg" version="1.1" viewBox="0 0 354.84 50.51">
  <defs>
    <style>
      .cls-1 {
        fill: #3cc;
      }

      .cls-2 {
        fill: #fff;
      }

      .cls-3 {
        fill: #111114;
      }
    </style>
  </defs>
  <!-- Generator: Adobe Illustrator 28.6.0, SVG Export Plug-In . SVG Version: 1.2.0 Build 709)  -->
  <g>
    <g id="Layer_1">
      <g>
        <rect width="354.84" height="50.51" rx="8.5" ry="8.5"/>
        <g>
          <path class="cls-1" d="M73.61,22.57c.03.1.04.24.04.41s-.01.3-.04.39c-.03.09-.03.17-.02.25s0,.16-.02.25c-.03.08-.04.16-.06.24-.01.08-.03.16-.06.24-.03.1-.05.2-.08.29-.03.09-.07.18-.1.27-.03.04-.04.07-.05.1,0,.03-.02.06-.05.08-.14.25-.29.48-.46.68-.03.05-.07.1-.12.15-.06.05-.1.09-.14.11-.05.03-.09.06-.13.1-.04.04-.08.08-.11.1l-.4.23c-.14.1-.3.18-.49.23-.19.05-.38.1-.57.15-.1.03-.2.04-.3.05-.1,0-.2.02-.3.05-.05.01-.1.02-.14,0-.04,0-.08,0-.12,0-.06.01-.12.01-.18,0-.06-.01-.12-.01-.18,0h-2.87c-.19,0-.4,0-.62,0-.22,0-.39.04-.5.12-.14.1-.21.29-.2.55,0,.27,0,.51,0,.74v2.79c0,.17,0,.37,0,.62,0,.25-.02.42-.09.52-.05.08-.11.12-.18.14-.07.02-.16.04-.26.07h-.34c-.19,0-.36,0-.51-.02s-.26-.08-.32-.19c-.05-.08-.08-.18-.08-.31v-11.92c0-.14,0-.29,0-.47,0-.17.02-.31.08-.41.05-.08.15-.14.29-.19.03-.01.05-.02.08,0,.03,0,.05,0,.08,0h4.31c.48,0,.95,0,1.42,0,.46,0,.88.07,1.24.18.57.19,1.03.44,1.39.74.35.3.65.72.87,1.25.06.14.11.29.14.44.03.15.07.31.12.47.03.09.03.17.02.25s0,.16.02.25ZM71.83,23.25c.05-.18.06-.38.02-.62s-.08-.42-.11-.56c-.13-.35-.29-.64-.5-.85s-.48-.38-.81-.52c-.28-.11-.6-.18-.96-.21-.36-.02-.74-.04-1.13-.04h-2.45s-.05.02-.08.02-.07,0-.1.02c-.15.04-.25.12-.3.25-.05.13-.07.29-.07.5,0,.21,0,.4,0,.58v2.28c0,.19,0,.4,0,.63,0,.23.03.41.1.53.06.1.16.16.29.18.13.02.28.03.45.03h2.57c.19,0,.39,0,.59,0,.2,0,.38-.03.53-.07.34-.09.64-.19.9-.31.26-.12.48-.31.66-.56.1-.15.18-.31.24-.47.06-.17.11-.35.16-.55.01-.05.02-.13.02-.25Z"/>
          <path class="cls-1" d="M84.58,27.18c.03.08.04.19.04.35s0,.27-.02.33v.19c-.01.1-.02.19-.03.28,0,.08-.02.17-.03.28-.03.08-.04.15-.05.23,0,.08-.02.15-.05.23-.05.17-.09.33-.13.49s-.09.32-.15.46c-.27.61-.62,1.12-1.06,1.53-.44.41-.99.73-1.63.94-.14.05-.29.09-.45.11s-.32.05-.48.08c-.08.01-.16.02-.24.03-.08,0-.16,0-.24,0-.05.01-.12.02-.22.02s-.16,0-.2-.02c-.05-.01-.1-.02-.15,0-.05,0-.09,0-.13,0h-.11l-.46-.06c-.18-.05-.35-.1-.51-.15-.17-.05-.32-.11-.47-.17-.57-.25-1.04-.58-1.41-.99-.37-.41-.67-.9-.91-1.48-.06-.13-.11-.25-.14-.38-.03-.13-.06-.26-.08-.4-.03-.05-.04-.09-.03-.12,0-.03,0-.07,0-.12-.03-.1-.04-.21-.05-.31,0-.11-.02-.21-.05-.31v-.16s0-.1-.02-.16c-.01-.06-.02-.17-.02-.33s.01-.28.04-.35c.03-.09.03-.18.02-.27-.01-.09,0-.18.02-.27.01-.06.02-.12.03-.16,0-.04.02-.1.03-.16.04-.15.07-.3.1-.46.03-.15.08-.3.14-.44.19-.47.42-.89.69-1.26.27-.37.6-.69,1-.94.15-.1.31-.19.48-.26.16-.07.33-.14.51-.22.15-.06.32-.1.49-.12.18-.02.35-.05.53-.1.09,0,.17,0,.26,0,.08,0,.16-.02.24-.03,1.13-.01,2.06.22,2.81.7.75.48,1.29,1.11,1.62,1.88.06.13.11.25.15.38.04.13.08.26.13.4.04.14.07.29.1.45s.06.32.09.48c.01.06.02.13,0,.2,0,.07,0,.14,0,.2ZM82.88,28.27c.03-.09.03-.19.03-.3,0-.11,0-.22,0-.32,0-.49-.04-.91-.13-1.25-.04-.1-.07-.2-.09-.3-.03-.1-.06-.2-.09-.28-.36-.82-.92-1.39-1.69-1.71-.09-.04-.18-.07-.29-.09s-.2-.04-.3-.07c-.1-.03-.21-.04-.32-.04h-.34l-.34.06c-.13.03-.24.05-.35.09-.11.03-.21.07-.31.12-.09.03-.17.06-.25.11s-.15.1-.21.15c-.3.21-.55.47-.74.78-.19.3-.35.66-.49,1.06-.04.13-.06.26-.08.39s-.03.27-.06.41c-.01.05-.02.13-.02.25-.01.04-.02.08,0,.13,0,.05,0,.11,0,.17v.38c0,.13.01.24.04.34l.04.23c.03.13.05.25.07.37.02.12.05.23.1.33.13.3.28.59.45.86.17.27.38.49.64.67.06.04.12.07.17.09s.11.06.17.09c.1.06.21.12.33.16.12.04.25.09.39.12.06.03.12.04.18.03.06,0,.12,0,.18,0,.04.01.12.03.24.04.12.01.21,0,.28-.02.05-.01.1-.02.15,0,.05,0,.1,0,.15-.03.1-.02.2-.05.3-.07.1-.02.2-.05.29-.08.43-.18.78-.42,1.04-.74.27-.32.49-.69.67-1.12.06-.15.1-.31.12-.48.02-.17.05-.34.1-.52Z"/>
          <path class="cls-1" d="M89.54,22.49c.91-.01,1.68.09,2.3.31.62.22,1.1.61,1.44,1.17.09.14.16.28.21.43.05.15.1.31.15.48.03.09.03.18.02.28-.01.09-.03.17-.06.22-.03.03-.06.05-.09.07-.04.02-.07.04-.09.07-.06.03-.13.03-.19.02s-.13-.01-.19,0c-.1.03-.24.03-.4,0-.17-.02-.28-.05-.34-.09-.1-.06-.17-.15-.2-.26-.03-.11-.08-.21-.14-.31-.11-.2-.27-.39-.48-.55-.14-.1-.29-.18-.46-.23-.16-.05-.34-.1-.53-.15-.06-.02-.13-.03-.19-.03-.06,0-.13,0-.19,0-.08-.02-.17-.04-.28-.04s-.21.01-.29.04h-.11c-.06.01-.13.02-.19.03-.06,0-.13.02-.19.03-.33.08-.6.18-.82.32-.21.14-.36.37-.44.7-.03.09-.03.18,0,.27s.04.17.07.23c.08.19.17.33.28.41.11.08.24.17.41.28.2.13.43.22.68.28.25.06.51.12.76.2.17.05.33.09.49.11.16.03.33.06.49.11.27.08.53.15.78.22.25.07.51.16.76.26.06.03.13.05.19.08s.13.06.19.09c.25.15.47.32.67.51.19.19.35.43.47.72.03.09.05.21.08.36.03.09.04.18.05.28,0,.1,0,.2,0,.31v.19c-.03.09-.04.18-.04.27s-.01.18-.04.27c-.04.14-.08.27-.13.4-.05.13-.11.24-.17.34-.2.33-.46.59-.78.79-.32.2-.67.36-1.06.5-.11.04-.23.07-.35.08-.12.02-.24.05-.35.09-.13.03-.25.04-.38.04s-.25.01-.38.04h-.19c-.06.01-.15.02-.27.02s-.2,0-.27-.02h-.21c-.08-.03-.16-.04-.25-.03-.09,0-.17,0-.23-.03-.06-.01-.15-.02-.25-.02-.1-.03-.2-.05-.29-.07-.09-.02-.19-.05-.29-.09-.39-.13-.73-.29-1.03-.47-.29-.19-.54-.44-.76-.74-.11-.17-.21-.34-.28-.51-.08-.18-.15-.37-.21-.59-.03-.08-.04-.17-.03-.28,0-.11.02-.19.05-.26.04-.05.1-.1.19-.15.06-.03.15-.04.27-.05.11,0,.23,0,.34,0s.22.03.33.05c.11.02.18.04.22.07.09.06.15.16.18.28s.07.23.12.33c.13.28.3.49.51.65.15.11.32.2.51.27.19.06.39.13.61.19l.4.06h.11c.09.03.21.04.35.04s.27-.01.37-.04c.09,0,.16,0,.21-.02.08-.01.15-.02.23-.03.08,0,.15-.02.21-.03.37-.1.66-.23.87-.4.21-.17.37-.44.46-.84.03-.06.03-.13.02-.21s-.03-.13-.04-.17c-.06-.24-.15-.42-.27-.54-.11-.12-.26-.23-.44-.33-.11-.08-.24-.14-.38-.19-.14-.05-.28-.1-.42-.15-.04-.01-.07-.02-.1-.02s-.07-.01-.1-.04c-.43-.14-.88-.24-1.34-.31-.46-.07-.9-.19-1.3-.35-.13-.05-.25-.09-.36-.13-.11-.04-.22-.09-.32-.15-.24-.14-.46-.3-.67-.47-.2-.18-.36-.4-.48-.67-.04-.09-.07-.18-.08-.27-.02-.09-.04-.18-.07-.29-.04-.15-.05-.33-.04-.52.01-.2.03-.36.06-.5.03-.06.04-.12.05-.16,0-.04.02-.09.05-.14.11-.29.27-.54.47-.76.2-.22.42-.41.67-.57.19-.11.4-.21.63-.28.23-.07.47-.14.72-.2.09-.01.17-.03.26-.04.08-.01.17-.03.28-.04.04-.01.09-.01.15,0s.11,0,.13-.02Z"/>
          <path class="cls-1" d="M97.15,19.76c.19,0,.38,0,.57,0,.19,0,.32.06.4.16.06.08.1.18.1.31,0,.13,0,.27,0,.41v1.1c0,.1,0,.21,0,.31,0,.11,0,.2.03.28.05.18.16.29.34.34.06.01.12.02.18.02h.18c.14,0,.31,0,.51,0,.2,0,.35,0,.44.05.11.08.19.15.23.23.03.05.04.11.04.17v.19c0,.14,0,.27-.02.39-.01.12-.06.21-.13.28-.08.06-.18.1-.31.1-.13,0-.27,0-.42,0-.15,0-.29,0-.43,0s-.26.02-.36.06c-.09.04-.15.1-.19.19-.04.09-.06.19-.08.31-.01.12-.02.25,0,.38,0,.13,0,.26,0,.39v3.76c0,.28,0,.57,0,.88,0,.31.05.55.16.71.06.1.15.17.25.21s.22.07.36.09c.04.01.08.02.12,0,.04,0,.09,0,.12,0h.25c.13,0,.24,0,.35.03.11.02.19.07.24.14.03.04.05.1.07.2.02.09.03.19.04.29,0,.1,0,.2,0,.29-.01.1-.04.17-.08.22-.05.09-.15.15-.29.19-.1.03-.21.04-.34.03s-.24,0-.34,0c-.08,0-.15,0-.23,0-.08,0-.15,0-.21,0h-.23c-.06-.01-.12-.02-.18-.03-.06,0-.12,0-.18,0-.25-.06-.47-.13-.66-.21s-.34-.21-.47-.4c-.18-.25-.28-.57-.3-.96-.03-.39-.04-.8-.04-1.24v-4.98c-.04-.16-.07-.29-.1-.36-.03-.08-.12-.14-.28-.19-.05-.01-.1-.01-.15,0s-.1,0-.15-.02h-.3c-.17,0-.3-.02-.41-.05s-.18-.1-.22-.22c-.03-.05-.04-.11-.05-.17,0-.06,0-.13,0-.19,0-.18.01-.33.04-.45.03-.12.1-.21.23-.28.14-.05.32-.06.54-.04s.41.01.56-.04c.11-.06.2-.15.27-.27.03-.08.04-.17.04-.29v-1.81c0-.11.01-.2.04-.28.05-.1.15-.18.29-.25.04,0,.07,0,.1,0,.03,0,.06,0,.09,0Z"/>
          <path class="cls-1" d="M108.42,19.76c.19,0,.38,0,.57,0,.19,0,.32.06.4.16.06.08.1.18.1.31,0,.13,0,.27,0,.41v1.1c0,.1,0,.21,0,.31,0,.11,0,.2.03.28.05.18.16.29.34.34.06.01.12.02.18.02h.18c.14,0,.31,0,.51,0,.2,0,.35,0,.44.05.11.08.19.15.23.23.03.05.04.11.04.17v.19c0,.14,0,.27-.02.39-.01.12-.06.21-.13.28-.08.06-.18.1-.31.1-.13,0-.27,0-.42,0-.15,0-.29,0-.43,0s-.26.02-.36.06c-.09.04-.15.1-.19.19-.04.09-.06.19-.08.31-.01.12-.02.25,0,.38,0,.13,0,.26,0,.39v3.76c0,.28,0,.57,0,.88,0,.31.05.55.16.71.06.1.15.17.25.21s.22.07.36.09c.04.01.08.02.12,0,.04,0,.09,0,.12,0h.25c.13,0,.24,0,.35.03.11.02.19.07.24.14.03.04.05.1.07.2.02.09.03.19.04.29,0,.1,0,.2,0,.29-.01.1-.04.17-.08.22-.05.09-.15.15-.29.19-.1.03-.21.04-.34.03s-.24,0-.34,0c-.08,0-.15,0-.23,0-.08,0-.15,0-.21,0h-.23c-.06-.01-.12-.02-.18-.03-.06,0-.12,0-.18,0-.25-.06-.47-.13-.66-.21s-.34-.21-.47-.4c-.18-.25-.28-.57-.3-.96-.03-.39-.04-.8-.04-1.24v-4.98c-.04-.16-.07-.29-.1-.36-.03-.08-.12-.14-.28-.19-.05-.01-.1-.01-.15,0s-.1,0-.15-.02h-.3c-.17,0-.3-.02-.41-.05s-.18-.1-.22-.22c-.03-.05-.04-.11-.05-.17,0-.06,0-.13,0-.19,0-.18.01-.33.04-.45.03-.12.1-.21.23-.28.14-.05.32-.06.54-.04s.41.01.56-.04c.11-.06.2-.15.27-.27.03-.08.04-.17.04-.29v-1.81c0-.11.01-.2.04-.28.05-.1.15-.18.29-.25.04,0,.07,0,.1,0,.03,0,.06,0,.09,0Z"/>
          <path class="cls-1" d="M122.23,27.18c.03.08.04.19.04.35s0,.27-.02.33v.19c-.01.1-.02.19-.03.28,0,.08-.02.17-.03.28-.03.08-.04.15-.05.23,0,.08-.02.15-.05.23-.05.17-.09.33-.13.49s-.09.32-.15.46c-.27.61-.62,1.12-1.06,1.53-.44.41-.99.73-1.63.94-.14.05-.29.09-.45.11s-.32.05-.48.08c-.08.01-.16.02-.24.03-.08,0-.16,0-.24,0-.05.01-.12.02-.22.02s-.16,0-.2-.02c-.05-.01-.1-.02-.15,0-.05,0-.09,0-.13,0h-.11l-.46-.06c-.18-.05-.35-.1-.51-.15-.17-.05-.32-.11-.47-.17-.57-.25-1.04-.58-1.41-.99-.37-.41-.67-.9-.91-1.48-.06-.13-.11-.25-.14-.38-.03-.13-.06-.26-.08-.4-.03-.05-.04-.09-.03-.12,0-.03,0-.07,0-.12-.03-.1-.04-.21-.05-.31,0-.11-.02-.21-.05-.31v-.16s0-.1-.02-.16c-.01-.06-.02-.17-.02-.33s.01-.28.04-.35c.03-.09.03-.18.02-.27-.01-.09,0-.18.02-.27.01-.06.02-.12.03-.16,0-.04.02-.1.03-.16.04-.15.07-.3.1-.46.03-.15.08-.3.14-.44.19-.47.42-.89.69-1.26.27-.37.6-.69,1-.94.15-.1.31-.19.48-.26.16-.07.33-.14.51-.22.15-.06.32-.1.49-.12.18-.02.35-.05.53-.1.09,0,.17,0,.26,0,.08,0,.16-.02.24-.03,1.13-.01,2.06.22,2.81.7.75.48,1.29,1.11,1.62,1.88.06.13.11.25.15.38.04.13.08.26.13.4.04.14.07.29.1.45s.06.32.09.48c.01.06.02.13,0,.2,0,.07,0,.14,0,.2ZM120.54,28.27c.03-.09.03-.19.03-.3,0-.11,0-.22,0-.32,0-.49-.04-.91-.13-1.25-.04-.1-.07-.2-.09-.3-.03-.1-.06-.2-.09-.28-.36-.82-.92-1.39-1.69-1.71-.09-.04-.18-.07-.29-.09s-.2-.04-.3-.07c-.1-.03-.21-.04-.32-.04h-.34l-.34.06c-.13.03-.24.05-.35.09-.11.03-.21.07-.31.12-.09.03-.17.06-.25.11s-.15.1-.21.15c-.3.21-.55.47-.74.78-.19.3-.35.66-.49,1.06-.04.13-.06.26-.08.39s-.03.27-.06.41c-.01.05-.02.13-.02.25-.01.04-.02.08,0,.13,0,.05,0,.11,0,.17v.38c0,.13.01.24.04.34l.04.23c.03.13.05.25.07.37.02.12.05.23.1.33.13.3.28.59.45.86.17.27.38.49.64.67.06.04.12.07.17.09s.11.06.17.09c.1.06.21.12.33.16.12.04.25.09.39.12.06.03.12.04.18.03.06,0,.12,0,.18,0,.04.01.12.03.24.04.12.01.21,0,.28-.02.05-.01.1-.02.15,0,.05,0,.1,0,.15-.03.1-.02.2-.05.3-.07.1-.02.2-.05.29-.08.43-.18.78-.42,1.04-.74.27-.32.49-.69.67-1.12.06-.15.1-.31.12-.48.02-.17.05-.34.1-.52Z"/>
          <path class="cls-1" d="M134.01,22.49c.29,0,.46.07.49.22.04.15.06.36.06.64v.36c0,.11-.03.21-.09.29-.08.1-.18.16-.32.16-.14,0-.28.03-.42.07-.18.04-.35.08-.5.11-.16.04-.31.09-.45.15-.37.17-.67.39-.89.67-.23.29-.42.61-.59.98-.05.14-.09.28-.11.43s-.06.29-.1.45c-.01.06-.02.13,0,.19,0,.06,0,.13,0,.19-.04.15-.05.33-.05.52,0,.2,0,.38,0,.56v2.77c0,.15,0,.3-.02.44-.01.14-.02.26,0,.36,0,.1-.02.19-.09.27-.06.09-.16.14-.29.15s-.28.02-.43.02h-.34c-.06-.03-.12-.05-.18-.07s-.1-.05-.12-.09c-.06-.09-.1-.2-.1-.33,0-.13,0-.27,0-.41v-8.04c0-.14,0-.27,0-.39,0-.12.04-.22.1-.31.04-.05.1-.09.2-.11.09-.03.2-.04.31-.05.11,0,.23,0,.34,0s.2.03.27.06c.1.04.17.11.2.22.03.11.05.22.05.34v.38c0,.13.03.25.08.35.01.03.03.04.04.06s.03.03.06.06c.14,0,.25-.06.34-.18.09-.12.16-.22.23-.29l.11-.11c.11-.14.27-.29.47-.44.2-.15.39-.27.57-.34.11-.06.23-.11.36-.14.13-.03.26-.07.4-.1.08-.01.15-.02.23-.03.08,0,.15-.02.21-.03Z"/>
          <path class="cls-1" d="M144.27,27.22c.03.13.03.27,0,.43-.02.16-.06.27-.12.33-.06.05-.16.09-.28.1s-.26.03-.41.03-.3,0-.46,0c-.15,0-.29,0-.4,0h-4.86c-.1,0-.2,0-.3,0-.1,0-.18.03-.25.07-.05.03-.1.08-.15.15-.03.04-.05.09-.08.16-.03.07-.03.14,0,.2.01.06.02.12.02.17s0,.1.02.15c.03.1.05.21.08.31.02.11.06.21.11.31.29.68.77,1.17,1.44,1.46.08.04.16.07.25.09s.18.05.27.08c.04.01.1.02.19.02.18.05.41.08.7.08s.53-.03.7-.08c.18-.05.34-.1.48-.16s.28-.13.41-.22c.14-.09.26-.19.36-.31.1-.12.19-.25.27-.39.08-.13.14-.26.2-.4.06-.14.16-.24.29-.3.05-.02.13-.04.25-.06s.23-.02.34,0c.11,0,.22.02.32.03s.17.04.21.08c.13.09.16.24.09.44-.1.34-.23.65-.4.91-.25.41-.54.74-.87,1-.32.26-.73.47-1.23.64-.13.05-.25.09-.38.1-.13.02-.26.04-.4.07-.06.01-.12.02-.18.02s-.12,0-.18.02h-.19c-.06.01-.14.02-.22.02s-.15,0-.2-.02h-.17c-.06-.01-.12-.02-.17-.02s-.1,0-.15-.02c-.06-.01-.13-.02-.21-.03-.08,0-.15-.02-.21-.03-.11-.03-.23-.05-.34-.09-.11-.03-.22-.07-.32-.1-.05-.03-.1-.04-.13-.05-.04,0-.08-.02-.13-.05-.19-.09-.39-.2-.61-.32-.37-.24-.68-.54-.94-.88-.26-.35-.48-.74-.66-1.17-.06-.14-.11-.29-.14-.44-.03-.15-.07-.3-.12-.46-.01-.05-.02-.09-.02-.13s0-.09-.02-.15c-.03-.1-.04-.21-.06-.32-.01-.11-.03-.23-.06-.34v-.27s-.02-.12-.03-.22c0-.1,0-.17,0-.24v-.21c.03-.06.03-.13.03-.2,0-.07,0-.14,0-.2.05-.2.09-.41.12-.61.03-.2.09-.39.16-.57.06-.14.12-.28.18-.43.06-.15.12-.29.2-.43.28-.44.59-.83.95-1.15.35-.32.79-.59,1.31-.81.15-.06.31-.11.47-.14.16-.03.33-.07.5-.1.06-.01.12-.02.17-.03s.11,0,.17,0c.03-.01.06-.01.1,0s.07,0,.09-.02c.53-.01.99.04,1.39.16s.75.28,1.06.48c.06.03.11.06.15.1.04.04.08.08.13.1.1.08.21.17.31.27.11.1.2.2.28.3.2.27.37.52.51.76.09.14.16.29.21.46.05.17.11.33.17.49.06.17.11.34.14.51.03.18.07.36.12.53.01.09.02.18.03.27,0,.09.02.18.03.27ZM142.43,26.58s.07-.12.09-.2.03-.17,0-.26c-.08-.28-.18-.54-.32-.78-.18-.29-.37-.54-.59-.74s-.49-.37-.84-.51c-.09-.03-.18-.05-.27-.07-.09-.02-.18-.04-.29-.07-.1-.02-.21-.04-.32-.04h-.32s-.08.04-.13.03c-.05,0-.09,0-.13,0-.1.03-.2.05-.29.07-.09.02-.19.04-.28.07-.37.15-.66.34-.88.57-.22.23-.42.51-.6.86-.04.06-.08.14-.11.24s-.07.2-.09.31-.03.22-.02.32.06.18.13.23c.1.08.28.11.52.1.25,0,.46,0,.64,0h2.89c.19,0,.42,0,.68,0,.27,0,.44-.04.53-.14Z"/>
          <path class="cls-1" d="M145.64,22.72h.61c.21,0,.38.04.49.11.09.06.15.14.18.24.03.09.07.19.1.29.08.18.14.35.19.53s.11.35.17.53c.25.68.49,1.37.7,2.06.21.69.45,1.38.7,2.06.09.23.16.46.23.69s.15.47.25.69c.03.09.06.18.09.29s.1.17.19.19c.1.03.18-.02.24-.13s.1-.2.12-.27c.1-.24.19-.48.26-.73s.15-.5.24-.75c.17-.48.32-.96.48-1.43.15-.47.31-.95.47-1.43.06-.21.13-.43.19-.64s.14-.42.23-.62c.06-.18.12-.35.17-.53.05-.18.11-.35.17-.53.03-.09.06-.18.1-.27.04-.09.09-.16.15-.23.1-.06.22-.1.34-.11.13-.01.28-.02.46-.02.09,0,.17,0,.25,0,.08,0,.15.02.21.05.11.05.17.13.18.25,0,.11-.02.23-.07.34-.08.22-.15.44-.23.67-.08.23-.17.45-.27.67-.03.06-.04.12-.06.18s-.03.12-.06.18c-.1.21-.18.44-.25.67-.06.23-.15.46-.25.68-.06.17-.12.33-.18.5s-.12.34-.2.5c-.22.52-.41,1.04-.58,1.58s-.36,1.06-.58,1.58c-.08.2-.15.41-.21.61-.06.2-.14.41-.23.61-.06.14-.12.27-.16.39-.04.12-.14.21-.28.28-.08.04-.16.06-.26.06h-.29c-.2,0-.4,0-.59,0-.19,0-.33-.07-.42-.18-.09-.1-.15-.22-.19-.37s-.09-.29-.15-.43c-.08-.18-.15-.36-.22-.56-.07-.2-.14-.38-.2-.56-.03-.06-.04-.12-.06-.16-.01-.04-.03-.1-.06-.16-.25-.61-.49-1.22-.69-1.84-.21-.62-.44-1.24-.69-1.84-.08-.2-.15-.4-.22-.6-.07-.2-.14-.4-.22-.6-.03-.06-.05-.13-.07-.2-.02-.07-.04-.14-.07-.2-.1-.21-.19-.43-.26-.65-.07-.21-.15-.43-.24-.65-.03-.08-.06-.18-.1-.3-.04-.13-.03-.23.02-.32.06-.06.14-.11.23-.13.09,0,.14,0,.15-.02Z"/>
          <path class="cls-1" d="M163.98,27.22c.03.13.03.27,0,.43-.02.16-.06.27-.12.33-.06.05-.16.09-.28.1s-.26.03-.41.03-.3,0-.46,0c-.15,0-.29,0-.4,0h-4.86c-.1,0-.2,0-.3,0-.1,0-.18.03-.25.07-.05.03-.1.08-.15.15-.03.04-.05.09-.08.16-.03.07-.03.14,0,.2.01.06.02.12.02.17s0,.1.02.15c.03.1.05.21.08.31.02.11.06.21.11.31.29.68.77,1.17,1.44,1.46.08.04.16.07.25.09s.18.05.27.08c.04.01.1.02.19.02.18.05.41.08.7.08s.53-.03.7-.08c.18-.05.34-.1.48-.16s.28-.13.41-.22c.14-.09.26-.19.36-.31.1-.12.19-.25.27-.39.08-.13.14-.26.2-.4.06-.14.16-.24.29-.3.05-.02.13-.04.25-.06s.23-.02.34,0c.11,0,.22.02.32.03s.17.04.21.08c.13.09.16.24.09.44-.1.34-.23.65-.4.91-.25.41-.54.74-.87,1-.32.26-.73.47-1.23.64-.13.05-.25.09-.38.1-.13.02-.26.04-.4.07-.06.01-.12.02-.18.02s-.12,0-.18.02h-.19c-.06.01-.14.02-.22.02s-.15,0-.2-.02h-.17c-.06-.01-.12-.02-.17-.02s-.1,0-.15-.02c-.06-.01-.13-.02-.21-.03-.08,0-.15-.02-.21-.03-.11-.03-.23-.05-.34-.09-.11-.03-.22-.07-.32-.1-.05-.03-.1-.04-.13-.05-.04,0-.08-.02-.13-.05-.19-.09-.39-.2-.61-.32-.37-.24-.68-.54-.94-.88-.26-.35-.48-.74-.66-1.17-.06-.14-.11-.29-.14-.44-.03-.15-.07-.3-.12-.46-.01-.05-.02-.09-.02-.13s0-.09-.02-.15c-.03-.1-.04-.21-.06-.32-.01-.11-.03-.23-.06-.34v-.27s-.02-.12-.03-.22c0-.1,0-.17,0-.24v-.21c.03-.06.03-.13.03-.2,0-.07,0-.14,0-.2.05-.2.09-.41.12-.61.03-.2.09-.39.16-.57.06-.14.12-.28.18-.43.06-.15.12-.29.2-.43.28-.44.59-.83.95-1.15.35-.32.79-.59,1.31-.81.15-.06.31-.11.47-.14.16-.03.33-.07.5-.1.06-.01.12-.02.17-.03s.11,0,.17,0c.03-.01.06-.01.1,0s.07,0,.09-.02c.53-.01.99.04,1.39.16s.75.28,1.06.48c.06.03.11.06.15.1.04.04.08.08.13.1.1.08.21.17.31.27.11.1.2.2.28.3.2.27.37.52.51.76.09.14.16.29.21.46.05.17.11.33.17.49.06.17.11.34.14.51.03.18.07.36.12.53.01.09.02.18.03.27,0,.09.02.18.03.27ZM162.13,26.58s.07-.12.09-.2.03-.17,0-.26c-.08-.28-.18-.54-.32-.78-.18-.29-.37-.54-.59-.74s-.49-.37-.84-.51c-.09-.03-.18-.05-.27-.07-.09-.02-.18-.04-.29-.07-.1-.02-.21-.04-.32-.04h-.32s-.08.04-.13.03c-.05,0-.09,0-.13,0-.1.03-.2.05-.29.07-.09.02-.19.04-.28.07-.37.15-.66.34-.88.57-.22.23-.42.51-.6.86-.04.06-.08.14-.11.24s-.07.2-.09.31-.03.22-.02.32.06.18.13.23c.1.08.28.11.52.1.25,0,.46,0,.64,0h2.89c.19,0,.42,0,.68,0,.27,0,.44-.04.53-.14Z"/>
          <path class="cls-1" d="M174.35,31.8c.04.2.02.37-.06.5s-.18.23-.3.29c-.06.03-.13.04-.2.04s-.14.01-.22.04c-.28.06-.55.05-.83-.05s-.46-.21-.56-.35c-.06-.09-.12-.19-.17-.31s-.11-.22-.19-.29c-.03-.02-.05-.05-.08-.08-.03-.03-.07-.03-.12-.02-.14.04-.27.11-.39.21-.12.1-.24.19-.35.27-.17.1-.34.19-.53.28-.19.08-.39.16-.61.22-.13.04-.26.06-.41.08s-.29.03-.43.06c-.06.01-.12.02-.16.02h-.14c-.14.03-.27.03-.4,0h-.17c-.06-.01-.13-.02-.19-.02s-.12-.01-.17-.04c-.05-.01-.09-.02-.12,0-.03,0-.07,0-.1,0-.1-.03-.2-.05-.3-.07-.1-.02-.2-.05-.29-.08-.38-.17-.69-.35-.92-.56s-.43-.5-.58-.88c-.11-.28-.17-.61-.17-1.01v-.4c.01-.06.02-.13.03-.2,0-.07.02-.14.03-.22.05-.14.1-.28.15-.42.05-.14.11-.27.19-.38.23-.37.54-.64.93-.82.39-.18.82-.33,1.29-.47.18-.05.36-.09.55-.11s.38-.06.57-.09c.09-.03.17-.04.26-.04s.17-.01.28-.04c.09-.03.18-.04.27-.05.09,0,.18-.02.29-.05.32-.08.61-.14.89-.2.28-.06.5-.2.67-.43.08-.1.14-.23.19-.39.05-.16.05-.33,0-.52-.08-.3-.19-.54-.33-.72-.15-.18-.35-.32-.62-.42-.15-.06-.33-.11-.54-.13-.21-.02-.43-.04-.66-.04s-.45.01-.67.04c-.22.03-.4.06-.55.11-.22.08-.42.18-.63.32-.1.08-.19.17-.28.29-.08.12-.16.25-.22.39-.04.1-.07.21-.1.32-.03.11-.09.2-.18.27-.05.04-.14.07-.26.09-.12.02-.24.03-.37.03s-.25,0-.37-.03c-.12-.02-.21-.05-.26-.09-.05-.04-.09-.1-.11-.19s-.03-.18,0-.29c.04-.16.08-.32.12-.47.04-.15.1-.29.16-.43.24-.44.54-.79.91-1.04s.82-.45,1.37-.6c.13-.02.26-.04.39-.06s.27-.03.41-.06c.05-.01.13-.02.25,0,.11,0,.18,0,.21-.03.89-.01,1.66.09,2.32.3.66.22,1.12.63,1.39,1.24.11.25.18.55.2.88.02.34.03.69.03,1.05v4.2c0,.18,0,.35.02.51.01.17.05.3.11.4.06.09.15.15.25.19.11.05.22.09.32.1.1.02.18.08.23.18.03.04.04.08.04.11s0,.09.02.15ZM171.63,29.69c.08-.18.12-.38.12-.62,0-.23,0-.48,0-.73,0-.14,0-.27-.02-.38-.01-.11-.06-.2-.15-.27-.04-.03-.13-.04-.27-.04-.03.03-.07.04-.13.04s-.12.01-.17.04c-.1.03-.21.05-.34.08s-.25.05-.38.08c-.04,0-.08,0-.12,0-.04,0-.09,0-.14,0-.19.05-.4.08-.62.09-.22,0-.43.04-.62.08-.1.03-.19.05-.28.07-.08.02-.17.04-.28.07-.2.06-.39.14-.57.24-.18.09-.33.21-.46.35s-.22.31-.29.5-.09.43-.08.71c0,.13.02.24.07.35.04.11.1.21.16.29.1.14.23.26.4.35.16.1.34.17.53.24.06.01.13.02.19.02s.13,0,.19.02c.09.03.2.04.33.05.13,0,.24,0,.33-.03.08-.03.15-.04.23-.03.08,0,.15,0,.23-.03.1-.02.2-.04.29-.06s.19-.04.28-.08c.37-.15.68-.33.94-.55.26-.21.46-.51.6-.87Z"/>
          <path class="cls-1" d="M176.55,18.98h.52c.18,0,.32.04.41.13.06.09.1.21.1.35,0,.15,0,.29,0,.45v12.01c0,.18-.03.32-.09.42-.04.06-.09.1-.16.11-.07.01-.16.03-.26.06h-.27c-.14,0-.27,0-.4,0-.13,0-.22-.05-.29-.12-.06-.1-.1-.23-.1-.38,0-.15,0-.31,0-.47v-11.51c0-.14,0-.29,0-.45,0-.16.02-.28.08-.37.05-.08.15-.14.29-.19.03-.01.05-.02.09,0,.03,0,.06,0,.08,0Z"/>
          <path class="cls-1" d="M194.05,31.8c.04.2.02.37-.06.5s-.18.23-.3.29c-.06.03-.13.04-.2.04s-.14.01-.22.04c-.28.06-.55.05-.83-.05s-.46-.21-.56-.35c-.06-.09-.12-.19-.17-.31s-.11-.22-.19-.29c-.03-.02-.05-.05-.08-.08-.03-.03-.07-.03-.12-.02-.14.04-.27.11-.39.21-.12.1-.24.19-.35.27-.17.1-.34.19-.53.28-.19.08-.39.16-.61.22-.13.04-.26.06-.41.08s-.29.03-.43.06c-.06.01-.12.02-.16.02h-.14c-.14.03-.27.03-.4,0h-.17c-.06-.01-.13-.02-.19-.02s-.12-.01-.17-.04c-.05-.01-.09-.02-.12,0-.03,0-.07,0-.1,0-.1-.03-.2-.05-.3-.07-.1-.02-.2-.05-.29-.08-.38-.17-.69-.35-.92-.56s-.43-.5-.58-.88c-.11-.28-.17-.61-.17-1.01v-.4c.01-.06.02-.13.03-.2,0-.07.02-.14.03-.22.05-.14.1-.28.15-.42.05-.14.11-.27.19-.38.23-.37.54-.64.93-.82.39-.18.82-.33,1.29-.47.18-.05.36-.09.55-.11s.38-.06.57-.09c.09-.03.17-.04.26-.04s.17-.01.28-.04c.09-.03.18-.04.27-.05.09,0,.18-.02.29-.05.32-.08.61-.14.89-.2.28-.06.5-.2.67-.43.08-.1.14-.23.19-.39.05-.16.05-.33,0-.52-.08-.3-.19-.54-.33-.72-.15-.18-.35-.32-.62-.42-.15-.06-.33-.11-.54-.13-.21-.02-.43-.04-.66-.04s-.45.01-.67.04c-.22.03-.4.06-.55.11-.22.08-.42.18-.63.32-.1.08-.19.17-.28.29-.08.12-.16.25-.22.39-.04.1-.07.21-.1.32-.03.11-.09.2-.18.27-.05.04-.14.07-.26.09-.12.02-.24.03-.37.03s-.25,0-.37-.03c-.12-.02-.21-.05-.26-.09-.05-.04-.09-.1-.11-.19s-.03-.18,0-.29c.04-.16.08-.32.12-.47.04-.15.1-.29.16-.43.24-.44.54-.79.91-1.04s.82-.45,1.37-.6c.13-.02.26-.04.39-.06s.27-.03.41-.06c.05-.01.13-.02.25,0,.11,0,.18,0,.21-.03.89-.01,1.66.09,2.32.3.66.22,1.12.63,1.39,1.24.11.25.18.55.2.88.02.34.03.69.03,1.05v4.2c0,.18,0,.35.02.51.01.17.05.3.11.4.06.09.15.15.25.19.11.05.22.09.32.1.1.02.18.08.23.18.03.04.04.08.04.11s0,.09.02.15ZM191.33,29.69c.08-.18.12-.38.12-.62,0-.23,0-.48,0-.73,0-.14,0-.27-.02-.38-.01-.11-.06-.2-.15-.27-.04-.03-.13-.04-.27-.04-.03.03-.07.04-.13.04s-.12.01-.17.04c-.1.03-.21.05-.34.08s-.25.05-.38.08c-.04,0-.08,0-.12,0-.04,0-.09,0-.14,0-.19.05-.4.08-.62.09-.22,0-.43.04-.62.08-.1.03-.19.05-.28.07-.08.02-.17.04-.28.07-.2.06-.39.14-.57.24-.18.09-.33.21-.46.35s-.22.31-.29.5-.09.43-.08.71c0,.13.02.24.07.35.04.11.1.21.16.29.1.14.23.26.4.35.16.1.34.17.53.24.06.01.13.02.19.02s.13,0,.19.02c.09.03.2.04.33.05.13,0,.24,0,.33-.03.08-.03.15-.04.23-.03.08,0,.15,0,.23-.03.1-.02.2-.04.29-.06s.19-.04.28-.08c.37-.15.68-.33.94-.55.26-.21.46-.51.6-.87Z"/>
          <path class="cls-1" d="M201.4,18.99c.18,0,.36,0,.56,0,.2,0,.33.06.41.16.06.09.09.22.09.39v3.09c0,.05,0,.1,0,.15,0,.05,0,.1,0,.15.01.04.02.08,0,.13,0,.05,0,.1,0,.13.03.1.04.2.05.28,0,.09.07.13.2.13.03-.03.05-.04.08-.05.03,0,.06-.02.09-.05.08-.05.15-.1.21-.16s.13-.12.21-.18c.14-.1.29-.19.47-.28.17-.08.34-.16.52-.22.1-.03.21-.05.32-.07.11-.02.22-.04.32-.07.05-.03.1-.04.15-.03s.11,0,.17,0c.06-.03.17-.04.31-.04s.25.01.31.04h.18c.06,0,.12,0,.18.02.1.03.2.04.3.06s.2.03.3.06c.06.03.11.04.15.05.04,0,.09.02.15.05.14.06.27.13.4.2s.25.15.38.24c.13.11.25.25.36.4.08.11.15.23.21.34s.13.24.19.38c.04.09.07.18.08.27.02.09.04.18.07.29.03.06.04.13.04.19s0,.13.02.21c.02.06.03.13.03.19,0,.06,0,.13.03.19v.19c.01.06.02.13,0,.21,0,.08,0,.15,0,.21v4.77c0,.1,0,.22,0,.37,0,.15,0,.29,0,.42,0,.13-.02.26-.05.37s-.06.19-.11.23c-.09.08-.25.11-.49.11h-.48c-.16,0-.28-.05-.35-.15-.06-.09-.09-.19-.09-.31v-4.8c0-.34,0-.71,0-1.09,0-.39-.04-.72-.12-1-.15-.43-.41-.75-.76-.95-.1-.06-.21-.12-.32-.16-.11-.04-.24-.08-.38-.1-.05-.01-.13-.02-.23-.02-.05-.01-.11-.03-.18-.04-.07-.01-.14,0-.2.02-.05.01-.1.02-.15,0-.05,0-.11,0-.17,0-.11.03-.23.05-.35.07-.12.02-.23.05-.33.1-.43.18-.77.42-1.03.72-.25.3-.45.69-.59,1.16-.03.09-.04.18-.06.29s-.03.2-.06.3c-.01.04-.02.08,0,.12,0,.04,0,.08,0,.12-.01.06-.01.13,0,.19s.01.13,0,.19v3.82c0,.1,0,.22,0,.35,0,.13,0,.26,0,.39,0,.13-.02.25-.03.36-.01.11-.04.2-.08.25-.05.06-.11.1-.18.1-.07,0-.15.02-.24.05h-.27c-.14,0-.27,0-.4,0-.13,0-.22-.05-.29-.12-.06-.1-.1-.22-.1-.37,0-.15,0-.3,0-.46v-11.53c0-.14,0-.29,0-.45,0-.16.02-.28.08-.37.05-.09.15-.15.29-.19.03-.01.05-.02.08,0,.03,0,.05,0,.08,0Z"/>
          <path class="cls-1" d="M211.74,20.82c-.1-.08-.16-.21-.16-.41,0-.2,0-.39,0-.58v-.32c0-.11.02-.21.06-.29.05-.1.15-.18.3-.23.03-.01.05-.02.09,0,.03,0,.06,0,.08,0,.22,0,.42,0,.61.02.19.01.32.09.38.23.04.08.06.17.06.28v.33c0,.23,0,.44,0,.65,0,.2-.09.34-.26.4-.06.03-.13.04-.2.04h-.62c-.13,0-.23-.03-.32-.09ZM213.15,31.59c0,.13,0,.26,0,.39,0,.13-.02.24-.09.31-.04.08-.09.12-.17.14-.08.02-.16.04-.27.07h-.29c-.17,0-.31,0-.43-.03-.12-.02-.21-.08-.28-.18-.05-.08-.08-.17-.08-.29v-8.8c0-.13.03-.24.1-.31.04-.06.09-.1.15-.11s.13-.03.21-.06c.03,0,.05,0,.09,0,.03,0,.06,0,.08,0,.17,0,.33,0,.5,0,.17,0,.29.06.35.16.06.08.09.17.09.29v8.41Z"/>
          <path class="cls-1" d="M224.41,31.48v.48c0,.16-.03.29-.09.39-.06.09-.17.14-.31.14s-.29,0-.45,0c-.08,0-.15,0-.22,0-.07,0-.13,0-.18-.03-.11-.03-.19-.08-.23-.15-.05-.06-.08-.14-.09-.23,0-.09-.03-.18-.07-.27-.01-.03-.03-.05-.05-.07-.02-.02-.04-.04-.07-.07-.13-.01-.22.01-.29.08-.07.06-.14.13-.22.19-.25.19-.51.34-.76.44-.23.1-.49.18-.79.23-.3.05-.6.08-.91.08-.31,0-.62-.01-.92-.06-.3-.04-.57-.12-.8-.22-.66-.28-1.19-.66-1.6-1.13-.41-.48-.72-1.07-.95-1.78-.05-.11-.09-.23-.1-.35-.02-.12-.05-.24-.09-.37-.01-.06-.02-.13-.02-.19s0-.13-.02-.19c-.03-.06-.04-.13-.03-.2,0-.07,0-.14,0-.2v-.19c-.03-.06-.04-.15-.04-.25s.01-.18.04-.25v-.21c.03-.09.04-.18.03-.28,0-.09,0-.19.03-.28.01-.06.02-.12.02-.17s0-.11.02-.17c.04-.13.07-.25.09-.37.03-.12.06-.24.09-.35.17-.48.38-.92.64-1.3.26-.39.57-.71.94-.96.21-.15.44-.28.67-.38s.49-.19.77-.27c.09-.01.17-.02.26-.04.08-.01.17-.03.26-.06h.19c.1-.03.25-.04.45-.04s.34.01.45.04c.05.01.12.02.21.02.14.04.28.07.42.08.14.02.27.06.4.12.19.08.37.16.54.25.17.09.33.19.48.3.08.06.16.13.24.2.08.07.19.09.33.07.03-.04.05-.07.07-.09s.04-.06.05-.11c.04-.11.05-.26.05-.44,0-.18,0-.34,0-.48v-2.78c0-.22.03-.38.09-.48.05-.09.13-.15.23-.17.03,0,.06,0,.1,0,.04,0,.07,0,.09,0,.18-.01.36-.02.56,0,.2,0,.33.06.41.16.06.1.09.23.09.38v11.95ZM222.87,27.89c.03-.06.04-.15.04-.26s-.01-.19-.04-.26v-.28c-.03-.11-.04-.23-.06-.35s-.04-.23-.08-.33c-.03-.1-.05-.2-.07-.29-.02-.09-.05-.18-.08-.27-.15-.38-.35-.72-.59-1.01-.24-.29-.54-.52-.91-.68-.13-.06-.26-.11-.39-.14-.13-.03-.28-.06-.43-.08-.1-.03-.21-.04-.33-.04h-.35c-.06.01-.12.02-.17.03-.05,0-.11,0-.17,0-.1.03-.21.05-.31.08s-.21.06-.31.09c-.41.18-.73.43-.98.77s-.45.73-.6,1.17c-.05.14-.08.28-.1.43-.02.15-.04.29-.07.43,0,.05,0,.1,0,.14,0,.04,0,.09,0,.14-.03.06-.04.13-.03.21,0,.08,0,.15,0,.21v.41c0,.13.01.26.04.37.01.04.02.1.02.19.03.09.05.18.07.27.02.09.04.18.07.27.14.44.33.82.57,1.14.24.32.54.58.91.78.11.06.23.11.34.15s.24.08.38.11c.06.03.13.03.2.02s.14,0,.2.02c.05.01.1.02.16.02h.33s.1-.02.19-.02c.1-.03.2-.05.3-.07.1-.02.2-.05.29-.08.42-.18.76-.4,1.02-.67s.48-.62.66-1.04c.06-.14.11-.28.13-.42.03-.14.06-.28.1-.42.02-.05.04-.1.04-.14s0-.09.02-.14c.01-.08.02-.15,0-.23,0-.08,0-.15,0-.23Z"/>
          <path class="cls-1" d="M235.68,31.48v.48c0,.16-.03.29-.09.39-.06.09-.17.14-.31.14s-.29,0-.45,0c-.08,0-.15,0-.22,0-.07,0-.13,0-.18-.03-.11-.03-.19-.08-.23-.15-.05-.06-.08-.14-.09-.23,0-.09-.03-.18-.07-.27-.01-.03-.03-.05-.05-.07-.02-.02-.04-.04-.07-.07-.13-.01-.22.01-.29.08-.07.06-.14.13-.22.19-.25.19-.51.34-.76.44-.23.1-.49.18-.79.23-.3.05-.6.08-.91.08-.31,0-.62-.01-.92-.06-.3-.04-.57-.12-.8-.22-.66-.28-1.19-.66-1.6-1.13-.41-.48-.72-1.07-.95-1.78-.05-.11-.09-.23-.1-.35-.02-.12-.05-.24-.09-.37-.01-.06-.02-.13-.02-.19s0-.13-.02-.19c-.03-.06-.04-.13-.03-.2,0-.07,0-.14,0-.2v-.19c-.03-.06-.04-.15-.04-.25s.01-.18.04-.25v-.21c.03-.09.04-.18.03-.28,0-.09,0-.19.03-.28.01-.06.02-.12.02-.17s0-.11.02-.17c.04-.13.07-.25.09-.37.03-.12.06-.24.09-.35.17-.48.38-.92.64-1.3.26-.39.57-.71.94-.96.21-.15.44-.28.67-.38s.49-.19.77-.27c.09-.01.17-.02.26-.04.08-.01.17-.03.26-.06h.19c.1-.03.25-.04.45-.04s.34.01.45.04c.05.01.12.02.21.02.14.04.28.07.42.08.14.02.27.06.4.12.19.08.37.16.54.25.17.09.33.19.48.3.08.06.16.13.24.2.08.07.19.09.33.07.03-.04.05-.07.07-.09s.04-.06.05-.11c.04-.11.05-.26.05-.44,0-.18,0-.34,0-.48v-2.78c0-.22.03-.38.09-.48.05-.09.13-.15.23-.17.03,0,.06,0,.1,0,.04,0,.07,0,.09,0,.18-.01.36-.02.56,0,.2,0,.33.06.41.16.06.1.09.23.09.38v11.95ZM234.14,27.89c.03-.06.04-.15.04-.26s-.01-.19-.04-.26v-.28c-.03-.11-.04-.23-.06-.35s-.04-.23-.08-.33c-.03-.1-.05-.2-.07-.29-.02-.09-.05-.18-.08-.27-.15-.38-.35-.72-.59-1.01-.24-.29-.54-.52-.91-.68-.13-.06-.26-.11-.39-.14-.13-.03-.28-.06-.43-.08-.1-.03-.21-.04-.33-.04h-.35c-.06.01-.12.02-.17.03-.05,0-.11,0-.17,0-.1.03-.21.05-.31.08s-.21.06-.31.09c-.41.18-.73.43-.98.77s-.45.73-.6,1.17c-.05.14-.08.28-.1.43-.02.15-.04.29-.07.43,0,.05,0,.1,0,.14,0,.04,0,.09,0,.14-.03.06-.04.13-.03.21,0,.08,0,.15,0,.21v.41c0,.13.01.26.04.37.01.04.02.1.02.19.03.09.05.18.07.27.02.09.04.18.07.27.14.44.33.82.57,1.14.24.32.54.58.91.78.11.06.23.11.34.15s.24.08.38.11c.06.03.13.03.2.02s.14,0,.2.02c.05.01.1.02.16.02h.33s.1-.02.19-.02c.1-.03.2-.05.3-.07.1-.02.2-.05.29-.08.42-.18.76-.4,1.02-.67s.48-.62.66-1.04c.06-.14.11-.28.13-.42.03-.14.06-.28.1-.42.02-.05.04-.1.04-.14s0-.09.02-.14c.01-.08.02-.15,0-.23,0-.08,0-.15,0-.23Z"/>
          <path class="cls-1" d="M246.68,27.22c.03.13.03.27,0,.43-.02.16-.06.27-.12.33-.06.05-.16.09-.28.1s-.26.03-.41.03-.3,0-.46,0c-.15,0-.29,0-.4,0h-4.86c-.1,0-.2,0-.3,0-.1,0-.18.03-.25.07-.05.03-.1.08-.15.15-.03.04-.05.09-.08.16-.03.07-.03.14,0,.2.01.06.02.12.02.17s0,.1.02.15c.03.1.05.21.08.31.02.11.06.21.11.31.29.68.77,1.17,1.44,1.46.08.04.16.07.25.09s.18.05.27.08c.04.01.1.02.19.02.18.05.41.08.7.08s.53-.03.7-.08c.18-.05.34-.1.48-.16s.28-.13.41-.22c.14-.09.26-.19.36-.31.1-.12.19-.25.27-.39.08-.13.14-.26.2-.4.06-.14.16-.24.29-.3.05-.02.13-.04.25-.06s.23-.02.34,0c.11,0,.22.02.32.03s.17.04.21.08c.13.09.16.24.09.44-.1.34-.23.65-.4.91-.25.41-.54.74-.87,1-.32.26-.73.47-1.23.64-.13.05-.25.09-.38.1-.13.02-.26.04-.4.07-.06.01-.12.02-.18.02s-.12,0-.18.02h-.19c-.06.01-.14.02-.22.02s-.15,0-.2-.02h-.17c-.06-.01-.12-.02-.17-.02s-.1,0-.15-.02c-.06-.01-.13-.02-.21-.03-.08,0-.15-.02-.21-.03-.11-.03-.23-.05-.34-.09-.11-.03-.22-.07-.32-.1-.05-.03-.1-.04-.13-.05-.04,0-.08-.02-.13-.05-.19-.09-.39-.2-.61-.32-.37-.24-.68-.54-.94-.88-.26-.35-.48-.74-.66-1.17-.06-.14-.11-.29-.14-.44-.03-.15-.07-.3-.12-.46-.01-.05-.02-.09-.02-.13s0-.09-.02-.15c-.03-.1-.04-.21-.06-.32-.01-.11-.03-.23-.06-.34v-.27s-.02-.12-.03-.22c0-.1,0-.17,0-.24v-.21c.03-.06.03-.13.03-.2,0-.07,0-.14,0-.2.05-.2.09-.41.12-.61.03-.2.09-.39.16-.57.06-.14.12-.28.18-.43.06-.15.12-.29.2-.43.28-.44.59-.83.95-1.15.35-.32.79-.59,1.31-.81.15-.06.31-.11.47-.14.16-.03.33-.07.5-.1.06-.01.12-.02.17-.03s.11,0,.17,0c.03-.01.06-.01.1,0s.07,0,.09-.02c.53-.01.99.04,1.39.16s.75.28,1.06.48c.06.03.11.06.15.1.04.04.08.08.13.1.1.08.21.17.31.27.11.1.2.2.28.3.2.27.37.52.51.76.09.14.16.29.21.46.05.17.11.33.17.49.06.17.11.34.14.51.03.18.07.36.12.53.01.09.02.18.03.27,0,.09.02.18.03.27ZM244.84,26.58s.07-.12.09-.2.03-.17,0-.26c-.08-.28-.18-.54-.32-.78-.18-.29-.37-.54-.59-.74s-.49-.37-.84-.51c-.09-.03-.18-.05-.27-.07-.09-.02-.18-.04-.29-.07-.1-.02-.21-.04-.32-.04h-.32s-.08.04-.13.03c-.05,0-.09,0-.13,0-.1.03-.2.05-.29.07-.09.02-.19.04-.28.07-.37.15-.66.34-.88.57-.22.23-.42.51-.6.86-.04.06-.08.14-.11.24s-.07.2-.09.31-.03.22-.02.32.06.18.13.23c.1.08.28.11.52.1.25,0,.46,0,.64,0h2.89c.19,0,.42,0,.68,0,.27,0,.44-.04.53-.14Z"/>
          <path class="cls-1" d="M253.01,22.53c.8-.03,1.44.08,1.92.32s.87.6,1.16,1.08c.08.13.14.26.18.41.04.15.08.29.12.45.06.24.1.5.11.78.01.28.02.56.02.86v5c0,.21,0,.43,0,.65,0,.22-.09.35-.26.42-.06.03-.13.04-.2.05-.07,0-.14,0-.22,0-.17,0-.32,0-.47,0-.15,0-.26-.06-.32-.16-.06-.09-.09-.2-.09-.34v-5.15c0-.34,0-.68-.02-1.02-.01-.34-.07-.62-.17-.87-.1-.25-.25-.46-.46-.62-.2-.16-.44-.28-.7-.37-.08-.03-.16-.04-.24-.05-.08,0-.16-.02-.24-.05-.06-.01-.16-.02-.29,0-.13,0-.22.02-.28.03-.05.03-.09.04-.13.03-.04,0-.08,0-.13,0-.17.04-.32.08-.47.12-.15.04-.28.1-.41.18-.05.03-.1.05-.13.08-.04.03-.08.05-.13.08-.44.32-.77.79-.97,1.42-.04.1-.06.21-.08.31s-.03.21-.06.31c-.03.06-.03.12-.02.18.01.06,0,.11-.02.16v.4s-.02.08,0,.13c0,.05,0,.11,0,.17v4.49c0,.15-.03.26-.09.35-.06.1-.17.16-.33.16-.16,0-.32,0-.48,0-.1,0-.2,0-.29-.02s-.17-.04-.23-.09c-.1-.06-.15-.18-.15-.36v-8.85c0-.11.03-.2.08-.27.04-.08.1-.13.19-.15.05-.01.12-.03.22-.04.1-.01.19-.02.29-.02s.2,0,.29.02c.1.01.16.03.2.06.14.09.2.2.19.33-.01.13,0,.28.06.45.02.08.08.14.15.19.15.01.28-.04.37-.17.09-.13.19-.23.29-.3.18-.13.36-.24.54-.35s.4-.2.64-.28c.1-.04.21-.06.33-.08s.24-.03.35-.06c.06-.01.13-.02.19-.02h.19Z"/>
          <path class="cls-1" d="M268.85,22.49c.48-.01.89.04,1.23.15.33.11.64.28.92.49.1.06.19.15.26.26.07.11.15.21.24.29.03.03.06.06.11.09s.11.05.19.04c.13-.04.24-.12.33-.24s.19-.21.29-.28c.18-.14.36-.26.55-.37.19-.11.4-.2.63-.28.1-.04.21-.07.33-.08.12-.02.24-.04.35-.07.06-.01.12-.02.18-.02h.18c.06-.03.15-.03.27-.03.11,0,.2.02.25.03.06.01.16.02.29.02.11.03.22.05.33.07.11.02.21.05.31.08.06.03.12.04.18.05.06,0,.12.02.18.05.63.28,1.07.71,1.31,1.29.05.1.09.21.11.33.02.12.05.25.08.39.03.04.04.08.03.12,0,.04,0,.09,0,.12v.17c.01.05.02.11,0,.17,0,.06,0,.13,0,.19v5.57c0,.2,0,.44,0,.72,0,.28-.05.46-.16.55-.05.04-.13.07-.25.08-.11.02-.23.03-.36.03s-.25,0-.37-.02c-.12-.01-.21-.04-.26-.08-.08-.04-.13-.11-.15-.23-.03-.08-.03-.16-.02-.24.01-.08,0-.16-.02-.24-.01-.06-.02-.14,0-.22,0-.08,0-.16,0-.24v-4.48c0-.42,0-.81-.03-1.19-.02-.37-.11-.69-.28-.94-.19-.3-.48-.53-.87-.67-.08-.03-.16-.04-.24-.05-.08,0-.17-.02-.26-.05-.05-.01-.13-.02-.25,0-.11,0-.19.02-.23.03-.06.01-.13.02-.19,0-.06,0-.13,0-.19.03-.18.04-.35.09-.51.15-.66.28-1.1.77-1.33,1.46-.06.21-.1.46-.1.74,0,.28,0,.56,0,.86v4.8c0,.16-.03.28-.09.37-.06.1-.17.16-.32.17-.15.01-.31.02-.48.02-.21,0-.37-.03-.47-.08-.11-.06-.18-.17-.2-.31-.02-.15-.03-.31-.03-.48v-4.94c0-.41-.01-.78-.04-1.13-.03-.35-.11-.65-.27-.9-.14-.23-.3-.4-.47-.5-.18-.11-.42-.19-.72-.26-.05-.01-.1-.02-.16-.02h-.18c-.28,0-.52.03-.73.09s-.4.15-.56.25c-.65.39-1.08.98-1.29,1.77-.05.17-.07.35-.07.56,0,.21,0,.42,0,.62v4.75c0,.18-.04.32-.11.42-.06.09-.16.14-.29.15-.13.01-.26.02-.4.02h-.29c-.08-.03-.15-.04-.22-.06s-.13-.05-.18-.11c-.06-.08-.09-.17-.09-.29v-8.83c0-.12.03-.22.08-.29.04-.08.09-.13.17-.15.1-.04.26-.06.48-.06s.38.02.48.06c.1.05.17.11.21.19.03.06.04.14.05.23,0,.09.02.17.03.25.01.08.04.14.08.19s.1.08.19.08c.02-.03.05-.04.08-.04s.06-.01.09-.04c.08-.06.15-.13.22-.19s.14-.13.22-.19c.28-.2.6-.38.95-.53.13-.05.25-.08.38-.1.13-.02.26-.05.4-.08.08,0,.15,0,.24,0,.08,0,.16,0,.24,0Z"/>
          <path class="cls-1" d="M288.94,27.22c.03.13.03.27,0,.43-.02.16-.06.27-.12.33-.06.05-.16.09-.28.1s-.26.03-.41.03-.3,0-.46,0c-.15,0-.29,0-.4,0h-4.86c-.1,0-.2,0-.3,0-.1,0-.18.03-.25.07-.05.03-.1.08-.15.15-.03.04-.05.09-.08.16-.03.07-.03.14,0,.2.01.06.02.12.02.17s0,.1.02.15c.03.1.05.21.08.31.02.11.06.21.11.31.29.68.77,1.17,1.44,1.46.08.04.16.07.25.09s.18.05.27.08c.04.01.1.02.19.02.18.05.41.08.7.08s.53-.03.7-.08c.18-.05.34-.1.48-.16s.28-.13.41-.22c.14-.09.26-.19.36-.31.1-.12.19-.25.27-.39.08-.13.14-.26.2-.4.06-.14.16-.24.29-.3.05-.02.13-.04.25-.06s.23-.02.34,0c.11,0,.22.02.32.03s.17.04.21.08c.13.09.16.24.09.44-.1.34-.23.65-.4.91-.25.41-.54.74-.87,1-.32.26-.73.47-1.23.64-.13.05-.25.09-.38.1-.13.02-.26.04-.4.07-.06.01-.12.02-.18.02s-.12,0-.18.02h-.19c-.06.01-.14.02-.22.02s-.15,0-.2-.02h-.17c-.06-.01-.12-.02-.17-.02s-.1,0-.15-.02c-.06-.01-.13-.02-.21-.03-.08,0-.15-.02-.21-.03-.11-.03-.23-.05-.34-.09-.11-.03-.22-.07-.32-.1-.05-.03-.1-.04-.13-.05-.04,0-.08-.02-.13-.05-.19-.09-.39-.2-.61-.32-.37-.24-.68-.54-.94-.88-.26-.35-.48-.74-.66-1.17-.06-.14-.11-.29-.14-.44-.03-.15-.07-.3-.12-.46-.01-.05-.02-.09-.02-.13s0-.09-.02-.15c-.03-.1-.04-.21-.06-.32-.01-.11-.03-.23-.06-.34v-.27s-.02-.12-.03-.22c0-.1,0-.17,0-.24v-.21c.03-.06.03-.13.03-.2,0-.07,0-.14,0-.2.05-.2.09-.41.12-.61.03-.2.09-.39.16-.57.06-.14.12-.28.18-.43.06-.15.12-.29.2-.43.28-.44.59-.83.95-1.15.35-.32.79-.59,1.31-.81.15-.06.31-.11.47-.14.16-.03.33-.07.5-.1.06-.01.12-.02.17-.03s.11,0,.17,0c.03-.01.06-.01.1,0s.07,0,.09-.02c.53-.01.99.04,1.39.16s.75.28,1.06.48c.06.03.11.06.15.1.04.04.08.08.13.1.1.08.21.17.31.27.11.1.2.2.28.3.2.27.37.52.51.76.09.14.16.29.21.46.05.17.11.33.17.49.06.17.11.34.14.51.03.18.07.36.12.53.01.09.02.18.03.27,0,.09.02.18.03.27ZM287.09,26.58s.07-.12.09-.2.03-.17,0-.26c-.08-.28-.18-.54-.32-.78-.18-.29-.37-.54-.59-.74s-.49-.37-.84-.51c-.09-.03-.18-.05-.27-.07-.09-.02-.18-.04-.29-.07-.1-.02-.21-.04-.32-.04h-.32s-.08.04-.13.03c-.05,0-.09,0-.13,0-.1.03-.2.05-.29.07-.09.02-.19.04-.28.07-.37.15-.66.34-.88.57-.22.23-.42.51-.6.86-.04.06-.08.14-.11.24s-.07.2-.09.31-.03.22-.02.32.06.18.13.23c.1.08.28.11.52.1.25,0,.46,0,.64,0h2.89c.19,0,.42,0,.68,0,.27,0,.44-.04.53-.14Z"/>
          <path class="cls-1" d="M293.67,22.49c.91-.01,1.68.09,2.3.31.62.22,1.1.61,1.44,1.17.09.14.16.28.21.43.05.15.1.31.15.48.03.09.03.18.02.28-.01.09-.03.17-.06.22-.03.03-.06.05-.09.07-.04.02-.07.04-.09.07-.06.03-.13.03-.19.02s-.13-.01-.19,0c-.1.03-.24.03-.4,0-.17-.02-.28-.05-.34-.09-.1-.06-.17-.15-.2-.26-.03-.11-.08-.21-.14-.31-.11-.2-.27-.39-.48-.55-.14-.1-.29-.18-.46-.23-.16-.05-.34-.1-.53-.15-.06-.02-.13-.03-.19-.03-.06,0-.13,0-.19,0-.08-.02-.17-.04-.28-.04s-.21.01-.29.04h-.11c-.06.01-.13.02-.19.03-.06,0-.13.02-.19.03-.33.08-.6.18-.82.32-.21.14-.36.37-.44.7-.03.09-.03.18,0,.27s.04.17.07.23c.08.19.17.33.28.41.11.08.24.17.41.28.2.13.43.22.68.28.25.06.51.12.76.2.17.05.33.09.49.11.16.03.33.06.49.11.27.08.53.15.78.22.25.07.51.16.76.26.06.03.13.05.19.08s.13.06.19.09c.25.15.47.32.67.51.19.19.35.43.47.72.03.09.05.21.08.36.03.09.04.18.05.28,0,.1,0,.2,0,.31v.19c-.03.09-.04.18-.04.27s-.01.18-.04.27c-.04.14-.08.27-.13.4-.05.13-.11.24-.17.34-.2.33-.46.59-.78.79-.32.2-.67.36-1.06.5-.11.04-.23.07-.35.08-.12.02-.24.05-.35.09-.13.03-.25.04-.38.04s-.25.01-.38.04h-.19c-.06.01-.15.02-.27.02s-.2,0-.27-.02h-.21c-.08-.03-.16-.04-.25-.03-.09,0-.17,0-.23-.03-.06-.01-.15-.02-.25-.02-.1-.03-.2-.05-.29-.07-.09-.02-.19-.05-.29-.09-.39-.13-.73-.29-1.03-.47-.29-.19-.54-.44-.76-.74-.11-.17-.21-.34-.28-.51-.08-.18-.15-.37-.21-.59-.03-.08-.04-.17-.03-.28,0-.11.02-.19.05-.26.04-.05.1-.1.19-.15.06-.03.15-.04.27-.05.11,0,.23,0,.34,0s.22.03.33.05c.11.02.18.04.22.07.09.06.15.16.18.28s.07.23.12.33c.13.28.3.49.51.65.15.11.32.2.51.27.19.06.39.13.61.19l.4.06h.11c.09.03.21.04.35.04s.27-.01.37-.04c.09,0,.16,0,.21-.02.08-.01.15-.02.23-.03.08,0,.15-.02.21-.03.37-.1.66-.23.87-.4.21-.17.37-.44.46-.84.03-.06.03-.13.02-.21s-.03-.13-.04-.17c-.06-.24-.15-.42-.27-.54-.11-.12-.26-.23-.44-.33-.11-.08-.24-.14-.38-.19-.14-.05-.28-.1-.42-.15-.04-.01-.07-.02-.1-.02s-.07-.01-.1-.04c-.43-.14-.88-.24-1.34-.31-.46-.07-.9-.19-1.3-.35-.13-.05-.25-.09-.36-.13-.11-.04-.22-.09-.32-.15-.24-.14-.46-.3-.67-.47-.2-.18-.36-.4-.48-.67-.04-.09-.07-.18-.08-.27-.02-.09-.04-.18-.07-.29-.04-.15-.05-.33-.04-.52.01-.2.03-.36.06-.5.03-.06.04-.12.05-.16,0-.04.02-.09.05-.14.11-.29.27-.54.47-.76.2-.22.42-.41.67-.57.19-.11.4-.21.63-.28.23-.07.47-.14.72-.2.09-.01.17-.03.26-.04.08-.01.17-.03.28-.04.04-.01.09-.01.15,0s.11,0,.13-.02Z"/>
          <path class="cls-1" d="M303.17,22.49c.91-.01,1.68.09,2.3.31.62.22,1.1.61,1.44,1.17.09.14.16.28.21.43.05.15.1.31.15.48.03.09.03.18.02.28-.01.09-.03.17-.06.22-.03.03-.06.05-.09.07-.04.02-.07.04-.09.07-.06.03-.13.03-.19.02s-.13-.01-.19,0c-.1.03-.24.03-.4,0-.17-.02-.28-.05-.34-.09-.1-.06-.17-.15-.2-.26-.03-.11-.08-.21-.14-.31-.11-.2-.27-.39-.48-.55-.14-.1-.29-.18-.46-.23-.16-.05-.34-.1-.53-.15-.06-.02-.13-.03-.19-.03-.06,0-.13,0-.19,0-.08-.02-.17-.04-.28-.04s-.21.01-.29.04h-.11c-.06.01-.13.02-.19.03-.06,0-.13.02-.19.03-.33.08-.6.18-.82.32-.21.14-.36.37-.44.7-.03.09-.03.18,0,.27s.04.17.07.23c.08.19.17.33.28.41.11.08.24.17.41.28.2.13.43.22.68.28.25.06.51.12.76.2.17.05.33.09.49.11.16.03.33.06.49.11.27.08.53.15.78.22.25.07.51.16.76.26.06.03.13.05.19.08s.13.06.19.09c.25.15.47.32.67.51.19.19.35.43.47.72.03.09.05.21.08.36.03.09.04.18.05.28,0,.1,0,.2,0,.31v.19c-.03.09-.04.18-.04.27s-.01.18-.04.27c-.04.14-.08.27-.13.4-.05.13-.11.24-.17.34-.2.33-.46.59-.78.79-.32.2-.67.36-1.06.5-.11.04-.23.07-.35.08-.12.02-.24.05-.35.09-.13.03-.25.04-.38.04s-.25.01-.38.04h-.19c-.06.01-.15.02-.27.02s-.2,0-.27-.02h-.21c-.08-.03-.16-.04-.25-.03-.09,0-.17,0-.23-.03-.06-.01-.15-.02-.25-.02-.1-.03-.2-.05-.29-.07-.09-.02-.19-.05-.29-.09-.39-.13-.73-.29-1.03-.47-.29-.19-.54-.44-.76-.74-.11-.17-.21-.34-.28-.51-.08-.18-.15-.37-.21-.59-.03-.08-.04-.17-.03-.28,0-.11.02-.19.05-.26.04-.05.1-.1.19-.15.06-.03.15-.04.27-.05.11,0,.23,0,.34,0s.22.03.33.05c.11.02.18.04.22.07.09.06.15.16.18.28s.07.23.12.33c.13.28.3.49.51.65.15.11.32.2.51.27.19.06.39.13.61.19l.4.06h.11c.09.03.21.04.35.04s.27-.01.37-.04c.09,0,.16,0,.21-.02.08-.01.15-.02.23-.03.08,0,.15-.02.21-.03.37-.1.66-.23.87-.4.21-.17.37-.44.46-.84.03-.06.03-.13.02-.21s-.03-.13-.04-.17c-.06-.24-.15-.42-.27-.54-.11-.12-.26-.23-.44-.33-.11-.08-.24-.14-.38-.19-.14-.05-.28-.1-.42-.15-.04-.01-.07-.02-.1-.02s-.07-.01-.1-.04c-.43-.14-.88-.24-1.34-.31-.46-.07-.9-.19-1.3-.35-.13-.05-.25-.09-.36-.13-.11-.04-.22-.09-.32-.15-.24-.14-.46-.3-.67-.47-.2-.18-.36-.4-.48-.67-.04-.09-.07-.18-.08-.27-.02-.09-.04-.18-.07-.29-.04-.15-.05-.33-.04-.52.01-.2.03-.36.06-.5.03-.06.04-.12.05-.16,0-.04.02-.09.05-.14.11-.29.27-.54.47-.76.2-.22.42-.41.67-.57.19-.11.4-.21.63-.28.23-.07.47-.14.72-.2.09-.01.17-.03.26-.04.08-.01.17-.03.28-.04.04-.01.09-.01.15,0s.11,0,.13-.02Z"/>
          <path class="cls-1" d="M318.31,31.8c.04.2.02.37-.06.5s-.18.23-.3.29c-.06.03-.13.04-.2.04s-.14.01-.22.04c-.28.06-.55.05-.83-.05s-.46-.21-.56-.35c-.06-.09-.12-.19-.17-.31s-.11-.22-.19-.29c-.03-.02-.05-.05-.08-.08-.03-.03-.07-.03-.12-.02-.14.04-.27.11-.39.21-.12.1-.24.19-.35.27-.17.1-.34.19-.53.28-.19.08-.39.16-.61.22-.13.04-.26.06-.41.08s-.29.03-.43.06c-.06.01-.12.02-.16.02h-.14c-.14.03-.27.03-.4,0h-.17c-.06-.01-.13-.02-.19-.02s-.12-.01-.17-.04c-.05-.01-.09-.02-.12,0-.03,0-.07,0-.1,0-.1-.03-.2-.05-.3-.07-.1-.02-.2-.05-.29-.08-.38-.17-.69-.35-.92-.56s-.43-.5-.58-.88c-.11-.28-.17-.61-.17-1.01v-.4c.01-.06.02-.13.03-.2,0-.07.02-.14.03-.22.05-.14.1-.28.15-.42.05-.14.11-.27.19-.38.23-.37.54-.64.93-.82.39-.18.82-.33,1.29-.47.18-.05.36-.09.55-.11s.38-.06.57-.09c.09-.03.17-.04.26-.04s.17-.01.28-.04c.09-.03.18-.04.27-.05.09,0,.18-.02.29-.05.32-.08.61-.14.89-.2.28-.06.5-.2.67-.43.08-.1.14-.23.19-.39.05-.16.05-.33,0-.52-.08-.3-.19-.54-.33-.72-.15-.18-.35-.32-.62-.42-.15-.06-.33-.11-.54-.13-.21-.02-.43-.04-.66-.04s-.45.01-.67.04c-.22.03-.4.06-.55.11-.22.08-.42.18-.63.32-.1.08-.19.17-.28.29-.08.12-.16.25-.22.39-.04.1-.07.21-.1.32-.03.11-.09.2-.18.27-.05.04-.14.07-.26.09-.12.02-.24.03-.37.03s-.25,0-.37-.03c-.12-.02-.21-.05-.26-.09-.05-.04-.09-.1-.11-.19s-.03-.18,0-.29c.04-.16.08-.32.12-.47.04-.15.1-.29.16-.43.24-.44.54-.79.91-1.04s.82-.45,1.37-.6c.13-.02.26-.04.39-.06s.27-.03.41-.06c.05-.01.13-.02.25,0,.11,0,.18,0,.21-.03.89-.01,1.66.09,2.32.3.66.22,1.12.63,1.39,1.24.11.25.18.55.2.88.02.34.03.69.03,1.05v4.2c0,.18,0,.35.02.51.01.17.05.3.11.4.06.09.15.15.25.19.11.05.22.09.32.1.1.02.18.08.23.18.03.04.04.08.04.11s0,.09.02.15ZM315.59,29.69c.08-.18.12-.38.12-.62,0-.23,0-.48,0-.73,0-.14,0-.27-.02-.38-.01-.11-.06-.2-.15-.27-.04-.03-.13-.04-.27-.04-.03.03-.07.04-.13.04s-.12.01-.17.04c-.1.03-.21.05-.34.08s-.25.05-.38.08c-.04,0-.08,0-.12,0-.04,0-.09,0-.14,0-.19.05-.4.08-.62.09-.22,0-.43.04-.62.08-.1.03-.19.05-.28.07-.08.02-.17.04-.28.07-.2.06-.39.14-.57.24-.18.09-.33.21-.46.35s-.22.31-.29.5-.09.43-.08.71c0,.13.02.24.07.35.04.11.1.21.16.29.1.14.23.26.4.35.16.1.34.17.53.24.06.01.13.02.19.02s.13,0,.19.02c.09.03.2.04.33.05.13,0,.24,0,.33-.03.08-.03.15-.04.23-.03.08,0,.15,0,.23-.03.1-.02.2-.04.29-.06s.19-.04.28-.08c.37-.15.68-.33.94-.55.26-.21.46-.51.6-.87Z"/>
          <path class="cls-1" d="M328.17,22.85c.09.06.14.16.14.29,0,.13,0,.26,0,.4v8.7c-.03.06-.03.12-.02.18s0,.12-.02.18c-.03.13-.04.26-.05.39,0,.13-.03.26-.07.39-.04.14-.07.27-.1.4-.03.13-.08.25-.14.38-.13.33-.29.63-.48.89-.2.27-.43.49-.69.67-.22.15-.44.28-.68.37-.24.09-.5.19-.78.28-.11.03-.23.04-.34.05-.11,0-.23.02-.34.05-.04,0-.07,0-.1,0s-.06,0-.08,0c-.06.01-.12.01-.18,0-.06-.01-.12,0-.18.02-.09.03-.22.04-.41.03-.18,0-.31-.02-.39-.05-.04,0-.07,0-.1,0-.03,0-.06,0-.09,0-.11-.03-.23-.04-.34-.05-.11,0-.22-.02-.32-.05s-.2-.05-.3-.08c-.1-.03-.2-.07-.3-.1-.41-.17-.74-.35-1.02-.55-.27-.2-.52-.49-.73-.85-.03-.03-.04-.05-.05-.09,0-.03-.02-.07-.05-.1-.04-.1-.08-.24-.12-.43-.04-.18,0-.32.1-.41.08-.06.18-.09.31-.09h.63c.07,0,.14.01.2.04.11.04.2.1.25.19s.11.18.17.29c.05.08.1.16.16.24.06.08.12.15.18.2.32.24.7.42,1.14.53.08.03.16.04.24.05.08,0,.16.02.24.05h.11c.09.03.2.04.32.04s.24-.01.34-.04c.04-.01.09-.02.15-.02.13-.03.25-.05.36-.07.11-.02.22-.05.32-.1.37-.15.67-.36.9-.62s.43-.57.58-.94c.05-.11.08-.23.1-.36.02-.13.05-.26.08-.4.03-.06.04-.13.04-.19s0-.13.02-.19c.01-.04.02-.1.02-.19.03-.1.03-.21,0-.32-.01-.06-.02-.12,0-.17,0-.05,0-.09-.03-.13-.03-.03-.04-.04-.06-.05-.01,0-.03-.02-.06-.05-.13,0-.22.03-.28.1-.06.07-.12.13-.2.18-.1.09-.2.17-.3.26-.1.08-.22.16-.34.22-.18.11-.4.21-.67.28-.27.07-.54.12-.84.14-.29.03-.58.02-.87,0-.29-.03-.56-.08-.8-.16-1.19-.39-2.03-1.15-2.51-2.26-.06-.13-.11-.25-.15-.37-.04-.12-.08-.25-.13-.39-.03-.06-.04-.12-.04-.17s-.01-.11-.04-.17c-.03-.09-.04-.18-.05-.28,0-.09-.02-.19-.05-.28-.01-.05-.02-.1,0-.14,0-.04,0-.09,0-.14,0-.05,0-.1,0-.15,0-.05,0-.1,0-.15-.03-.15-.03-.31,0-.48.01-.08.02-.15.02-.23v-.21c.01-.06.02-.12.02-.16s0-.1.02-.16c.04-.14.06-.28.08-.41.01-.13.04-.27.09-.41.05-.15.1-.3.14-.45.04-.15.1-.29.16-.43.09-.2.19-.39.3-.56.11-.17.23-.34.36-.5.09-.14.2-.25.34-.34l.08-.08.08-.08c.06-.05.13-.1.2-.15.07-.05.14-.1.22-.15.16-.1.34-.19.52-.27.18-.08.38-.15.6-.21.13-.04.26-.06.39-.08s.27-.03.41-.06c.05-.01.12-.01.2,0s.14,0,.18-.02c.41-.01.77.03,1.09.11.32.09.61.22.86.38.09.05.17.11.25.17s.15.13.23.19c.06.05.12.1.18.16.06.06.15.08.28.08.03-.03.05-.05.07-.07.02-.02.04-.05.07-.09.04-.1.06-.2.07-.3,0-.1.04-.19.1-.27.04-.05.11-.09.23-.12.11-.03.23-.05.36-.05s.25.01.37.04.21.06.26.09ZM326.75,27.64c.01-.05.02-.12.02-.2s0-.15-.02-.2v-.3c-.03-.11-.04-.22-.06-.33-.01-.11-.03-.21-.06-.31-.03-.1-.05-.2-.07-.29-.02-.09-.05-.19-.09-.28-.14-.35-.32-.67-.54-.95s-.5-.49-.85-.63c-.1-.05-.21-.09-.32-.12-.11-.03-.23-.06-.36-.08-.1-.03-.21-.04-.33-.03-.12,0-.24,0-.35,0-.06.01-.12.02-.18.02s-.12,0-.18.02c-.24.06-.44.13-.61.19-.43.18-.77.44-1.01.8-.24.35-.43.77-.57,1.24-.03.1-.04.2-.05.29,0,.1-.02.19-.05.29-.03.04-.04.08-.03.13,0,.05,0,.09,0,.13v.85c0,.15.01.28.04.41,0,.03,0,.06,0,.1,0,.04,0,.07,0,.09.03.11.05.23.07.34.02.11.05.22.09.32.1.33.23.63.38.91s.35.51.61.68c.05.04.1.07.15.1.05.03.11.06.17.09.1.06.21.11.32.15s.24.08.38.11c.06.01.12.02.18,0,.06,0,.12,0,.18.03.04.01.1.02.19.02s.15,0,.19-.02.08-.02.12,0c.04,0,.09,0,.14,0,.11-.03.22-.05.32-.08s.2-.06.3-.1c.43-.19.77-.46,1.03-.8.25-.34.46-.74.61-1.2.04-.11.07-.23.08-.35.02-.12.04-.24.07-.35.01-.05.02-.1.02-.14s0-.09.02-.14c.03-.06.03-.13,0-.2-.02-.07-.02-.14,0-.22Z"/>
          <path class="cls-1" d="M339.25,27.22c.03.13.03.27,0,.43-.02.16-.06.27-.12.33-.06.05-.16.09-.28.1s-.26.03-.41.03-.3,0-.46,0c-.15,0-.29,0-.4,0h-4.86c-.1,0-.2,0-.3,0-.1,0-.18.03-.25.07-.05.03-.1.08-.15.15-.03.04-.05.09-.08.16-.03.07-.03.14,0,.2.01.06.02.12.02.17s0,.1.02.15c.03.1.05.21.08.31.02.11.06.21.11.31.29.68.77,1.17,1.44,1.46.08.04.16.07.25.09s.18.05.27.08c.04.01.1.02.19.02.18.05.41.08.7.08s.53-.03.7-.08c.18-.05.34-.1.48-.16s.28-.13.41-.22c.14-.09.26-.19.36-.31.1-.12.19-.25.27-.39.08-.13.14-.26.2-.4.06-.14.16-.24.29-.3.05-.02.13-.04.25-.06s.23-.02.34,0c.11,0,.22.02.32.03s.17.04.21.08c.13.09.16.24.09.44-.1.34-.23.65-.4.91-.25.41-.54.74-.87,1-.32.26-.73.47-1.23.64-.13.05-.25.09-.38.1-.13.02-.26.04-.4.07-.06.01-.12.02-.18.02s-.12,0-.18.02h-.19c-.06.01-.14.02-.22.02s-.15,0-.2-.02h-.17c-.06-.01-.12-.02-.17-.02s-.1,0-.15-.02c-.06-.01-.13-.02-.21-.03-.08,0-.15-.02-.21-.03-.11-.03-.23-.05-.34-.09-.11-.03-.22-.07-.32-.1-.05-.03-.1-.04-.13-.05-.04,0-.08-.02-.13-.05-.19-.09-.39-.2-.61-.32-.37-.24-.68-.54-.94-.88-.26-.35-.48-.74-.66-1.17-.06-.14-.11-.29-.14-.44-.03-.15-.07-.3-.12-.46-.01-.05-.02-.09-.02-.13s0-.09-.02-.15c-.03-.1-.04-.21-.06-.32-.01-.11-.03-.23-.06-.34v-.27s-.02-.12-.03-.22c0-.1,0-.17,0-.24v-.21c.03-.06.03-.13.03-.2,0-.07,0-.14,0-.2.05-.2.09-.41.12-.61.03-.2.09-.39.16-.57.06-.14.12-.28.18-.43.06-.15.12-.29.2-.43.28-.44.59-.83.95-1.15.35-.32.79-.59,1.31-.81.15-.06.31-.11.47-.14.16-.03.33-.07.5-.1.06-.01.12-.02.17-.03s.11,0,.17,0c.03-.01.06-.01.1,0s.07,0,.09-.02c.53-.01.99.04,1.39.16s.75.28,1.06.48c.06.03.11.06.15.1.04.04.08.08.13.1.1.08.21.17.31.27.11.1.2.2.28.3.2.27.37.52.51.76.09.14.16.29.21.46.05.17.11.33.17.49.06.17.11.34.14.51.03.18.07.36.12.53.01.09.02.18.03.27,0,.09.02.18.03.27ZM337.41,26.58s.07-.12.09-.2.03-.17,0-.26c-.08-.28-.18-.54-.32-.78-.18-.29-.37-.54-.59-.74s-.49-.37-.84-.51c-.09-.03-.18-.05-.27-.07-.09-.02-.18-.04-.29-.07-.1-.02-.21-.04-.32-.04h-.32s-.08.04-.13.03c-.05,0-.09,0-.13,0-.1.03-.2.05-.29.07-.09.02-.19.04-.28.07-.37.15-.66.34-.88.57-.22.23-.42.51-.6.86-.04.06-.08.14-.11.24s-.07.2-.09.31-.03.22-.02.32.06.18.13.23c.1.08.28.11.52.1.25,0,.46,0,.64,0h2.89c.19,0,.42,0,.68,0,.27,0,.44-.04.53-.14Z"/>
        </g>
        <g>
          <path class="cls-3" d="M52.03,25.25c0,12.5-10.13,22.63-22.63,22.63h0c-12.5,0-22.63-10.13-22.63-22.63h0C6.78,12.76,16.91,2.63,29.41,2.63h0c12.5,0,22.63,10.13,22.63,22.63h0Z"/>
          <path class="cls-2" d="M32.67,23.17l9.15-9.79h-3.48l-7.18,7.68-5.5-7.68h-9.51l9.62,13.44-9.62,10.29h3.48l7.66-8.19,5.86,8.19h9.51l-9.99-13.95ZM21.05,15.9h3.31l13.39,18.7h-3.31l-13.39-18.7Z"/>
        </g>
      </g>
    </g>
  </g>
</svg>