<?xml version="1.0" standalone="no"?>
<!DOCTYPE svg PUBLIC "-//W3C//DTD SVG 20010904//EN"
 "http://www.w3.org/TR/2001/REC-SVG-20010904/DTD/svg10.dtd">
<svg version="1.0" xmlns="http://www.w3.org/2000/svg"
 width="381.000000pt" height="381.000000pt" viewBox="0 0 381.000000 381.000000"
 preserveAspectRatio="xMidYMid meet">
<metadata>
Created by potrace 1.14, written by Peter Selinger 2001-2017
</metadata>
<g transform="translate(0.000000,381.000000) scale(0.100000,-0.100000)"
fill="#000000" stroke="none">
<path d="M1988 3773 c-65 -107 -167 -184 -400 -301 -97 -49 -198 -105 -225
-125 -154 -113 -208 -255 -144 -377 l19 -38 -56 -11 c-118 -24 -267 -107 -362
-202 -113 -113 -150 -303 -90 -461 l20 -52 -59 -60 c-119 -125 -170 -232 -179
-377 -6 -115 11 -205 59 -306 129 -271 443 -417 1027 -478 74 -7 136 -16 138
-18 3 -3 -3 -92 -12 -198 -12 -136 -15 -252 -12 -389 3 -107 2 -204 -2 -215
-4 -11 -35 -36 -69 -55 -48 -26 -61 -39 -59 -55 3 -19 10 -20 110 -20 104 0
108 1 135 28 l28 28 -3 257 c-3 228 3 369 24 565 6 54 8 57 34 57 23 0 27 -4
23 -19 -9 -36 17 -526 33 -612 36 -194 34 -202 -41 -255 -41 -28 -55 -43 -53
-58 3 -20 9 -21 83 -18 158 6 197 46 177 181 -36 230 -51 387 -57 572 l-7 206
34 6 c18 3 65 9 103 12 184 16 417 61 549 106 313 107 485 273 531 513 39 205
-11 374 -156 527 l-70 74 20 60 c53 163 23 328 -80 440 -88 95 -238 184 -358
213 l-70 16 15 28 c40 77 32 190 -19 267 -31 47 -112 116 -193 164 -58 35 -62
40 -69 84 -17 112 -113 243 -223 301 -33 18 -62 32 -65 32 -3 0 -16 -17 -29
-37z"/>
</g>
</svg>
